<svg version="1.1" id="Layer_1" xmlns="http://www.w3.org/2000/svg" x="0" y="0" viewBox="380 170 800 360" xml:space="preserve"><style>.st0 {
      display: none;
      fill: #999;
    }
    .st3 {
      fill: none;
    }
    .st4 {
      fill: #999;
    }</style><path class="st4" d="M610.5 165.39c133.17-113.6 321.75-113.84 434-4.93-5.02-7.15-10.39-14.14-16.17-20.9C919.25 11.69 716.85 5.28 576.24 125.22s-166.17 320.84-57.09 448.7c5.77 6.77 11.82 13.17 18.09 19.26-89.86-128.01-59.9-314.19 73.26-427.79z"/><circle class="st4" cx="788.14" cy="344.67" r="184.76"/><path class="st4" d="M962.05 510.44c-128.17 119.2-316.57 127.52-433.39 23.53 5.32 6.93 10.99 13.68 17.05 20.19C660.17 677.23 862.66 674.96 998 549.1s152.26-327.66 37.81-450.73a283.126 283.126 0 0 0-18.9-18.46c95.26 124.03 73.31 311.33-54.86 430.53z"/><path class="st3" d="M179 355h1150v89.07H179z"/></svg>