<svg xmlns="http://www.w3.org/2000/svg" width="1920" viewBox="0 0 1440 810" height="1080" version="1.0"><defs><clipPath id="a"><path d="M294.941 7.043h799.02v795.914H294.94Zm0 0"/></clipPath><clipPath id="b"><path d="M333.191 7.043h721.965c21.125 0 38.25 17.129 38.25 38.25v719.414c0 21.125-17.125 38.25-38.25 38.25H333.191c-21.125 0-38.25-17.125-38.25-38.25V45.293c0-21.121 17.125-38.25 38.25-38.25Zm0 0"/></clipPath><clipPath id="c"><path d="M796.484 113.586h154.5v177h-154.5Zm0 0"/></clipPath><clipPath id="d"><path d="M675.176 305.98h117.75v124.5h-117.75Zm0 0"/></clipPath><clipPath id="e"><path d="M817.332 414h133.5v201.746h-133.5Zm0 0"/></clipPath><clipPath id="f"><path d="M424.387 540H619v76H424.387Zm0 0"/></clipPath><clipPath id="g"><path d="M424.387 477H470v68h-45.613Zm0 0"/></clipPath><clipPath id="h"><path d="M394.797 96.414h256.117v271.969H394.797Zm0 0"/></clipPath></defs><g clip-path="url(#a)"><g clip-path="url(#b)"><path fill="#0e332c" d="M294.941 7.043h799.02v795.914H294.94Zm0 0"/></g></g><g clip-path="url(#c)"><path fill="#c7dd60" d="M950.637 159.48c0-1.02-.543-1.964-1.426-2.472l-74.219-42.852a2.848 2.848 0 0 0-2.855 0l-48.078 27.758c-.004 0-.004.004-.008.004l-26.125 15.086c-.004.004-.008.004-.012.004a2.25 2.25 0 0 0-.316.215 2.848 2.848 0 0 0-1.114 2.261c0 .024.004.043.004.063l-.004 85.64c0 1.02.543 1.961 1.426 2.473l74.223 42.852a2.82 2.82 0 0 0 1.426.383c.492 0 .988-.13 1.43-.383l74.222-42.852a2.857 2.857 0 0 0 1.426-2.472Zm-30.461 19.23v11.974l-17.082 9.867v-11.973Zm-94.633-31.058 68.508 39.551-20.489 11.828-68.507-39.55Zm23.273-13.437 68.508 39.55-17.566 10.141-68.504-39.55Zm24.743-14.285 68.507 39.55-19.035 10.993-68.508-39.559Zm-71.36 44.504 68.508 39.546v79.114l-68.512-39.551Zm74.219 118.656v-79.113l20.969-12.106v13.621a2.848 2.848 0 0 0 2.851 2.856 2.86 2.86 0 0 0 1.426-.383l22.797-13.156a2.861 2.861 0 0 0 1.43-2.473v-16.918l19.035-10.992.004 79.113Zm34.191-59.473a2.848 2.848 0 0 0-2.855 0l-21.762 12.563a2.861 2.861 0 0 0-1.43 2.472v25.133a2.861 2.861 0 0 0 2.856 2.856 2.86 2.86 0 0 0 1.426-.383l21.765-12.57a2.848 2.848 0 0 0 1.426-2.473v-25.13a2.85 2.85 0 0 0-1.426-2.468Zm-20.336 35.223V240.3l16.051-9.265v18.535Zm-62.62-12.219a2.85 2.85 0 0 1-3.903 1.047l-14.809-8.55a2.857 2.857 0 0 1-1.046-3.903 2.85 2.85 0 0 1 3.898-1.043l14.809 8.55a2.854 2.854 0 0 1 1.05 3.9Zm0 0"/></g><g clip-path="url(#d)"><path fill="#c7dd60" d="m793.145 428.64-16.97-121.019a1.784 1.784 0 0 0-1.59-1.629c-.062-.004-.12-.008-.183-.008h-80.445a1.79 1.79 0 0 0-1.61 1.02l-9.75 20.656a1.783 1.783 0 0 0 1.559 2.645H689l-13.785 98.336a1.783 1.783 0 0 0 1.742 2.152l80.363-.004c.028 0 .055.004.082.004h33.996a1.784 1.784 0 0 0 1.747-2.152Zm-18.743-12.62 12.387 11.21h-24.773Zm-14.558 8.39 12.777-91.125v79.563Zm16.34-11.562v-79.563l12.773 91.125Zm-81.098-103.301h76.508l-8.117 17.195h-76.508Zm-2.492 20.762 72.008-.004c.668 0 1.304-.375 1.613-1.02l4.805-10.176-15.16 108.121h-76.856Zm58.816 13.906-45.18.004c-.875 0-1.64.644-1.761 1.535l-7.895 56.316a1.783 1.783 0 0 0 1.742 2.152l45.184-.003c.871 0 1.637-.645 1.762-1.535l7.894-56.313a1.97 1.97 0 0 0 .035-.375c0-.98-.796-1.781-1.78-1.781Zm-9.46 56.441h-41.59l7.413-52.875h41.59Zm0 0"/></g><path fill="#c7dd60" d="M853.2 526.559h19.75c1.062 0 1.921-.86 1.921-1.926v-19.746h18.137v19.746c0 1.066.86 1.926 1.922 1.926h19.75v18.136h-19.75a1.92 1.92 0 0 0-1.922 1.922v19.75H874.87v-19.75a1.92 1.92 0 0 0-1.922-1.922H853.2Zm-1.923 21.984h19.746v19.746c0 1.063.86 1.922 1.926 1.922h21.98c1.067 0 1.91-.86 1.91-1.922v-19.746h19.763a1.924 1.924 0 0 0 1.921-1.926v-21.984a1.92 1.92 0 0 0-1.921-1.922H896.84v-19.746a1.911 1.911 0 0 0-1.91-1.926h-21.98a1.925 1.925 0 0 0-1.927 1.926v19.746h-19.746a1.92 1.92 0 0 0-1.922 1.922v21.984c0 1.063.86 1.926 1.922 1.926"/><g clip-path="url(#e)"><path fill="#c7dd60" d="M925.703 611.191H842.16c-11.57 0-20.98-9.41-20.98-20.996v-8.726H946.7v8.726c0 11.586-9.41 20.996-20.997 20.996Zm20.95-117.578v84.028H821.226v-84.028ZM842.16 460.06h83.543c11.586 0 20.996 9.414 20.996 20.984v8.727H821.18v-8.727c0-11.57 9.41-20.984 20.981-20.984Zm-6.972-20.856v-16.246a4.201 4.201 0 0 1 4.207-4.207h89.09a4.209 4.209 0 0 1 4.206 4.207v16.246a4.219 4.219 0 0 1-4.207 4.207h-89.09a4.211 4.211 0 0 1-4.207-4.207Zm8.007 8.05h81.477v8.962h-81.477Zm85.32 9.134v-9.149c4.426-.015 8.024-3.61 8.024-8.035v-16.246c0-4.441-3.613-8.05-8.055-8.05h-89.09c-4.44 0-8.05 3.609-8.05 8.05v16.246c0 4.426 3.593 8.02 8.004 8.035v9.149c-12.368 1.406-22.016 11.914-22.016 24.656v109.152c0 13.711 11.133 24.844 24.828 24.844h83.543c13.695 0 24.844-11.133 24.844-24.844V481.043c0-12.742-9.664-23.25-22.031-24.656"/></g><g clip-path="url(#f)"><path fill="#c7dd60" d="M616.473 615.953H426.629c-1.234 0-2.234-1-2.234-2.234v-70.996c0-1.235 1-2.235 2.234-2.235h189.844c1.23 0 2.23 1 2.23 2.235v70.996c0 1.234-1 2.234-2.23 2.234Zm-187.61-4.465h185.375v-66.531H428.863Zm0 0"/></g><path fill="#c7dd60" d="M497.922 481.676h-21.39a2.233 2.233 0 1 1 0-4.465h21.39a2.233 2.233 0 1 1 0 4.465Zm0 0"/><g clip-path="url(#g)"><path fill="#c7dd60" d="M426.629 544.953c-1.234 0-2.234-1-2.234-2.234v-63.274c0-1.234 1-2.234 2.234-2.234h40.695a2.233 2.233 0 1 1 0 4.465h-38.46v61.043c0 1.234-1 2.234-2.235 2.234Zm0 0"/></g><path fill="#c7dd60" d="M616.473 544.953c-1.235 0-2.235-1-2.235-2.234v-61.043h-32.52a2.233 2.233 0 1 1 0-4.465h34.755c1.23 0 2.23 1 2.23 2.234v63.274c0 1.234-1 2.234-2.23 2.234Zm-43.981-63.277h-40.047a2.233 2.233 0 0 1-.004-4.465h40.051a2.233 2.233 0 0 1 0 4.465Zm-62.558 17.864H476.53a2.233 2.233 0 1 1 0-4.465h33.403a2.233 2.233 0 1 1 0 4.464Zm-42.61 0h-22.832a2.233 2.233 0 1 1 0-4.465h22.832a2.233 2.233 0 1 1 0 4.464Zm0 0"/><path fill="#c7dd60" d="M598.61 499.54h-20.563a2.233 2.233 0 1 1 0-4.465h20.562a2.232 2.232 0 0 1 0 4.464Zm-29.79 0h-48.386a2.233 2.233 0 0 1 0-4.466h48.386a2.233 2.233 0 1 1 0 4.465Zm-27.976 80.913H499.94c-1.23 0-2.23-1-2.23-2.23v-17.75c0-1.235 1-2.235 2.23-2.235h40.903c1.234 0 2.234 1 2.234 2.235v17.75c0 1.23-1 2.23-2.234 2.23Zm-38.668-4.465h36.433v-13.281h-36.433Zm-57.684-31.031c-1.234 0-2.234-1-2.234-2.234V479.44a2.234 2.234 0 1 1 4.469 0v63.282c0 1.234-1 2.234-2.235 2.234Zm0 0"/><path fill="#c7dd60" d="M598.61 544.957c-1.235 0-2.235-1-2.235-2.234V479.44c0-1.234 1-2.234 2.234-2.234 1.235 0 2.23 1 2.23 2.234v63.282c0 1.234-1 2.234-2.23 2.234Zm-68.172-.004a2.228 2.228 0 0 1-1.965-1.168c-1.852-3.402-5.028-6.027-8.715-7.195a2.24 2.24 0 0 1-1.559-2.13v-40.292c0-.977.633-1.836 1.559-2.129a15.27 15.27 0 0 0 8.715-7.2 15.175 15.175 0 0 0 1.836-7.226 15.07 15.07 0 0 0-7.641-13.152v13.152c0 1.235-1 2.235-2.234 2.235h-10.5c-1.235 0-2.235-1-2.235-2.235v-13.152c-4.672 2.644-7.64 7.605-7.64 13.152 0 2.524.632 5.02 1.832 7.223a15.05 15.05 0 0 0 8.714 7.2 2.236 2.236 0 0 1 1.56 2.132v40.293c0 .973-.63 1.832-1.56 2.129a15.039 15.039 0 0 0-8.71 7.195 2.238 2.238 0 0 1-3.032.899 2.236 2.236 0 0 1-.894-3.032 19.505 19.505 0 0 1 9.73-8.754V495.73a19.495 19.495 0 0 1-9.73-8.757 19.609 19.609 0 0 1-2.38-9.356c0-8.582 5.493-16.09 13.669-18.676a2.237 2.237 0 0 1 1.992.325c.574.421.914 1.09.914 1.804v14.313h6.035V461.07a2.227 2.227 0 0 1 2.906-2.129c8.176 2.59 13.668 10.094 13.668 18.676a19.6 19.6 0 0 1-2.378 9.36 19.481 19.481 0 0 1-9.727 8.753v37.168a19.495 19.495 0 0 1 9.73 8.758 2.234 2.234 0 0 1-1.96 3.297Zm-45.204.004c-1.234 0-2.234-1-2.234-2.234v-11.078h-22.148v11.078a2.233 2.233 0 1 1-4.465 0v-13.309c0-1.234 1-2.234 2.234-2.234h26.613c1.23 0 2.23 1 2.23 2.234v13.309c0 1.234-1 2.234-2.23 2.234Zm0 0"/><path fill="#c7dd60" d="M480.672 531.645h-17.485c-1.234 0-2.234-1-2.234-2.235v-8.324c0-1.234 1-2.234 2.235-2.234h17.484c1.23 0 2.23 1 2.23 2.234v8.324c0 1.235-1 2.235-2.23 2.235Zm-15.254-4.465h13.02v-3.864h-13.02Zm0 0"/><path fill="#c7dd60" d="M485.234 523.316h-26.613c-1.234 0-2.234-1-2.234-2.23v-9.399c0-1.23 1-2.23 2.234-2.23h26.613c1.235 0 2.235 1 2.235 2.23v9.399c0 1.23-1 2.23-2.235 2.23Zm-24.379-4.464h22.149v-4.93h-22.149Zm6.645 26.105c-1.234 0-2.234-1-2.234-2.234v-13.309a2.234 2.234 0 1 1 4.468 0v13.309c0 1.234-1 2.234-2.234 2.234Zm8.86 0c-1.235 0-2.235-1-2.235-2.234v-13.309a2.233 2.233 0 1 1 4.465 0v13.309c0 1.234-1 2.234-2.23 2.234Zm0 0"/><path fill="#c7dd60" d="M476.531 513.922c-1.234 0-2.234-1-2.234-2.235v-55.804c0-.317.066-.63.195-.918l2.617-5.824-2.363-8.387h-5.637l-2.363 8.387 2.617 5.824c.13.289.196.601.196.918v55.805a2.234 2.234 0 1 1-4.47 0v-55.329l-2.75-6.132a2.238 2.238 0 0 1-.112-1.52l3.043-10.793a2.238 2.238 0 0 1 2.152-1.625h9.015c1 0 1.88.664 2.149 1.625l3.043 10.793a2.214 2.214 0 0 1-.11 1.52l-2.753 6.132v55.329c0 1.234-1 2.234-2.235 2.234Zm92.196 31.031a2.233 2.233 0 0 1-2.191-2.684l14.804-72.085-4.48-.918-15.176 73.902a2.235 2.235 0 0 1-2.637 1.742 2.231 2.231 0 0 1-1.738-2.637l15.625-76.093a2.233 2.233 0 0 1 2.636-1.739l8.856 1.817c.582.12 1.09.465 1.414.96a2.21 2.21 0 0 1 .324 1.677l-15.254 74.273a2.228 2.228 0 0 1-2.183 1.785Zm0 0"/><path fill="#c7dd60" d="M588.543 471.617c-.148 0-.3-.015-.45-.043l-17.984-3.695a2.231 2.231 0 0 1-1.78-2.23l.194-10.352c-3.246-1.297-13.28-4.238-28.804.86a2.238 2.238 0 0 1-2.844-2.75 2.22 2.22 0 0 1 .434-1.071c4.464-5.953 10.488-10.383 17.894-13.164 8.047-3.02 16.824-3.684 25.383-1.926l23.234 4.774a4.41 4.41 0 0 1 4.848-2.41l8.758 1.8a4.393 4.393 0 0 1 3.414 5.184l-3.695 18.008a4.365 4.365 0 0 1-1.887 2.78 4.352 4.352 0 0 1-3.301.634l-8.754-1.797a4.392 4.392 0 0 1-3.508-4.121l-7.078-1.453-1.887 9.187a2.254 2.254 0 0 1-.957 1.418 2.236 2.236 0 0 1-1.23.367Zm-15.715-7.742 13.977 2.871 1.886-9.187c.121-.582.465-1.09.961-1.414a2.222 2.222 0 0 1 1.68-.325l11.328 2.328a2.233 2.233 0 0 1 1.738 2.637l-.222 1.074 8.61 1.766 3.667-17.855-8.61-1.77-.218 1.078a2.244 2.244 0 0 1-.96 1.418 2.224 2.224 0 0 1-1.677.32l-25.3-5.195c-7.735-1.59-15.657-.988-22.915 1.734-4.273 1.606-8.023 3.817-11.207 6.606 16.59-3.457 25.895 1.73 26.332 1.984a2.236 2.236 0 0 1 1.118 1.977Zm-40.285 17.801h-.098a2.233 2.233 0 1 1 0-4.465h.098a2.233 2.233 0 1 1 0 4.465Zm0 0"/><g clip-path="url(#h)"><path fill="#c7dd60" d="M486.309 108.902c-2.153-2.515-4.215-4.968-6.32-7.39-.88-1.008-1.938-1.477-3.286-.809-1.351.672-1.887 1.766-1.562 3.184.699 3.074 1.484 6.133 2.27 9.343l8.898-4.328Zm-46.844 148.813c-.969-6-2.164-12.13-2.895-18.313-.726-6.172-.98-12.398-1.468-18.925-13.543 9.832-21.649 23.3-26.938 39.007 10.43-4.535 20.77-3.093 31.3-1.77Zm131.785 54.031-61.469-142.73c-1.972.937-3.75 1.785-5.758 2.738 21.079 47.203 42.098 94.277 63.235 141.613 1.39-.566 2.566-1.043 3.992-1.62Zm72.324-164.082c-10.457-7.52-48.926-10.207-60.742-4.16 12.813 7.648 24.547 16.539 35.898 26.46 6.774-9.316 14.754-16.972 24.844-22.3Zm-77.426 172.34c.247.672.582 1.625.957 2.566 2.973 7.48 5.891 14.977 8.942 22.426 2.293 5.594 5.582 10.547 10.238 14.488 5.445 4.61 11.637 6.145 18.543 4.153 6.113-1.766 11.735-4.602 16.664-8.63 8.649-7.066 10.446-15.925 5.235-25.87-.997-1.907-2.477-3.625-4-5.164-1.137-1.153-2.707-1.157-4.082-.059s-1.172 2.344-.582 3.828c2.609 6.547 2.699 12.95-1.68 18.848-4.797 6.457-15.633 8.808-21.875 4.762-3.442-2.23-5.63-5.582-7.164-9.274-3.45-8.258-6.723-16.586-10.063-24.89-.242-.598-.468-1.2-.644-1.665a10537.81 10537.81 0 0 1-10.489 4.48ZM485.23 181.988c-.457.285-.84 1.352-.675 1.864 5.418 16.675 11.293 33.171 19.375 48.789.203.394.465.757 1.117 1.8.246-.625.32-1.03.535-1.332 3.922-5.48 8.633-10.191 13.992-14.257.903-.684 1.403-1.227.817-2.524-6.356-14.078-12.633-28.187-18.934-42.285-.156-.352-.348-.68-.762-1.477-5.3 3.207-10.418 6.262-15.465 9.422Zm46.32 29.364c10.59-5.157 21.712-7.59 33.79-7.97-2.5-3.538-4.695-6.788-7.028-9.94-8.292-11.204-17.671-21.391-28.355-30.372-1.3-1.093-2.418-1.3-3.996-.675-4.281 1.683-8.629 3.207-13.348 4.94 6.352 14.763 12.598 29.278 18.938 44.017Zm74.2-48.743c-8.238-5.855-16.633-11.488-24.945-17.242-1.075-.742-2.059-.89-3.23-.238a659.542 659.542 0 0 1-11.083 6.027c-1.004.535-2.066 1.043-3.164 1.324-9.871 2.5-19.75 4.942-29.625 7.418-.726.18-1.422.47-2.523.844 14.297 11.903 25.988 25.606 36.039 40.867 11.281-18.05 29.16-25.293 48.922-30.554-3.668-3.004-6.871-5.946-10.391-8.446Zm-133.426 29.989c-4.68 4.566-8.394 9.84-11.21 15.77-.415.866-1.618 1.726-2.583 1.902-6.926 1.25-13.328 3.808-19.265 7.52-.637.398-1.075 1.565-1.11 2.398-.402 8.859.606 17.617 2.047 26.335.602 3.633 1.328 7.243 2.043 11.114 2.645-1.973 4.984-3.793 7.402-5.496 6.747-4.743 13.606-9.336 21.25-12.508 9.266-3.84 19.04-4.871 28.993-4.586a32.53 32.53 0 0 0 1.746.012c.097-.004.195-.141.422-.32-8.407-16.005-14.375-33.028-20.266-50.645-3.352 2.992-6.523 5.629-9.469 8.504Zm166.188-51.528c-.657-.55-1.29-1.129-1.973-1.644-12.848-9.754-26.086-18.922-41.254-24.742-21.742-8.344-44.23-12.7-67.613-11.754-7.149.289-14.254.902-21.129 3.058-1.223.387-2.398.918-3.625 1.59 12.05 3.5 23.227 8.734 33.64 15.598 10.419 6.863 19.477 15.246 27.477 24.793 23.692-15.34 48.75-13.942 74.477-6.899Zm-180.684-8.722c-.918.648-1.582 1.09-2.215 1.566-12.363 9.29-22.172 20.828-30.203 33.988-6.797 11.141-13.46 22.344-18.41 34.461-5.766 14.114-9.148 28.73-8.09 44.047.34 4.918 1.902 9.758 2.953 14.625.14.664.524 1.277.957 2.293 8.563-28.379 24.309-49.414 54.215-56.957-5.922-24.582-3.215-49.098.793-74.023Zm84.024-2.18c-12.204-9.309-25.614-16.191-40.504-20.086-1.844-.48-3.606-.293-5.5-.129-6.512.563-12.11 3.414-17.453 6.672-5.383 3.281-10.434 7.121-15.493 10.902-1.011.758-1.773 2.282-2.015 3.57-3.871 20.419-6.012 40.958-3.692 61.747.356 3.152 1.051 6.265 1.602 9.394.055.297.25.567.36.805 2.238-3.07 4.28-6.227 6.675-9.098 8.332-9.988 18.902-17.105 30.305-23.062 18.527-9.684 38.261-15.98 58.586-20.563 2.07-.468 4.148-.902 6.574-1.425-5.934-7.211-12.36-13.32-19.445-18.727Zm-33.985 106.586c-1.328 2.086-2.726 2.559-5.07 2.39-11.688-.835-23.172.204-33.774 5.614-9.03 4.61-17.437 10.258-25.234 16.785-.766.64-2.219 1.203-3.047.922-7.71-2.672-15.62-2.34-23.531-1.719-4.762.375-8.473 2.535-10.484 7.207-1.211 2.809-3.77 2.977-5.622.535-.5-.664-.863-1.445-1.23-2.199-3.484-7.137-4.93-14.746-5.066-22.625-.27-16.262 3.593-31.633 10.125-46.422 4.808-10.89 10.867-21.094 17.05-31.238 7.114-11.66 15.555-22.203 26.055-31.004 3.082-2.582 6.73-4.602 9.406-7.527 3.895-4.258 8.41-7.461 13.383-10.2 3.16-1.746 3.172-2.043 2.25-5.593-.71-2.754-1.45-5.524-1.844-8.332-.398-2.852 1.215-4.868 3.641-6.11 2.465-1.258 4.984-1.144 7.059.82 1.593 1.504 2.976 3.243 4.39 4.926 3.211 3.82 5.074 4.422 9.844 2.922 1.543-.484 3.008-1.215 4.543-1.73 3.434-1.156 6.816-2.668 10.351-3.293 19.051-3.371 38.047-2.38 56.868 1.699 11.476 2.488 22.816 5.559 33.582 10.434 11.945 5.414 22.902 12.468 33.347 20.312 5.13 3.852 10 8.059 14.887 12.223 1.793 1.531 1.477 3.008-.586 3.87-11.176 4.688-19.726 12.563-26.734 22.231-1.317 1.817-2.77 2.766-4.942 3.25-11.675 2.614-22.804 6.637-32.664 13.614-6.054 4.285-11.347 9.347-14.472 16.222-.868 1.91-1.91 2.57-3.957 2.578-10.98.036-21.52 2.22-31.559 6.766-1.387.629-1.629 1.156-1 2.594 5.617 12.906 11.145 25.855 16.711 38.785 7.414 17.223 14.863 34.434 22.227 51.676.671 1.57 1.37 2.508 3.218 2.222 1.907-.293 2.93.649 3.563 2.48 1.633 4.724 3.277 9.446 5.215 14.048a369.264 369.264 0 0 0 8.343 18.41c1.246 2.555 3.504 4.36 6.38 5.058 7.12 1.72 15.25-3.753 16.265-10.984.441-3.137.047-6.187-1.27-9.133-1.558-3.488-.945-6.265 1.684-8.383 2.64-2.125 6.258-2.355 8.941.07 2.063 1.868 3.91 4.192 5.188 6.66 5.719 11.06 3.781 21.657-5.309 29.575-5.61 4.887-12.117 8.293-19.265 10.277-7.758 2.149-14.895.622-21.258-4.398-4.637-3.652-8.25-8.2-10.563-13.539-4.23-9.754-8.007-19.71-12.101-29.527-.883-2.118-.742-3.758 1.004-5.18.941-.77.894-1.492.43-2.535-11.723-26.172-23.407-52.363-35.102-78.547-1.793-4.012-3.602-8.016-5.524-12.297-5.93 4.5-10.941 9.379-14.742 15.34"/></g><path d="m649.362 703.983-2.781-9.25h-13.969l-2.781 9.25h-5.125l11.812-36.844h6.422l11.766 36.844Zm-15.516-13.375h11.5l-5.718-19.25Zm31.874 14.016c-1.824 0-3.261-.543-4.312-1.625-1.055-1.094-1.578-2.618-1.578-4.578v-33.97l4.922-.577v34.437c0 .781.129 1.356.39 1.719.27.355.727.531 1.375.531.676 0 1.282-.11 1.813-.328l1.281 3.422c-1.168.644-2.465.969-3.89.969Zm24.277-1.922c-1.855 1.281-3.96 1.922-6.312 1.922-2.398 0-4.262-.68-5.594-2.047-1.336-1.375-2-3.363-2-5.969v-17.016h-4.922v-3.796h4.922v-6.36l4.922-.594v6.954h6.688l-.547 3.796h-6.14v16.797c0 1.461.253 2.524.765 3.188.52.656 1.383.984 2.593.984 1.102 0 2.352-.375 3.75-1.125Zm26.367-13.641c0 .824-.04 1.664-.11 2.516h-17.968c.207 3.105.988 5.387 2.343 6.844 1.352 1.46 3.102 2.187 5.25 2.187 1.352 0 2.598-.191 3.735-.578 1.144-.395 2.343-1.02 3.593-1.875l2.141 2.937c-3 2.356-6.281 3.532-9.844 3.532-3.93 0-6.992-1.282-9.187-3.844-2.188-2.57-3.281-6.102-3.281-10.594 0-2.926.472-5.52 1.421-7.781.946-2.27 2.301-4.047 4.063-5.328 1.758-1.281 3.836-1.922 6.234-1.922 3.739 0 6.61 1.23 8.61 3.687 2 2.461 3 5.868 3 10.22Zm-4.875-1.437c0-2.782-.555-4.899-1.657-6.36-1.105-1.468-2.761-2.203-4.968-2.203-4.032 0-6.227 2.961-6.578 8.875h13.203Zm18.345 17c-1.824 0-3.261-.543-4.312-1.625-1.055-1.094-1.578-2.618-1.578-4.578v-33.97l4.922-.577v34.437c0 .781.129 1.356.39 1.719.27.355.727.531 1.375.531.676 0 1.281-.11 1.813-.328l1.281 3.422c-1.168.644-2.465.969-3.89.969Zm31.34-15.563c0 .824-.04 1.664-.11 2.516h-17.968c.207 3.105.988 5.387 2.343 6.844 1.352 1.46 3.102 2.187 5.25 2.187 1.352 0 2.598-.191 3.735-.578 1.144-.395 2.343-1.02 3.593-1.875l2.141 2.937c-3 2.356-6.281 3.532-9.844 3.532-3.93 0-6.992-1.282-9.187-3.844-2.188-2.57-3.281-6.102-3.281-10.594 0-2.926.472-5.52 1.421-7.781.946-2.27 2.301-4.047 4.063-5.328 1.758-1.281 3.836-1.922 6.234-1.922 3.739 0 6.61 1.23 8.61 3.687 2 2.461 3 5.868 3 10.22Zm-4.875-1.437c0-2.782-.555-4.899-1.657-6.36-1.105-1.468-2.761-2.203-4.968-2.203-4.032 0-6.227 2.961-6.578 8.875h13.203Zm0 0" fill="#c7dd60"/></svg>