<svg xmlns="http://www.w3.org/2000/svg" width="1920" viewBox="0 0 1440 810" height="1080" version="1.0" xmlns:xlink="http://www.w3.org/1999/xlink"><defs><path d="m445.504 81 225.27 80.578-57.59 161.008-225.274-80.574Zm0 0" id="a"/></defs><defs><clipPath id="b"><path d="M294.941 7.043h799.02v795.914H294.94Zm0 0"/></clipPath><clipPath id="c"><path d="M333.191 7.043h721.965c21.125 0 38.25 17.125 38.25 38.25v719.414c0 21.125-17.125 38.25-38.25 38.25H333.191c-21.125 0-38.25-17.125-38.25-38.25V45.293c0-21.125 17.125-38.25 38.25-38.25Zm0 0"/></clipPath><clipPath id="d"><path d="M833 102.48h103V206H833Zm0 0"/></clipPath><clipPath id="e"><path d="M833 102.48h69V171h-69Zm0 0"/></clipPath><clipPath id="f"><path d="M766.582 159H879v112.98H766.582Zm0 0"/></clipPath><clipPath id="g"><path d="M537 203h118v46H537Zm0 0"/></clipPath><clipPath id="h"><use xlink:href="#a"/></clipPath><clipPath id="i"><use xlink:href="#a"/></clipPath><clipPath id="j"><path d="M419 124h93v100h-93Zm0 0"/></clipPath><clipPath id="k"><use xlink:href="#a"/></clipPath><clipPath id="l"><use xlink:href="#a"/></clipPath><clipPath id="m"><path d="M430 104h228v109H430Zm0 0"/></clipPath><clipPath id="n"><use xlink:href="#a"/></clipPath><clipPath id="o"><use xlink:href="#a"/></clipPath><clipPath id="p"><path d="M500 196h48v41h-48Zm0 0"/></clipPath><clipPath id="q"><use xlink:href="#a"/></clipPath><clipPath id="r"><use xlink:href="#a"/></clipPath><clipPath id="s"><path d="M482 228h56v57h-56Zm0 0"/></clipPath><clipPath id="t"><use xlink:href="#a"/></clipPath><clipPath id="u"><use xlink:href="#a"/></clipPath><clipPath id="v"><path d="M511 213h18v31h-18Zm0 0"/></clipPath><clipPath id="w"><use xlink:href="#a"/></clipPath><clipPath id="x"><use xlink:href="#a"/></clipPath><clipPath id="y"><path d="M596 472h16.496v3H596Zm0 0"/></clipPath><clipPath id="z"><path d="M445.996 472H463v3h-17.004Zm0 0"/></clipPath></defs><g clip-path="url(#b)"><g clip-path="url(#c)"><path fill="#0e332c" d="M294.941 7.043h799.02v795.914H294.94Zm0 0"/></g></g><g clip-path="url(#d)"><path fill="#c7dd60" d="M884.414 108.523c-12.11 0-23.484 4.711-32.043 13.278-8.566 8.558-13.277 19.933-13.277 32.043 0 24.988 20.336 45.32 45.32 45.32s45.32-20.332 45.32-45.32c0-12.11-4.707-23.485-13.277-32.043-8.555-8.567-19.934-13.278-32.043-13.278Zm0 96.684c-28.324 0-51.363-23.035-51.363-51.363 0-13.723 5.347-26.614 15.05-36.324 9.7-9.692 22.587-15.04 36.313-15.04 13.727 0 26.613 5.348 36.328 15.04 9.692 9.71 15.035 22.601 15.035 36.324 0 28.328-23.035 51.363-51.363 51.363"/></g><g clip-path="url(#e)"><path fill="#c7dd60" d="M855.371 170.523c-6.207 0-11.781-1.937-15.828-5.984-4.332-4.355-6.445-10.648-5.996-17.738l6.031.187c-.351 5.617 1.121 10.149 4.238 13.29 8.239 8.214 25.504 4.378 38.473-8.571 12.938-12.957 16.774-30.223 8.547-38.473-3.14-3.117-7.66-4.578-13.078-4.226l-.281-3.008v-3.023c6.984-.434 13.277 1.664 17.62 5.984 10.587 10.61 6.75 31.703-8.534 47.031-9.477 9.453-21.149 14.531-31.192 14.531"/></g><path fill="#c7dd60" d="M906 123.512a27.36 27.36 0 0 0-1.063-5.133l5.786-1.793a34.798 34.798 0 0 1 1.285 6.266Zm5.36 11.863-5.926-1.191a35.78 35.78 0 0 0 .687-5.348l6.04.332c-.106 2.027-.388 4.117-.802 6.207Zm-3.895 11.707-5.477-2.562a51.757 51.757 0 0 0 2.043-5.086l5.723 1.925a55.637 55.637 0 0 1-2.29 5.723Zm-6.324 10.504-4.84-3.621a57.043 57.043 0 0 0 3.09-4.582l5.172 3.117a60.285 60.285 0 0 1-3.422 5.086Zm-8.203 9.027-4.075-4.46a56.068 56.068 0 0 0 1.973-1.887c.66-.66 1.309-1.344 1.945-2.032l4.461 4.063a67.315 67.315 0 0 1-2.133 2.242 76.514 76.514 0 0 1-2.172 2.074Zm-9.786 7.332-3.14-5.172a52.287 52.287 0 0 0 4.582-3.09l3.633 4.84a64.14 64.14 0 0 1-5.075 3.422Zm-11.129 5.215-1.937-5.734a47.864 47.864 0 0 0 5.078-2.043l2.57 5.465a56.735 56.735 0 0 1-5.71 2.312Zm-18.507 2.278a34.571 34.571 0 0 1-6.266-1.262l1.758-5.781c1.64.492 3.363.847 5.148 1.035Zm6.304.144-.343-6.031a37.757 37.757 0 0 0 5.359-.7l1.191 5.915c-2.09.425-4.18.707-6.207.816"/><path fill="#c7dd60" d="M858.816 193.617c-2.312 0-4.578-.176-6.808-.531l.46-2.879-.015-3.117h.04c.152 0 .316.012.468.039 14.918 2.383 32.695-4.64 46.394-18.344 13.704-13.7 20.727-31.476 18.34-46.394a3.156 3.156 0 0 1-.035-.47l3.117-.023 2.88-.46c2.69 16.792-4.981 36.574-20.028 51.62-13.055 13.055-29.684 20.56-44.813 20.56"/><g clip-path="url(#f)"><path fill="#c7dd60" d="M796.797 165.93c-2.926 0-3.766 1.582-5.442 6.09-1.015 2.703-2.148 5.773-4.507 8.132-2.36 2.36-5.43 3.493-8.133 4.508-4.508 1.676-6.09 2.516-6.09 5.442 0 7.445 5.512 8.543 14.602 9.476 4.906.496 9.144.934 11.707 3.492l36.254 36.258c2.562 2.563 3 6.797 3.496 11.707.93 9.09 2.027 14.602 9.476 14.602 2.926 0 3.766-1.582 5.442-6.09 1.011-2.703 2.144-5.774 4.507-8.133 2.36-2.36 5.43-3.496 8.13-4.508 4.511-1.676 6.09-2.515 6.09-5.441 0-7.45-5.513-8.547-14.599-9.477-4.91-.496-9.148-.933-11.707-3.496l-36.257-36.254c-2.559-2.562-2.996-6.8-3.493-11.707-.933-9.09-2.03-14.601-9.476-14.601Zm51.363 105.746c-13.445 0-14.672-12.047-15.484-20.028-.32-3.113-.711-7.007-1.758-8.046l-36.258-36.258c-1.039-1.051-4.933-1.442-8.05-1.758-7.977-.816-20.028-2.043-20.028-15.484 0-7.387 5.797-9.536 10.031-11.106 2.34-.875 4.535-1.687 5.961-3.117 1.43-1.426 2.242-3.621 3.117-5.961 1.57-4.234 3.715-10.031 11.106-10.031 13.441 0 14.668 12.05 15.484 20.027.317 3.117.707 7.012 1.758 8.05l36.258 36.259c1.035 1.05 4.93 1.437 8.047 1.757 7.98.813 20.027 2.04 20.027 15.485 0 7.387-5.793 9.535-10.031 11.105-2.336.871-4.531 1.688-5.961 3.118-1.426 1.425-2.242 3.62-3.113 5.957-1.57 4.238-3.72 10.03-11.106 10.03"/></g><g clip-path="url(#g)"><g clip-path="url(#h)"><g clip-path="url(#i)"><path fill="#c7dd60" d="M550.488 212.992a9.354 9.354 0 0 1-.523 2.465l-6.492 18.148a8.667 8.667 0 0 1-.547 1.235c50.355 14.11 92.433 12.582 98.488-3.774.094-.25.234-.476.406-.668l5.203-14.554c-1.441.941-3.062 1.793-4.859 2.554-6.992 2.965-16.441 4.504-28.082 4.575-17.918.105-40.398-3.434-63.594-9.98ZM538.75 237.91a2.052 2.052 0 0 1-.652-3.488 5.23 5.23 0 0 0 1.511-2.2l6.493-18.148a5.17 5.17 0 0 0 .074-3.293 2.061 2.061 0 0 1 .5-2.043 2.058 2.058 0 0 1 2.039-.527c23.855 6.976 47.055 10.762 65.34 10.656 11.097-.066 20.015-1.496 26.504-4.246 5.402-2.293 8.84-5.418 10.226-9.289a2.055 2.055 0 0 1 2.625-1.242 2.058 2.058 0 0 1 1.242 2.625l-9.234 25.808a1.96 1.96 0 0 1-.465.743c-3.976 9.25-16.496 14.511-36.293 15.234-19.164.7-43.95-3.043-69.793-10.55-.043-.012-.082-.028-.117-.04"/></g></g></g><g clip-path="url(#j)"><g clip-path="url(#k)"><g clip-path="url(#l)"><path fill="#c7dd60" d="m424.156 153.402-.027.067Zm-.027.067v.004Zm.34-.918c.008.254-.028.512-.117.758-5.864 16.484 25.691 44.394 73.718 65.484a8.82 8.82 0 0 1 .36-1.297l6.492-18.152a9.317 9.317 0 0 1 1.172-2.258c-23.059-10.094-43.25-22.137-57.098-34.082-8.058-6.953-13.785-13.664-17.035-19.953a30.715 30.715 0 0 1-2.098-5.059Zm74.886 71.27c-.039-.016-.078-.028-.117-.048-24.8-10.613-46.375-23.464-60.746-36.187-14.789-13.09-21.094-25.07-18.308-34.715a2.08 2.08 0 0 1 .113-.871l.008-.023 9.52-25.704a2.055 2.055 0 0 1 2.616-1.222l.012.004a2.056 2.056 0 0 1 1.23 2.62c-1.367 3.829-.722 8.368 1.926 13.493 3.008 5.82 8.41 12.121 16.07 18.727 14.094 12.16 34.985 24.457 58.825 34.628.695.297 1.172.95 1.238 1.704.07.753-.281 1.48-.914 1.894a5.24 5.24 0 0 0-2.043 2.606l-6.492 18.152a5.242 5.242 0 0 0-.223 2.656 2.066 2.066 0 0 1-.75 1.961 2.06 2.06 0 0 1-1.965.324"/></g></g></g><g clip-path="url(#m)"><g clip-path="url(#n)"><g clip-path="url(#o)"><path fill="#c7dd60" d="M549.059 146.977c30.949 11.07 58.222 25.574 76.793 40.84 8.543 7.023 14.742 13.82 18.464 20.234 4.438-2.207 7.309-5.063 8.543-8.52 3.207-8.965-4.898-21.988-22.238-35.722-18.172-14.395-44.316-28.098-73.625-38.579-29.305-10.484-58.207-16.472-81.383-16.867-22.12-.379-36.648 4.551-39.855 13.516-1.219 3.402-.84 7.375 1.125 11.82 6.918-2.543 15.949-3.84 26.898-3.851 24.04-.028 54.324 6.058 85.278 17.129Zm93.683 65.664a2.046 2.046 0 0 1-1.133-.989c-3.261-6.32-9.613-13.464-18.367-20.66-17.949-14.762-45.492-29.394-75.566-40.148-30.078-10.758-60.653-16.914-83.895-16.887-11.219.008-20.601 1.477-27.12 4.242a2.057 2.057 0 0 1-2.626-.945c-3.187-6.18-3.91-11.816-2.144-16.758 3.894-10.887 19.445-16.652 43.789-16.238 23.613.402 52.984 6.476 82.699 17.105 29.719 10.63 56.277 24.563 74.789 39.227 19.086 15.117 27.453 29.437 23.559 40.324-1.79 5-5.989 8.93-12.489 11.688a2.064 2.064 0 0 1-1.496.039"/></g></g></g><g clip-path="url(#p)"><g clip-path="url(#q)"><g clip-path="url(#r)"><path fill="#c7dd60" d="m526.07 229.684 7.864 2.812a2.172 2.172 0 0 0 2.777-1.309l6.492-18.152a2.174 2.174 0 0 0-1.316-2.773l-27.426-9.809a2.174 2.174 0 0 0-2.774 1.309l-6.492 18.152a2.17 2.17 0 0 0 1.313 2.774l7.867 2.812 1.2-3.36a9.173 9.173 0 0 1-.497-7.292c1.695-4.743 6.934-7.223 11.68-5.528 4.742 1.7 7.222 6.938 5.523 11.684a9.173 9.173 0 0 1-5.011 5.32Zm6.48 6.68-9.796-3.505a2.052 2.052 0 0 1-1.242-2.625l2.218-6.203a2.05 2.05 0 0 1 1.356-1.277 5.07 5.07 0 0 0 3.332-3.133 5.041 5.041 0 0 0-3.043-6.434 5.041 5.041 0 0 0-6.434 3.043 5.07 5.07 0 0 0 .586 4.536c.371.543.461 1.23.239 1.847l-2.22 6.203a2.05 2.05 0 0 1-2.624 1.243l-9.797-3.504a6.288 6.288 0 0 1-3.797-8.024l6.492-18.152c1.164-3.254 4.766-4.957 8.024-3.793l27.426 9.812c3.257 1.165 4.96 4.766 3.796 8.02l-6.492 18.152c-1.164 3.258-4.765 4.957-8.023 3.793"/></g></g></g><g clip-path="url(#s)"><g clip-path="url(#t)"><g clip-path="url(#u)"><path fill="#c7dd60" d="M511.016 232.41c-10.278-.437-19.942 5.95-23.457 15.774-4.422 12.363 2.039 26.023 14.406 30.445 12.367 4.426 26.027-2.04 30.45-14.402 3.515-9.82.093-20.891-8.13-27.07a9.184 9.184 0 0 1 .012 6.175c-1.7 4.742-6.938 7.223-11.684 5.523-4.742-1.695-7.222-6.933-5.523-11.68a9.162 9.162 0 0 1 3.926-4.765Zm-10.434 50.086c-14.496-5.187-22.074-21.2-16.89-35.695a27.993 27.993 0 0 1 11.812-14.469 28.046 28.046 0 0 1 19.543-3.59 2.07 2.07 0 0 1 1.406.996c.297.52.356 1.149.152 1.715l-.964 2.695a2.05 2.05 0 0 1-1.356 1.278 5.047 5.047 0 0 0-3.328 3.133 5.036 5.036 0 0 0 3.04 6.433 5.041 5.041 0 0 0 6.433-3.043 5.057 5.057 0 0 0-.586-4.535 2.046 2.046 0 0 1-.239-1.848l.965-2.695a2.068 2.068 0 0 1 1.203-1.23 2.053 2.053 0 0 1 1.72.125c.448.246.894.511 1.37.808 5.297 3.328 9.371 8.43 11.461 14.36a27.983 27.983 0 0 1-.043 18.675c-5.187 14.496-21.203 22.07-35.699 16.887"/></g></g></g><g clip-path="url(#v)"><g clip-path="url(#w)"><g clip-path="url(#x)"><path fill="#c7dd60" d="M523.66 217.973a.569.569 0 0 0-.722.34l-7.262 20.3a.567.567 0 0 0 1.07.38l7.262-20.298a.57.57 0 0 0-.348-.722Zm-9.023 25.23a4.678 4.678 0 0 1-2.824-5.973l7.257-20.3a4.68 4.68 0 0 1 5.973-2.82 4.674 4.674 0 0 1 2.828 5.968l-7.262 20.297a4.679 4.679 0 0 1-5.972 2.828"/></g></g></g><path fill="#c7dd60" d="M761.773 432.348c4.38 0 7.938-5.762 7.938-12.856 0-7.113-3.559-12.875-7.938-12.875-4.382 0-7.941 5.762-7.941 12.875 0 7.094 3.559 12.856 7.941 12.856m-49.21 0c4.378 0 7.937-5.762 7.937-12.856 0-7.113-3.559-12.875-7.938-12.875-4.382 0-7.94 5.762-7.94 12.875 0 7.094 3.558 12.856 7.94 12.856"/><path fill="#c7dd60" d="M644.938 444.645c6.382 6.093 12.964 12.386 15.144 18.945 1.469 4.445 4.246 5.246 6.027 5.246.532 0 1-.086 1.29-.152 3.511-.782 7.78-5.407 11.917-11.856 1.422 5.227 4.891 9.832 9.696 13.254.957 13.543 4.18 26.352 10.14 39.293l12.387 82.035c-4.36 4.824-9.25 11.45-6.871 16.899 1.977 4.535 7.937 6.648 18.789 6.648 6.625 0 11.43-1.621 14.742-4.937 5.696-5.692 5.672-14.989 5.649-25.75v-10.497l5.828 17.836c-4.317 4.825-9.031 11.34-6.696 16.7 1.957 4.535 7.942 6.648 18.793 6.648 6.602 0 11.43-1.621 14.743-4.937 5.668-5.692 5.668-14.989 5.648-25.75v-15.32c9.45 1.468 37.8 4.734 67.867-2.09l5.469 24.636c-4.36 4.828-9.16 11.41-6.805 16.813 1.957 4.535 7.942 6.648 18.793 6.648 6.602 0 11.43-1.621 14.742-4.937 5.668-5.692 5.668-14.989 5.649-25.75l-.422-25.418c.598.289 1.133.535 1.555.734l7.07 31.91c-4.336 4.828-9.16 11.41-6.805 16.813 1.98 4.535 7.942 6.648 18.793 6.648 6.625 0 11.453-1.621 14.742-4.937 5.692-5.692 5.672-14.989 5.672-25.75l-.023-18.524c0-.379-.066-.777-.223-1.11-.133-.269-12.297-27.284-12.297-58.038 0-11.364-3.113-21.993-8.472-31.133 6.316 3.137 14.343 5.89 23.039 5.89 8.648 0 16.633-2.753 23.68-8.183 11.5-8.828 17.992-19.7 19.304-32.332 2.688-26.328-18.012-50.7-18.879-51.723a2.759 2.759 0 0 0-3.047-.754 2.708 2.708 0 0 0-1.734 2.621c.066 1.204.11 2.403.176 3.625.668 13.543 1.336 27.575-15.074 46.211-10.008 11.383-30.489 13.075-41.829 13.075-3.449 0-6.027-.157-7.16-.247-9.363-5.668-20.347-8.914-32.066-8.914h-24.863c0-.023 0-.023.023-.023 9.45-9.008 19.211-18.324 16.7-30.086-3.848-17.879-35.626-68.871-44.762-71.781-8.63-2.758-18.926 5.402-22.993 9.07-10.277-6.672-24.996-10.473-40.808-10.473-15.922 0-30.684 3.825-40.961 10.563-4.133-3.715-14.586-11.984-23.235-9.227-9.117 2.91-40.918 53.903-44.742 71.782-2.535 11.761 7.25 21.078 16.7 30.086Zm93.507 139.625c0 9.585.024 17.835-4.07 21.925-2.246 2.246-5.805 3.336-10.918 3.336-11.473 0-13.477-2.578-13.832-3.379-.422-.98-.602-4.093 6.781-12.03.559-.602.801-1.423.692-2.247l-10.317-68.246c7.805 12.832 18.367 26.086 32.11 40.605-.29.446-.446.957-.446 1.512Zm139.961 21.925c-2.246 2.246-5.828 3.336-10.918 3.336-11.476 0-13.5-2.578-13.832-3.379-.422-.98-.625-4.093 6.758-12.03a2.624 2.624 0 0 0 .668-2.423l-5.781-26.129c8.761-2.336 17.59-5.582 26.062-10.05.223.132.422.265.621.375l.489 26.687v1.688c0 9.585.023 17.835-4.067 21.925ZM939 444.398c15.613-17.722 16.992-32.066 16.633-44.695 5.785 8.762 14.12 24.57 12.453 40.606-1.133 11.074-6.914 20.68-17.188 28.574-6.093 4.691-12.964 7.047-20.39 7.047-17.59 0-32.89-13.23-33.047-13.364-.043-.043-.086-.066-.133-.109l-.11-.09a57.703 57.703 0 0 0-3.402-3.07c12.387-.067 33.977-2.18 45.184-14.899Zm-85.121 5.739a56.548 56.548 0 0 1 29.46 8.25c0 .023 0 .023.024.043l10.34 8.074c10.387 10.226 16.813 24.414 16.813 40.094 0 29.886 10.718 55.57 12.543 59.726v17.946c.02 9.585.02 17.835-4.07 21.925-2.247 2.246-5.805 3.336-10.919 3.336-11.453 0-13.476-2.578-13.832-3.379-.422-.98-.601-4.093 6.782-12.03a2.742 2.742 0 0 0 .668-2.423l-7.672-34.648a2.775 2.775 0 0 0-1.692-1.934c-.332-.133-34.82-13.765-35.246-46.453-.02-1.488-1.242-2.644-2.734-2.668a2.726 2.726 0 0 0-2.692 2.734c.29 21.504 13.59 35.47 24.528 43.364-37.535 18.367-82.742 13.074-93.727 11.406 1.867-14.387 4.957-23.371 4.98-23.46a2.696 2.696 0 0 0-1.667-3.446c-1.403-.489-2.957.246-3.446 1.644-.156.446-3.691 10.676-5.562 27.219v18.813c0 9.585.023 17.835-4.067 21.925-2.246 2.246-5.828 3.336-10.918 3.336-11.476 0-13.476-2.578-13.832-3.379-.421-.98-.625-4.093 6.758-12.03a2.66 2.66 0 0 0 .602-2.692l-8.63-26.528a3.032 3.032 0 0 0-.644-1.047c-33.043-34.109-48.21-60.75-51.3-90.546 4.312 1.89 9.25 2.957 14.5 2.957 1.445 0 2.867-.114 4.289-.27v5.805c0 18.86 10.609 34.222 23.64 34.222 13.051 0 23.66-15.363 23.66-34.222v-5.735c1.2.11 2.403.2 3.625.2 14.743 0 27.082-8.473 29.996-19.746 4.18 6.648 8.563 11.406 12.141 12.23.29.066.735.133 1.29.133 1.757 0 4.538-.778 6.007-5.25 1.531-4.625 5.27-9.117 9.582-13.496Zm-119.414 15.41v29.687c0 1.489 1.2 2.688 2.691 2.688 1.512 0 2.711-1.2 2.711-2.688v-28.91c3.871 4.203 9.297 7.293 15.543 8.828v6.649c0 15.879-8.18 28.797-18.254 28.797-10.05 0-18.234-12.918-18.234-28.797v-6.805c6.336-1.687 11.785-5.023 15.543-9.45Zm-3.27-14.164-7.515-7.516c-1.067-1.07-1.403-1.824-1.489-2.137.266-.156 1.043-.445 2.555-.445h23.484c1.512 0 2.29.29 2.555.445-.066.313-.398 1.067-1.488 2.137l-7.492 7.516c-1.36 1.355-3.16 2.11-5.07 2.18a1.571 1.571 0 0 0-.47 0c-1.913-.07-3.714-.825-5.07-2.18Zm-97.664-35.692c3.867-18.078 35.114-65.82 41.094-67.757 6.18-1.957 16.098 6.16 19.414 9.472a.345.345 0 0 1 .086.067c.066.047.137.113.203.156.11.09.2.156.309.2.066.046.113.07.18.089.132.09.288.133.464.18.024 0 .047.023.067.023.468.11.957.086 1.402-.07h.023c.29-.086.555-.223.801-.399 9.274-6.761 24.059-10.785 39.602-10.785 15.457 0 30.222 4.004 39.515 10.719.133.09.27.176.403.223.023.02.043.043.09.043.109.066.242.113.375.132.046.024.09.047.136.047.11.02.22.043.332.043.067 0 .133.024.176.024.113 0 .203-.024.313-.024.066 0 .156 0 .222-.023.09-.02.157-.043.246-.067.086-.02.176-.043.266-.086.066-.023.11-.046.18-.07.11-.066.199-.11.289-.176.043-.023.086-.043.133-.09.109-.066.199-.156.308-.242l.024-.023c3.246-3.246 12.988-11.274 19.148-9.297 6.004 1.938 37.223 49.68 41.113 67.758 1.867 8.805-6.402 16.676-15.164 25.039-6.847 6.539-13.941 13.297-16.543 21.148-.426 1.266-.8 1.532-.8 1.532-.223.046-1.293-.29-3.114-2.11-9.14-9.097-21.816-38.762-20.258-51.367 2.024-16.277 5.825-28.754 5.868-28.867.425-1.422-.375-2.957-1.801-3.38-1.422-.444-2.957.356-3.38 1.782-.179.531-3.956 13.027-6.046 29.797-1.09 8.781 3.336 23.77 9.406 36.512.688 1.781 1.067 3.668 1.067 5.582 0 10.695-11.32 19.414-25.239 19.414-10.543 0-19.949-5.16-23.617-12.61a12.744 12.744 0 0 0 4.805-3.023l7.516-7.496c3.69-3.734 3.27-6.649 2.69-8.07-.577-1.403-2.358-3.782-7.605-3.782h-23.484c-5.246 0-7.004 2.38-7.582 3.782-.601 1.421-1.023 4.359 2.691 8.07l7.516 7.496a12.553 12.553 0 0 0 5.36 3.223c-3.735 7.34-13.055 12.41-23.504 12.41-6.094 0-11.676-1.668-16.055-4.426-.067-.043-.113-.113-.18-.133-5.515-3.582-9.004-8.918-9.004-14.855 0-1.29.153-2.578.489-3.824 6.515-13.098 11.43-29.11 10.293-38.336-2.09-16.77-5.891-29.266-6.047-29.778a2.733 2.733 0 0 0-3.38-1.8c-1.445.445-2.245 1.957-1.8 3.378.043.137 3.824 12.567 5.848 28.864.89 7.093-2.735 19.57-7.696 30.754-.199.18-.355.378-.488.625a21.75 21.75 0 0 0-1.734 4.113c-3.36 6.781-7.07 12.652-10.32 15.898-1.821 1.801-2.91 2.137-3.09 2.114 0 0-.422-.247-.844-1.555-2.602-7.852-9.696-14.61-16.543-21.149-8.762-8.34-17.035-16.234-15.145-25.039m-165.746 41.84.168-.469-.21-.453c-8.462-17.937-2.505-43.504-1.095-48.87 4.215.62 20.442 3.73 30.614 15.738l.62.726.864-.422a65.74 65.74 0 0 1 9.086-3.61c.18-.062.348-.105.527-.167-.285-.348-.59-.68-.906-1.016a69.891 69.891 0 0 1 7.625-1.968c.121.394.227.8.332 1.195a72.197 72.197 0 0 1 8.84-1.184c.063 0 .137 0 .2-.011l-.274-1.23a74.76 74.76 0 0 1 5.246-.18c1.773 0 3.52.058 5.246.18l-.273 1.23c.062 0 .12 0 .199.011 2.984.215 5.957.61 8.84 1.184.105-.395.21-.8.332-1.195a69.414 69.414 0 0 1 7.629 1.968c-.32.336-.61.668-.91 1.016.18.062.363.105.53.168a67.58 67.58 0 0 1 9.067 3.61l.863.421.621-.726c10.176-12.008 26.399-15.118 30.614-15.739 1.41 5.367 7.37 30.934-1.09 48.871l-.215.454.168.468a51.783 51.783 0 0 1 2.762 14.922c.816.031 1.652.059 2.468.09a53.88 53.88 0 0 0-2.726-15.344c9.52-20.879 1.105-49.945.742-51.187l-.289-.973-1.016.09c-.836.078-20.257 2.062-32.66 16.012a67.972 67.972 0 0 0-8.55-3.336 73.658 73.658 0 0 0-7.766-2 74.503 74.503 0 0 0-9.25-1.243 79.949 79.949 0 0 0-5.336-.183 80.02 80.02 0 0 0-5.336.183c-3.11.227-6.219.637-9.234 1.243a72.327 72.327 0 0 0-7.766 2 71.461 71.461 0 0 0-8.55 3.336c-12.403-13.965-31.825-15.934-32.661-16.012l-1.016-.09-.289.973c-.363 1.242-8.777 30.308.743 51.187a53.88 53.88 0 0 0-2.727 15.344c.816-.031 1.652-.074 2.469-.09a51.744 51.744 0 0 1 2.73-14.922Zm123.653 31.449c-2.868 8.098-8.31 14.77-16.286 19.938-11.25 7.277-27.066 11.129-45.746 11.129-18.68 0-34.496-3.852-45.746-11.129-7.973-5.168-13.418-11.84-16.285-19.938-.5.243-1.016.485-1.516.727-.226.106-.453.227-.68.336 3.09 8.488 8.868 15.602 17.134 20.953.605.395 1.242.774 1.878 1.152.032-.273.063-.562.106-.832l2.441.348c-.074.59-.136 1.195-.18 1.805 11.22 5.926 25.91 9.05 42.848 9.05s31.614-3.124 42.852-9.05c-.047-.61-.106-1.23-.184-1.805l2.442-.348c.047.27.074.543.105.832a83.544 83.544 0 0 0 1.883-1.152c8.262-5.351 14.039-12.45 17.133-20.953-.227-.11-.457-.23-.684-.336-.5-.242-1.015-.484-1.515-.727Zm.683-2.109c.606.379 1.211.758 1.817 1.168.109.078.199.152.304.227 1.305-4.137 1.988-8.594 2.031-13.329-.816 0-1.652 0-2.468-.011-.047 4.242-.61 8.23-1.684 11.945Zm-125.426 0c-1.078-3.715-1.64-7.703-1.683-11.96-.82.015-1.653.015-2.473.015.063 4.73.742 9.187 2.031 13.328.106-.078.2-.152.305-.23.605-.395 1.21-.774 1.82-1.153Zm0 0"/><path fill="#c7dd60" d="M566.602 427.738c.453-.441.894-.894 1.347-1.336a36.469 36.469 0 0 1 6.02-4.504c2.125-1.316 4.398-2.41 6.718-3.347a56.487 56.487 0 0 1 3.516-1.29c.774-.241 1.547-.488 2.336-.699l-.226-1.289 1.5.942a37.89 37.89 0 0 0-1.274.348c1.121 6.488 1.82 13.054 1.746 19.62-.031 3.505-.336 6.989-.972 10.434l-.274 1.29c-.09.421-.164.863-.273 1.284-.243.836-.438 1.7-.711 2.536-.29.832-.563 1.668-.88 2.5-.32.836-.636 1.668-.94 2.503.456-.773.894-1.546 1.335-2.32.422-.789.817-1.594 1.227-2.398.379-.817.683-1.668 1.015-2.5.32-.848.563-1.715.836-2.578 1-3.473 1.516-7.067 1.758-10.66.227-3.594.153-7.204-.152-10.794a95.848 95.848 0 0 0-1.547-10.66l-.258-1.273-1.242.348a49.597 49.597 0 0 0-7.367 2.683 42.482 42.482 0 0 0-6.809 3.899c-2.125 1.53-4.11 3.257-5.808 5.23-.426.5-.82 1.016-1.227 1.516l-1.152 1.547c-.758 1.03-1.52 2.062-2.262 3.12.91-.906 1.82-1.816 2.7-2.742Zm0 0"/><path fill="#c7dd60" d="m586.313 415.258.226 1.289c.426-.121.852-.242 1.274-.348Zm-94.098 12.465 1.332 1.379c.894.925 1.789 1.836 2.715 2.746-.742-1.047-1.5-2.094-2.258-3.125-.383-.516-.762-1.032-1.152-1.547-.41-.5-.805-1.016-1.23-1.516-1.7-1.984-3.685-3.715-5.821-5.246-2.14-1.5-4.43-2.836-6.809-3.898a51.363 51.363 0 0 0-7.37-2.684l-1.243-.348-.258 1.29a89.765 89.765 0 0 0-1.5 10.675c-.289 3.578-.351 7.188-.121 10.781.242 3.594.758 7.188 1.742 10.657.258.867.547 1.73.82 2.578.333.836.665 1.683 1.016 2.504.406.804.8 1.605 1.227 2.394.441.774.879 1.547 1.336 2.32-.305-.835-.621-1.667-.942-2.503-.32-.832-.59-1.664-.879-2.5-.257-.832-.468-1.7-.715-2.532l-.543-2.578c-.62-3.441-.91-6.945-.94-10.433-.048-3.5.12-7.004.452-10.492.29-3.047.715-6.094 1.23-9.13-.425-.12-.847-.242-1.273-.347l1.5-.938-.226 1.286c.773.23 1.562.457 2.336.699 1.18.394 2.363.82 3.53 1.289 2.321.941 4.579 2.031 6.72 3.351.53.317 1.058.668 1.574 1.016.531.332 1.031.711 1.531 1.09 1.004.758 1.957 1.578 2.899 2.414.421.453.863.906 1.32 1.348Zm0 0"/><path fill="#c7dd60" d="M470.984 416.184c.426.105.852.226 1.274.347.078-.422.137-.863.226-1.289Zm22.942 195.839c-4.547-.058-9.098-.074-13.645-.09h-9.265l-2.32.016h-.575l-.457-.015a4.161 4.161 0 0 1-.879-.168 4.708 4.708 0 0 1-2.773-2.137 4.405 4.405 0 0 1-.594-1.668c-.016-.152-.031-.29-.043-.438v-.457c.027-.332.043-.652.121-.968.227-1.29.832-2.535 1.668-3.625a10.927 10.927 0 0 1 3.094-2.73 12.715 12.715 0 0 1 3.957-1.47c1.41-.289 2.863-.363 4.336-.304 1.469.078 2.926.304 4.394.62 2.93.61 5.871 1.548 8.961 2.126-2.605-1.762-5.41-3.184-8.472-4.067-1.2-.332-2.426-.59-3.688-.742l.078.078-1.758 1.743a43.544 43.544 0 0 1-1.836-1.973c-.82.031-1.62.121-2.44.258a14.917 14.917 0 0 0-4.731 1.625 12.76 12.76 0 0 0-3.883 3.273c-1.063 1.352-1.88 2.942-2.242 4.688-.11.422-.137.879-.2 1.316l-.015.715c0 .242.031.469.062.71a7.29 7.29 0 0 0 .895 2.684c.941 1.653 2.531 2.883 4.351 3.426.453.137.926.215 1.395.274l.71.047h.579l2.32.015h9.266c5.773-.015 11.566-.047 17.344-.152a5.76 5.76 0 0 1-2.079-.88 6.607 6.607 0 0 1-1.636-1.73Zm78.422-97.128.03.453c.032.578.075 1.168.122 1.73.773 8.688 5.563 16.207 10.219 23.485l.547.863c5.656 8.87 8.597 17.058 8.976 25.004.227 4.84-.441 9.57-2.047 14.465-1.898 5.761-4.96 10.796-9.097 14.996 1.152-.137 2.332-.211 3.515-.149 3.535-4.066 6.203-8.781 7.93-14.074 1.684-5.125 2.414-10.293 2.168-15.36-.39-8.398-3.457-16.964-9.367-26.214l-.547-.864c-4.488-7.023-9.113-14.285-9.84-22.382-.047-.543-.078-1.09-.121-1.653l-.031-.453a51.125 51.125 0 0 0-.2-2.61c-.773.458-1.558.895-2.363 1.321.043.5.074.969.106 1.442Zm0 0"/><path fill="#c7dd60" d="M572.074 511.664c.078.59.137 1.195.184 1.805.8-.426 1.59-.867 2.363-1.32-.031-.274-.058-.547-.105-.833Zm-94.34 84.226c-4.14-4.199-7.203-9.234-9.097-14.98-1.61-4.894-2.278-9.629-2.047-14.465.379-7.945 3.32-16.133 8.973-25.004l.546-.863c4.641-7.277 9.446-14.797 10.207-23.488.043-.559.09-1.153.122-1.727l.027-.457.094-1.422a62.633 62.633 0 0 1-2.368-1.32c-.09.863-.136 1.742-.195 2.61l-.031.453a32.207 32.207 0 0 1-.121 1.652c-.715 8.098-5.352 15.36-9.84 22.379l-.547.867c-5.898 9.246-8.96 17.828-9.371 26.215-.242 5.066.484 10.234 2.168 15.36 1.73 5.277 4.398 9.991 7.93 14.054a18.755 18.755 0 0 1 3.55.137Zm0 0"/><path fill="#c7dd60" d="m486.738 511.664-2.441-.348c-.043.27-.074.543-.106.832.774.454 1.563.895 2.368 1.32.043-.609.105-1.214.18-1.804Zm-8.929 84.305a1.781 1.781 0 0 1-.075-.078 22.423 22.423 0 0 0-3.52-.149 38 38 0 0 0 1.837 1.969Zm26.035-125.215c.453 0 .91-.09 1.332-.258 2.199-.816 3.898-3.61 4.277-7.11.059-.5.09-1.015.09-1.53 0-4.915-2.547-8.918-5.7-8.918-3.156 0-5.702 3.988-5.702 8.917 0 4.926 2.546 8.899 5.703 8.899Zm51.129 0c.453 0 .91-.09 1.332-.258 2.183-.816 3.898-3.61 4.277-7.11.059-.5.09-1.015.09-1.53 0-4.915-2.547-8.903-5.7-8.903-3.156 0-5.702 3.988-5.702 8.902 0 4.91 2.562 8.899 5.703 8.899Zm-25.067.82c2.02-.273 3.594-2.215 3.594-3.426 0-1.32-1.832-1.925-4.078-1.925-2.258 0-4.078.605-4.078 1.925 0 1.211 1.578 3.153 3.593 3.426.18-.273.348-.578.485-.91.137.316.305.621.484.91Zm-4.988 4.805a4.62 4.62 0 0 0 1.137-.137c-.016-.137-.016-.273-.016-.41 0-.285.016-.574.047-.848a4.474 4.474 0 0 0 3.047-2.82 3.29 3.29 0 0 1 .015-.559c-.074 0-.168-.015-.242-.015a5.539 5.539 0 0 1-1.5 1.574 4.502 4.502 0 0 1-2.488.758 4.49 4.49 0 0 1-2.484-.758c-.79-.531-1.489-1.316-2.004-2.484-.532 1.183-.258 2.726.62 3.851.884 1.121 2.368 1.848 3.868 1.848Zm0 0"/><path fill="#c7dd60" d="M529.406 470.648a8.574 8.574 0 0 1-.484.91c.074.016.168.016.242.016a3.01 3.01 0 0 1 .242-.926Zm.258 1.5a4.504 4.504 0 0 0 3.047 2.836c.031.274.047.563.047.848 0 .137 0 .273-.016.41.38.094.758.137 1.137.137 1.504.016 2.988-.711 3.851-1.863.88-1.137 1.153-2.668.622-3.852-.516 1.168-1.211 1.957-2 2.484a4.507 4.507 0 0 1-2.489.762 4.504 4.504 0 0 1-2.484-.762 4.974 4.974 0 0 1-1.5-1.574c-.078.016-.168.016-.246.031.047.165.047.364.031.543Zm0 0"/><path fill="#c7dd60" d="M529.648 471.59c.079 0 .168-.016.243-.031a6.894 6.894 0 0 1-.5-.91c.152.304.23.62.257.94Zm-.484 0c-.016.18-.016.379-.016.558a5.83 5.83 0 0 0 .168-.558c-.062.015-.105 0-.152 0Zm.5.558c.016-.18 0-.378-.016-.558-.043 0-.09 0-.152.015.047.18.11.364.168.543Zm0 0"/><path fill="#c7dd60" d="M529.39 470.938h.016c.016.226.047.437.09.652.047 0 .094 0 .152-.016a3.213 3.213 0 0 0-.242-.941 2.82 2.82 0 0 0-.242.941c.047 0 .09 0 .152.016.032-.2.059-.426.075-.652Zm.637 3.578a4.188 4.188 0 0 1-.62-1.137 4.39 4.39 0 0 1-.622 1.137c-.652.847-1.637 1.468-2.715 1.726.153 2.504 1.594 4.473 3.352 4.473 1.758 0 3.2-1.969 3.351-4.473-1.105-.258-2.093-.879-2.746-1.726Zm0 0"/><path fill="#c7dd60" d="M528.785 474.516c.274-.348.469-.73.621-1.137a3.778 3.778 0 0 1-.258-1.215 4.441 4.441 0 0 1-3.046 2.82 7.548 7.548 0 0 0-.047.848c0 .137 0 .273.015.41 1.078-.258 2.063-.879 2.715-1.726Zm3.925.468a4.47 4.47 0 0 1-3.046-2.836 3.95 3.95 0 0 1-.258 1.23c.153.407.364.79.621 1.138.653.847 1.641 1.468 2.715 1.726.016-.137.016-.273.016-.41a4.98 4.98 0 0 0-.047-.848Zm0 0"/><path fill="#c7dd60" d="M529.664 472.148c-.059-.18-.121-.363-.152-.543h-.211c-.047.196-.09.38-.168.56.015.41.105.82.258 1.214.168-.41.257-.82.273-1.23Zm-.274-1.21a4.446 4.446 0 0 1-.09.652h.212a5.448 5.448 0 0 1-.09-.652Zm51.614 125.031c.031-.032.047-.047.062-.078-1.046.136-2.078.32-3.078.578-3.289.879-6.308 2.351-9.082 4.23 1.653-.289 3.258-.726 4.836-1.136l2.352-.594c.789-.18 1.562-.364 2.336-.516 3.09-.652 6.304-.773 9.23.063 1.473.41 2.82 1.074 3.988 1.972 1.168.895 2.157 2.032 2.836 3.305.336.637.594 1.305.758 1.984.078.348.137.684.168 1.032.047.363.031.652 0 .972-.12 1.258-.832 2.442-1.851 3.211a4.718 4.718 0 0 1-2.652.957h-1.169l-4.926-.015h-9.87l-9.872.062h-.168a5.841 5.841 0 0 1-1.62 1.711 5.772 5.772 0 0 1-2.153.895c-.078.015-.152.03-.23.03l4.171.032 9.871.059h9.871l4.926-.012h.926l.363-.016c.5-.03 1-.11 1.489-.23a7.585 7.585 0 0 0 2.699-1.3c1.605-1.216 2.683-3.126 2.847-5.142.047-.5.032-1.03-.027-1.488a10.524 10.524 0 0 0-.246-1.394c-.226-.91-.59-1.79-1.031-2.594a12.45 12.45 0 0 0-3.606-4.063c-1.472-1.074-3.156-1.82-4.867-2.242a17.876 17.876 0 0 0-3.7-.515 47.076 47.076 0 0 1-1.835 1.968Zm0 0"/><path fill="#c7dd60" d="M581.066 595.89c-.03.032-.046.048-.062.079l1.762 1.742a45.545 45.545 0 0 0 1.832-1.969 22.593 22.593 0 0 0-3.532.149Zm-78.011-22.347-.864-3.594-.757-3.625-.653-3.636-.547-3.657-.425-3.668a73.685 73.685 0 0 0-.38-3.687 64.78 64.78 0 0 0-.437-3.7c-.152-1.226-.32-2.468-.594-3.73a39.436 39.436 0 0 0-.574 3.746 63.794 63.794 0 0 0-.183 3.762c.015 1.258.062 2.516.12 3.762l.305 3.757.426 3.747.543 3.73.684 3.715.804 3.683a111.6 111.6 0 0 0 4.442 14.422c1.469 3.805 3.137 7.535 5.035 11.13.363.09.727.179 1.074.273.79.21 1.563.453 2.305.757-2.168-4.293-4.152-8.675-5.867-13.148a128.812 128.812 0 0 1-4.457-14.039Zm0 0"/><path fill="#c7dd60" d="m528.469 608.43.695-7.157c.074-.773.152-1.546.242-2.32-.043-.406-.09-.832-.152-1.242a278.55 278.55 0 0 0-.984-7.125 314.55 314.55 0 0 0-2.457-14.164c-.485-2.348-.926-4.7-1.532-7.02-.62-2.32-1.379-4.593-2.472-6.793 0 2.457.289 4.825.652 7.172.394 2.352.883 4.672 1.273 7.02a297.552 297.552 0 0 1 2.172 14.101c.301 2.352.59 4.72.832 7.082.137 1.184.242 2.368.332 3.547l.305 3.551.305 3.547a3.01 3.01 0 0 1-.758 2.305 2.991 2.991 0 0 1-2.168 1h-25.899a3.073 3.073 0 0 1-1.746-.531 2.933 2.933 0 0 1-1.289-1.985c0-.106-.027-.2-.027-.305v-.3c.027-.247.043-.489.09-.715.09-.485.226-.953.437-1.41.41-.91 1.032-1.758 1.778-2.473 1.5-1.438 3.547-2.242 5.699-2.5 2.168-.258 4.43.015 6.625.59 2.2.61 4.367 1.488 7.035 1.273-1.164-1.363-2.574-2.21-4.105-2.832.058.106.105.211.164.317l-2.184 1.167c-.469-.835-.926-1.683-1.379-2.53-2.078-.49-4.262-.731-6.46-.49a14.067 14.067 0 0 0-3.805.942 11.34 11.34 0 0 0-3.395 2.153c-.988.91-1.836 2.02-2.426 3.277-.305.621-.515 1.305-.668 1.984-.078.352-.105.7-.152 1.047-.016.184-.016.395-.016.59 0 .2.031.395.047.594.106.789.379 1.547.8 2.215 1.626.011 3.247.043 4.884.074v2.473c-.395 0-.785.015-1.18.015.027 0 .043.012.074.012l.578.094c.196.015.407.027.575.027h22.363l3.625-.027c1.562-.032 3.11-.774 4.125-1.957.168-.184.305-.38.441-.59a5.534 5.534 0 0 1-.699-1.442 6.69 6.69 0 0 1-.195-2.261Zm0 0"/><path fill="#c7dd60" d="M498.809 612.086a402.159 402.159 0 0 0-4.883-.074 5.691 5.691 0 0 0 3.683 2.562c.395 0 .79-.015 1.184-.015v-2.473ZM510 599.715c.438.847.895 1.695 1.379 2.531l2.183-1.168c-.062-.105-.105-.21-.167-.32a20.446 20.446 0 0 0-2.305-.758 37.898 37.898 0 0 0-1.09-.285Zm48.309-25.551.8-3.684.684-3.714.547-3.73.422-3.747.304-3.762c.063-1.257.106-2.5.121-3.757a63.15 63.15 0 0 0-.18-3.762c-.136-1.258-.32-2.5-.577-3.746a35.394 35.394 0 0 0-.59 3.73c-.2 1.23-.336 2.473-.442 3.7a98.239 98.239 0 0 0-.378 3.687l-.426 3.668-.543 3.652-.653 3.64-.757 3.626-.868 3.594c-1.21 4.773-2.71 9.46-4.472 14.054a133.129 133.129 0 0 1-5.867 13.145 20.364 20.364 0 0 1 2.304-.758c.348-.105.715-.18 1.078-.273a102.423 102.423 0 0 0 5.032-11.13 112.422 112.422 0 0 0 4.46-14.433Zm0 0"/><path fill="#c7dd60" d="M555.2 614.574v-2.488l4.925-.063 4.762-.027c.41-.668.683-1.41.789-2.183.015-.2.047-.395.047-.594 0-.196 0-.395-.016-.59-.047-.348-.078-.711-.152-1.047a8.025 8.025 0 0 0-.668-1.984c-.574-1.262-1.426-2.368-2.426-3.278a11.516 11.516 0 0 0-3.395-2.152c-1.23-.5-2.52-.805-3.808-.941-2.196-.227-4.38 0-6.457.488a63.912 63.912 0 0 1-1.38 2.531l-2.183-1.168c.059-.105.106-.21.164-.32-1.53.625-2.941 1.472-4.109 2.836 2.684.215 4.84-.668 7.035-1.274 2.215-.574 4.461-.847 6.629-.59 2.168.258 4.215 1.063 5.7 2.5.741.715 1.378 1.547 1.773 2.473.215.453.351.926.441 1.41.063.242.063.485.09.711v.305c0 .105-.016.2-.027.305-.11.789-.594 1.53-1.29 1.984a3.14 3.14 0 0 1-1.124.473c-.211.043-.395.043-.622.058h-22.363l-3.55.016a2.991 2.991 0 0 1-2.169-1 3.005 3.005 0 0 1-.757-2.305l.304-3.55.305-3.548c.105-1.183.195-2.363.332-3.546.242-2.368.531-4.73.832-7.082.61-4.715 1.336-9.414 2.172-14.102.406-2.352.894-4.668 1.273-7.02.364-2.351.649-4.73.649-7.171-1.09 2.199-1.848 4.472-2.469 6.793-.605 2.32-1.047 4.668-1.531 7.02a273.831 273.831 0 0 0-2.457 14.163 269.25 269.25 0 0 0-.985 7.125c-.062.41-.109.832-.152 1.242.09.774.164 1.547.242 2.32l.696 7.157a5.708 5.708 0 0 1-.938 3.73c.137.2.29.41.438.594a5.741 5.741 0 0 0 4.125 1.953l3.625.032h22.363c.168 0 .379-.016.578-.032a11.5 11.5 0 0 1 .363-.043h-.758Zm0 0"/><path fill="#c7dd60" d="M563.266 613.707a5.473 5.473 0 0 0 1.62-1.71l-4.761.026-4.926.063v2.473l4.926.058h.758c.078-.015.152-.031.23-.031a5.403 5.403 0 0 0 2.153-.879Zm-32.918-5.277-.348-3.578-.352-3.579a116.74 116.74 0 0 0-.242-2.32c-.09.774-.168 1.547-.242 2.32l-.695 7.157a5.684 5.684 0 0 0 .938 3.73 5.45 5.45 0 0 0 .698-1.437c.243-.746.301-1.563.243-2.293Zm15.086-7.672c-.059.11-.106.215-.168.32l2.183 1.168c.473-.836.926-1.683 1.383-2.531-.367.09-.73.18-1.078.27-.805.214-1.578.472-2.32.773Zm35.632-128.352c-3.53.121-7.066.29-10.613.73 3.516.59 7.035.938 10.567 1.212 3.52.257 7.05.425 10.585.515l2.2.047c0-.2.011-.379.011-.578 0-.621-.011-1.242-.043-1.863-.699-.031-1.41-.047-2.109-.063a208.03 208.03 0 0 0-10.598 0Zm0 0"/><g clip-path="url(#y)"><path fill="#c7dd60" d="M596.273 474.926a186.6 186.6 0 0 0 5.914-.078c3.536-.106 7.067-.29 10.614-.727-3.516-.605-7.035-.941-10.567-1.215a205.31 205.31 0 0 0-5.992-.347c.016.59.031 1.183.031 1.773.016.2 0 .395 0 .594Zm0 0"/></g><path fill="#c7dd60" d="M593.816 474.316c0 .2 0 .395-.011.579.816.015 1.652.015 2.468.015 0-.2.016-.394.016-.61 0-.59-.016-1.179-.031-1.773-.817-.027-1.653-.074-2.469-.09.016.637.027 1.258.027 1.88Zm-14.054 7.266c-2.516-.668-5.078-1.137-7.703-1.262 2.367 1.11 4.73 2.078 7.066 3.094a371.003 371.003 0 0 1 6.96 3.05c1.79.817 3.58 1.653 5.352 2.516.243-.699.47-1.394.684-2.109a48.609 48.609 0 0 0-5.004-2.652 48.549 48.549 0 0 0-7.355-2.637Zm20.121 11.523c-1.684-1.851-3.61-3.43-5.64-4.84-.18.61-.395 1.2-.606 1.79 2.047 1.004 4.11 2.05 6.246 3.05Zm0 0"/><path fill="#c7dd60" d="M592.121 486.871a45.982 45.982 0 0 1-.683 2.11c.5.242 1.015.484 1.515.726.227.106.457.227.684.336.21-.594.426-1.184.605-1.79-.105-.077-.195-.151-.304-.23a121.79 121.79 0 0 0-1.817-1.152Zm-114.328-12.523c3.52-.274 7.05-.621 10.57-1.211-3.535-.442-7.082-.61-10.617-.73a191.165 191.165 0 0 0-10.582-.016c-.7.015-1.41.046-2.11.062-.011.621-.042 1.242-.042 1.863 0 .2 0 .395.015.579.727-.016 1.47-.016 2.2-.047 3.515-.075 7.035-.227 10.566-.5Zm0 0"/><g clip-path="url(#z)"><path fill="#c7dd60" d="M462.54 474.926c0-.2-.017-.395-.017-.61 0-.59.016-1.18.032-1.773-2 .09-3.989.2-5.989.348-3.52.273-7.05.625-10.57 1.214 3.535.442 7.082.606 10.613.727 1.989.078 3.961.094 5.93.094Zm0 0"/></g><path fill="#c7dd60" d="M462.54 474.926c.82 0 1.651 0 2.472-.016 0-.2-.016-.379-.016-.578 0-.621.016-1.242.047-1.863-.82.031-1.656.058-2.473.09-.015.59-.03 1.183-.03 1.773-.017.2 0 .395 0 .594Zm-3.61 18.179c2.14-1 4.203-2.046 6.25-3.05a33.31 33.31 0 0 1-.61-1.79c-2.03 1.41-3.957 2.989-5.64 4.84Zm20.758-9.691c2.335-1 4.703-1.984 7.066-3.094-2.621.125-5.184.594-7.703 1.262a46.726 46.726 0 0 0-7.352 2.637 43.699 43.699 0 0 0-5.004 2.652c.211.715.438 1.426.68 2.11a240.37 240.37 0 0 1 5.355-2.516 511.712 511.712 0 0 1 6.957-3.05Zm0 0"/><path fill="#c7dd60" d="M467.375 488.98a47.41 47.41 0 0 1-.68-2.109 54.15 54.15 0 0 0-1.82 1.168c-.105.078-.2.152-.305.227.184.609.395 1.199.61 1.789.226-.106.453-.227.68-.332.5-.258 1.015-.5 1.515-.743Zm67.004-71.949a79.36 79.36 0 0 0-4.973-.164c-1.62 0-3.289.059-4.972.164l4.972 21.684Zm0 0"/><path fill="#c7dd60" d="m534.379 417.031.273-1.226a75.24 75.24 0 0 0-10.492 0l.274 1.226a79.458 79.458 0 0 1 4.972-.164c1.625 0 3.293.059 4.973.164Zm6.871 17.469c1.168-2.7 2.578-5.246 4.11-7.672a56.987 56.987 0 0 1 5.062-6.762c.015-.015.031-.046.062-.062a70.08 70.08 0 0 0-6.96-1.774c-.032 0-.063-.015-.09-.015a63.647 63.647 0 0 0-1.547 7.34c-.442 3.015-.684 6.004-.637 8.945Zm0 0"/><path fill="#c7dd60" d="M550.469 420.02c.289-.348.59-.684.91-1.016a70.203 70.203 0 0 0-7.629-1.973c-.121.395-.227.805-.332 1.2.031 0 .059.015.09.015a66.014 66.014 0 0 1 6.96 1.774Zm-37.012 6.824c1.531 2.426 2.941 4.972 4.11 7.672.042-2.957-.2-5.946-.637-8.946a58.472 58.472 0 0 0-1.547-7.34c-.031 0-.063.016-.094.016a70.005 70.005 0 0 0-6.957 1.774c.016.015.027.046.059.062a55.462 55.462 0 0 1 5.066 6.762Zm0 0"/><path fill="#c7dd60" d="M515.398 418.23c-.109-.394-.214-.804-.336-1.199a69.217 69.217 0 0 0-7.625 1.973c.317.332.606.668.91 1.016a70.005 70.005 0 0 1 6.958-1.774c.03-.016.062-.016.093-.016Zm-58.88 285.753-2.781-9.25h-13.969l-2.781 9.25h-5.125l11.813-36.844h6.421l11.766 36.844Zm-15.515-13.375h11.5l-5.72-19.25Zm39.514-15.453c2.57 0 4.579.765 6.016 2.297 1.445 1.53 2.172 3.636 2.172 6.312v20.219h-4.922v-19.516c0-2-.375-3.41-1.125-4.234-.75-.82-1.855-1.234-3.312-1.234-1.5 0-2.825.433-3.97 1.296-1.136.856-2.202 2.086-3.202 3.688v20h-4.922v-28.188h4.234l.422 4.172c1-1.5 2.238-2.675 3.719-3.531 1.476-.852 3.11-1.281 4.89-1.281Zm22.992.64v28.188h-4.922v-28.188Zm-2.516-13.53c1.031 0 1.863.323 2.5.968.645.637.969 1.437.969 2.406 0 .961-.324 1.75-.969 2.375-.637.625-1.469.938-2.5.938-1 0-1.824-.313-2.469-.938-.636-.625-.953-1.414-.953-2.375 0-.969.317-1.77.953-2.406.645-.645 1.47-.969 2.47-.969Zm40.97 12.89c2.313 0 4.16.777 5.547 2.328 1.394 1.555 2.094 3.648 2.094 6.281v20.219h-4.907v-19.516c0-3.644-1.324-5.468-3.968-5.468-1.387 0-2.563.402-3.532 1.203-.96.804-1.992 2.062-3.093 3.78v20h-4.922v-19.515c0-3.644-1.32-5.468-3.953-5.468-1.43 0-2.625.414-3.594 1.234-.961.824-1.977 2.074-3.047 3.75v20h-4.922v-28.188h4.235l.421 4.125c2.102-3.175 4.813-4.765 8.125-4.765 1.75 0 3.239.449 4.47 1.344 1.226.886 2.112 2.132 2.655 3.734 1.102-1.633 2.32-2.89 3.657-3.766 1.332-.875 2.91-1.312 4.734-1.312Zm36.514 22.25c0 1.148.195 1.996.593 2.547.395.554.985.968 1.766 1.25l-1.125 3.422c-1.46-.18-2.637-.586-3.531-1.22-.887-.644-1.543-1.644-1.969-3-1.898 2.813-4.7 4.22-8.406 4.22-2.781 0-4.977-.782-6.578-2.344-1.606-1.57-2.407-3.625-2.407-6.156 0-3 1.079-5.301 3.235-6.907 2.156-1.601 5.21-2.406 9.172-2.406h4.328v-2.078c0-2-.48-3.426-1.438-4.281-.96-.852-2.437-1.282-4.437-1.282-2.074 0-4.606.5-7.594 1.5l-1.234-3.593c3.5-1.282 6.742-1.922 9.734-1.922 3.313 0 5.785.812 7.422 2.437 1.644 1.617 2.469 3.922 2.469 6.922Zm-11.547 3.531c2.812 0 5.02-1.46 6.625-4.39v-6.47h-3.688c-5.21 0-7.812 1.93-7.812 5.782 0 1.68.41 2.945 1.234 3.797.82.855 2.035 1.281 3.64 1.281Zm27.276 3.688c-1.824 0-3.261-.543-4.312-1.625-1.055-1.094-1.578-2.618-1.578-4.579v-33.968l4.922-.578v34.437c0 .781.129 1.356.39 1.719.27.355.727.531 1.375.531.676 0 1.282-.11 1.813-.328l1.281 3.422c-1.168.644-2.465.969-3.89.969Zm31.34-15.563c0 .824-.04 1.664-.11 2.516h-17.968c.207 3.105.988 5.386 2.343 6.843 1.352 1.461 3.102 2.188 5.25 2.188 1.352 0 2.598-.191 3.735-.578 1.144-.395 2.344-1.02 3.594-1.875l2.14 2.937c-3 2.356-6.281 3.532-9.844 3.532-3.93 0-6.992-1.282-9.187-3.844-2.188-2.57-3.281-6.102-3.281-10.594 0-2.926.472-5.52 1.422-7.781.945-2.27 2.3-4.047 4.062-5.328 1.758-1.282 3.836-1.922 6.234-1.922 3.739 0 6.61 1.23 8.61 3.687 2 2.461 3 5.867 3 10.219Zm-4.875-1.437c0-2.782-.555-4.899-1.656-6.36-1.106-1.469-2.762-2.203-4.97-2.203-4.03 0-6.226 2.961-6.577 8.875h13.203Zm48.719-23.172v39.53h-4.328l-.485-3.905c-.93 1.43-2.09 2.543-3.484 3.343-1.387.801-2.937 1.204-4.656 1.204-3.344 0-5.953-1.317-7.828-3.954-1.875-2.644-2.813-6.191-2.813-10.64 0-2.895.442-5.461 1.328-7.703.895-2.25 2.18-4.004 3.86-5.266 1.675-1.27 3.64-1.906 5.89-1.906 2.883 0 5.414 1.156 7.594 3.469v-14.75Zm-11.875 36.265c1.5 0 2.781-.343 3.844-1.031 1.07-.695 2.109-1.742 3.109-3.14v-13.797c-.93-1.207-1.918-2.125-2.969-2.75-1.054-.625-2.242-.938-3.562-.938-2.18 0-3.867.914-5.063 2.734-1.187 1.813-1.781 4.524-1.781 8.125 0 3.637.55 6.344 1.656 8.125 1.102 1.782 2.692 2.672 4.766 2.672Zm43.32-11.656c0 .824-.039 1.664-.109 2.516h-17.969c.207 3.105.988 5.386 2.344 6.843 1.352 1.461 3.102 2.188 5.25 2.188 1.352 0 2.598-.191 3.734-.578 1.145-.395 2.344-1.02 3.594-1.875l2.14 2.937c-3 2.356-6.28 3.532-9.843 3.532-3.93 0-6.992-1.282-9.188-3.844-2.187-2.57-3.28-6.102-3.28-10.594 0-2.926.472-5.52 1.421-7.781.945-2.27 2.3-4.047 4.063-5.328 1.757-1.282 3.836-1.922 6.234-1.922 3.738 0 6.61 1.23 8.61 3.687 2 2.461 3 5.867 3 10.219Zm-4.875-1.437c0-2.782-.554-4.899-1.656-6.36-1.105-1.469-2.762-2.203-4.969-2.203-4.03 0-6.226 2.961-6.578 8.875h13.203Zm37.157-12.469c1.676 0 3.207.242 4.594.719 1.394.48 2.738 1.257 4.03 2.328l-2.358 3.109c-1-.719-1.977-1.242-2.922-1.578-.938-.344-1.98-.516-3.125-.516-2.282 0-4.059.914-5.328 2.735-1.262 1.812-1.891 4.507-1.891 8.078 0 3.562.625 6.195 1.875 7.89 1.25 1.688 3.031 2.532 5.344 2.532 1.101 0 2.117-.164 3.047-.5.925-.344 1.96-.891 3.109-1.641l2.25 3.219c-2.574 2.062-5.45 3.094-8.625 3.094-3.813 0-6.82-1.282-9.016-3.844-2.187-2.57-3.28-6.125-3.28-10.656 0-2.989.5-5.602 1.5-7.844 1-2.25 2.413-4 4.25-5.25 1.831-1.25 4.015-1.875 6.546-1.875Zm25.888 0c3.957 0 7.031 1.324 9.219 3.969 2.195 2.636 3.297 6.214 3.297 10.734 0 2.93-.5 5.508-1.5 7.734-1 2.23-2.45 3.961-4.344 5.188-1.887 1.226-4.125 1.844-6.719 1.844-3.96 0-7.047-1.317-9.265-3.954-2.211-2.644-3.313-6.226-3.313-10.75 0-2.925.5-5.503 1.5-7.734 1-2.227 2.441-3.957 4.328-5.187 1.895-1.227 4.16-1.844 6.797-1.844Zm0 3.953c-4.887 0-7.328 3.605-7.328 10.812 0 7.168 2.426 10.75 7.281 10.75 4.844 0 7.266-3.601 7.266-10.812 0-7.164-2.406-10.75-7.219-10.75Zm48.931-3.953c2.313 0 4.16.777 5.547 2.328 1.395 1.555 2.094 3.648 2.094 6.281v20.219h-4.906v-19.516c0-3.644-1.325-5.468-3.97-5.468-1.386 0-2.562.402-3.53 1.203-.961.804-1.993 2.062-3.094 3.78v20h-4.922v-19.515c0-3.644-1.32-5.468-3.953-5.468-1.43 0-2.625.414-3.594 1.234-.96.824-1.976 2.074-3.047 3.75v20h-4.922v-28.188h4.235l.422 4.125c2.101-3.175 4.812-4.765 8.125-4.765 1.75 0 3.238.449 4.468 1.344 1.227.886 2.114 2.132 2.657 3.734 1.101-1.633 2.32-2.89 3.656-3.766 1.332-.875 2.91-1.312 4.734-1.312Zm30.483 0c3.593 0 6.226 1.289 7.906 3.86 1.676 2.562 2.515 6.179 2.515 10.843 0 4.43-.964 7.996-2.89 10.703-1.93 2.711-4.656 4.063-8.188 4.063-3.136 0-5.593-1.067-7.375-3.204v13.36l-4.922.594v-39.579h4.235l.375 3.797c1.031-1.425 2.273-2.52 3.734-3.281 1.469-.77 3.004-1.156 4.61-1.156Zm-1.829 25.453c4.633 0 6.954-3.582 6.954-10.75 0-7.195-2.122-10.797-6.36-10.797a6.395 6.395 0 0 0-3.812 1.234c-1.137.813-2.133 1.868-2.985 3.157v13.734c.719 1.106 1.61 1.953 2.672 2.547 1.07.586 2.25.875 3.531.875Zm39.623-3.203c0 1.148.195 1.996.593 2.547.395.554.985.968 1.766 1.25l-1.125 3.422c-1.461-.18-2.637-.586-3.531-1.22-.887-.644-1.543-1.644-1.97-3-1.898 2.813-4.698 4.22-8.405 4.22-2.782 0-4.977-.782-6.578-2.344-1.606-1.57-2.407-3.625-2.407-6.156 0-3 1.078-5.301 3.235-6.907 2.156-1.601 5.21-2.406 9.172-2.406h4.328v-2.078c0-2-.48-3.426-1.438-4.281-.96-.852-2.437-1.282-4.437-1.282-2.075 0-4.606.5-7.594 1.5l-1.234-3.593c3.5-1.282 6.742-1.922 9.734-1.922 3.312 0 5.785.812 7.422 2.437 1.644 1.617 2.469 3.922 2.469 6.922Zm-11.547 3.531c2.812 0 5.02-1.46 6.625-4.39v-6.47h-3.688c-5.21 0-7.812 1.93-7.812 5.782 0 1.68.41 2.945 1.234 3.797.82.855 2.035 1.281 3.64 1.281Zm34.917-25.781c2.57 0 4.578.765 6.016 2.297 1.445 1.53 2.171 3.636 2.171 6.312v20.219h-4.921v-19.516c0-2-.375-3.41-1.125-4.234-.75-.82-1.856-1.234-3.313-1.234-1.5 0-2.824.433-3.969 1.296-1.136.856-2.203 2.086-3.203 3.688v20h-4.922v-28.188h4.235l.422 4.172c1-1.5 2.238-2.675 3.718-3.531 1.477-.852 3.11-1.281 4.89-1.281Zm22.991.64v28.188h-4.922v-28.188Zm-2.515-13.53c1.03 0 1.863.323 2.5.968.644.637.968 1.437.968 2.406 0 .961-.324 1.75-.968 2.375-.637.625-1.47.938-2.5.938-1 0-1.825-.313-2.47-.938-.636-.625-.952-1.414-.952-2.375 0-.969.316-1.77.953-2.406.644-.645 1.469-.969 2.469-.969Zm33.969 26.796c0 .824-.039 1.664-.109 2.516H935.95c.207 3.105.989 5.386 2.344 6.843 1.352 1.461 3.102 2.188 5.25 2.188 1.352 0 2.598-.191 3.734-.578 1.145-.395 2.344-1.02 3.594-1.875l2.14 2.937c-3 2.356-6.28 3.532-9.843 3.532-3.93 0-6.992-1.282-9.187-3.844-2.188-2.57-3.282-6.102-3.282-10.594 0-2.926.473-5.52 1.422-7.781.946-2.27 2.301-4.047 4.063-5.328 1.758-1.282 3.836-1.922 6.234-1.922 3.738 0 6.61 1.23 8.61 3.687 2 2.461 3 5.867 3 10.219Zm-4.875-1.437c0-2.782-.554-4.899-1.656-6.36-1.105-1.469-2.761-2.203-4.969-2.203-4.03 0-6.226 2.961-6.578 8.875h13.203Zm0 0"/></svg>