<svg xmlns="http://www.w3.org/2000/svg" width="1920" viewBox="0 0 1440 810" height="1080" version="1.0" xmlns:xlink="http://www.w3.org/1999/xlink"><defs><path d="m720 518.32 186.031-90.785 45.39 93.016-186.026 90.785Zm0 0" id="a"/><path d="m628.762 183.738 265.86-102.68 100.245 259.567-265.863 102.676Zm0 0" id="b"/><path d="m434.113 144.605 128.414-63.492 115.344 233.293-128.414 63.492Zm0 0" id="c"/></defs><defs><clipPath id="d"><path d="M294.941 7.043h799.02v795.914H294.94Zm0 0"/></clipPath><clipPath id="e"><path d="M333.191 7.043h721.965c21.125 0 38.25 17.129 38.25 38.25v719.414c0 21.125-17.125 38.25-38.25 38.25H333.191c-21.125 0-38.25-17.125-38.25-38.25V45.293c0-21.121 17.125-38.25 38.25-38.25Zm0 0"/></clipPath><clipPath id="f"><path d="M746 471h190v117H746Zm0 0"/></clipPath><clipPath id="g"><use xlink:href="#a"/></clipPath><clipPath id="h"><use xlink:href="#a"/></clipPath><clipPath id="i"><path d="M740 461h191v117H740Zm0 0"/></clipPath><clipPath id="j"><use xlink:href="#a"/></clipPath><clipPath id="k"><use xlink:href="#a"/></clipPath><clipPath id="l"><path d="M735 450h191v117H735Zm0 0"/></clipPath><clipPath id="m"><use xlink:href="#a"/></clipPath><clipPath id="n"><use xlink:href="#a"/></clipPath><clipPath id="o"><path d="M839 536h14v14h-14Zm0 0"/></clipPath><clipPath id="p"><use xlink:href="#a"/></clipPath><clipPath id="q"><use xlink:href="#a"/></clipPath><clipPath id="r"><path d="M795 565h14v14h-14Zm0 0"/></clipPath><clipPath id="s"><use xlink:href="#a"/></clipPath><clipPath id="t"><use xlink:href="#a"/></clipPath><clipPath id="u"><path d="M890 532h14v15h-14Zm0 0"/></clipPath><clipPath id="v"><use xlink:href="#a"/></clipPath><clipPath id="w"><use xlink:href="#a"/></clipPath><clipPath id="x"><path d="M911 504h9v8h-9Zm0 0"/></clipPath><clipPath id="y"><use xlink:href="#a"/></clipPath><clipPath id="z"><use xlink:href="#a"/></clipPath><clipPath id="A"><path d="M915 481h8v8h-8Zm0 0"/></clipPath><clipPath id="B"><use xlink:href="#a"/></clipPath><clipPath id="C"><use xlink:href="#a"/></clipPath><clipPath id="D"><path d="M769 560h8v8h-8Zm0 0"/></clipPath><clipPath id="E"><use xlink:href="#a"/></clipPath><clipPath id="F"><use xlink:href="#a"/></clipPath><clipPath id="G"><path d="M834 568h8v8h-8Zm0 0"/></clipPath><clipPath id="H"><use xlink:href="#a"/></clipPath><clipPath id="I"><use xlink:href="#a"/></clipPath><clipPath id="J"><path d="M442 366.352h196V603H442Zm0 0"/></clipPath><clipPath id="K"><path d="M766 102h147v148H766Zm0 0"/></clipPath><clipPath id="L"><use xlink:href="#b"/></clipPath><clipPath id="M"><use xlink:href="#b"/></clipPath><clipPath id="N"><path d="M791 157h107v56H791Zm0 0"/></clipPath><clipPath id="O"><use xlink:href="#b"/></clipPath><clipPath id="P"><use xlink:href="#b"/></clipPath><clipPath id="Q"><path d="M793 158h105v53H793Zm0 0"/></clipPath><clipPath id="R"><use xlink:href="#b"/></clipPath><clipPath id="S"><use xlink:href="#b"/></clipPath><clipPath id="T"><path d="M814 137h88v44h-88Zm0 0"/></clipPath><clipPath id="U"><use xlink:href="#b"/></clipPath><clipPath id="V"><use xlink:href="#b"/></clipPath><clipPath id="W"><path d="M809 139h92v47h-92Zm0 0"/></clipPath><clipPath id="X"><use xlink:href="#b"/></clipPath><clipPath id="Y"><use xlink:href="#b"/></clipPath><clipPath id="Z"><path d="M824 118h84v43h-84Zm0 0"/></clipPath><clipPath id="aa"><use xlink:href="#b"/></clipPath><clipPath id="ab"><use xlink:href="#b"/></clipPath><clipPath id="ac"><path d="M821 120h85v44h-85Zm0 0"/></clipPath><clipPath id="ad"><use xlink:href="#b"/></clipPath><clipPath id="ae"><use xlink:href="#b"/></clipPath><clipPath id="af"><path d="M711 275h143v147H711Zm0 0"/></clipPath><clipPath id="ag"><use xlink:href="#b"/></clipPath><clipPath id="ah"><use xlink:href="#b"/></clipPath><clipPath id="ai"><path d="M726 311h107v57H726Zm0 0"/></clipPath><clipPath id="aj"><use xlink:href="#b"/></clipPath><clipPath id="ak"><use xlink:href="#b"/></clipPath><clipPath id="al"><path d="M726 314h104v52H726Zm0 0"/></clipPath><clipPath id="am"><use xlink:href="#b"/></clipPath><clipPath id="an"><use xlink:href="#b"/></clipPath><clipPath id="ao"><path d="M722 344h88v43h-88Zm0 0"/></clipPath><clipPath id="ap"><use xlink:href="#b"/></clipPath><clipPath id="aq"><use xlink:href="#b"/></clipPath><clipPath id="ar"><path d="M723 338h92v47h-92Zm0 0"/></clipPath><clipPath id="as"><use xlink:href="#b"/></clipPath><clipPath id="at"><use xlink:href="#b"/></clipPath><clipPath id="au"><path d="M716 363h85v43h-85Zm0 0"/></clipPath><clipPath id="av"><use xlink:href="#b"/></clipPath><clipPath id="aw"><use xlink:href="#b"/></clipPath><clipPath id="ax"><path d="M718 360h85v44h-85Zm0 0"/></clipPath><clipPath id="ay"><use xlink:href="#b"/></clipPath><clipPath id="az"><use xlink:href="#b"/></clipPath><clipPath id="aA"><path d="M883 254h18v27h-18Zm0 0"/></clipPath><clipPath id="aB"><use xlink:href="#b"/></clipPath><clipPath id="aC"><use xlink:href="#b"/></clipPath><clipPath id="aD"><path d="M884 254h16v27h-16Zm0 0"/></clipPath><clipPath id="aE"><use xlink:href="#b"/></clipPath><clipPath id="aF"><use xlink:href="#b"/></clipPath><clipPath id="aG"><path d="M885 255h15v25h-15Zm0 0"/></clipPath><clipPath id="aH"><use xlink:href="#b"/></clipPath><clipPath id="aI"><use xlink:href="#b"/></clipPath><clipPath id="aJ"><path d="M899 274h1v3h-1Zm0 0"/></clipPath><clipPath id="aK"><use xlink:href="#b"/></clipPath><clipPath id="aL"><use xlink:href="#b"/></clipPath><clipPath id="aM"><path d="M894 274h3v3h-3Zm0 0"/></clipPath><clipPath id="aN"><use xlink:href="#b"/></clipPath><clipPath id="aO"><use xlink:href="#b"/></clipPath><clipPath id="aP"><path d="M895 274h5v3h-5Zm0 0"/></clipPath><clipPath id="aQ"><use xlink:href="#b"/></clipPath><clipPath id="aR"><use xlink:href="#b"/></clipPath><clipPath id="aS"><path d="M899 273h1v1h-1Zm0 0"/></clipPath><clipPath id="aT"><use xlink:href="#b"/></clipPath><clipPath id="aU"><use xlink:href="#b"/></clipPath><clipPath id="aV"><path d="M899 273h1v2h-1Zm0 0"/></clipPath><clipPath id="aW"><use xlink:href="#b"/></clipPath><clipPath id="aX"><use xlink:href="#b"/></clipPath><clipPath id="aY"><path d="M894 272h3v3h-3Zm0 0"/></clipPath><clipPath id="aZ"><use xlink:href="#b"/></clipPath><clipPath id="ba"><use xlink:href="#b"/></clipPath><clipPath id="bb"><path d="M896 273h4v2h-4Zm0 0"/></clipPath><clipPath id="bc"><use xlink:href="#b"/></clipPath><clipPath id="bd"><use xlink:href="#b"/></clipPath><clipPath id="be"><path d="M899 269h1v5h-1Zm0 0"/></clipPath><clipPath id="bf"><use xlink:href="#b"/></clipPath><clipPath id="bg"><use xlink:href="#b"/></clipPath><clipPath id="bh"><path d="M894 269h3v5h-3Zm0 0"/></clipPath><clipPath id="bi"><use xlink:href="#b"/></clipPath><clipPath id="bj"><use xlink:href="#b"/></clipPath><clipPath id="bk"><path d="M896 269h4v5h-4Zm0 0"/></clipPath><clipPath id="bl"><use xlink:href="#b"/></clipPath><clipPath id="bm"><use xlink:href="#b"/></clipPath><clipPath id="bn"><path d="M894 269h3v3h-3Zm0 0"/></clipPath><clipPath id="bo"><use xlink:href="#b"/></clipPath><clipPath id="bp"><use xlink:href="#b"/></clipPath><clipPath id="bq"><path d="M896 268h4v4h-4Zm0 0"/></clipPath><clipPath id="br"><use xlink:href="#b"/></clipPath><clipPath id="bs"><use xlink:href="#b"/></clipPath><clipPath id="bt"><path d="M894 268h1v2h-1Zm0 0"/></clipPath><clipPath id="bu"><use xlink:href="#b"/></clipPath><clipPath id="bv"><use xlink:href="#b"/></clipPath><clipPath id="bw"><path d="M894 268h3v2h-3Zm0 0"/></clipPath><clipPath id="bx"><use xlink:href="#b"/></clipPath><clipPath id="by"><use xlink:href="#b"/></clipPath><clipPath id="bz"><path d="M896 266h4v4h-4Zm0 0"/></clipPath><clipPath id="bA"><use xlink:href="#b"/></clipPath><clipPath id="bB"><use xlink:href="#b"/></clipPath><clipPath id="bC"><path d="M894 266h3v3h-3Zm0 0"/></clipPath><clipPath id="bD"><use xlink:href="#b"/></clipPath><clipPath id="bE"><use xlink:href="#b"/></clipPath><clipPath id="bF"><path d="M899 265h1v2h-1Zm0 0"/></clipPath><clipPath id="bG"><use xlink:href="#b"/></clipPath><clipPath id="bH"><use xlink:href="#b"/></clipPath><clipPath id="bI"><path d="M896 265h4v4h-4Zm0 0"/></clipPath><clipPath id="bJ"><use xlink:href="#b"/></clipPath><clipPath id="bK"><use xlink:href="#b"/></clipPath><clipPath id="bL"><path d="M894 264h3v3h-3Zm0 0"/></clipPath><clipPath id="bM"><use xlink:href="#b"/></clipPath><clipPath id="bN"><use xlink:href="#b"/></clipPath><clipPath id="bO"><path d="M899 263h1v2h-1Zm0 0"/></clipPath><clipPath id="bP"><use xlink:href="#b"/></clipPath><clipPath id="bQ"><use xlink:href="#b"/></clipPath><clipPath id="bR"><path d="M896 263h4v4h-4Zm0 0"/></clipPath><clipPath id="bS"><use xlink:href="#b"/></clipPath><clipPath id="bT"><use xlink:href="#b"/></clipPath><clipPath id="bU"><path d="M894 262h3v4h-3Zm0 0"/></clipPath><clipPath id="bV"><use xlink:href="#b"/></clipPath><clipPath id="bW"><use xlink:href="#b"/></clipPath><clipPath id="bX"><path d="M899 261h1v3h-1Zm0 0"/></clipPath><clipPath id="bY"><use xlink:href="#b"/></clipPath><clipPath id="bZ"><use xlink:href="#b"/></clipPath><clipPath id="ca"><path d="M896 261h4v5h-4Zm0 0"/></clipPath><clipPath id="cb"><use xlink:href="#b"/></clipPath><clipPath id="cc"><use xlink:href="#b"/></clipPath><clipPath id="cd"><path d="M894 260h3v4h-3Zm0 0"/></clipPath><clipPath id="ce"><use xlink:href="#b"/></clipPath><clipPath id="cf"><use xlink:href="#b"/></clipPath><clipPath id="cg"><path d="M896 260h4v4h-4Zm0 0"/></clipPath><clipPath id="ch"><use xlink:href="#b"/></clipPath><clipPath id="ci"><use xlink:href="#b"/></clipPath><clipPath id="cj"><path d="M899 261h1v1h-1Zm0 0"/></clipPath><clipPath id="ck"><use xlink:href="#b"/></clipPath><clipPath id="cl"><use xlink:href="#b"/></clipPath><clipPath id="cm"><path d="M894 258h3v5h-3Zm0 0"/></clipPath><clipPath id="cn"><use xlink:href="#b"/></clipPath><clipPath id="co"><use xlink:href="#b"/></clipPath><clipPath id="cp"><path d="M898 258h2v3h-2Zm0 0"/></clipPath><clipPath id="cq"><use xlink:href="#b"/></clipPath><clipPath id="cr"><use xlink:href="#b"/></clipPath><clipPath id="cs"><path d="M895 258h5v5h-5Zm0 0"/></clipPath><clipPath id="ct"><use xlink:href="#b"/></clipPath><clipPath id="cu"><use xlink:href="#b"/></clipPath><clipPath id="cv"><path d="M853 310h26v26h-26Zm0 0"/></clipPath><clipPath id="cw"><use xlink:href="#b"/></clipPath><clipPath id="cx"><use xlink:href="#b"/></clipPath><clipPath id="cy"><path d="M853 311h25v24h-25Zm0 0"/></clipPath><clipPath id="cz"><use xlink:href="#b"/></clipPath><clipPath id="cA"><use xlink:href="#b"/></clipPath><clipPath id="cB"><path d="M854 312h24v23h-24Zm0 0"/></clipPath><clipPath id="cC"><use xlink:href="#b"/></clipPath><clipPath id="cD"><use xlink:href="#b"/></clipPath><clipPath id="cE"><path d="M863 332h4v3h-4Zm0 0"/></clipPath><clipPath id="cF"><use xlink:href="#b"/></clipPath><clipPath id="cG"><use xlink:href="#b"/></clipPath><clipPath id="cH"><path d="M860 329h4v3h-4Zm0 0"/></clipPath><clipPath id="cI"><use xlink:href="#b"/></clipPath><clipPath id="cJ"><use xlink:href="#b"/></clipPath><clipPath id="cK"><path d="M861 331h6v4h-6Zm0 0"/></clipPath><clipPath id="cL"><use xlink:href="#b"/></clipPath><clipPath id="cM"><use xlink:href="#b"/></clipPath><clipPath id="cN"><path d="M862 328h2v2h-2Zm0 0"/></clipPath><clipPath id="cO"><use xlink:href="#b"/></clipPath><clipPath id="cP"><use xlink:href="#b"/></clipPath><clipPath id="cQ"><path d="M866 332h1v1h-1Zm0 0"/></clipPath><clipPath id="cR"><use xlink:href="#b"/></clipPath><clipPath id="cS"><use xlink:href="#b"/></clipPath><clipPath id="cT"><path d="M862 328h3v4h-3Zm0 0"/></clipPath><clipPath id="cU"><use xlink:href="#b"/></clipPath><clipPath id="cV"><use xlink:href="#b"/></clipPath><clipPath id="cW"><path d="M863 330h4v4h-4Zm0 0"/></clipPath><clipPath id="cX"><use xlink:href="#b"/></clipPath><clipPath id="cY"><use xlink:href="#b"/></clipPath><clipPath id="cZ"><path d="M867 331h1v1h-1Zm0 0"/></clipPath><clipPath id="da"><use xlink:href="#b"/></clipPath><clipPath id="db"><use xlink:href="#b"/></clipPath><clipPath id="dc"><path d="M866 331h2v2h-2Zm0 0"/></clipPath><clipPath id="dd"><use xlink:href="#b"/></clipPath><clipPath id="de"><use xlink:href="#b"/></clipPath><clipPath id="df"><path d="M863 327h3v4h-3Zm0 0"/></clipPath><clipPath id="dg"><use xlink:href="#b"/></clipPath><clipPath id="dh"><use xlink:href="#b"/></clipPath><clipPath id="di"><path d="M864 329h5v4h-5Zm0 0"/></clipPath><clipPath id="dj"><use xlink:href="#b"/></clipPath><clipPath id="dk"><use xlink:href="#b"/></clipPath><clipPath id="dl"><path d="M864 326h2v2h-2Zm0 0"/></clipPath><clipPath id="dm"><use xlink:href="#b"/></clipPath><clipPath id="dn"><use xlink:href="#b"/></clipPath><clipPath id="do"><path d="M869 329h1v1h-1Zm0 0"/></clipPath><clipPath id="dp"><use xlink:href="#b"/></clipPath><clipPath id="dq"><use xlink:href="#b"/></clipPath><clipPath id="dr"><path d="M864 326h4v4h-4Zm0 0"/></clipPath><clipPath id="ds"><use xlink:href="#b"/></clipPath><clipPath id="dt"><use xlink:href="#b"/></clipPath><clipPath id="du"><path d="M865 328h5v4h-5Zm0 0"/></clipPath><clipPath id="dv"><use xlink:href="#b"/></clipPath><clipPath id="dw"><use xlink:href="#b"/></clipPath><clipPath id="dx"><path d="M870 328h2v2h-2Zm0 0"/></clipPath><clipPath id="dy"><use xlink:href="#b"/></clipPath><clipPath id="dz"><use xlink:href="#b"/></clipPath><clipPath id="dA"><path d="M865 325h4v4h-4Zm0 0"/></clipPath><clipPath id="dB"><use xlink:href="#b"/></clipPath><clipPath id="dC"><use xlink:href="#b"/></clipPath><clipPath id="dD"><path d="M867 327h5v4h-5Zm0 0"/></clipPath><clipPath id="dE"><use xlink:href="#b"/></clipPath><clipPath id="dF"><use xlink:href="#b"/></clipPath><clipPath id="dG"><path d="M871 327h2v1h-2Zm0 0"/></clipPath><clipPath id="dH"><use xlink:href="#b"/></clipPath><clipPath id="dI"><use xlink:href="#b"/></clipPath><clipPath id="dJ"><path d="M866 324h4v4h-4Zm0 0"/></clipPath><clipPath id="dK"><use xlink:href="#b"/></clipPath><clipPath id="dL"><use xlink:href="#b"/></clipPath><clipPath id="dM"><path d="M868 326h5v4h-5Zm0 0"/></clipPath><clipPath id="dN"><use xlink:href="#b"/></clipPath><clipPath id="dO"><use xlink:href="#b"/></clipPath><clipPath id="dP"><path d="M867 322h4v5h-4Zm0 0"/></clipPath><clipPath id="dQ"><use xlink:href="#b"/></clipPath><clipPath id="dR"><use xlink:href="#b"/></clipPath><clipPath id="dS"><path d="M869 325h4v4h-4Zm0 0"/></clipPath><clipPath id="dT"><use xlink:href="#b"/></clipPath><clipPath id="dU"><use xlink:href="#b"/></clipPath><clipPath id="dV"><path d="M873 326h1v1h-1Zm0 0"/></clipPath><clipPath id="dW"><use xlink:href="#b"/></clipPath><clipPath id="dX"><use xlink:href="#b"/></clipPath><clipPath id="dY"><path d="M872 326h2v2h-2Zm0 0"/></clipPath><clipPath id="dZ"><use xlink:href="#b"/></clipPath><clipPath id="ea"><use xlink:href="#b"/></clipPath><clipPath id="eb"><path d="M869 321h3v5h-3Zm0 0"/></clipPath><clipPath id="ec"><use xlink:href="#b"/></clipPath><clipPath id="ed"><use xlink:href="#b"/></clipPath><clipPath id="ee"><path d="M870 324h5v4h-5Zm0 0"/></clipPath><clipPath id="ef"><use xlink:href="#b"/></clipPath><clipPath id="eg"><use xlink:href="#b"/></clipPath><clipPath id="eh"><path d="M870 320h4v5h-4Zm0 0"/></clipPath><clipPath id="ei"><use xlink:href="#b"/></clipPath><clipPath id="ej"><use xlink:href="#b"/></clipPath><clipPath id="ek"><path d="M871 323h4v4h-4Zm0 0"/></clipPath><clipPath id="el"><use xlink:href="#b"/></clipPath><clipPath id="em"><use xlink:href="#b"/></clipPath><clipPath id="en"><path d="M875 323h1v2h-1Zm0 0"/></clipPath><clipPath id="eo"><use xlink:href="#b"/></clipPath><clipPath id="ep"><use xlink:href="#b"/></clipPath><clipPath id="eq"><path d="M874 322h4v3h-4Zm0 0"/></clipPath><clipPath id="er"><use xlink:href="#b"/></clipPath><clipPath id="es"><use xlink:href="#b"/></clipPath><clipPath id="et"><path d="M871 319h4v5h-4Zm0 0"/></clipPath><clipPath id="eu"><use xlink:href="#b"/></clipPath><clipPath id="ev"><use xlink:href="#b"/></clipPath><clipPath id="ew"><path d="M873 319h4v6h-4Zm0 0"/></clipPath><clipPath id="ex"><use xlink:href="#b"/></clipPath><clipPath id="ey"><use xlink:href="#b"/></clipPath><clipPath id="ez"><path d="M729 178h167v167H729Zm0 0"/></clipPath><clipPath id="eA"><use xlink:href="#b"/></clipPath><clipPath id="eB"><use xlink:href="#b"/></clipPath><clipPath id="eC"><path d="M732 182h160v160H732Zm0 0"/></clipPath><clipPath id="eD"><use xlink:href="#b"/></clipPath><clipPath id="eE"><use xlink:href="#b"/></clipPath><clipPath id="eF"><path d="M736 186h152v152H736Zm0 0"/></clipPath><clipPath id="eG"><use xlink:href="#b"/></clipPath><clipPath id="eH"><use xlink:href="#b"/></clipPath><clipPath id="eI"><path d="M480 98h131v254H480Zm0 0"/></clipPath><clipPath id="eJ"><use xlink:href="#c"/></clipPath><clipPath id="eK"><use xlink:href="#c"/></clipPath><clipPath id="eL"><path d="M574 340h24v5h-24Zm0 0"/></clipPath><clipPath id="eM"><use xlink:href="#c"/></clipPath><clipPath id="eN"><use xlink:href="#c"/></clipPath></defs><g clip-path="url(#d)"><g clip-path="url(#e)"><path fill="#0e332c" d="M294.941 7.043h799.02v795.914H294.94Zm0 0"/></g></g><g clip-path="url(#f)"><g clip-path="url(#g)"><g clip-path="url(#h)"><path fill="#c7dd60" d="M858.172 565.262c-24.637 12.02-49.563 19.758-70.192 21.785-21.187 2.074-35.476-2.152-40.25-11.93-4.77-9.773.688-23.648 15.364-39.07 14.293-15.012 35.726-29.902 60.36-41.922 24.636-12.023 49.562-19.758 70.187-21.79 21.187-2.081 35.48 2.157 40.25 11.93 4.773 9.778-.688 23.645-15.36 39.07-14.293 15.017-35.726 29.903-60.36 41.927Zm-33.238-68.11c-24.286 11.852-45.383 26.485-59.399 41.22-13.441 14.12-18.824 26.972-14.773 35.269 4.047 8.297 17.492 11.96 36.89 10.054 20.239-1.988 44.758-9.61 69.043-21.46 24.282-11.848 45.38-26.485 59.395-41.22 13.441-14.12 18.824-26.976 14.773-35.269-4.047-8.297-17.492-11.96-36.898-10.066-20.23 2-44.75 9.62-69.031 21.472Zm0 0"/></g></g></g><g clip-path="url(#i)"><g clip-path="url(#j)"><g clip-path="url(#k)"><path fill="#c7dd60" d="M853.07 554.805c-24.636 12.023-49.562 19.758-70.191 21.785-21.184 2.082-35.48-2.153-40.25-11.93-4.77-9.773.687-23.648 15.363-39.066 14.29-15.016 35.723-29.907 60.36-41.926 24.632-12.023 49.558-19.758 70.187-21.785 21.188-2.082 35.48 2.156 40.25 11.926 4.77 9.773-.684 23.652-15.36 39.078-14.292 15.008-35.726 29.898-60.359 41.918Zm-33.242-68.11c-24.281 11.852-45.379 26.485-59.394 41.22-13.442 14.12-18.825 26.976-14.778 35.269 4.047 8.293 17.496 11.96 36.895 10.054 20.238-1.988 44.758-9.61 69.039-21.46 24.281-11.848 45.383-26.485 59.398-41.22 13.438-14.12 18.82-26.976 14.774-35.269-4.051-8.297-17.492-11.96-36.895-10.055-20.238 1.989-44.758 9.61-69.039 21.461Zm0 0"/></g></g></g><g clip-path="url(#l)"><g clip-path="url(#m)"><g clip-path="url(#n)"><path fill="#c7dd60" d="M847.824 544.059c-24.636 12.023-49.558 19.757-70.187 21.785-21.188 2.082-35.48-2.153-40.254-11.93-4.77-9.773.687-23.648 15.363-39.066 14.29-15.016 35.727-29.903 60.36-41.926 24.636-12.024 49.562-19.762 70.187-21.785 21.187-2.086 35.48 2.152 40.254 11.93 4.77 9.773-.688 23.648-15.363 39.066-14.29 15.015-35.727 29.902-60.36 41.926Zm-33.238-68.11c-24.281 11.852-45.383 26.485-59.399 41.223-13.437 14.117-18.824 26.969-14.773 35.265 4.047 8.297 17.492 11.961 36.895 10.055 20.234-1.988 44.757-9.61 69.039-21.46 24.28-11.848 45.379-26.481 59.394-41.22 13.442-14.117 18.824-26.972 14.774-35.269-4.047-8.297-17.493-11.965-36.891-10.055-20.238 1.989-44.758 9.614-69.04 21.461Zm0 0"/></g></g></g><g clip-path="url(#o)"><g clip-path="url(#p)"><g clip-path="url(#q)"><path fill="#c7dd60" d="M851.844 540.223a6.573 6.573 0 0 1 .668 2.53 6.74 6.74 0 0 1-.047 1.317 6.775 6.775 0 0 1-.852 2.477 6.867 6.867 0 0 1-1.734 1.96 7.033 7.033 0 0 1-1.121.692 6.994 6.994 0 0 1-1.235.457 6.36 6.36 0 0 1-1.3.207 6.7 6.7 0 0 1-6.442-3.754 6.61 6.61 0 0 1-.668-2.53 6.74 6.74 0 0 1 .047-1.317c.059-.438.16-.864.305-1.282.144-.418.328-.816.547-1.195.222-.383.48-.738.773-1.066.29-.332.613-.63.965-.895a6.713 6.713 0 0 1 2.352-1.152c.425-.11.859-.18 1.3-.207a6.7 6.7 0 0 1 1.313.047c.437.062.863.164 1.281.304a6.63 6.63 0 0 1 1.195.551 6.779 6.779 0 0 1 1.965 1.734c.266.352.496.723.688 1.122Zm0 0"/></g></g></g><g clip-path="url(#r)"><g clip-path="url(#s)"><g clip-path="url(#t)"><path fill="#c7dd60" d="M808.098 569.04c.195.398.347.808.46 1.233.11.426.18.86.208 1.301a6.71 6.71 0 0 1-.047 1.313 6.63 6.63 0 0 1-.855 2.477 6.779 6.779 0 0 1-1.734 1.965 6.551 6.551 0 0 1-1.118.687 6.713 6.713 0 0 1-1.235.46 6.74 6.74 0 0 1-2.617.16 6.54 6.54 0 0 1-1.277-.304 7.067 7.067 0 0 1-1.2-.547 6.867 6.867 0 0 1-1.066-.773 6.829 6.829 0 0 1-1.586-2.082 6.994 6.994 0 0 1-.457-1.235 6.36 6.36 0 0 1-.207-1.3 6.7 6.7 0 0 1 3.754-6.442 6.647 6.647 0 0 1 2.531-.668 6.74 6.74 0 0 1 1.317.047c.437.059.863.16 1.281.305a6.614 6.614 0 0 1 2.262 1.32 6.5 6.5 0 0 1 .894.961c.27.352.5.727.692 1.121Zm0 0"/></g></g></g><g clip-path="url(#u)"><g clip-path="url(#v)"><g clip-path="url(#w)"><path fill="#c7dd60" d="M903.324 536.457c.192.395.344.809.457 1.234.114.426.184.86.207 1.297a6.74 6.74 0 0 1-.047 1.317 6.55 6.55 0 0 1-.304 1.28 6.869 6.869 0 0 1-.547 1.196c-.223.38-.48.735-.77 1.067a6.762 6.762 0 0 1-2.086 1.586 6.699 6.699 0 0 1-1.234.457 6.645 6.645 0 0 1-2.613.16 6.863 6.863 0 0 1-1.282-.301 6.63 6.63 0 0 1-1.195-.55 6.493 6.493 0 0 1-1.066-.77 6.534 6.534 0 0 1-.895-.965c-.27-.352-.5-.723-.691-1.121a6.508 6.508 0 0 1-.461-1.235 6.74 6.74 0 0 1-.16-2.613 6.88 6.88 0 0 1 .304-1.281 7.17 7.17 0 0 1 .547-1.195 6.752 6.752 0 0 1 4.09-3.11 6.645 6.645 0 0 1 3.895.145 6.727 6.727 0 0 1 2.265 1.317 6.752 6.752 0 0 1 1.586 2.085Zm0 0"/></g></g></g><g clip-path="url(#x)"><g clip-path="url(#y)"><g clip-path="url(#z)"><path fill="#c7dd60" d="M918.691 506.012a3.55 3.55 0 0 1 .164 2.715 3.48 3.48 0 0 1-.699 1.195 3.555 3.555 0 0 1-2.441 1.195 3.577 3.577 0 0 1-1.375-.187 3.48 3.48 0 0 1-1.195-.7 3.504 3.504 0 0 1-.84-1.101 3.574 3.574 0 0 1-.356-1.34 3.566 3.566 0 0 1 1.989-3.414 3.569 3.569 0 0 1 3.914.531c.351.313.632.68.84 1.106Zm0 0"/></g></g></g><g clip-path="url(#A)"><g clip-path="url(#B)"><g clip-path="url(#C)"><path fill="#c7dd60" d="M921.926 483.836c.207.422.324.871.351 1.34a3.5 3.5 0 0 1-.183 1.375 3.542 3.542 0 0 1-.7 1.195c-.312.352-.68.633-1.105.84a3.46 3.46 0 0 1-1.34.351 3.481 3.481 0 0 1-1.37-.183 3.56 3.56 0 0 1-2.04-1.8 3.498 3.498 0 0 1-.351-1.345 3.481 3.481 0 0 1 .183-1.37 3.56 3.56 0 0 1 1.805-2.04 3.46 3.46 0 0 1 1.34-.351c.468-.032.925.03 1.37.187a3.533 3.533 0 0 1 2.04 1.8Zm0 0"/></g></g></g><g clip-path="url(#D)"><g clip-path="url(#E)"><g clip-path="url(#F)"><path fill="#c7dd60" d="M776.563 562.324c.207.426.324.871.351 1.344a3.42 3.42 0 0 1-.187 1.371 3.523 3.523 0 0 1-1.801 2.04 3.479 3.479 0 0 1-1.34.35 3.513 3.513 0 0 1-1.375-.187 3.533 3.533 0 0 1-2.035-1.8 3.479 3.479 0 0 1-.352-1.34 3.5 3.5 0 0 1 .184-1.375c.156-.446.387-.844.699-1.196.313-.355.68-.633 1.102-.84a3.574 3.574 0 0 1 1.343-.355 3.557 3.557 0 0 1 3.41 1.988Zm0 0"/></g></g></g><g clip-path="url(#G)"><g clip-path="url(#H)"><g clip-path="url(#I)"><path fill="#c7dd60" d="M840.797 570.418a3.557 3.557 0 0 1-2.973 5.105 3.588 3.588 0 0 1-2.574-.883 3.464 3.464 0 0 1-.836-1.105 3.555 3.555 0 0 1-.355-1.34c-.028-.468.035-.93.187-1.375a3.48 3.48 0 0 1 .7-1.195 3.555 3.555 0 0 1 2.441-1.195 3.56 3.56 0 0 1 1.375.187 3.48 3.48 0 0 1 1.195.7c.356.312.633.68.84 1.101Zm0 0"/></g></g></g><g clip-path="url(#J)"><path fill="#c7dd60" d="M631.758 472.348c-15.106-40.547-55.715-66.368-98.996-63.043l-7.16-8 3.125-20.157c.003-.03-.004-.054-.004-.082a1.866 1.866 0 0 0-.004-.39c-.008-.067-.004-.137-.016-.203a2.23 2.23 0 0 0-.16-.434c-.016-.035-.023-.074-.043-.11a1.823 1.823 0 0 0-.352-.445l-.027-.023v-.004l-13.558-12.613c-.02-.016-.043-.02-.067-.04-.055-.046-.105-.1-.168-.14a1.757 1.757 0 0 0-.398-.207c-.004 0-.008 0-.012-.004a2.087 2.087 0 0 0-.637-.101h-.11a1.82 1.82 0 0 0-.538.105l-50.754 18.648c-.074.028-.125.094-.195.13a1.807 1.807 0 0 0-.422.28 1.84 1.84 0 0 0-.211.247c-.102.136-.18.277-.246.437-.02.063-.075.106-.09.168-.02.074-.024.149-.035.223-.004.027-.02.047-.024.07l-2.027 18.38c-.02.19-.012.382.027.57.004.023.02.05.028.077.039.165.093.32.175.465.032.055.079.106.114.157.074.109.156.21.254.304.02.02.03.043.054.063l15.66 13.351.93 13.024c-30.293 26.27-41.246 68.972-27.23 106.594 14.562 39.085 51.964 63.32 91.66 63.32 11.23 0 22.64-1.942 33.77-6.028 24.546-9.019 44.058-27.011 54.929-50.66 10.797-23.468 11.773-49.726 2.758-73.93Zm-118.14-31.723a73.135 73.135 0 0 1 25.277-4.512c29.707 0 57.695 18.133 68.59 47.375 6.742 18.102 6.011 37.739-2.063 55.293-8.133 17.692-22.73 31.153-41.098 37.903-37.789 13.882-79.894-5.348-93.87-42.864-6.743-18.101-6.013-37.738 2.062-55.293 8.132-17.691 22.73-31.152 41.101-37.902Zm1.093-4.336c-.797.262-1.598.52-2.39.809a77.855 77.855 0 0 0-5.79 2.418c-.96-1.485-2.68-3.985-5.125-6.996-3.738-4.61-16.273-2.34-21.883-1.043l-.703-9.868 14.723 3.98c.004.005.008 0 .012 0 .16.044.32.067.48.067.05 0 .102-.02.152-.027.079-.004.149-.02.223-.035.152-.031.293-.082.434-.149.066-.03.129-.062.191-.101.137-.086.254-.196.363-.313.043-.05.094-.086.133-.14a1.85 1.85 0 0 0 .313-.618v-.007l4.011-14.63 12.649 8.524c.32.219.687.324 1.047.324a1.88 1.88 0 0 0 1.554-.82l8.704-12.734 5.164 5.777c-5.078 2.793-15.668 9.336-15.489 15.184.13 4.304.805 8.285 1.227 10.398Zm-50.813-44.734 4.22 5.218-5.259 4.188Zm6.633 8.097 6.614 7.598-12.457-2.945Zm52.547-16.793-7.543 10.305.047-10.062Zm-9.254 18.102 6.778 2.004-7.547 11.043-10.637-7.168Zm8.258-1.477-5.36-1.582 7.11-9.71Zm-10.312-3.453-14.598-6.668 14.648-5.383Zm-2.434 3.016-11.25 5.797-12.367 2.879 7.437-16.063Zm-27.426 7.957-7.941-9.117 14.66-5.383Zm1.652 5.074 12.532-2.914-3.375 12.313-12.98-3.512Zm31.965-32.73-.218-6.68 6.945 6.46Zm-4.039-8.47.301 9.11-20.2 7.422h-.003l-20.207 7.426-5.742-7.113Zm-32.117 40.759-3.023 4.652-8.715-7.43ZM625.59 544.71c-10.453 22.734-29.211 40.027-52.813 48.7-48.547 17.835-102.656-6.872-120.617-55.075-13.527-36.32-2.855-77.566 26.547-102.79 6.934-1.788 17.727-3.194 19.785-.66a80.204 80.204 0 0 1 4.637 6.298c-14.98 7.808-26.879 20.226-34.027 35.77-8.497 18.472-9.266 39.132-2.172 58.175 11.457 30.754 40.886 49.82 72.117 49.82a76.976 76.976 0 0 0 26.57-4.742c19.313-7.098 34.664-21.25 43.219-39.855 8.492-18.473 9.266-39.133 2.168-58.176-13.957-37.473-54.598-57.57-92.68-46.988-.394-2.06-.969-5.637-1.086-9.41-.097-3.27 8.922-9.423 15.254-12.692 41.848-3.438 81.16 21.418 95.746 60.574 8.664 23.258 7.723 48.492-2.648 71.05Zm0 0"/></g><g clip-path="url(#K)"><g clip-path="url(#L)"><g clip-path="url(#M)"><path fill="#c7dd60" d="m905.824 129.844-59.703-25.969c-2.566-1.121-5.305-2.012-7.945-.992-3.781 1.46-6.559 6.285-12.48 17.058l-.844 1.555 1.078.973c-1.297 1.12-3.23 2.894-3.828 3.941a202.814 202.814 0 0 1-7.649 12.336l-.21.316-.02 2.028-4.258 4.066-1.762 2.356c-9.055 12.3-24.21 32.886-40.047 44.984l-1.703 1.3 1.578.688a29.396 29.396 0 0 1 6.2-3.687c14.414-12.465 27.73-30.555 36.003-41.79l1.547-2.105 4.95-4.722.023-2.34a204.466 204.466 0 0 0 7.535-12.18c.441-.781 2.816-2.922 4.36-4.191l1.128-.934-1.761-1.582c5.394-9.812 8.136-14.586 11.066-15.719 1.453-.558 3.2-.285 6.035.95l59.707 25.972c6.672 2.903 6.746 4.602.711 22.52l-2.36-.215.079 1.453c.11 1.992.137 5.18-.133 6.035a203.017 203.017 0 0 0-3.863 13.774l-1.715 1.609-.121 6.82-.57 2.903c-2.438 12.46-6.211 31.87-6.375 49.543.218.472.421.949.613 1.441a25.79 25.79 0 0 1 1.68 7.684c.324 1.062.55 2.175.683 3.324l.102.043-.2-2.121c-1.816-19.633 3.06-44.547 5.97-59.434l.59-3.008.128-6.086 1.488-1.402.09-.363c1.098-4.57 2.371-9.14 3.899-13.965.367-1.149.363-3.766.308-5.477l1.453.13.57-1.677c5.786-17.16 7.34-21.769-2.027-25.843"/></g></g></g><g clip-path="url(#N)"><g clip-path="url(#O)"><g clip-path="url(#P)"><path fill="#c7dd60" d="m896.328 212.79-1.75-8.368c-.426-2.008-1.418-3.45-2.797-4.063l-87.968-38.949c-1.372-.605-3.125-.367-4.88.653l-7.359 4.292 5.801-6.238a227.69 227.69 0 0 0 1.594-1.726l.183-.203.25-.106c2.121-.898 4.184-.965 5.961-.18l87.965 38.953c1.781.786 3.125 2.36 3.883 4.536l.094.261-.028.278c-.074.722-.136 1.457-.199 2.191l-.75 8.668"/></g></g></g><g clip-path="url(#Q)"><g clip-path="url(#R)"><g clip-path="url(#S)"><path fill="#c7dd60" d="M801.684 161.102a5.27 5.27 0 0 1 2.066.453l87.965 38.945a5.34 5.34 0 0 1 1.738 1.25c-.46-.629-1.023-1.102-1.672-1.39l-87.968-38.95c-.641-.281-1.36-.387-2.13-.308ZM895.5 210.09l-.184.066a1.934 1.934 0 0 1-1.304-.086c-.805-.355-1.266-1.191-1.203-2.187.16-2.485-.653-4.43-2.114-5.078l-87.968-38.95c-.946-.417-1.942-.195-2.614.063-.875.336-1.758.953-2.562 1.781-.27.278-.57.48-.903.61-.976.375-1.988-.004-2.457-.922-.18-.344-.254-.742-.238-1.211l.02-.485.336-.351a177.615 177.615 0 0 0 3.062-3.223l.129-.137.16-.093c2.469-1.442 5.047-1.719 7.172-.782l87.969 38.95c2.144.953 3.648 3.03 4.242 5.851l.035.184-.015.18a180.042 180.042 0 0 0-.32 4.417l-.032.481-.336.336a2.48 2.48 0 0 1-.875.586"/></g></g></g><g clip-path="url(#T)"><g clip-path="url(#U)"><g clip-path="url(#V)"><path fill="#c7dd60" d="m898.496 180.066-.777-1.433c-.465-.86-1.074-1.461-1.805-1.785l-77.476-34.305c-.727-.324-1.579-.367-2.524-.133l-1.586.387.063-4.317.78-.308.005-.004c1.894-.73 3.683-.746 5.226-.063l77.48 34.31c1.563.69 2.763 2.046 3.466 3.92l.3.79-3.152 2.941"/></g></g></g><g clip-path="url(#W)"><g clip-path="url(#X)"><g clip-path="url(#Y)"><path fill="#c7dd60" d="M816.629 142.285a4.711 4.711 0 0 1 1.746.403l77.48 34.304a4.81 4.81 0 0 1 1.493 1.051c-.403-.55-.883-.95-1.434-1.195l-77.476-34.305c-.54-.238-1.145-.324-1.81-.258Zm83.738 43.516-1.789.043a1.935 1.935 0 0 1-.828-.149c-.8-.355-1.254-1.191-1.191-2.191.129-2.035-.551-3.688-1.727-4.207l-77.48-34.309c-.758-.336-1.57-.152-2.122.059-.73.281-1.472.797-2.148 1.496-.93.953-2.328.945-3.09.059l-.77-.91 5.13-4.864.007-.633.95-.234c1.484-.367 2.918-.27 4.148.277l77.477 34.305c1.234.547 2.273 1.543 3 2.887l.468.863-.465.434-.12 5.644.55 1.43"/></g></g></g><g clip-path="url(#Z)"><g clip-path="url(#aa)"><g clip-path="url(#ab)"><path fill="#c7dd60" d="m905.82 160.598-2.41-3.778c-.398-.636-.902-1.09-1.488-1.347l-71.695-31.746c-.582-.258-1.25-.325-1.993-.2l-1.011.172-.27-.691-2.36-2.153 1.536-.851c2.066-1.149 4.21-1.344 5.996-.555l71.691 31.746c1.793.793 3.079 2.5 3.621 4.809l.403 1.71-2.078-.198.058 3.082"/></g></g></g><g clip-path="url(#ac)"><g clip-path="url(#ad)"><g clip-path="url(#ae)"><path fill="#c7dd60" d="M828.54 123.492a4.454 4.454 0 0 1 1.624.38l71.695 31.745a4.4 4.4 0 0 1 1.371.953v-.015c-.367-.496-.804-.86-1.308-1.082l-71.695-31.746c-.497-.223-1.063-.305-1.676-.243Zm76.612 40.496-1.07-.008a1.94 1.94 0 0 1-.523-.132c-.817-.364-1.274-1.203-1.211-2.196.113-1.812-.477-3.277-1.508-3.73l-71.695-31.75c-.657-.29-1.372-.129-1.852.058-.652.25-1.316.711-1.922 1.336-.266.27-.562.473-.887.598-.703.274-1.449.149-1.996-.328l-.812-.707.625-1.004c.851-1.473 4.515-4.48 4.93-4.816l.253-.211.332-.055c1.23-.211 2.387-.082 3.43.379l71.7 31.746c1.046.465 1.921 1.234 2.593 2.293l.184.293.011.34c.09 2.004.172 5.515-.27 6.902l-.312.992"/></g></g></g><g clip-path="url(#af)"><g clip-path="url(#ag)"><g clip-path="url(#ah)"><path fill="#c7dd60" d="M847.527 335.52c-13.578 12.343-25.992 29.199-33.851 39.875l-1.551 2.105-4.95 4.723-.023 2.347a203.607 203.607 0 0 0-7.527 12.172c-.453.781-2.824 2.922-4.363 4.192l-1.133.933 1.766 1.586c-5.395 9.809-8.137 14.586-11.067 15.719-1.453.558-3.203.281-6.039-.95l-59.7-25.972c-6.671-2.906-6.753-4.602-.714-22.523l2.36.21-.079-1.453c-.11-1.988-.14-5.171.133-6.03 1.524-4.81 2.79-9.321 3.867-13.77l1.711-1.614.121-6.82.567-2.906c2.648-13.52 6.879-35.23 6.351-54.012a25.576 25.576 0 0 1-.785-1.8 25.835 25.835 0 0 1-1.5-5.884l-.762-.332.196 2.118c1.812 19.628-3.063 44.543-5.973 59.425l-.59 3.02-.129 6.086-1.484 1.398-.086.364c-1.082 4.515-2.363 9.082-3.91 13.968-.36 1.149-.356 3.766-.305 5.473l-1.433-.129-.329.922c-.086.238-.164.469-.261.758-5.637 16.719-7.336 21.765 2.027 25.84l59.703 25.972c2.567 1.114 5.309 2.008 7.95.992 3.777-1.46 6.554-6.285 12.48-17.058l.836-1.563-1.07-.964c1.296-1.125 3.23-2.895 3.828-3.946 2.527-4.402 5.027-8.441 7.648-12.332l.211-.312.02-2.04 4.257-4.062 1.762-2.36c8.531-11.585 22.48-30.527 37.309-42.8a25.105 25.105 0 0 1-5.489 1.434"/></g></g></g><g clip-path="url(#ai)"><g clip-path="url(#aj)"><g clip-path="url(#ak)"><path fill="#c7dd60" d="M824.18 366.46c-2.004.77-3.95.786-5.637.04l-87.961-38.95c-1.781-.788-3.125-2.355-3.887-4.534l-.09-.266.028-.277c.074-.746.137-1.5.207-2.262l.722-8.535 1.77 8.3c.422 2.012 1.418 3.454 2.797 4.067l87.969 38.953c1.37.606 3.129.367 4.882-.656l7.368-4.309-5.809 6.254c-.539.578-1.074 1.156-1.598 1.727l-.183.207-.25.105-.328.137"/></g></g></g><g clip-path="url(#al)"><g clip-path="url(#am)"><g clip-path="url(#an)"><path fill="#c7dd60" d="M730.457 322.66c.461.63 1.027 1.094 1.672 1.383l87.969 38.953c.636.281 1.355.383 2.117.305a5.26 5.26 0 0 1-2.055-.446l-87.965-38.953a5.314 5.314 0 0 1-1.738-1.242Zm94.246 42.606c-1.992.77-3.937.777-5.625.03l-87.965-38.948c-2.148-.95-3.652-3.028-4.246-5.852l-.039-.18.016-.187c.129-1.496.238-2.98.324-4.414l.031-.485.348-.343c.281-.274.566-.461.867-.575l.18-.062a1.935 1.935 0 0 1 1.312.086c.797.351 1.25 1.191 1.192 2.187-.157 2.446.675 4.438 2.117 5.075l87.969 38.953c.941.414 1.941.195 2.613-.067.875-.336 1.758-.953 2.562-1.777.266-.277.57-.484.899-.61.976-.378 1.988 0 2.46.923.177.332.259.738.235 1.222l-.02.477-.335.344c-1 1.027-2 2.078-3.059 3.222l-.125.137-.16.094a11.75 11.75 0 0 1-1.55.75"/></g></g></g><g clip-path="url(#ao)"><g clip-path="url(#ap)"><g clip-path="url(#aq)"><path fill="#c7dd60" d="M808.672 386.258c-1.836.71-3.625.726-5.164.043l-77.485-34.309c-1.566-.691-2.765-2.047-3.46-3.922l-.301-.789 3.148-2.941.778 1.43c.472.859 1.074 1.46 1.804 1.785l77.48 34.308c.727.32 1.579.364 2.528.133l1.582-.383-.059 4.309-.851.336"/></g></g></g><g clip-path="url(#ar)"><g clip-path="url(#as)"><g clip-path="url(#at)"><path fill="#c7dd60" d="M726.566 346.367c.403.551.88.945 1.426 1.188l77.48 34.308c.54.239 1.15.325 1.817.258a4.68 4.68 0 0 1-1.754-.402l-77.48-34.309a4.75 4.75 0 0 1-1.489-1.043Zm82.977 37.848-.945.23c-1.485.36-2.918.262-4.145-.277l-77.48-34.313c-1.23-.543-2.266-1.539-2.996-2.878l-.47-.864.466-.433.132-6.192.125-.226.286-.645.757-.055a1.85 1.85 0 0 1 .895.153c.785.344 1.246 1.183 1.187 2.176-.132 2.046.543 3.695 1.72 4.214l77.48 34.31c.761.339 1.578.155 2.125-.06.73-.28 1.476-.796 2.148-1.492.93-.953 2.332-.949 3.09-.054l.762.91-5.125 4.86-.012.636"/></g></g></g><g clip-path="url(#au)"><g clip-path="url(#av)"><g clip-path="url(#aw)"><path fill="#c7dd60" d="M796.656 404.926c-1.726.668-3.41.68-4.87.027l-71.692-31.742c-1.793-.797-3.078-2.5-3.621-4.813l-.403-1.71 2.004.19-.246-3.53 2.672 4.242c.395.625.895 1.078 1.484 1.34l71.696 31.742c.586.262 1.258.328 1.996.203l4.644-.781-2.515 2.078 1.508 1.379-1.536.851a8.524 8.524 0 0 1-1.12.524"/></g></g></g><g clip-path="url(#ax)"><g clip-path="url(#ay)"><g clip-path="url(#az)"><path fill="#c7dd60" d="M720.676 367.848c.363.496.804.855 1.308 1.082l71.696 31.742c.5.223 1.062.305 1.675.246l.012-.012a4.314 4.314 0 0 1-1.625-.375l-71.691-31.742c-.52-.23-.98-.555-1.38-.957Zm75.812 35.41-.39.105c-1.243.207-2.395.078-3.442-.386l-71.691-31.743c-1.04-.46-1.942-1.257-2.594-2.304l-.172-.266-.023-.324c0-.047-.285-5.203.27-6.938l.312-.988 1.066.008c.203.023.383.07.547.144.797.352 1.254 1.188 1.192 2.188-.114 1.808.476 3.277 1.507 3.73l71.692 31.746c.664.293 1.375.13 1.855-.054.653-.254 1.317-.715 1.922-1.34.848-.867 2.082-.961 2.879-.27l.828.711-.59.922c-.703 1.215-3.058 3.301-4.906 4.84l-.262.219"/></g></g></g><g clip-path="url(#aA)"><g clip-path="url(#aB)"><g clip-path="url(#aC)"><path fill="#c7dd60" d="M888.512 257.371c-1.442.555-2.078 1.3-2.067 1.793l.336 16.984c.008.442.524.97 1.344 1.383 1.105.547 2.652.848 4.25.817 1.25-.024 2.438-.243 3.434-.625 1.441-.559 2.078-1.305 2.07-1.797l-.336-16.98c-.008-.298-.234-.579-.422-.762-.726-.696-2.52-1.493-5.172-1.438-1.25.02-2.437.238-3.437.625m8.207 22.703c-1.27.488-2.754.762-4.297.793-2.016.04-3.942-.347-5.418-1.086-1.742-.867-2.715-2.14-2.742-3.586l-.336-16.984c-.035-1.723 1.34-3.29 3.68-4.191 1.269-.493 2.753-.766 4.296-.797 2.903-.059 5.508.746 6.965 2.148.762.73 1.176 1.606 1.196 2.52l.332 16.988c.035 1.723-1.34 3.289-3.676 4.195"/></g></g></g><g clip-path="url(#aD)"><g clip-path="url(#aE)"><g clip-path="url(#aF)"><path fill="#c7dd60" d="M889.219 257.848c-1.145.441-1.903 1.129-1.89 1.71l.316 16.153c.02.867 1.867 2.098 4.718 2.039.989-.02 1.934-.191 2.742-.504 1.141-.441 1.903-1.133 1.891-1.723l-.316-16.144c-.008-.313-.235-.598-.426-.781-.832-.801-2.52-1.293-4.293-1.258-.988.02-1.938.195-2.742.508m6.793 21.746c-1.078.418-2.324.652-3.598.676-4.035.082-7.234-1.899-7.289-4.508l-.316-16.149c-.036-1.718 1.273-3.258 3.5-4.117 1.082-.418 2.324-.652 3.601-.676 2.48-.05 4.758.68 6.09 1.961.766.735 1.18 1.617 1.195 2.551l.32 16.145c.036 1.718-1.277 3.257-3.503 4.117"/></g></g></g><g clip-path="url(#aG)"><g clip-path="url(#aH)"><g clip-path="url(#aI)"><path fill="#c7dd60" d="M889.309 258.89c-1.055.407-1.782 1.051-1.77 1.567l.29 14.566c.015.801 1.784 1.938 4.515 1.88.965-.016 1.89-.188 2.676-.489 1.05-.406 1.777-1.05 1.765-1.566l-.285-14.567c-.016-.8-1.785-1.937-4.516-1.883-.964.024-1.89.188-2.675.493m6.617 19.87c-1.055.41-2.274.637-3.531.665-3.985.078-7.036-1.793-7.09-4.352l-.285-14.566c-.032-1.653 1.23-3.137 3.378-3.969 1.059-.406 2.282-.637 3.54-.656 3.98-.082 7.027 1.785 7.085 4.347l.282 14.567c.03 1.656-1.23 3.137-3.38 3.965"/></g></g></g><g clip-path="url(#aJ)"><g clip-path="url(#aK)"><g clip-path="url(#aL)"><path fill="#c7dd60" d="m899.328 276.195-.32.008c.203-.445.308-.914.297-1.406v-.176l.023 1.574"/></g></g></g><g clip-path="url(#aM)"><g clip-path="url(#aN)"><g clip-path="url(#aO)"><path fill="#c7dd60" d="m895.34 276.277-.758.016-.031-1.582 2.23-.043.004.18c.008.46-.57 1.027-1.445 1.43"/></g></g></g><g clip-path="url(#aP)"><g clip-path="url(#aQ)"><g clip-path="url(#aR)"><path fill="#c7dd60" d="m899.008 276.203-3.668.074c.875-.402 1.453-.968 1.445-1.43l-.004-.179 2.524-.047v.176c.011.492-.094.96-.297 1.406"/></g></g></g><g clip-path="url(#aS)"><g clip-path="url(#aT)"><g clip-path="url(#aU)"><path fill="#c7dd60" d="m899.29 273.871-.017-.816v-.004l.016.82"/></g></g></g><g clip-path="url(#aV)"><g clip-path="url(#aW)"><g clip-path="url(#aX)"><path fill="#c7dd60" d="m899.305 274.621-.032-1.586v.02l.016.816.016.75"/></g></g></g><g clip-path="url(#aY)"><g clip-path="url(#aZ)"><g clip-path="url(#ba)"><path fill="#c7dd60" d="m896.781 274.668-2.23.043-.004.004-.027-1.86.003.282 2.23-.051.028 1.582"/></g></g></g><g clip-path="url(#bb)"><g clip-path="url(#bc)"><g clip-path="url(#bd)"><path fill="#c7dd60" d="m899.305 274.621-2.524.047-.027-1.582 2.52-.05.03 1.585"/></g></g></g><g clip-path="url(#be)"><g clip-path="url(#bf)"><g clip-path="url(#bg)"><path fill="#c7dd60" d="m899.273 273.035-.062-3.14.062 3.14"/></g></g></g><g clip-path="url(#bh)"><g clip-path="url(#bi)"><g clip-path="url(#bj)"><path fill="#c7dd60" d="m896.754 273.086-2.23.05-.004-.28-.063-2.868h.004l.031 1.563 2.227-.043.035 1.578"/></g></g></g><g clip-path="url(#bk)"><g clip-path="url(#bl)"><g clip-path="url(#bm)"><path fill="#c7dd60" d="m899.273 273.035-2.52.05-.034-1.577 2.52-.051-.028-1.562.062 3.14"/></g></g></g><g clip-path="url(#bn)"><g clip-path="url(#bo)"><g clip-path="url(#bp)"><path fill="#c7dd60" d="m896.719 271.508-2.227.043-.031-1.563v-.011l2.23-.047.028 1.578"/></g></g></g><g clip-path="url(#bq)"><g clip-path="url(#br)"><g clip-path="url(#bs)"><path fill="#c7dd60" d="m899.238 271.457-2.52.05-.027-1.577 2.516-.051-.023-1.356.027 1.372.027 1.562"/></g></g></g><g clip-path="url(#bt)"><g clip-path="url(#bu)"><g clip-path="url(#bv)"><path fill="#c7dd60" d="m894.441 269.2-.015-.798.004.004.011.793"/></g></g></g><g clip-path="url(#bw)"><g clip-path="url(#bx)"><g clip-path="url(#by)"><path fill="#c7dd60" d="m896.691 269.93-2.23.047v-.004l-.02-.774-.011-.793v-.015l2.23-.043.031 1.582"/></g></g></g><g clip-path="url(#bz)"><g clip-path="url(#bA)"><g clip-path="url(#bB)"><path fill="#c7dd60" d="m899.207 269.879-2.516.05-.03-1.581 2.515-.051-.028-1.567.036 1.793.023 1.356"/></g></g></g><g clip-path="url(#bC)"><g clip-path="url(#bD)"><g clip-path="url(#bE)"><path fill="#c7dd60" d="m896.66 268.348-2.23.043h-.008l-.024-1.52v-.047l-.003-.265.003.246 2.23-.04.032 1.583"/></g></g></g><g clip-path="url(#bF)"><g clip-path="url(#bG)"><g clip-path="url(#bH)"><path fill="#c7dd60" d="m899.137 266.086-.02-.938.02.938"/></g></g></g><g clip-path="url(#bI)"><g clip-path="url(#bJ)"><g clip-path="url(#bK)"><path fill="#c7dd60" d="m899.176 268.297-2.516.05-.031-1.581 2.512-.047-.028-1.57h.004l.02.937.011.644.028 1.567"/></g></g></g><g clip-path="url(#bL)"><g clip-path="url(#bM)"><g clip-path="url(#bN)"><path fill="#c7dd60" d="m896.629 266.766-2.23.039-.004-.246-.051-2.5.027 1.171 2.227-.043.03 1.579"/></g></g></g><g clip-path="url(#bO)"><g clip-path="url(#bP)"><g clip-path="url(#bQ)"><path fill="#c7dd60" d="m899.105 264.617-.02-1.047h.005l.015 1.047"/></g></g></g><g clip-path="url(#bR)"><g clip-path="url(#bS)"><g clip-path="url(#bT)"><path fill="#c7dd60" d="m899.14 266.719-2.511.047-.031-1.579 2.515-.054-.027-1.563.02 1.047.007.531.028 1.57"/></g></g></g><g clip-path="url(#bU)"><g clip-path="url(#bV)"><g clip-path="url(#bW)"><path fill="#c7dd60" d="m896.598 265.188-2.227.042-.027-1.171-.04-1.977.036 1.566 2.226-.043.032 1.582"/></g></g></g><g clip-path="url(#bX)"><g clip-path="url(#bY)"><g clip-path="url(#bZ)"><path fill="#c7dd60" d="m899.086 263.5-.031-1.508h.004l.027 1.508"/></g></g></g><g clip-path="url(#ca)"><g clip-path="url(#cb)"><g clip-path="url(#cc)"><path fill="#c7dd60" d="m899.113 265.133-2.515.055-.032-1.583 2.52-.046-.031-1.567.03 1.508v.07l.028 1.563"/></g></g></g><g clip-path="url(#cd)"><g clip-path="url(#ce)"><g clip-path="url(#cf)"><path fill="#c7dd60" d="m896.566 263.605-2.226.043-.035-1.566-.035-1.578.003-.004.032 1.57 2.23-.043.031 1.578"/></g></g></g><g clip-path="url(#cg)"><g clip-path="url(#ch)"><g clip-path="url(#ci)"><path fill="#c7dd60" d="m899.086 263.559-2.52.046-.03-1.578 2.515-.054.004.02.03 1.566m-.058-3.012-.004-.137.004.137"/></g></g></g><g clip-path="url(#cj)"><g clip-path="url(#ck)"><g clip-path="url(#cl)"><path fill="#c7dd60" d="M899.059 261.973h-.004l-.016-.797.02.797"/></g></g></g><g clip-path="url(#cm)"><g clip-path="url(#cn)"><g clip-path="url(#co)"><path fill="#c7dd60" d="m896.535 262.027-2.23.043-.032-1.57-.03-1.574.773-.016c.933.387 1.476.93 1.484 1.371l.035 1.746"/></g></g></g><g clip-path="url(#cp)"><g clip-path="url(#cq)"><g clip-path="url(#cr)"><path fill="#c7dd60" d="M899.016 260.094a3.245 3.245 0 0 0-.344-1.254l.316-.008.028 1.262"/></g></g></g><g clip-path="url(#cs)"><g clip-path="url(#ct)"><g clip-path="url(#cu)"><path fill="#c7dd60" d="M899.055 261.973h-.004l-2.516.054-.035-1.746c-.008-.441-.55-.984-1.484-1.37l3.656-.071c.195.39.316.812.344 1.254l.007.316.004.137.012.629.016.797"/></g></g></g><g clip-path="url(#cv)"><g clip-path="url(#cw)"><g clip-path="url(#cx)"><path fill="#c7dd60" d="M868.953 313.379a.67.67 0 0 0-.21.125l-12.802 11.172c-.707.62-.32 3.148 1.91 5.703 2.094 2.394 4.606 3.336 5.395 2.66l12.793-11.172c.711-.62.32-3.148-1.906-5.703-1.93-2.21-4.192-3.168-5.18-2.785m-5.012 22.137c-2.214.855-5.425-.543-7.988-3.485-3.023-3.46-3.742-7.441-1.668-9.254l12.8-11.172c.282-.246.602-.44.962-.578 2.21-.855 5.422.543 7.98 3.48 3.028 3.466 3.746 7.446 1.668 9.255l-12.797 11.175a3.182 3.182 0 0 1-.957.579"/></g></g></g><g clip-path="url(#cy)"><g clip-path="url(#cz)"><g clip-path="url(#cA)"><path fill="#c7dd60" d="M869.227 314.305a.608.608 0 0 0-.227.136l-12.164 10.618c-.32.28-.414.914-.258 1.691.207 1.04.836 2.219 1.723 3.234 1.761 2.02 3.949 2.743 4.683 2.121l12.164-10.62c.657-.57.407-2.774-1.464-4.926-1.602-1.836-3.563-2.602-4.457-2.254m-5.567 20.285c-2.097.808-5.012-.375-7.254-2.95-1.187-1.355-2.004-2.913-2.3-4.39-.34-1.707.05-3.195 1.074-4.09l12.164-10.62c.285-.25.613-.45.976-.587 2.098-.812 5.012.375 7.258 2.945 2.652 3.043 3.192 6.77 1.227 8.485L864.64 334a3.25 3.25 0 0 1-.98.59"/></g></g></g><g clip-path="url(#cB)"><g clip-path="url(#cC)"><g clip-path="url(#cD)"><path fill="#c7dd60" d="M868.648 315.063a.598.598 0 0 0-.195.113l-10.976 9.582c-.286.246-.364.832-.211 1.562.207.996.82 2.13 1.675 3.11 1.68 1.93 3.762 2.656 4.43 2.078l10.98-9.578c.278-.25.356-.832.208-1.567-.207-.992-.817-2.125-1.676-3.105-1.547-1.774-3.403-2.52-4.235-2.195m-4.562 18.914c-2.024.78-4.856-.38-7.043-2.887-1.148-1.32-1.945-2.828-2.246-4.258-.344-1.656.027-3.105 1.023-3.973l10.977-9.578c.273-.246.59-.433.945-.57 2.024-.781 4.852.379 7.043 2.89 1.145 1.313 1.942 2.825 2.238 4.25.344 1.66-.023 3.11-1.02 3.973l-10.976 9.582c-.273.242-.59.434-.941.57"/></g></g></g><g clip-path="url(#cE)"><g clip-path="url(#cF)"><g clip-path="url(#cG)"><path fill="#c7dd60" d="m863.969 334.328-.211-.246c.113-.031.219-.066.328-.105.34-.133.648-.32.918-.551l-1.035.902m1.09-.945 1.074-.942.207-.18h.004l-1.285 1.122"/></g></g></g><g clip-path="url(#cH)"><g clip-path="url(#cI)"><g clip-path="url(#cJ)"><path fill="#c7dd60" d="M863.164 331.629c-.406.16-1.066.055-1.812-.305l-.5-.574 1.191-1.043 1.46 1.688-.132.113a.722.722 0 0 1-.207.12"/></g></g></g><g clip-path="url(#cK)"><g clip-path="url(#cL)"><g clip-path="url(#cM)"><path fill="#c7dd60" d="M864.086 333.977c-.11.039-.215.074-.328.105l-2.406-2.758c.746.36 1.406.465 1.812.305a.722.722 0 0 0 .207-.121l.133-.113 1.652 1.898.977-.852-1.074.942-.055.043c-.27.23-.578.418-.918.55"/></g></g></g><g clip-path="url(#cN)"><g clip-path="url(#cO)"><g clip-path="url(#cP)"><path fill="#c7dd60" d="m862.773 329.066.442-.39.004.004-.446.386"/></g></g></g><g clip-path="url(#cQ)"><g clip-path="url(#cR)"><g clip-path="url(#cS)"><path fill="#c7dd60" d="m866.133 332.441.222-.191-.015.012-.207.18"/></g></g></g><g clip-path="url(#cT)"><g clip-path="url(#cU)"><g clip-path="url(#cV)"><path fill="#c7dd60" d="m863.504 331.395-1.461-1.688-.004-.004.734-.637.446-.386.504-.438-.493.434 1.465 1.676-1.191 1.043"/></g></g></g><g clip-path="url(#cW)"><g clip-path="url(#cX)"><g clip-path="url(#cY)"><path fill="#c7dd60" d="m865.156 333.293-1.652-1.898 1.191-1.043 1.66 1.898-.222.191-.977.852"/></g></g></g><g clip-path="url(#cZ)"><g clip-path="url(#da)"><g clip-path="url(#db)"><path fill="#c7dd60" d="m867.055 331.645.48-.422-.48.422"/></g></g></g><g clip-path="url(#dc)"><g clip-path="url(#dd)"><g clip-path="url(#de)"><path fill="#c7dd60" d="M866.36 332.25h-.005l1.43-1.246-.25.219-.48.422-.696.605"/></g></g></g><g clip-path="url(#df)"><g clip-path="url(#dg)"><g clip-path="url(#dh)"><path fill="#c7dd60" d="m864.695 330.352-1.465-1.676.493-.434.695-.61 1.469 1.68-1.192 1.04"/></g></g></g><g clip-path="url(#di)"><g clip-path="url(#dj)"><g clip-path="url(#dk)"><path fill="#c7dd60" d="m866.355 332.25-1.66-1.898 1.192-1.04 1.656 1.895.875-.762-.633.559-1.43 1.246"/></g></g></g><g clip-path="url(#dl)"><g clip-path="url(#dm)"><g clip-path="url(#dn)"><path fill="#c7dd60" d="m864.684 327.398.914-.8.004.004-.918.796"/></g></g></g><g clip-path="url(#do)"><g clip-path="url(#dp)"><g clip-path="url(#dq)"><path fill="#c7dd60" d="m869.098 329.855.816-.71.004-.004-.82.714"/></g></g></g><g clip-path="url(#dr)"><g clip-path="url(#ds)"><g clip-path="url(#dt)"><path fill="#c7dd60" d="m865.887 329.313-1.469-1.68.266-.235.918-.796.007-.008 1.47 1.68-1.192 1.038"/></g></g></g><g clip-path="url(#du)"><g clip-path="url(#dv)"><g clip-path="url(#dw)"><path fill="#c7dd60" d="m867.543 331.207-1.656-1.894 1.191-1.04 1.652 1.895 1.184-1.027v.004l-.816.71-.68.59-.875.762"/></g></g></g><g clip-path="url(#dx)"><g clip-path="url(#dy)"><g clip-path="url(#dz)"><path fill="#c7dd60" d="m870.012 329.055 1.093-.953.004.007-1.097.946"/></g></g></g><g clip-path="url(#dA)"><g clip-path="url(#dB)"><g clip-path="url(#dC)"><path fill="#c7dd60" d="m867.078 328.273-1.469-1.68-.007-.007 1.789-1.547-.59.516 1.465 1.68-1.188 1.038"/></g></g></g><g clip-path="url(#dD)"><g clip-path="url(#dE)"><g clip-path="url(#dF)"><path fill="#c7dd60" d="m868.73 330.168-1.652-1.895 1.188-1.039 1.656 1.895 1.183-1.027-1.093.953-.098.086-1.184 1.027"/></g></g></g><g clip-path="url(#dG)"><g clip-path="url(#dH)"><g clip-path="url(#dI)"><path fill="#c7dd60" d="m871.45 327.8.847-.738h.004l-.852.739"/></g></g></g><g clip-path="url(#dJ)"><g clip-path="url(#dK)"><g clip-path="url(#dL)"><path fill="#c7dd60" d="m868.266 327.234-1.465-1.68.59-.515.601-.527 1.469 1.683-1.195 1.04"/></g></g></g><g clip-path="url(#dM)"><g clip-path="url(#dN)"><g clip-path="url(#dO)"><path fill="#c7dd60" d="m869.922 329.129-1.656-1.895 1.195-1.039 1.652 1.895 1.18-1.027h.004l-.848.738-.344.3-1.183 1.028"/></g></g></g><g clip-path="url(#dP)"><g clip-path="url(#dQ)"><g clip-path="url(#dR)"><path fill="#c7dd60" d="m869.46 326.195-1.468-1.683 1.918-1.676-.73.64 1.468 1.68-1.187 1.04"/></g></g></g><g clip-path="url(#dS)"><g clip-path="url(#dT)"><g clip-path="url(#dU)"><path fill="#c7dd60" d="m871.113 328.09-1.652-1.895 1.187-1.039 1.66 1.895-.015.012-1.18 1.027"/></g></g></g><g clip-path="url(#dV)"><g clip-path="url(#dW)"><g clip-path="url(#dX)" fill="#c7dd60"><path d="m873.129 326.34.242-.219.117-.101.004.003-.363.317m.242-.219.117-.101-.117.101"/></g></g></g><g clip-path="url(#dY)"><g clip-path="url(#dZ)"><g clip-path="url(#ea)"><path fill="#c7dd60" d="m872.313 327.055-.004-.004 1.062-.93-.242.219-.817.715"/></g></g></g><g clip-path="url(#eb)"><g clip-path="url(#ec)"><g clip-path="url(#ed)"><path fill="#c7dd60" d="m870.648 325.156-1.468-1.68.73-.64 1.305-1.137-.836.735 1.46 1.68-1.19 1.042"/></g></g></g><g clip-path="url(#ee)"><g clip-path="url(#ef)"><g clip-path="url(#eg)"><path fill="#c7dd60" d="m872.309 327.05-1.66-1.894 1.19-1.043 1.653 1.895.781-.676-.785.688-.117.101-1.062.93"/></g></g></g><g clip-path="url(#eh)"><g clip-path="url(#ei)"><g clip-path="url(#ej)"><path fill="#c7dd60" d="m871.84 324.113-1.461-1.68.836-.734 1.527-1.34v.004l-1.18 1.035 1.47 1.68-1.192 1.035"/></g></g></g><g clip-path="url(#ek)"><g clip-path="url(#el)"><g clip-path="url(#em)"><path fill="#c7dd60" d="m873.492 326.008-1.652-1.895 1.191-1.035 1.657 1.895-.415.359-.78.676"/></g></g></g><g clip-path="url(#en)"><g clip-path="url(#eo)"><g clip-path="url(#ep)" fill="#c7dd60"><path d="m875.285 324.457.203-.184.38-.328v.004l-.583.508m.203-.184.38-.328-.38.328"/></g></g></g><g clip-path="url(#eq)"><g clip-path="url(#er)"><g clip-path="url(#es)"><path fill="#c7dd60" d="m874.691 324.977-.004-.004.801-.7-.203.184-.594.52m1.38-1.211c.331-.309.59-.684.769-1.11l.215.246-.985.864"/></g></g></g><g clip-path="url(#et)"><g clip-path="url(#eu)"><g clip-path="url(#ev)"><path fill="#c7dd60" d="m873.031 323.078-1.468-1.68 1.18-1.035 1.19-1.039.5.567c.051.16.09.32.126.472.148.735.07 1.317-.207 1.567l-1.32 1.148"/></g></g></g><g clip-path="url(#ew)"><g clip-path="url(#ex)"><g clip-path="url(#ey)"><path fill="#c7dd60" d="m874.688 324.973-1.657-1.895 1.32-1.148c.278-.25.356-.832.208-1.567a6.079 6.079 0 0 0-.125-.472l2.406 2.765c-.18.426-.438.801-.77 1.11l-.203.18-.379.327-.8.7"/></g></g></g><g clip-path="url(#ez)"><g clip-path="url(#eA)"><g clip-path="url(#eB)"><path fill="#c7dd60" d="M783.234 186.754c-20.02 7.734-35.828 22.793-44.52 42.418-17.937 40.508.43 88.05 40.934 105.988 19.622 8.688 41.457 9.215 61.473 1.485 20.02-7.735 35.828-22.793 44.516-42.415 17.937-40.507-.426-88.054-40.934-105.992-19.621-8.691-41.453-9.215-61.469-1.484Zm58.793 152.238c-20.644 7.977-43.16 7.434-63.402-1.527-41.773-18.5-60.71-67.535-42.215-109.313 8.961-20.234 25.27-35.773 45.914-43.75 20.645-7.972 43.164-7.43 63.399 1.532 41.777 18.5 60.715 67.539 42.218 109.316-8.96 20.234-25.265 35.77-45.914 43.742"/></g></g></g><g clip-path="url(#eC)"><g clip-path="url(#eD)"><g clip-path="url(#eE)"><path fill="#c7dd60" d="M784.383 189.742c-19.219 7.426-34.399 21.887-42.742 40.727-17.22 38.894.414 84.543 39.304 101.761 18.84 8.344 39.801 8.848 59.024 1.426 19.218-7.422 34.398-21.886 42.738-40.726 8.344-18.836 8.848-39.801 1.43-59.016-7.426-19.226-21.89-34.402-40.73-42.746-18.84-8.344-39.802-8.848-59.024-1.426Zm56.492 146.266c-19.852 7.664-41.496 7.144-60.95-1.473-40.163-17.781-58.37-64.922-40.585-105.086 8.613-19.457 24.289-34.39 44.137-42.054 19.851-7.668 41.496-7.145 60.949 1.468 19.453 8.617 34.394 24.29 42.058 44.14 7.668 19.849 7.141 41.493-1.476 60.946-8.61 19.457-24.285 34.39-44.133 42.059"/></g></g></g><g clip-path="url(#eF)"><g clip-path="url(#eG)"><g clip-path="url(#eH)"><path fill="#c7dd60" d="M785.922 193.719c-18.156 7.011-32.496 20.676-40.379 38.476-16.27 36.743.387 79.871 37.129 96.14 17.797 7.884 37.598 8.36 55.758 1.349 18.156-7.012 32.5-20.676 40.379-38.477 7.882-17.797 8.363-37.602 1.347-55.762-7.011-18.16-20.676-32.5-38.476-40.382-17.797-7.88-37.598-8.356-55.758-1.344Zm53.414 138.316c-18.785 7.254-39.274 6.758-57.684-1.394-38.015-16.836-55.25-61.454-38.414-99.465 8.153-18.414 22.992-32.551 41.778-39.809 18.785-7.254 39.273-6.758 57.683 1.395 18.418 8.152 32.555 22.988 39.809 41.773 7.254 18.79 6.762 39.274-1.395 57.692-8.152 18.414-22.988 32.55-41.777 39.808"/></g></g></g><g clip-path="url(#eI)"><g clip-path="url(#eJ)"><g clip-path="url(#eK)"><path fill="#c7dd60" d="M577.629 318.45c.414-1.774.648-3.262 1.094-4.68 1.34-4.207 3.539-7.711 7.851-9.5 2.418-1 4.762-.942 7.02.308 2.562 1.418 4.847 3.223 6.293 5.813 4.511 8.117 8.836 16.347 10.578 25.59.5 2.644.547 5.43.406 8.132-.14 2.703-1.851 4.426-4.516 5.012-7.75 1.684-15.597 2.648-23.52 2.293-2.839-.125-5.698-.89-8.448-1.691-2.801-.817-5.211-2.473-7.219-4.633-4.125-4.438-4.316-9.133-.617-13.977 2.101-2.742 4.992-4.379 8.078-5.762 1.644-.742 1.773-1.464.297-2.492-1.614-1.11-3.297-2.23-5.102-2.941-3.105-1.223-6.277-2.36-9.52-3.129-7.949-1.887-15.28-5.129-22.054-9.61-14.016-9.277-26.848-19.921-37.336-33.152-6.184-7.808-10.918-16.445-13.453-26.172a39.967 39.967 0 0 1-1.184-13.109c.489-6.719 3.325-12.262 8.621-16.46 2.504-1.981 5.157-3.759 7.68-5.72 1.797-1.394 3.602-2.8 5.2-4.418 3.925-3.964 4.62-8.285 2.402-13.355-1.606-3.668-3.977-6.813-6.59-9.797-3.805-4.336-7.656-8.637-11.38-13.047-3.933-4.676-7.022-9.902-9.538-15.476-2.461-5.434-3.238-11.102-2.223-16.926 1.871-10.715 7.063-19.387 16.563-25.012 6.008-3.559 12.105-7.02 18.394-10.047 15.946-7.676 32.125-7.05 48.125-.222 10.524 4.492 17.067 12.859 20.938 23.464 2.422 6.63 3.418 13.532 3.89 20.528 1.524 22.847-1.336 45.218-7.457 67.207-1.957 7.031-4.32 13.941-6.543 20.898-4.086 12.813-6.746 25.88-7.175 39.356-.286 8.847.082 17.652 2.629 26.191 1.125 3.774 2.593 7.457 4.027 11.129.484 1.258 1.293 2.406 2.05 3.543.4.617 1 1.082 1.739 1.863Zm-82.762-59.536a76.767 76.767 0 0 0 10.64 15.863c10.848 12.473 23.313 23.082 37.497 31.575 4.137 2.476 8.703 4.351 13.219 6.074 4.68 1.777 9.547 3.058 14.34 4.52.386.116.84-.012 1.265-.028-.023-.402.094-.86-.07-1.191-2.336-4.641-4.102-9.48-5.38-14.508-2.316-9.078-2.679-18.313-2.233-27.61.656-13.773 3.593-27.09 7.851-40.164 1.977-6.07 4.02-12.132 5.742-18.28 6.348-22.731 9.293-45.837 7.27-69.458-.547-6.394-1.758-12.602-4.156-18.602-3.086-7.75-7.852-14.09-15.16-18.171-11.907-6.66-24.684-8.063-37.973-5.547-1.785.332-3.508.988-5.246 1.547-8.325 2.691-15.649 7.367-23.141 11.71-7.758 4.508-12.621 11.258-15.05 19.817-1.946 6.848-1.376 13.516 1.652 19.992 2.136 4.574 4.789 8.828 8.02 12.688 4.581 5.468 9.327 10.804 13.948 16.246a31.71 31.71 0 0 1 5.668 9.832c1.848 5.136 1.094 9.922-2.547 14.047-1.5 1.687-3.253 3.195-5.027 4.601-2.742 2.16-5.644 4.121-8.422 6.238-4.988 3.801-7.879 8.801-8.156 15.125a48.723 48.723 0 0 0 .238 7.278c.64 5.789 2.563 11.219 5.211 16.406Zm106.61 60.977c-1.012-2.043-1.817-4.215-3.079-6.079-1.343-1.98-2.914-3.91-4.742-5.433-3.093-2.582-6.07-2.227-8.87.605-3.946 3.996-4.934 10.121-2.434 15.157.332.671.808 1.28 1.125 1.964.312.672-.293 1.723-.985 1.704-.902-.028-1.804-.18-2.703-.286-4.738-.558-10.605 3.872-12.117 7.47-.895 2.124-.899 4.058.3 6.07 1.383 2.312 3.43 3.82 5.75 5.003 3.466 1.782 7.196 2.395 11.028 2.348 6.523-.086 13.02-.695 19.426-1.98.594-.122 1.176-.344 1.765-.442 1.282-.21 1.891-1.09 1.86-2.219-.082-2.707-.035-5.476-.582-8.109-1.149-5.516-3.172-10.766-5.742-15.773Zm0 0"/></g></g></g><g clip-path="url(#eL)"><g clip-path="url(#eM)"><g clip-path="url(#eN)"><path fill="#c7dd60" d="M597.027 342.355c-.218.457-.297 1.024-.601 1.184-.645.352-1.399.684-2.098.668a953.247 953.247 0 0 1-16.738-.453c-.738-.027-1.528-.227-2.168-.582-.438-.238-.926-.871-.93-1.336-.008-.875.664-1.207 1.559-1.172 5.879.23 11.758.445 17.633.668.746.035 1.507.05 2.242.215.363.09.676.492 1.101.808Zm0 0"/></g></g></g><path d="M492.12 666.483c2.207 0 4.066.29 5.578.86 1.52.574 3.066 1.5 4.64 2.78l-2.78 3.266c-2.25-1.82-4.622-2.734-7.11-2.734-3.074 0-5.547 1.18-7.422 3.531-1.867 2.356-2.797 6.137-2.797 11.344 0 5.062.926 8.797 2.781 11.203 1.852 2.406 4.313 3.61 7.375 3.61 1.57 0 2.946-.266 4.125-.797 1.176-.532 2.426-1.282 3.75-2.25l2.5 3.218c-1.136 1.168-2.593 2.149-4.375 2.938-1.78.781-3.835 1.172-6.156 1.172-2.992 0-5.656-.739-8-2.22-2.336-1.476-4.152-3.648-5.453-6.515-1.305-2.875-1.953-6.328-1.953-10.36 0-4.03.676-7.476 2.031-10.343 1.352-2.875 3.188-5.039 5.5-6.5 2.32-1.469 4.91-2.203 7.766-2.203Zm38.085 22.578c0 .824-.039 1.664-.11 2.516h-17.968c.207 3.105.988 5.387 2.344 6.844 1.351 1.46 3.101 2.187 5.25 2.187 1.351 0 2.597-.191 3.734-.578 1.145-.395 2.344-1.02 3.594-1.875l2.14 2.937c-3 2.356-6.28 3.532-9.843 3.532-3.93 0-6.992-1.282-9.188-3.844-2.187-2.57-3.281-6.102-3.281-10.594 0-2.926.473-5.52 1.422-7.781.945-2.27 2.3-4.047 4.062-5.328 1.758-1.281 3.836-1.922 6.235-1.922 3.738 0 6.61 1.23 8.61 3.687 2 2.461 3 5.868 3 10.22Zm-4.875-1.437c0-2.782-.555-4.899-1.656-6.36-1.106-1.468-2.762-2.203-4.969-2.203-4.031 0-6.226 2.961-6.578 8.875h13.203Zm31.705 9.781c0 1.148.196 1.996.594 2.547.395.554.984.969 1.766 1.25l-1.125 3.422c-1.461-.18-2.637-.586-3.532-1.22-.886-.644-1.543-1.644-1.968-3-1.899 2.813-4.7 4.22-8.407 4.22-2.78 0-4.976-.782-6.578-2.344-1.605-1.57-2.406-3.625-2.406-6.156 0-3 1.078-5.301 3.234-6.907 2.157-1.601 5.211-2.406 9.172-2.406h4.328v-2.078c0-2-.48-3.426-1.437-4.281-.961-.852-2.438-1.281-4.438-1.281-2.074 0-4.605.5-7.593 1.5l-1.235-3.594c3.5-1.281 6.742-1.922 9.735-1.922 3.312 0 5.785.812 7.422 2.437 1.644 1.618 2.468 3.922 2.468 6.922Zm-11.547 3.531c2.813 0 5.02-1.46 6.625-4.39v-6.47h-3.687c-5.211 0-7.813 1.93-7.813 5.782 0 1.68.41 2.945 1.235 3.797.82.855 2.035 1.281 3.64 1.281Zm29.308-25.781c1.926 0 3.657.273 5.188.812 1.531.532 2.988 1.329 4.375 2.391l-2.078 3.11c-1.282-.82-2.508-1.426-3.672-1.813a11.245 11.245 0 0 0-3.656-.594c-1.606 0-2.872.336-3.797 1-.93.656-1.39 1.555-1.39 2.688 0 1.148.437 2.043 1.312 2.687.875.637 2.453 1.258 4.734 1.86 3.133.78 5.477 1.851 7.031 3.203 1.551 1.355 2.328 3.21 2.328 5.562 0 2.781-1.078 4.906-3.234 6.375-2.156 1.461-4.79 2.188-7.89 2.188-4.282 0-7.829-1.227-10.641-3.688l2.61-3c2.394 1.824 5.034 2.735 7.92 2.735 1.853 0 3.321-.38 4.407-1.141 1.094-.77 1.64-1.816 1.64-3.14 0-.958-.198-1.727-.593-2.313-.398-.594-1.074-1.113-2.031-1.563-.961-.445-2.367-.922-4.219-1.422-3-.78-5.172-1.832-6.516-3.156-1.335-1.32-2-3-2-5.031 0-1.457.438-2.781 1.313-3.969.875-1.195 2.086-2.125 3.64-2.781 1.551-.664 3.29-1 5.22-1Zm38.284 28.828h-4.218l-.375-4.39c-1.074 1.75-2.309 3.027-3.703 3.828-1.387.8-3.078 1.203-5.078 1.203-2.461 0-4.387-.743-5.782-2.235-1.386-1.5-2.078-3.625-2.078-6.375v-20.218h4.922v19.687c0 1.93.336 3.293 1.016 4.094.675.804 1.78 1.203 3.312 1.203 2.75 0 5.102-1.625 7.063-4.875v-20.11h4.922Zm22.403-28.828c1 0 1.926.11 2.781.328l-.906 4.813a9.966 9.966 0 0 0-2.469-.329c-1.742 0-3.148.649-4.219 1.938-1.074 1.281-1.914 3.277-2.515 5.984v16.094h-4.922v-28.187h4.234l.47 5.718c.75-2.101 1.765-3.687 3.046-4.75 1.289-1.07 2.789-1.61 4.5-1.61Zm13.312.641v28.187h-4.922v-28.187Zm-2.515-13.532c1.03 0 1.863.325 2.5.969.644.637.968 1.438.968 2.406 0 .961-.324 1.75-.968 2.375-.637.625-1.47.938-2.5.938-1 0-1.825-.313-2.47-.938-.636-.625-.952-1.414-.952-2.375 0-.968.316-1.77.953-2.406.644-.644 1.469-.969 2.469-.969Zm34.5 12.891c1.925 0 3.655.273 5.187.812 1.53.532 2.988 1.329 4.375 2.391l-2.078 3.11c-1.282-.82-2.508-1.426-3.672-1.813a11.245 11.245 0 0 0-3.657-.594c-1.605 0-2.87.336-3.796 1-.93.656-1.391 1.555-1.391 2.688 0 1.148.437 2.043 1.312 2.687.875.637 2.454 1.258 4.735 1.86 3.133.78 5.476 1.851 7.031 3.203 1.55 1.355 2.328 3.21 2.328 5.562 0 2.781-1.078 4.906-3.234 6.375-2.156 1.461-4.79 2.188-7.89 2.188-4.282 0-7.829-1.227-10.641-3.688l2.609-3c2.394 1.824 5.035 2.735 7.922 2.735 1.851 0 3.32-.38 4.406-1.141 1.094-.77 1.64-1.816 1.64-3.14 0-.958-.199-1.727-.593-2.313-.398-.594-1.074-1.113-2.031-1.563-.961-.445-2.367-.922-4.22-1.422-3-.78-5.17-1.832-6.515-3.156-1.336-1.32-2-3-2-5.031 0-1.457.438-2.781 1.313-3.969.875-1.195 2.086-2.125 3.64-2.781 1.551-.664 3.29-1 5.22-1Zm-.016 32.953c.851 0 1.57.281 2.156.844.594.57.89 1.285.89 2.14 0 .47-.101.985-.296 1.547-.188.57-.555 1.43-1.094 2.578l-2.188 4.594h-2.828l1.547-6.203c-.855-.75-1.281-1.59-1.281-2.516 0-.855.3-1.57.906-2.14.602-.563 1.332-.844 2.188-.844Zm22.253-32.312v28.187h-4.922v-28.187Zm-2.516-13.532c1.031 0 1.863.325 2.5.969.644.637.969 1.438.969 2.406 0 .961-.325 1.75-.97 2.375-.636.625-1.468.938-2.5.938-1 0-1.823-.313-2.468-.938-.637-.625-.953-1.414-.953-2.375 0-.968.316-1.77.953-2.406.645-.644 1.469-.969 2.469-.969Zm39.734 12.891c3.207 0 5.754 1.293 7.64 3.875 1.895 2.586 2.844 6.195 2.844 10.828 0 2.93-.449 5.508-1.344 7.734-.886 2.23-2.167 3.961-3.843 5.188-1.68 1.226-3.64 1.844-5.89 1.844-2.962 0-5.454-1.25-7.485-3.75l-.485 3.109h-4.328v-39.531l4.922-.578v15.453c2.031-2.781 4.688-4.172 7.969-4.172Zm-1.766 25.562c2.176 0 3.88-.878 5.11-2.64 1.226-1.77 1.843-4.508 1.843-8.219 0-3.812-.574-6.562-1.718-8.25-1.137-1.695-2.758-2.547-4.86-2.547-2.492 0-4.683 1.465-6.578 4.39v13.47c.75 1.18 1.664 2.105 2.75 2.78 1.094.68 2.242 1.016 3.453 1.016Zm25.56-24.921v28.187h-4.922v-28.187Zm-2.516-13.532c1.031 0 1.864.325 2.5.969.645.637.969 1.438.969 2.406 0 .961-.324 1.75-.969 2.375-.636.625-1.469.938-2.5.938-1 0-1.824-.313-2.469-.938-.636-.625-.953-1.414-.953-2.375 0-.968.317-1.77.953-2.406.645-.644 1.47-.969 2.47-.969Zm17.486 40c0 2.602-.324 4.692-.969 6.266-.637 1.57-1.57 2.848-2.797 3.828-1.23.977-2.949 1.969-5.156 2.969l-1.453-3.594c1.394-.637 2.46-1.266 3.203-1.89.75-.626 1.312-1.5 1.687-2.626.375-1.125.563-2.668.563-4.625v-26.796h4.922Zm-2.453-40c1.03 0 1.863.325 2.5.969.644.637.968 1.438.968 2.406 0 .961-.324 1.75-.968 2.375-.637.625-1.47.938-2.5.938-1 0-1.825-.313-2.47-.938-.636-.625-.952-1.414-.952-2.375 0-.968.316-1.77.953-2.406.644-.644 1.469-.969 2.469-.969Zm33.581 41.719h-4.218l-.375-4.39c-1.075 1.75-2.309 3.027-3.703 3.828-1.387.8-3.079 1.203-5.079 1.203-2.46 0-4.386-.743-5.78-2.235-1.388-1.5-2.079-3.625-2.079-6.375v-20.218h4.922v19.687c0 1.93.336 3.293 1.016 4.094.675.804 1.78 1.203 3.312 1.203 2.75 0 5.102-1.625 7.063-4.875v-20.11h4.921Zm24.387-1.281c-1.855 1.281-3.96 1.922-6.312 1.922-2.399 0-4.262-.68-5.594-2.047-1.336-1.375-2-3.363-2-5.969v-17.016h-4.922v-3.796h4.922v-6.36l4.922-.594v6.954h6.687l-.547 3.796h-6.14v16.797c0 1.461.254 2.524.765 3.188.52.656 1.383.984 2.594.984 1.102 0 2.352-.375 3.75-1.125Zm26.366-13.641c0 .824-.039 1.664-.11 2.516h-17.968c.207 3.105.988 5.387 2.344 6.844 1.351 1.46 3.101 2.187 5.25 2.187 1.351 0 2.598-.191 3.734-.578 1.145-.395 2.344-1.02 3.594-1.875l2.14 2.937c-3 2.356-6.28 3.532-9.843 3.532-3.93 0-6.992-1.282-9.188-3.844-2.187-2.57-3.28-6.102-3.28-10.594 0-2.926.472-5.52 1.421-7.781.945-2.27 2.3-4.047 4.063-5.328 1.757-1.281 3.835-1.922 6.234-1.922 3.738 0 6.61 1.23 8.61 3.687 2 2.461 3 5.868 3 10.22Zm-4.875-1.437c0-2.782-.554-4.899-1.656-6.36-1.105-1.468-2.762-2.203-4.969-2.203-4.031 0-6.226 2.961-6.578 8.875h13.203Zm24.971-12.469c1 0 1.926.11 2.781.328l-.906 4.813a9.966 9.966 0 0 0-2.469-.329c-1.742 0-3.148.649-4.218 1.938-1.075 1.281-1.915 3.277-2.516 5.984v16.094h-4.922v-28.187h4.234l.47 5.718c.75-2.101 1.765-3.687 3.046-4.75 1.29-1.07 2.79-1.61 4.5-1.61Zm13.312.641v28.187h-4.921v-28.187Zm-2.515-13.532c1.031 0 1.863.325 2.5.969.644.637.969 1.438.969 2.406 0 .961-.325 1.75-.97 2.375-.636.625-1.468.938-2.5.938-1 0-1.823-.313-2.468-.938-.637-.625-.953-1.414-.953-2.375 0-.968.316-1.77.953-2.406.645-.644 1.469-.969 2.469-.969Zm17.595 13.532v28.187h-4.922v-28.187Zm-2.516-13.532c1.031 0 1.863.325 2.5.969.645.637.969 1.438.969 2.406 0 .961-.324 1.75-.969 2.375-.637.625-1.469.938-2.5.938-1 0-1.824-.313-2.469-.938-.636-.625-.953-1.414-.953-2.375 0-.968.317-1.77.953-2.406.645-.644 1.469-.969 2.469-.969Zm0 0" fill="#c7dd60"/></svg>