<svg xmlns="http://www.w3.org/2000/svg" width="1920" viewBox="0 0 1440 810" height="1080" version="1.0" xmlns:xlink="http://www.w3.org/1999/xlink"><defs><path d="m454.629 426.746 130.965-21.687 28.426 171.66-130.965 21.687Zm0 0" id="a"/><path d="m865.54 128.7 86.183 34.94-58.332 143.876-86.188-34.946Zm0 0" id="b"/><path d="m714.617 307.734 54.621 54.625-69.472 69.473-54.625-54.625Zm0 0" id="c"/><path d="m773.484 369.867 178.223 75.36-70.102 165.785-178.222-75.36Zm0 0" id="d"/><path d="m397.66 170.2 290.113-84.794 58.282 199.406-290.114 84.793Zm0 0" id="e"/></defs><defs><clipPath id="f"><path d="M294.941 7.043h799.02v795.914H294.94Zm0 0"/></clipPath><clipPath id="g"><path d="M333.191 7.043h721.965c21.125 0 38.25 17.129 38.25 38.25v719.414c0 21.125-17.125 38.25-38.25 38.25H333.191c-21.125 0-38.25-17.125-38.25-38.25V45.293c0-21.121 17.125-38.25 38.25-38.25Zm0 0"/></clipPath><clipPath id="h"><path d="M456 407h157v190H456Zm0 0"/></clipPath><clipPath id="i"><use xlink:href="#a"/></clipPath><clipPath id="j"><use xlink:href="#a"/></clipPath><clipPath id="k"><path d="M471 420h125v150H471Zm0 0"/></clipPath><clipPath id="l"><use xlink:href="#a"/></clipPath><clipPath id="m"><use xlink:href="#a"/></clipPath><clipPath id="n"><path d="M537 565h18v11h-18Zm0 0"/></clipPath><clipPath id="o"><use xlink:href="#a"/></clipPath><clipPath id="p"><use xlink:href="#a"/></clipPath><clipPath id="q"><path d="M812 133h135v170H812Zm0 0"/></clipPath><clipPath id="r"><use xlink:href="#b"/></clipPath><clipPath id="s"><use xlink:href="#b"/></clipPath><clipPath id="t"><path d="M848 268h16v16h-16Zm0 0"/></clipPath><clipPath id="u"><use xlink:href="#b"/></clipPath><clipPath id="v"><use xlink:href="#b"/></clipPath><clipPath id="w"><path d="M651 323h115v98H651Zm0 0"/></clipPath><clipPath id="x"><use xlink:href="#c"/></clipPath><clipPath id="y"><use xlink:href="#c"/></clipPath><clipPath id="z"><path d="M735 462h41v93h-41Zm0 0"/></clipPath><clipPath id="A"><use xlink:href="#d"/></clipPath><clipPath id="B"><use xlink:href="#d"/></clipPath><clipPath id="C"><path d="M720 471h31v71h-31Zm0 0"/></clipPath><clipPath id="D"><use xlink:href="#d"/></clipPath><clipPath id="E"><use xlink:href="#d"/></clipPath><clipPath id="F"><path d="M830 514h70v82h-70Zm0 0"/></clipPath><clipPath id="G"><use xlink:href="#d"/></clipPath><clipPath id="H"><use xlink:href="#d"/></clipPath><clipPath id="I"><path d="M852 533h53v62h-53Zm0 0"/></clipPath><clipPath id="J"><use xlink:href="#d"/></clipPath><clipPath id="K"><use xlink:href="#d"/></clipPath><clipPath id="L"><path d="M745 401h168v138H745Zm0 0"/></clipPath><clipPath id="M"><use xlink:href="#d"/></clipPath><clipPath id="N"><use xlink:href="#d"/></clipPath><clipPath id="O"><path d="M762 413h98v56h-98Zm0 0"/></clipPath><clipPath id="P"><use xlink:href="#d"/></clipPath><clipPath id="Q"><use xlink:href="#d"/></clipPath><clipPath id="R"><path d="M854 418h47v103h-47Zm0 0"/></clipPath><clipPath id="S"><use xlink:href="#d"/></clipPath><clipPath id="T"><use xlink:href="#d"/></clipPath><clipPath id="U"><path d="M430 97h265v205H430Zm0 0"/></clipPath><clipPath id="V"><use xlink:href="#e"/></clipPath><clipPath id="W"><use xlink:href="#e"/></clipPath><clipPath id="X"><path d="M453 242h291v125H453Zm0 0"/></clipPath><clipPath id="Y"><use xlink:href="#e"/></clipPath><clipPath id="Z"><use xlink:href="#e"/></clipPath><clipPath id="aa"><path d="M575 293h41v23h-41Zm0 0"/></clipPath><clipPath id="ab"><use xlink:href="#e"/></clipPath><clipPath id="ac"><use xlink:href="#e"/></clipPath></defs><g clip-path="url(#f)"><g clip-path="url(#g)"><path fill="#0e332c" d="M294.941 7.043h799.02v795.914H294.94Zm0 0"/></g></g><g clip-path="url(#h)"><g clip-path="url(#i)"><g clip-path="url(#j)"><path fill="#c7dd60" d="m573.277 407.398-105.87 17.532c-.837.136-1.65.355-2.442.656a12.784 12.784 0 0 0-4.273 2.66 12.466 12.466 0 0 0-1.669 1.902 12.906 12.906 0 0 0-2.406 7.094c-.027.848.028 1.692.168 2.528l24.094 145.496a13.018 13.018 0 0 0 1.773 4.715c.45.718.961 1.386 1.543 2.003a12.596 12.596 0 0 0 1.903 1.668c.687.493 1.418.914 2.191 1.262.77.352 1.57.621 2.395.813.824.195 1.664.304 2.507.332.848.027 1.692-.032 2.528-.168l105.867-17.532a12.52 12.52 0 0 0 2.441-.656 12.67 12.67 0 0 0 2.27-1.121c.719-.445 1.39-.96 2.008-1.539a13.108 13.108 0 0 0 1.668-1.902 13.008 13.008 0 0 0 2.074-4.59 13.01 13.01 0 0 0 .164-5.031l-24.094-145.5a12.901 12.901 0 0 0-1.777-4.71c-.45-.72-.961-1.388-1.54-2.01a12.88 12.88 0 0 0-1.905-1.663 12.906 12.906 0 0 0-7.094-2.406 12.693 12.693 0 0 0-2.524.167Zm31.657 157.329a5.539 5.539 0 0 1-.07 2.156 5.601 5.601 0 0 1-.887 1.965 5.946 5.946 0 0 1-.715.816 5.84 5.84 0 0 1-.86.66 5.627 5.627 0 0 1-.972.48c-.34.126-.692.22-1.047.282l-105.871 17.531a5.579 5.579 0 0 1-2.157-.07 5.582 5.582 0 0 1-1.027-.348 5.58 5.58 0 0 1-2.414-2.117 5.627 5.627 0 0 1-.48-.973 5.381 5.381 0 0 1-.282-1.047l-24.093-145.5a5.579 5.579 0 0 1 .07-2.156c.082-.355.2-.695.348-1.027a5.3 5.3 0 0 1 .543-.938 5.463 5.463 0 0 1 1.574-1.476 5.522 5.522 0 0 1 2.019-.762l105.867-17.531a5.579 5.579 0 0 1 2.157.07 5.582 5.582 0 0 1 1.968.89c.293.212.567.45.813.716.25.261.469.55.66.859.195.309.356.633.48.973.13.34.223.687.282 1.047Zm0 0"/></g></g></g><g clip-path="url(#k)"><g clip-path="url(#l)"><g clip-path="url(#m)"><path fill="#c7dd60" d="m562.45 420.766-80.446 13.32c-.848.144-1.672.367-2.477.668-.804.305-1.57.683-2.297 1.14a13.044 13.044 0 0 0-5.008 5.715 13.44 13.44 0 0 0-.824 2.426 13.047 13.047 0 0 0-.168 5.102l18.106 109.336a13.087 13.087 0 0 0 1.805 4.77c.457.73.976 1.405 1.566 2.03.586.625 1.23 1.188 1.93 1.688.695.5 1.437.926 2.218 1.281a13.274 13.274 0 0 0 4.97 1.156c.859.028 1.71-.03 2.558-.168l80.469-13.328c.847-.14 1.671-.363 2.476-.664a13.33 13.33 0 0 0 2.297-1.136 13.371 13.371 0 0 0 2.031-1.563 13.219 13.219 0 0 0 2.969-4.148 13.094 13.094 0 0 0 1.16-4.97c.028-.859-.027-1.71-.164-2.558L577.516 431.54a13.002 13.002 0 0 0-.668-2.48 13.02 13.02 0 0 0-2.703-4.336 12.822 12.822 0 0 0-1.93-1.692 13.24 13.24 0 0 0-2.227-1.281 12.745 12.745 0 0 0-2.433-.82 12.71 12.71 0 0 0-2.547-.332c-.86-.028-1.711.027-2.559.168Zm25.87 121.316a5.87 5.87 0 0 1-.074 2.223 5.826 5.826 0 0 1-.36 1.058 5.601 5.601 0 0 1-1.297 1.809 5.766 5.766 0 0 1-1.886 1.18c-.351.132-.71.23-1.082.293l-80.441 13.32a5.947 5.947 0 0 1-1.118.074 5.874 5.874 0 0 1-2.167-.504 5.601 5.601 0 0 1-1.813-1.297 5.71 5.71 0 0 1-1.18-1.89 5.796 5.796 0 0 1-.293-1.078l-18.105-109.336a5.634 5.634 0 0 1-.07-1.118c.011-.375.058-.746.144-1.109.086-.367.207-.719.36-1.062a5.847 5.847 0 0 1 1.3-1.813 5.56 5.56 0 0 1 .887-.68 5.596 5.596 0 0 1 2.082-.789l80.473-13.324a5.637 5.637 0 0 1 2.226.074c.364.086.719.203 1.059.36a5.601 5.601 0 0 1 1.809 1.297c.257.273.484.57.683.89.2.317.363.652.496 1.004.129.348.227.711.29 1.078Zm0 0"/></g></g></g><g clip-path="url(#n)"><g clip-path="url(#o)"><g clip-path="url(#p)"><path fill="#c7dd60" d="m537.219 568.633 16.297-2.7 1.203 7.274-16.297 2.7Zm0 0"/></g></g></g><g clip-path="url(#q)"><g clip-path="url(#r)"><g clip-path="url(#s)"><path fill="#c7dd60" d="m935.465 157.05-53.867-21.843c-8.84-3.582-18.942.695-22.528 9.531L813.621 256.84c-3.586 8.836.692 18.941 9.527 22.527l53.872 21.84c8.835 3.582 18.94-.691 22.523-9.527l45.453-112.106c3.582-8.836-.691-18.941-9.531-22.523Zm-72.672-8.085 76.59 31.05-39.278 96.864-76.585-31.05Zm16.91-9.09 53.871 21.844c5.465 2.215 8.465 7.945 7.457 13.531l-76.105-30.855c3.168-4.711 9.316-6.735 14.777-4.52Zm-.793 156.664-53.87-21.84c-6.263-2.539-9.294-9.703-6.75-15.965l3.339-8.238 76.586 31.05-3.34 8.24c-2.54 6.265-9.703 9.292-15.965 6.753Zm0 0"/></g></g></g><g clip-path="url(#t)"><g clip-path="url(#u)"><g clip-path="url(#v)"><path fill="#c7dd60" d="M858.703 269.023c-3.715-1.503-7.96.29-9.465 4.004-1.508 3.715.29 7.961 4.004 9.47 3.715 1.503 7.961-.294 9.465-4.009 1.508-3.71-.289-7.957-4.004-9.465Zm-3.566 8.805a2.233 2.233 0 0 1 1.676-4.137 2.232 2.232 0 0 1-1.676 4.137Zm0 0"/></g></g></g><g clip-path="url(#w)"><g clip-path="url(#x)"><g clip-path="url(#y)"><path fill="#c7dd60" d="m758.52 369.898-.915-.914 7.305-7.3a2.591 2.591 0 0 0 0-3.653l-5.476-5.48a2.591 2.591 0 0 0-3.653 0l-7.304 7.304-.914-.914a2.586 2.586 0 0 0-3.649 0l-12.781 12.782a2.591 2.591 0 0 0 0 3.652l3.652 3.652-32.867 32.864a10.324 10.324 0 0 1-14.606 0 10.324 10.324 0 0 1 0-14.606l47.473-47.473c6.043-6.042 6.043-15.863 0-21.91-6.043-6.043-15.867-6.043-21.91 0l-21.91 21.91-1.828-1.824a2.591 2.591 0 0 0-3.653 0l-5.476 5.477-1.824-1.824c-2.012-2.012-5.297-2.012-7.305 0l-14.61 14.605c-2.007 2.008-2.007 5.293.004 7.305l1.825 1.824-5.48 5.48a2.586 2.586 0 0 0 0 3.649 2.591 2.591 0 0 0 3.652 0l5.48-5.477 3.648 3.653-5.476 5.476a2.591 2.591 0 0 0 0 3.653 2.591 2.591 0 0 0 3.652 0l5.477-5.48 1.828 1.827c2.008 2.008 5.293 2.008 7.3 0l14.606-14.605c2.012-2.012 2.012-5.297.004-7.305l-1.828-1.828 5.48-5.477a2.591 2.591 0 0 0 0-3.652l-1.828-1.824 21.91-21.91a10.324 10.324 0 0 1 14.606 0 10.32 10.32 0 0 1 .004 14.605l-47.473 47.473c-6.043 6.043-6.047 15.867 0 21.91 6.043 6.043 15.863 6.043 21.91 0l32.864-32.867 3.652 3.652a2.591 2.591 0 0 0 3.652 0l12.782-12.777a2.591 2.591 0 0 0 0-3.653m-71.207-16.433 3.648 3.652-3.649 3.653-3.652-3.653Zm1.824 16.433-14.606 14.606-14.605-14.606 14.605-14.605Zm68.468-11.867 1.829 1.824-5.48 5.477-1.825-1.824Zm-13.69 22.82-7.306-7.3 9.13-9.13 7.304 7.302Zm0 0" fill-rule="evenodd"/></g></g></g><g clip-path="url(#z)"><g clip-path="url(#A)"><g clip-path="url(#B)"><path fill="#c7dd60" d="M743.977 553.09a13.913 13.913 0 0 1-5.825-4.617 13.958 13.958 0 0 1-2.566-10.442l9.754-63.883a13.963 13.963 0 0 1 5.574-9.203 13.958 13.958 0 0 1 10.441-2.566l1.836.277c7.664 1.168 12.942 8.356 11.77 16.016l-9.758 63.887a13.95 13.95 0 0 1-5.57 9.199 13.974 13.974 0 0 1-10.446 2.57l-1.835-.281a14.11 14.11 0 0 1-3.375-.957Zm20.527-84.66a8.72 8.72 0 0 0-2.102-.59l-1.836-.281a8.753 8.753 0 0 0-6.55 1.613 8.774 8.774 0 0 0-3.496 5.77l-9.758 63.882a8.75 8.75 0 0 0 1.61 6.551 8.773 8.773 0 0 0 5.773 3.496l1.835.281a8.77 8.77 0 0 0 6.551-1.613 8.753 8.753 0 0 0 3.492-5.773l9.762-63.883c.617-4.067-1.66-7.918-5.281-9.453Zm0 0"/></g></g></g><g clip-path="url(#C)"><g clip-path="url(#D)"><g clip-path="url(#E)"><path fill="#c7dd60" d="M731.809 539.672c-7.942-3.356-12.93-11.793-11.567-20.703l4.766-31.215a19.205 19.205 0 0 1 7.652-12.645c4.156-3.05 9.254-4.308 14.352-3.527l1.34.207a2.615 2.615 0 0 1 2.195 2.984l-9.809 64.211a2.62 2.62 0 0 1-2.984 2.192l-1.344-.203a19.304 19.304 0 0 1-4.601-1.301Zm13.152-63.043c-3.29-.211-6.512.73-9.2 2.707a13.966 13.966 0 0 0-5.573 9.207l-4.774 31.219c-1.105 7.25 3.555 14.066 10.543 15.785Zm0 0"/></g></g></g><g clip-path="url(#F)"><g clip-path="url(#G)"><g clip-path="url(#H)"><path fill="#c7dd60" d="M840.586 593.938a14.086 14.086 0 0 1-3.012-1.743l-1.48-1.125a13.966 13.966 0 0 1-5.434-9.28 13.956 13.956 0 0 1 2.723-10.407l39.031-51.508a13.95 13.95 0 0 1 9.281-5.434 13.96 13.96 0 0 1 10.407 2.723l1.48 1.121a13.983 13.983 0 0 1 5.434 9.285 13.956 13.956 0 0 1-2.723 10.407l-39.031 51.507c-3.957 5.223-10.89 6.899-16.676 4.453Zm46.45-73.7a8.807 8.807 0 0 0-4.622-.605 8.767 8.767 0 0 0-5.824 3.406l-39.031 51.508a8.762 8.762 0 0 0-1.707 6.527 8.776 8.776 0 0 0 3.406 5.824l1.48 1.122c3.871 2.933 9.414 2.171 12.348-1.704l39.031-51.504a8.772 8.772 0 0 0 1.707-6.53 8.768 8.768 0 0 0-3.406-5.821l-1.48-1.121a8.858 8.858 0 0 0-1.903-1.102Zm0 0"/></g></g></g><g clip-path="url(#I)"><g clip-path="url(#J)"><g clip-path="url(#K)"><path fill="#c7dd60" d="M858.715 593.332a19.214 19.214 0 0 1-4.14-2.394l-1.079-.82a2.617 2.617 0 0 1-.504-3.669l39.23-51.77a2.616 2.616 0 0 1 3.669-.503l1.082.816a19.187 19.187 0 0 1 7.465 12.758 19.178 19.178 0 0 1-3.739 14.297l-19.074 25.172c-5.441 7.172-14.969 9.472-22.91 6.113Zm.066-5.855c6.098 3.82 14.239 2.41 18.668-3.434l19.07-25.168c4.43-5.844 3.586-14.063-1.742-18.902Zm0 0"/></g></g></g><g clip-path="url(#L)"><g clip-path="url(#M)"><g clip-path="url(#N)"><path fill="#c7dd60" d="M893.29 538.676a2.62 2.62 0 0 1-1.395-3.434l9.359-22.133c7.988-18.902 8.144-39.785.43-58.8-7.715-19.016-22.371-33.891-41.274-41.88-18.898-7.991-39.785-8.148-58.8-.433-19.016 7.711-33.891 22.371-41.883 41.27l-9.356 22.132a2.627 2.627 0 0 1-3.437 1.395 2.626 2.626 0 0 1-1.391-3.438l9.355-22.128c8.54-20.192 24.43-35.852 44.743-44.09 20.312-8.239 42.62-8.075 62.812.465 20.192 8.535 35.852 24.425 44.09 44.742 8.238 20.312 8.074 42.62-.461 62.812l-9.36 22.13a2.625 2.625 0 0 1-3.433 1.39Zm0 0"/></g></g></g><g clip-path="url(#O)"><g clip-path="url(#P)"><g clip-path="url(#Q)"><path fill="#c7dd60" d="M764.45 467.984a2.624 2.624 0 0 1-1.395-3.433l3.812-9.012c14.899-35.234 55.676-51.773 90.91-36.879a2.62 2.62 0 0 1-2.043 4.828c-32.566-13.77-70.27 1.524-84.039 34.09l-3.812 9.012a2.622 2.622 0 0 1-3.434 1.394Zm0 0"/></g></g></g><g clip-path="url(#R)"><g clip-path="url(#S)"><g clip-path="url(#T)"><path fill="#c7dd60" d="M887.41 519.977a2.623 2.623 0 0 1-1.394-3.438l3.808-9.008c13.774-32.57-1.523-70.273-34.09-84.043a2.622 2.622 0 0 1-1.394-3.433 2.628 2.628 0 0 1 3.437-1.395c35.23 14.899 51.774 55.68 36.875 90.91l-3.808 9.012a2.624 2.624 0 0 1-3.434 1.395Zm0 0"/></g></g></g><g clip-path="url(#U)"><g clip-path="url(#V)"><g clip-path="url(#W)"><path fill="#c7dd60" d="M470.129 299.922c4.09 1.902 8.547 1.125 11.105.375.786-.23 1.395-.457 1.758-.606l198.613-58.046c11.579-3.383 13.52-12.458 12.934-16.786l-.039-.289-.082-.28c-.309-1.052-28.973-105.49-31.883-115.954-1.543-5.531-4.66-8.156-7.043-9.363-4.972-2.57-10.18-1.063-11.3-.68-5.184 1.516-189.032 55.305-200.712 58.664l-.097.027c-5.016 1.47-8.656 4.196-10.82 8.121-3.426 6.227-1.622 12.899-1.415 13.614l32.344 112.988c1.43 4.898 4.399 7.172 6.637 8.215Zm-30.445-123.637a11.263 11.263 0 0 1-.079-4.937c.66-2.97 2.66-4.848 6.297-5.914l.067-.02c11.785-3.39 198.933-58.14 200.82-58.691l.27-.078s2.554-.793 4.421.171c1.168.598 2.04 1.907 2.59 3.891 2.813 10.117 29.774 108.273 31.762 115.508.031 1.254-.39 5.137-6.676 6.976l-199.136 58.2-.25.074c-.938.398-4.036 1.336-5.93.437-.55-.261-1.34-.82-1.88-2.66Zm0 0"/></g></g></g><g clip-path="url(#X)"><g clip-path="url(#Y)"><g clip-path="url(#Z)"><path fill="#c7dd60" d="m742.7 275.191-.427-1.144-38.668-30.953a4.426 4.426 0 0 0-3.176-.79 4.447 4.447 0 0 0-1.577.536c-.489.281-.91.64-1.266 1.082-.352.441-.61.93-.774 1.473a4.397 4.397 0 0 0 .278 3.257c.25.504.59.946 1.012 1.32l35.96 28.79a9.51 9.51 0 0 1-2.992 1.441l-.113.035c-2.621.766-259.523 74.586-266.926 76.746-.46.153-.933.23-1.418.239a3.085 3.085 0 0 1-.125-.422l13.153-40.067a4.531 4.531 0 0 0 .21-1.71 4.585 4.585 0 0 0-.46-1.657 4.618 4.618 0 0 0-.465-.73 4.524 4.524 0 0 0-.598-.625 4.257 4.257 0 0 0-.707-.496 4.48 4.48 0 0 0-.793-.348 4.129 4.129 0 0 0-.844-.191 4.897 4.897 0 0 0-.863-.02 4.529 4.529 0 0 0-1.656.465 4.203 4.203 0 0 0-.73.465 4.106 4.106 0 0 0-.626.597 4.442 4.442 0 0 0-.844 1.496l-13.605 41.461-.023.622c-.016.542-.082 5.343 3.531 8.18 1.668 1.296 4.644 2.562 9.312 1.195 7.336-2.145 261.977-75.32 266.836-76.72l.34-.1c1.7-.497 6.535-2.223 8.645-6.259a8.547 8.547 0 0 0 .98-3.539 8.527 8.527 0 0 0-.582-3.629Zm0 0"/></g></g></g><g clip-path="url(#aa)"><g clip-path="url(#ab)"><g clip-path="url(#ac)"><path fill="#c7dd60" d="m607.516 293.41-26.723 7.813c-2.836 1.004-4.57 2.597-5.16 4.726-.832 3 1.148 5.535 1.379 5.809l.465.562 9.675 3.43 21.883-6.64 6.504-8.301-.148-1.094c-.086-.664-.664-4.059-3.22-5.719a5.39 5.39 0 0 0-2.26-.816 5.354 5.354 0 0 0-2.395.23Zm-1.621 11.14-18.618 5.645-6.484-2.285a1.028 1.028 0 0 1-.094-.539c.055-.187.496-.664 1.766-1.121l26.515-7.75a1.12 1.12 0 0 1 .278-.05c.293.284.496.624.605 1.023Zm0 0"/></g></g></g><path d="m583.827 667.14-.594 4.062h-14.281v12.031h12.422v4.063h-12.422v12.625h15.297v4.062h-20.375v-36.844Zm14.014 37.484c-1.824 0-3.262-.543-4.312-1.625-1.055-1.094-1.579-2.618-1.579-4.578v-33.97l4.922-.577v34.437c0 .781.13 1.356.39 1.719.27.355.727.531 1.376.531.676 0 1.281-.11 1.812-.328l1.282 3.422c-1.168.644-2.465.969-3.891.969Zm31.339-15.563c0 .824-.039 1.664-.109 2.516h-17.969c.207 3.105.989 5.387 2.344 6.844 1.352 1.46 3.102 2.187 5.25 2.187 1.352 0 2.598-.191 3.734-.578 1.145-.395 2.344-1.02 3.594-1.875l2.14 2.937c-3 2.356-6.28 3.532-9.843 3.532-3.93 0-6.992-1.282-9.187-3.844-2.188-2.57-3.282-6.102-3.282-10.594 0-2.926.473-5.52 1.422-7.781.945-2.27 2.3-4.047 4.063-5.328 1.757-1.281 3.836-1.922 6.234-1.922 3.738 0 6.61 1.23 8.61 3.687 2 2.461 3 5.868 3 10.22Zm-4.875-1.437c0-2.782-.554-4.899-1.656-6.36-1.105-1.468-2.762-2.203-4.969-2.203-4.03 0-6.226 2.961-6.578 8.875h13.203Zm22.987-12.469c1.676 0 3.207.242 4.594.719 1.394.48 2.738 1.257 4.03 2.328l-2.359 3.11c-1-.72-1.976-1.243-2.921-1.579-.938-.344-1.981-.516-3.125-.516-2.282 0-4.06.914-5.329 2.735-1.261 1.812-1.89 4.508-1.89 8.078 0 3.562.625 6.195 1.875 7.89 1.25 1.688 3.031 2.532 5.344 2.532 1.101 0 2.117-.164 3.046-.5.926-.344 1.961-.89 3.11-1.64l2.25 3.218c-2.574 2.062-5.45 3.094-8.625 3.094-3.813 0-6.82-1.282-9.016-3.844-2.187-2.57-3.281-6.125-3.281-10.656 0-2.989.5-5.602 1.5-7.844 1-2.25 2.414-4 4.25-5.25 1.832-1.25 4.016-1.875 6.547-1.875Zm29.528 27.547c-1.855 1.281-3.96 1.922-6.312 1.922-2.398 0-4.262-.68-5.594-2.047-1.336-1.375-2-3.363-2-5.969v-17.016h-4.922v-3.796h4.922v-6.36l4.922-.594v6.954h6.688l-.547 3.796h-6.14v16.797c0 1.461.253 2.524.765 3.188.52.656 1.383.984 2.593.984 1.102 0 2.352-.375 3.75-1.125Zm17.32-27.547c1 0 1.925.11 2.781.328l-.906 4.813a9.966 9.966 0 0 0-2.469-.329c-1.742 0-3.148.649-4.219 1.938-1.074 1.281-1.914 3.277-2.515 5.984v16.094h-4.922v-28.187h4.234l.469 5.718c.75-2.101 1.765-3.687 3.047-4.75 1.289-1.07 2.789-1.61 4.5-1.61Zm18.984 0c3.957 0 7.031 1.324 9.219 3.969 2.195 2.636 3.297 6.215 3.297 10.734 0 2.93-.5 5.508-1.5 7.734-1 2.23-2.45 3.961-4.344 5.188-1.887 1.226-4.125 1.844-6.719 1.844-3.96 0-7.047-1.317-9.266-3.953-2.21-2.645-3.312-6.227-3.312-10.75 0-2.926.5-5.504 1.5-7.735 1-2.226 2.441-3.957 4.328-5.187 1.895-1.227 4.16-1.844 6.797-1.844Zm0 3.953c-4.887 0-7.328 3.606-7.328 10.813 0 7.168 2.426 10.75 7.281 10.75 4.844 0 7.266-3.602 7.266-10.813 0-7.164-2.407-10.75-7.22-10.75Zm33.9-3.953c2.57 0 4.578.766 6.015 2.297 1.446 1.531 2.172 3.637 2.172 6.312v20.219h-4.922v-19.516c0-2-.375-3.41-1.125-4.234-.75-.82-1.855-1.234-3.312-1.234-1.5 0-2.824.433-3.969 1.297-1.136.855-2.203 2.085-3.203 3.687v20h-4.922v-28.187h4.235l.421 4.171c1-1.5 2.239-2.675 3.72-3.53 1.476-.852 3.109-1.282 4.89-1.282Zm22.991.641v28.187h-4.922v-28.187Zm-2.516-13.532c1.032 0 1.864.325 2.5.969.645.637.97 1.438.97 2.406 0 .961-.325 1.75-.97 2.375-.636.625-1.468.938-2.5.938-1 0-1.824-.313-2.468-.938-.637-.625-.953-1.414-.953-2.375 0-.968.316-1.77.953-2.406.644-.644 1.468-.969 2.468-.969Zm22.939 12.891c1.676 0 3.207.242 4.594.719 1.394.48 2.738 1.257 4.031 2.328l-2.36 3.11c-1-.72-1.976-1.243-2.921-1.579-.938-.344-1.98-.516-3.125-.516-2.281 0-4.059.914-5.328 2.735-1.262 1.812-1.89 4.508-1.89 8.078 0 3.562.624 6.195 1.874 7.89 1.25 1.688 3.031 2.532 5.344 2.532 1.101 0 2.117-.164 3.047-.5.926-.344 1.96-.89 3.11-1.64l2.25 3.218c-2.575 2.062-5.45 3.094-8.626 3.094-3.812 0-6.82-1.282-9.015-3.844-2.188-2.57-3.282-6.125-3.282-10.656 0-2.989.5-5.602 1.5-7.844 1-2.25 2.414-4 4.25-5.25 1.832-1.25 4.016-1.875 6.547-1.875Zm36.592 13.906c0 .824-.04 1.664-.11 2.516h-17.969c.207 3.105.989 5.387 2.344 6.844 1.352 1.46 3.102 2.187 5.25 2.187 1.352 0 2.598-.191 3.734-.578 1.145-.395 2.344-1.02 3.594-1.875l2.14 2.937c-3 2.356-6.28 3.532-9.843 3.532-3.93 0-6.992-1.282-9.188-3.844-2.187-2.57-3.28-6.102-3.28-10.594 0-2.926.472-5.52 1.421-7.781.945-2.27 2.3-4.047 4.063-5.328 1.757-1.281 3.836-1.922 6.234-1.922 3.738 0 6.61 1.23 8.61 3.687 2 2.461 3 5.868 3 10.22Zm-4.876-1.437c0-2.782-.554-4.899-1.656-6.36-1.105-1.468-2.762-2.203-4.969-2.203-4.03 0-6.226 2.961-6.578 8.875h13.203Zm0 0" fill="#c7dd60"/></svg>