<svg xmlns="http://www.w3.org/2000/svg" width="1920" viewBox="0 0 1440 810" height="1080" version="1.0" xmlns:xlink="http://www.w3.org/1999/xlink"><defs><path d="M412.094 152.383 523.809 82.07l81.894 130.125-111.719 70.309Zm0 0" id="a"/></defs><defs><clipPath id="b"><path d="M294.941 7.043h799.02v795.914H294.94Zm0 0"/></clipPath><clipPath id="c"><path d="M333.191 7.043h721.965c21.125 0 38.25 17.125 38.25 38.25v719.414c0 21.125-17.125 38.25-38.25 38.25H333.191c-21.125 0-38.25-17.125-38.25-38.25V45.293c0-21.125 17.125-38.25 38.25-38.25Zm0 0"/></clipPath><clipPath id="d"><path d="M793 379.152h153v174.75H793Zm0 0"/></clipPath><clipPath id="e"><path d="M412.09 296.555h249v257.25h-249Zm0 0"/></clipPath><clipPath id="f"><path d="M447 118h143v153H447Zm0 0"/></clipPath><clipPath id="g"><use xlink:href="#a"/></clipPath><clipPath id="h"><use xlink:href="#a"/></clipPath><clipPath id="i"><path d="M461 116h29v25h-29Zm0 0"/></clipPath><clipPath id="j"><use xlink:href="#a"/></clipPath><clipPath id="k"><use xlink:href="#a"/></clipPath><clipPath id="l"><path d="M427 138h43v89h-43Zm0 0"/></clipPath><clipPath id="m"><use xlink:href="#a"/></clipPath><clipPath id="n"><use xlink:href="#a"/></clipPath><clipPath id="o"><path d="M427 150h27v14h-27Zm0 0"/></clipPath><clipPath id="p"><use xlink:href="#a"/></clipPath><clipPath id="q"><use xlink:href="#a"/></clipPath><clipPath id="r"><path d="M435 151h18v39h-18Zm0 0"/></clipPath><clipPath id="s"><use xlink:href="#a"/></clipPath><clipPath id="t"><use xlink:href="#a"/></clipPath><clipPath id="u"><path d="M492 98h76v73h-76Zm0 0"/></clipPath><clipPath id="v"><use xlink:href="#a"/></clipPath><clipPath id="w"><use xlink:href="#a"/></clipPath><clipPath id="x"><path d="M508 99h19v23h-19Zm0 0"/></clipPath><clipPath id="y"><use xlink:href="#a"/></clipPath><clipPath id="z"><use xlink:href="#a"/></clipPath><clipPath id="A"><path d="M512 103h31v35h-31Zm0 0"/></clipPath><clipPath id="B"><use xlink:href="#a"/></clipPath><clipPath id="C"><use xlink:href="#a"/></clipPath><clipPath id="D"><path d="M475 166h104v93H475Zm0 0"/></clipPath><clipPath id="E"><use xlink:href="#a"/></clipPath><clipPath id="F"><use xlink:href="#a"/></clipPath><clipPath id="G"><path d="M485 178h67v44h-67Zm0 0"/></clipPath><clipPath id="H"><use xlink:href="#a"/></clipPath><clipPath id="I"><use xlink:href="#a"/></clipPath><clipPath id="J"><path d="M492 214h11v14h-11Zm0 0"/></clipPath><clipPath id="K"><use xlink:href="#a"/></clipPath><clipPath id="L"><use xlink:href="#a"/></clipPath><clipPath id="M"><path d="M694.172 81h228.75v257.25h-228.75Zm0 0"/></clipPath></defs><g clip-path="url(#b)"><g clip-path="url(#c)"><path fill="#0e332c" d="M294.941 7.043h799.02v795.914H294.94Zm0 0"/></g></g><g clip-path="url(#d)"><path fill="#c7dd60" d="M944.086 488.559a1.385 1.385 0 0 0-1.27-1.196c-5.242-.398-9.828-3.093-14.007-8.18 10.476-27.773 9.82-79.28 3.14-87.027-.023-.031-.031-.066-.054-.094-.375-.43-9.293-10.511-19.473-8.328-7.156 1.536-11.29 8.243-13.176 12.282l-3.937-8.715a13.87 13.87 0 0 0-12.618-8.149h-26.273a13.87 13.87 0 0 0-12.617 8.149l-3.938 8.71c-1.886-4.038-6.02-10.745-13.176-12.277-10.183-2.175-19.097 7.895-19.472 8.325-.024.027-.031.066-.05.093-6.68 7.75-7.337 59.254 3.136 87.028-4.18 5.09-8.766 7.785-14.008 8.18-.652.05-1.18.55-1.266 1.195-3.609 26.715-.515 43.726 9.723 53.504a13.214 13.214 0 0 0 3.2 4.847l4.112 3.934a9.972 9.972 0 0 0 6.86 2.777h.016c.019 0 .039.004.054.004h101.129c.02 0 .04 0 .059-.004h.008c2.57-.02 5.003-1 6.863-2.777l4.113-3.934a13.214 13.214 0 0 0 3.2-4.847c10.234-9.778 13.331-26.79 9.722-53.5Zm-2.602 1.449c2.91 22.465.91 37.566-6.261 46.941-.012-.37-.02-.742-.063-1.117l-6.05-52.215c3.738 3.672 7.816 5.793 12.374 6.39Zm-13.57-16.719-5.351-46.191c3.066-10.29 2.5-20.715-1.672-31.012 1.746-1.844 3.504-3.066 5.074-3.406 1.398-.305 2.633.07 3.789 1.14 4.812 4.457 7.473 49.387-1.84 79.47Zm-39.133 3.957h6.246v3.414h-6.246Zm7.63-2.77h-10.763a1.77 1.77 0 0 1-1.77-1.769v-6.855c0-.977.794-1.77 1.77-1.77h12.508c.977 0 1.77.793 1.77 1.77v6.855a1.77 1.77 0 0 1-1.77 1.77Zm-1.384-13.163h-6.246v-18.22a2.812 2.812 0 0 1 2.809-2.808h.625a2.812 2.812 0 0 1 2.808 2.809v18.219Zm2.77 0v-18.22a5.587 5.587 0 0 0-5.582-5.577h-.625a5.586 5.586 0 0 0-5.578 5.578v18.219h-32.914v-18.22c0-3.073-2.5-5.577-5.578-5.577h-.625a5.584 5.584 0 0 0-5.579 5.578v18.219h-8.261a5.274 5.274 0 0 1-5.27-5.266v-49.863a5.274 5.274 0 0 1 5.27-5.266h73.004a5.273 5.273 0 0 1 5.265 5.266v49.863a5.27 5.27 0 0 1-5.265 5.265Zm-53.715 15.933h6.246v3.414h-6.246Zm7.633-2.77h-10.762a1.77 1.77 0 0 1-1.77-1.769v-6.855c0-.977.794-1.77 1.77-1.77h12.508c.976 0 1.77.793 1.77 1.77v6.855a1.77 1.77 0 0 1-1.77 1.77Zm-1.387-13.163h-6.246v-18.22a2.815 2.815 0 0 1 2.813-2.808h.625a2.812 2.812 0 0 1 2.808 2.809Zm-32.73-43.094c-.668-6.563.215-13.16 2.648-19.715 1.64 2.203 3.2 4.902 4.52 7.89l-2.993 3.16a16.042 16.042 0 0 0-4.175 8.665Zm32.949-20.074 3.664-7.848a2.934 2.934 0 0 1 2.652-1.692h25.387c1.133 0 2.172.665 2.652 1.692l3.66 7.848Zm68.316.359c2.434 6.555 3.317 13.152 2.649 19.715a16.016 16.016 0 0 0-4.176-8.664l-2.992-3.16c1.32-2.989 2.879-5.688 4.52-7.891ZM913 386.44c4.66-1.003 9.18 1.254 12.363 3.536-4.777 1.046-9.215 6.773-12.191 12.476-1.348-2.558-4.027-4.308-7.113-4.308h-4.723c1.437-3.344 5.152-10.31 11.664-11.704Zm-66.676 2c1.79-3.96 5.75-6.52 10.094-6.52h26.273a11.1 11.1 0 0 1 10.098 6.52l4.383 9.704h-5.55l-4.212-9.02a5.716 5.716 0 0 0-5.16-3.29h-25.387a5.715 5.715 0 0 0-5.164 3.29l-4.207 9.02h-5.554Zm-20.215-2c6.512 1.395 10.23 8.364 11.664 11.704h-4.718c-3.086 0-5.766 1.75-7.114 4.308-2.98-5.707-7.421-11.433-12.203-12.48 3.18-2.282 7.7-4.536 12.371-3.532Zm-16.75 7.38c1.157-1.071 2.395-1.446 3.786-1.141 1.57.34 3.328 1.562 5.078 3.406-4.176 10.297-4.739 20.723-1.672 31.012l-5.352 46.191c-9.316-30.082-6.656-75.012-1.84-79.469Zm-11.734 96.187c4.559-.598 8.637-2.719 12.375-6.39l-6.05 52.214c-.044.375-.052.746-.063 1.117-7.172-9.375-9.172-24.476-6.262-46.941Zm71.93 60.844H820.44l1.082-24.27h96.067l1.082 24.27Zm47.91-27.04h-95.82l.207-4.671h95.406Zm-95.488-7.437.433-9.754a7.403 7.403 0 0 1 7.406-7.082h79.48a7.403 7.403 0 0 1 7.407 7.082l.434 9.754Zm107.273 28.531-4.113 3.934a7.23 7.23 0 0 1-3.7 1.887l-1.972-44.23a10.16 10.16 0 0 0-10.172-9.727h-79.477c-5.46 0-9.93 4.273-10.171 9.726l-1.973 44.23a7.23 7.23 0 0 1-3.7-1.886l-4.113-3.934a10.52 10.52 0 0 1-3.16-8.754l12.633-109.02v-.007l.945-8.14a13.259 13.259 0 0 1 3.508-7.528l1.23-1.297v45.887c0 4.43 3.606 8.035 8.036 8.035h3.722a4.524 4.524 0 0 0-.359 1.77v6.855c0 2.5 2.035 4.535 4.54 4.535h.359v4.801c0 .766.62 1.383 1.386 1.383h9.016a1.38 1.38 0 0 0 1.383-1.383v-4.8h.363a4.542 4.542 0 0 0 4.539-4.536v-6.855c0-.63-.129-1.227-.36-1.77h23.833a4.451 4.451 0 0 0-.364 1.77v6.855c0 2.5 2.04 4.535 4.54 4.535h.363v4.801c0 .766.62 1.383 1.383 1.383h9.015c.766 0 1.387-.617 1.387-1.383v-4.8h.363c2.5 0 4.535-2.036 4.535-4.536v-6.855c0-.63-.129-1.227-.36-1.77h3.724c4.433 0 8.035-3.605 8.035-8.035V410.16l1.23 1.297a13.26 13.26 0 0 1 3.512 7.527l.941 8.141c0 .004 0 .004.004.008l12.63 109.02a10.52 10.52 0 0 1-3.161 8.753Zm0 0"/></g><g clip-path="url(#e)"><path fill="#c7dd60" d="M642.79 436.566h-25.692v-6.199c0-7.168-5.832-12.996-12.996-12.996h-30.036c-7.168 0-13 5.828-13 12.996v6.2h-7.285v-70.122c0-15.527-12.633-28.16-28.16-28.16h-7.957v-23.812c3.918-.618 6.934-3.985 6.934-8.075v-1.543c.004-4.523-3.68-8.203-8.203-8.203h-66.918c-4.524 0-8.204 3.68-8.204 8.203v1.543c0 4.09 3.016 7.457 6.934 8.075v23.816h-7.957c-15.527 0-28.16 12.633-28.16 28.156V508.61c0 11.735 7.219 21.805 17.445 26.028v9.965c0 4.921 4.004 8.925 8.922 8.925 4.922 0 8.926-4.004 8.926-8.925v-7.832h69.62c1 9.253 8.856 16.484 18.372 16.484h107.414c10.191 0 18.48-8.293 18.48-18.48V455.05c0-10.192-8.289-18.485-18.48-18.485Zm-13.286 4.079v108.53H548.66v-108.53Zm-25.734-4.079h-29.375v-2.539a4.428 4.428 0 0 1 4.421-4.422h20.528a4.428 4.428 0 0 1 4.422 4.422v2.54Zm-38.625-6.199c0-4.918 4-8.918 8.921-8.918h30.036c4.918 0 8.918 4 8.918 8.918v6.2h-5.172v-2.54c0-4.687-3.813-8.5-8.5-8.5H578.82c-4.687 0-8.5 3.817-8.5 8.5v2.54h-5.175Zm-56.946-92.078v-23.687h5.387v23.687Zm-4.469 0-3.597-4.781c-1.727-2.301-4.285-3.617-7.024-3.617h-20.351c-2.735 0-5.297 1.316-7.024 3.617l-3.597 4.781h-.39v-23.687h42.374v23.687Zm-5.097 0h-31.395l1.758-2.336c.95-1.262 2.32-1.984 3.762-1.984h20.351c1.446 0 2.813.722 3.766 1.984Zm-53.281-31.89v-1.544a4.129 4.129 0 0 1 4.125-4.125h66.918a4.131 4.131 0 0 1 4.125 4.125v1.543a4.131 4.131 0 0 1-4.125 4.125h-66.918a4.129 4.129 0 0 1-4.125-4.125Zm6.933 8.203h5.387v23.687h-5.387Zm-36.117 194.007V366.445c0-13.277 10.805-24.082 24.082-24.082h85.375c13.277 0 24.078 10.805 24.078 24.082v70.121h-12.52v-72.953c0-4.363-3.55-7.914-7.91-7.914-4.363 0-7.914 3.551-7.914 7.914v79.426c-2.773 3.23-4.464 7.426-4.464 12.012v77.64H440.25c-13.277 0-24.082-10.804-24.082-24.082Zm109.27-69.117v-75.879a3.84 3.84 0 0 1 3.832-3.836 3.837 3.837 0 0 1 3.832 3.836v73.11a18.314 18.314 0 0 0-7.664 2.77Zm-82.13 105.11a4.852 4.852 0 0 1-4.847 4.847 4.852 4.852 0 0 1-4.848-4.847v-8.657c2.133.516 4.348.82 6.637.82h3.059Zm77.684-9.414c.04-.153.094-.297.094-.461 0-.2-.059-.38-.113-.563v-79.113c0-2.946.886-5.676 2.406-7.961.008 0 .012.004.016.004a2.04 2.04 0 0 0 2.039-2.04v-.406a14.357 14.357 0 0 1 9.195-3.964c.168.043.328.101.512.101.25 0 .48-.058.699-.14h8.742V549.18h-9.207c-7.8-.004-14.16-6.242-14.383-13.992Zm136.2-.415c0 7.942-6.462 14.403-14.403 14.403h-9.207V440.645h9.207c7.941 0 14.402 6.46 14.402 14.402Zm0 0"/></g><path fill="#c7dd60" d="M482.281 516.852h1.305c4.004 0 7.262-3.254 7.262-7.258V362.96c0-4.004-3.258-7.262-7.262-7.262h-1.305c-4 0-7.258 3.258-7.258 7.262v146.633c0 4.004 3.258 7.258 7.258 7.258Zm-3.18-153.891a3.19 3.19 0 0 1 3.184-3.184h1.305a3.187 3.187 0 0 1 3.183 3.184v146.633a3.19 3.19 0 0 1-3.183 3.183h-1.305a3.187 3.187 0 0 1-3.183-3.183Zm-20.605 153.891h1.305c4 0 7.258-3.254 7.258-7.258V362.96c0-4.004-3.258-7.262-7.258-7.262h-1.305c-4.004 0-7.262 3.258-7.262 7.262v146.633c0 4.004 3.258 7.258 7.262 7.258Zm-3.183-153.891a3.187 3.187 0 0 1 3.183-3.184h1.305a3.183 3.183 0 0 1 3.18 3.184v146.633a3.186 3.186 0 0 1-3.18 3.183h-1.305a3.187 3.187 0 0 1-3.183-3.183ZM443.27 509.594V362.96c0-4.004-3.254-7.262-7.258-7.262h-1.305c-4.004 0-7.262 3.258-7.262 7.262v146.633c0 4.004 3.258 7.261 7.262 7.261h1.305c4.004-.003 7.258-3.257 7.258-7.261Zm-4.079 0a3.186 3.186 0 0 1-3.18 3.183h-1.304a3.187 3.187 0 0 1-3.184-3.183V362.96a3.187 3.187 0 0 1 3.184-3.184h1.305a3.183 3.183 0 0 1 3.18 3.184Zm65.641 7.258h1.305c4 0 7.258-3.254 7.258-7.258V362.96c0-4.004-3.254-7.262-7.258-7.262h-1.305c-4.004 0-7.262 3.258-7.262 7.262v146.633c0 4.004 3.258 7.258 7.262 7.258Zm-3.184-153.891a3.187 3.187 0 0 1 3.184-3.184h1.305a3.183 3.183 0 0 1 3.18 3.184v146.633a3.186 3.186 0 0 1-3.18 3.183h-1.305a3.184 3.184 0 0 1-3.184-3.183Zm0 0"/><g clip-path="url(#f)"><g clip-path="url(#g)"><g clip-path="url(#h)"><path fill="#c7dd60" d="m476.227 129.145.007-.008Zm.71 1.074c-14.289 9.441-22.21 19.015-24.945 30.125-3.703 15.062.25 30.043 4.219 39.965 5.121 12.812 12.93 24.53 20.48 35.863l12.137 18.223c3.934 5.902 8.293 11.777 14.555 13.14 6.332 1.38 12.765-2.219 18.855-6.074l51.54-32.512c3.202-2.02 6.515-4.113 9.117-6.855 2.808-2.953 4.375-6.356 4.421-9.582.043-3.395-1.484-6.602-3.336-10.149a471.845 471.845 0 0 0-24.273-41.191c-5.394-8.184-11.406-16.734-18.781-23.895-8.035-7.797-16.633-12.902-25.551-15.175-17.527-4.461-33.863 5.097-38.438 8.117Zm46.497 133.531c-6.47 4.07-13.383 7.871-20.602 6.305-7.195-1.57-11.926-7.895-16.148-14.235l-12.137-18.222c-7.625-11.442-15.504-23.274-20.73-36.336-5.887-14.723-7.383-29.082-4.32-41.532 2.894-11.777 11.16-21.84 26.019-31.66 4.828-3.195 21.949-13.183 40.492-8.46 9.363 2.382 18.347 7.703 26.71 15.82 7.552 7.332 13.665 16.023 19.141 24.324a477 477 0 0 1 24.403 41.418c1.945 3.719 3.68 7.383 3.629 11.379-.059 3.87-1.88 7.89-5.13 11.316-2.823 2.973-6.273 5.153-9.613 7.258l-51.539 32.512a2.7 2.7 0 0 1-.175.113"/></g></g></g><g clip-path="url(#i)"><g clip-path="url(#j)"><g clip-path="url(#k)"><path fill="#c7dd60" d="M464.371 140.07a1.29 1.29 0 0 1-1.887-.633c-1.968-5.164-1.695-10.894.735-15.335 3.18-5.825 9.941-9.09 16.078-7.766 4.27.914 7.55 3.785 9.644 5.867.504.5.508 1.313.004 1.82a1.28 1.28 0 0 1-1.816.004c-3.008-2.984-5.59-4.582-8.371-5.175-4.969-1.07-10.672 1.714-13.281 6.484-2.07 3.789-2.293 8.719-.586 13.187a1.291 1.291 0 0 1-.52 1.547"/></g></g></g><g clip-path="url(#l)"><g clip-path="url(#m)"><g clip-path="url(#n)"><path fill="#c7dd60" d="M468.945 226.746a1.29 1.29 0 0 1-1.492-.086c-11.918-9.543-20.726-19.492-29.46-33.265-6.052-9.543-11.516-19.93-10.528-31.168.324-3.801 1.41-7.528 3.226-11.075 2.704-5.246 5.368-8.746 7.918-10.41 3.606-2.316 8.465-3.12 13.625-2.14 2.602.503 5.293 1.414 8.485 2.863.644.293.93 1.058.633 1.707a1.284 1.284 0 0 1-1.704.637c-2.996-1.368-5.511-2.22-7.898-2.676-4.504-.856-8.68-.235-11.734 1.765-2.145 1.399-4.575 4.657-7.036 9.43-1.66 3.246-2.656 6.652-2.953 10.125-.918 10.477 4.328 20.399 10.141 29.567 8.566 13.515 17.21 23.277 28.894 32.632.56.442.645 1.258.204 1.805a1.312 1.312 0 0 1-.32.29"/></g></g></g><g clip-path="url(#o)"><g clip-path="url(#p)"><g clip-path="url(#q)"><path fill="#c7dd60" d="M452.86 156.61c-.36.226-.825.269-1.235.074l-.371-.176c-1.836-.867-3.738-1.766-5.637-2.528-2.844-1.132-5.715-1.144-8.308-.035-3.356 1.418-5.961 4.54-7.34 8.793a1.28 1.28 0 0 1-1.621.825 1.277 1.277 0 0 1-.825-1.618c1.614-4.972 4.73-8.652 8.782-10.37 3.226-1.38 6.773-1.376 10.265.015 1.973.789 3.91 1.707 5.782 2.594l.37.171a1.287 1.287 0 0 1 .137 2.254"/></g></g></g><g clip-path="url(#r)"><g clip-path="url(#s)"><g clip-path="url(#t)"><path fill="#c7dd60" d="m451.273 189.195-1.09.684a102.146 102.146 0 0 1-10.984-18.965c-2.05-4.621-4.664-11.55-3.668-18.34a1.292 1.292 0 0 1 1.457-1.09 1.293 1.293 0 0 1 1.09 1.461c-.898 6.13 1.55 12.594 3.473 16.926a100.247 100.247 0 0 0 10.754 18.555l-1.032.77"/></g></g></g><g clip-path="url(#u)"><g clip-path="url(#v)"><g clip-path="url(#w)"><path fill="#c7dd60" d="M567.39 170.762a1.283 1.283 0 0 1-1.773-.399 1.316 1.316 0 0 1-.18-.441c-3.421-17.211-8.648-30.356-18.039-45.39-5.75-9.208-12.43-18.235-22.273-21.938-3.266-1.23-6.77-1.805-10.402-1.707-5.368.152-9.356.933-11.54 2.258-3.16 1.902-5.5 5.39-6.671 9.816-.621 2.348-.938 4.96-1.004 8.23a1.291 1.291 0 0 1-1.317 1.266 1.29 1.29 0 0 1-1.257-1.316c.07-3.48.414-6.286 1.09-8.832 1.32-4.996 4.03-8.977 7.632-11.246a3.77 3.77 0 0 1 .188-.114c2.601-1.582 6.914-2.472 12.804-2.636 3.977-.106 7.805.527 11.383 1.874 10.563 3.973 17.559 13.391 23.551 22.981 9.559 15.305 14.883 28.695 18.375 46.215.117.52-.09 1.082-.566 1.379"/></g></g></g><g clip-path="url(#x)"><g clip-path="url(#y)"><g clip-path="url(#z)"><path fill="#c7dd60" d="M509.98 120.887a1.288 1.288 0 0 1-1.973-1.102l.009-.95c.015-1.972.03-4.003.164-6.019.254-3.738 1.785-6.941 4.43-9.265 3.3-2.91 7.964-4.13 13.14-3.438a1.29 1.29 0 0 1-.344 2.555c-4.422-.594-8.36.406-11.094 2.816-2.125 1.864-3.359 4.461-3.562 7.504-.129 1.938-.145 3.938-.16 5.867l-.008.957a1.274 1.274 0 0 1-.602 1.075"/></g></g></g><g clip-path="url(#A)"><g clip-path="url(#B)"><g clip-path="url(#C)"><path fill="#c7dd60" d="M542.105 137.059a1.287 1.287 0 0 1-1.84-.52 100.443 100.443 0 0 0-13.43-20.344c-3.073-3.605-7.843-8.61-13.757-10.449a1.286 1.286 0 1 1 .766-2.457c6.554 2.035 11.672 7.387 14.953 11.234a102.904 102.904 0 0 1 13.765 20.856 1.29 1.29 0 0 1-.457 1.68"/></g></g></g><g clip-path="url(#D)"><g clip-path="url(#E)"><g clip-path="url(#F)"><path fill="#c7dd60" d="M480.418 223.082a293.944 293.944 0 0 0 16.934 26.445c1.93 2.68 3.886 5.164 6.609 6.09 3.906 1.336 8.32-.93 12.144-3.152 16.122-9.363 35.008-20.66 52.832-33.399 3.055-2.18 6.348-4.8 6.829-8.3.351-2.547-.82-5.118-2.274-7.977-4.82-9.484-9.804-19.289-16.512-27.719-2.062-2.59-4.867-5.601-8.332-5.98-2.437-.262-4.925.797-7.476 1.996-16.574 7.82-33.664 18.004-52.262 31.133-4.07 2.875-7.598 5.562-9.562 9.375-2.403 4.664.21 9.969 1.07 11.488Zm65.316 14.574c-9.863 6.207-19.511 11.906-28.336 17.04-4.316 2.503-9.336 5.042-14.265 3.359-3.445-1.172-5.774-4.114-7.871-7.024a294.59 294.59 0 0 1-17.082-26.68c-2.723-4.804-3.145-10.015-1.121-13.937 2.23-4.324 6.175-7.344 10.367-10.297 18.715-13.219 35.941-23.476 52.648-31.355 2.895-1.367 5.75-2.567 8.852-2.23 4.41.476 7.695 3.956 10.066 6.937 6.871 8.629 11.918 18.554 16.793 28.156 1.274 2.504 3.024 5.938 2.528 9.488-.622 4.52-4.387 7.555-7.88 10.047-8.136 5.813-16.495 11.332-24.699 16.496"/></g></g></g><g clip-path="url(#G)"><g clip-path="url(#H)"><g clip-path="url(#I)"><path fill="#c7dd60" d="M551.344 181.355c-.004 0-.004 0-.008.004l-64.137 39.786a1.283 1.283 0 0 1-1.773-.415 1.283 1.283 0 0 1 .406-1.765c.004-.004.004-.004.008-.004l64.14-39.79a1.29 1.29 0 0 1 1.774.415 1.29 1.29 0 0 1-.41 1.77"/></g></g></g><g clip-path="url(#J)"><g clip-path="url(#K)"><g clip-path="url(#L)"><path fill="#c7dd60" d="M495.398 217.64c.196 2.028.782 4.02 1.73 5.833.278.539.63 1.136 1.102 1.492.34.258.762.363 1.028.254.262-.11.484-.465.543-.871.066-.461-.024-1.02-.285-1.754-.79-2.219-2.27-3.973-4.118-4.953Zm5.313 9.715c-.156.098-.32.18-.488.25-1.118.45-2.473.227-3.547-.59-.875-.667-1.418-1.562-1.828-2.35a18.463 18.463 0 0 1-2.09-8.95c.008-.39.191-.754.504-.992a1.279 1.279 0 0 1 1.093-.227c3.45.863 6.282 3.566 7.586 7.234.254.723.575 1.813.407 2.98-.16 1.134-.774 2.102-1.637 2.645"/></g></g></g><g clip-path="url(#M)"><path fill="#c7dd60" d="M920.848 194.848a7.732 7.732 0 0 0-5.746-2.563h-13.946a2.18 2.18 0 0 0 0 4.36h13.946a3.33 3.33 0 0 1 2.503 1.117 3.34 3.34 0 0 1 .848 2.613l-13.777 128.844a5.381 5.381 0 0 1-5.356 4.82h-81.84v-55.7a2.181 2.181 0 0 0-2.18-2.183h-26.523a2.182 2.182 0 1 0 0 4.364h24.344v14.73c0 11.918-9.695 21.613-21.613 21.613h-71.16c-11.914 0-21.606-9.695-21.606-21.613v-14.73h60.219a2.181 2.181 0 1 0 0-4.364h-32.7l-8.1-75.785a3.33 3.33 0 0 1 .843-2.605 3.32 3.32 0 0 1 2.508-1.118h64.246a248.711 248.711 0 0 0-.246 2.926c-3.535.91-6.16 4.117-6.16 7.934v14.933c0 4.516 3.68 8.192 8.199 8.192 4.52 0 8.195-3.676 8.195-8.192v-14.933a8.138 8.138 0 0 0-2.406-5.793 8.153 8.153 0 0 0-3.461-2.059c.004-.023.004-.043.004-.066.05-.613.133-1.617.254-2.942h60.797c.117 1.325.203 2.329.25 2.946.004.023.004.043.007.066-3.375 1.016-5.867 4.172-5.867 7.848v14.933c0 4.516 3.676 8.192 8.196 8.192a8.137 8.137 0 0 0 3.835-.957v33.726a9.947 9.947 0 0 0-7.82 9.48l-.648 23.294a2.185 2.185 0 0 0 2.183 2.242h16.938a2.178 2.178 0 0 0 2.18-2.242l-.645-23.293a9.92 9.92 0 0 0-3.031-6.887 9.912 9.912 0 0 0-4.793-2.59v-55.898a8.128 8.128 0 0 0-2.403-5.793 8.191 8.191 0 0 0-3.754-2.145 2825.072 2825.072 0 0 0-.246-2.926h16.032a2.18 2.18 0 0 0 0-4.36l-16.438.001c-2.387-25.027-9.71-85.531-26.152-107.219-1.95-2.574-4.946-4.05-8.223-4.05-3.273 0-6.273 1.476-8.222 4.05-16.442 21.692-23.766 82.196-26.153 107.22h-64.648a7.716 7.716 0 0 0-5.754 2.57 7.725 7.725 0 0 0-1.934 5.984l8.051 75.316h-25.313a2.182 2.182 0 0 0-2.183 2.184v57.883c0 1.203.976 2.18 2.183 2.18H899.32a9.738 9.738 0 0 0 9.692-8.72l13.777-128.843a7.753 7.753 0 0 0-1.941-5.992Zm-61.309 72.672c1.477 0 2.871.57 3.934 1.605a5.573 5.573 0 0 1 1.707 3.879l.586 21.05h-12.453l.582-21.046a5.623 5.623 0 0 1 5.644-5.488Zm-5.996-63.852a3.818 3.818 0 0 1 2.687 1.129 3.813 3.813 0 0 1 1.125 2.71v14.934a3.84 3.84 0 0 1-3.835 3.832 3.836 3.836 0 0 1-3.832-3.832v-14.933c0-2.063 1.671-3.781 3.726-3.832.043 0 .086-.004.129-.008ZM815.789 87.703c1.117-1.476 2.848-2.324 4.746-2.324 1.899 0 3.625.848 4.746 2.324 16.094 21.227 23.348 84.84 25.246 104.582h-59.984c1.898-19.734 9.148-83.351 25.246-104.582Zm-28.258 115.965c.043.004.086.008.13.008a3.788 3.788 0 0 1 2.593 1.12 3.816 3.816 0 0 1 1.129 2.712v14.933a3.839 3.839 0 0 1-3.832 3.832 3.843 3.843 0 0 1-3.84-3.832v-14.933a3.855 3.855 0 0 1 3.82-3.84Zm25.59 130.371H698.742v-24.402c4.66 6.98 12.606 11.586 21.606 11.586h71.16c9.004 0 16.949-4.606 21.613-11.586Zm0 0"/></g><path fill="#c7dd60" d="M885.887 196.648h.73c1.207 0 2.18-.976 2.18-2.183 0-1.203-.973-2.18-2.18-2.18h-.73a2.181 2.181 0 1 0 0 4.363Zm-112.383 79.508a2.182 2.182 0 1 0 0 4.364h.73a2.181 2.181 0 1 0 0-4.364Zm-26.527 28.946a2.18 2.18 0 0 0 0 4.36l17.898-.001a2.179 2.179 0 1 0 0-4.36ZM533.675 666.483c2.312 0 4.312.336 6 1 1.695.656 3.382 1.684 5.062 3.078l-2.984 3.094c-1.325-1.07-2.594-1.836-3.813-2.297-1.21-.469-2.633-.703-4.265-.703a9.438 9.438 0 0 0-5.22 1.531c-1.585 1.023-2.874 2.648-3.874 4.875-1 2.219-1.5 5.043-1.5 8.469 0 5.168.844 8.949 2.531 11.344 1.695 2.386 4.207 3.578 7.531 3.578 2.707 0 5.04-.551 7-1.657V687.67h-6.531l-.578-4.125h12.14v17.813c-3.824 2.18-7.835 3.266-12.03 3.266-4.856 0-8.65-1.618-11.376-4.86-2.73-3.25-4.093-7.992-4.093-14.234 0-3.988.722-7.414 2.171-10.281 1.446-2.875 3.391-5.051 5.829-6.532 2.437-1.488 5.101-2.234 8-2.234Zm41.178 22.578c0 .824-.039 1.664-.11 2.516h-17.968c.207 3.105.988 5.386 2.344 6.843 1.351 1.461 3.101 2.188 5.25 2.188 1.351 0 2.598-.191 3.734-.578 1.145-.395 2.344-1.02 3.594-1.875l2.14 2.937c-3 2.356-6.28 3.532-9.843 3.532-3.93 0-6.992-1.282-9.188-3.844-2.187-2.57-3.28-6.102-3.28-10.594 0-2.926.472-5.52 1.421-7.781.945-2.27 2.3-4.047 4.063-5.328 1.757-1.282 3.835-1.922 6.234-1.922 3.738 0 6.61 1.23 8.61 3.687 2 2.461 3 5.867 3 10.219Zm-4.875-1.437c0-2.782-.554-4.899-1.656-6.36-1.105-1.469-2.762-2.203-4.969-2.203-4.031 0-6.226 2.961-6.578 8.875h13.203Zm25.987-12.469c2.57 0 4.578.765 6.015 2.297 1.446 1.53 2.172 3.636 2.172 6.312v20.219h-4.922v-19.516c0-2-.375-3.41-1.125-4.234-.75-.82-1.855-1.234-3.312-1.234-1.5 0-2.824.433-3.969 1.296-1.137.856-2.203 2.086-3.203 3.688v20h-4.922v-28.188h4.234l.422 4.172c1-1.5 2.239-2.675 3.719-3.531 1.477-.852 3.11-1.281 4.89-1.281Zm32.303 27.547c-1.855 1.28-3.96 1.922-6.312 1.922-2.399 0-4.262-.68-5.594-2.047-1.336-1.375-2-3.364-2-5.97v-17.015h-4.922v-3.797h4.922v-6.359l4.922-.594v6.953h6.688l-.547 3.797h-6.141v16.797c0 1.461.254 2.524.766 3.188.52.656 1.382.984 2.593.984 1.102 0 2.352-.375 3.75-1.125Zm-6.64 5.406c.851 0 1.57.281 2.156.844.594.57.89 1.285.89 2.14 0 .469-.1.985-.296 1.547-.188.57-.555 1.43-1.094 2.578l-2.187 4.594h-2.829l1.547-6.203c-.855-.75-1.281-1.59-1.281-2.516 0-.855.3-1.57.906-2.14.602-.563 1.332-.844 2.188-.844Zm16.632-32.313v28.188h-4.922v-28.188Zm-2.516-13.53c1.031 0 1.863.323 2.5.968.644.637.969 1.437.969 2.406 0 .961-.325 1.75-.97 2.375-.636.625-1.468.938-2.5.938-1 0-1.823-.313-2.468-.938-.637-.625-.953-1.414-.953-2.375 0-.969.316-1.77.953-2.406.645-.645 1.469-.969 2.469-.969Zm34.499 12.89c1.926 0 3.657.273 5.188.812 1.531.532 2.988 1.328 4.375 2.39l-2.078 3.11c-1.281-.82-2.508-1.425-3.672-1.812a11.245 11.245 0 0 0-3.656-.594c-1.606 0-2.871.336-3.797 1-.93.656-1.39 1.555-1.39 2.688 0 1.148.437 2.043 1.312 2.687.875.637 2.453 1.258 4.734 1.86 3.133.78 5.477 1.851 7.031 3.203 1.551 1.355 2.328 3.21 2.328 5.562 0 2.781-1.078 4.906-3.234 6.375-2.156 1.461-4.789 2.188-7.89 2.188-4.282 0-7.829-1.227-10.641-3.688l2.61-3c2.394 1.824 5.034 2.734 7.921 2.734 1.852 0 3.32-.378 4.406-1.14 1.094-.77 1.641-1.817 1.641-3.14 0-.958-.2-1.727-.594-2.313-.398-.594-1.074-1.114-2.031-1.563-.961-.445-2.367-.922-4.219-1.422-3-.781-5.172-1.832-6.515-3.156-1.336-1.32-2-3-2-5.031 0-1.457.437-2.781 1.312-3.969.875-1.195 2.086-2.125 3.64-2.781 1.552-.664 3.29-1 5.22-1Zm-.015 32.953c.851 0 1.57.281 2.156.844.594.57.89 1.285.89 2.14 0 .469-.1.985-.296 1.547-.188.57-.555 1.43-1.094 2.578l-2.187 4.594h-2.829l1.547-6.203c-.855-.75-1.28-1.59-1.28-2.516 0-.855.3-1.57.905-2.14.602-.563 1.332-.844 2.188-.844Zm22.252-32.313v28.188h-4.921v-28.188Zm-2.515-13.53c1.031 0 1.864.323 2.5.968.645.637.969 1.437.969 2.406 0 .961-.324 1.75-.969 2.375-.636.625-1.469.938-2.5.938-1 0-1.824-.313-2.469-.938-.636-.625-.953-1.414-.953-2.375 0-.969.317-1.77.953-2.406.645-.645 1.47-.969 2.47-.969Zm39.735 12.89c3.206 0 5.753 1.293 7.64 3.875 1.894 2.586 2.844 6.195 2.844 10.828 0 2.93-.45 5.508-1.344 7.734-.887 2.23-2.168 3.961-3.844 5.188-1.68 1.226-3.64 1.844-5.89 1.844-2.962 0-5.454-1.25-7.485-3.75l-.484 3.109h-4.328v-39.531l4.921-.578v15.453c2.032-2.782 4.688-4.172 7.97-4.172Zm-1.766 25.562c2.175 0 3.878-.879 5.109-2.64 1.226-1.77 1.844-4.508 1.844-8.22 0-3.812-.575-6.562-1.72-8.25-1.136-1.694-2.757-2.546-4.858-2.546-2.493 0-4.684 1.465-6.579 4.39v13.47c.75 1.18 1.664 2.105 2.75 2.78 1.094.68 2.243 1.016 3.454 1.016Zm39.622-3.312c0 1.148.195 1.996.593 2.547.395.554.985.968 1.766 1.25l-1.125 3.422c-1.46-.18-2.637-.586-3.531-1.22-.887-.644-1.543-1.644-1.969-3-1.898 2.813-4.7 4.22-8.406 4.22-2.781 0-4.977-.782-6.578-2.344-1.606-1.57-2.407-3.625-2.407-6.156 0-3 1.079-5.301 3.235-6.907 2.156-1.601 5.21-2.406 9.172-2.406h4.328v-2.078c0-2-.48-3.426-1.438-4.281-.96-.852-2.437-1.282-4.437-1.282-2.074 0-4.606.5-7.594 1.5l-1.234-3.593c3.5-1.282 6.742-1.922 9.734-1.922 3.313 0 5.785.812 7.422 2.437 1.644 1.617 2.469 3.922 2.469 6.922Zm-11.547 3.531c2.812 0 5.02-1.46 6.625-4.39v-6.47h-3.688c-5.21 0-7.812 1.93-7.812 5.782 0 1.68.41 2.945 1.234 3.797.82.855 2.035 1.281 3.64 1.281Zm44.386-23.859c-1.074.355-2.25.59-3.531.703-1.282.105-2.852.156-4.703.156 3.312 1.5 4.968 3.871 4.968 7.11 0 2.824-.965 5.124-2.89 6.906-1.93 1.78-4.547 2.672-7.86 2.672-1.281 0-2.476-.176-3.578-.532-.43.282-.765.668-1.015 1.157a3.12 3.12 0 0 0-.375 1.453c0 1.543 1.226 2.312 3.687 2.312h4.5c1.883 0 3.555.34 5.016 1.016 1.468.68 2.601 1.605 3.406 2.781.8 1.176 1.203 2.508 1.203 4 0 2.75-1.125 4.863-3.375 6.344-2.25 1.476-5.531 2.219-9.844 2.219-3.031 0-5.433-.313-7.203-.938-1.762-.625-3.015-1.562-3.765-2.812-.743-1.243-1.11-2.844-1.11-4.813h4.438c0 1.145.21 2.047.64 2.703.426.664 1.192 1.164 2.297 1.5 1.102.344 2.672.516 4.703.516 2.957 0 5.067-.371 6.328-1.11 1.27-.73 1.907-1.824 1.907-3.28 0-1.325-.5-2.325-1.5-3-.993-.677-2.383-1.016-4.172-1.016h-4.438c-2.386 0-4.195-.504-5.422-1.516-1.23-1.02-1.843-2.297-1.843-3.828 0-.926.265-1.817.797-2.672.539-.852 1.304-1.617 2.296-2.297-1.636-.863-2.84-1.926-3.609-3.187-.762-1.27-1.14-2.813-1.14-4.625 0-1.895.468-3.586 1.406-5.079.945-1.5 2.25-2.664 3.906-3.5 1.656-.843 3.504-1.265 5.547-1.265 2.207.031 4.054-.047 5.547-.235 1.5-.195 2.738-.46 3.718-.796.989-.344 2.196-.836 3.625-1.485Zm-14.328 1.609c-1.856 0-3.293.578-4.313 1.734-1.023 1.157-1.531 2.684-1.531 4.579 0 1.93.516 3.468 1.547 4.625 1.039 1.156 2.504 1.734 4.39 1.734 1.926 0 3.395-.555 4.407-1.672 1.02-1.125 1.531-2.707 1.531-4.75 0-4.164-2.012-6.25-6.031-6.25Zm38.383 18.719c0 1.148.196 1.996.594 2.547.395.554.985.968 1.766 1.25l-1.125 3.422c-1.46-.18-2.637-.586-3.531-1.22-.887-.644-1.543-1.644-1.969-3-1.898 2.813-4.7 4.22-8.406 4.22-2.781 0-4.977-.782-6.578-2.344-1.606-1.57-2.407-3.625-2.407-6.156 0-3 1.079-5.301 3.235-6.907 2.156-1.601 5.21-2.406 9.172-2.406h4.328v-2.078c0-2-.48-3.426-1.438-4.281-.96-.852-2.437-1.282-4.437-1.282-2.074 0-4.606.5-7.594 1.5l-1.234-3.593c3.5-1.282 6.742-1.922 9.734-1.922 3.313 0 5.785.812 7.422 2.437 1.644 1.617 2.469 3.922 2.469 6.922Zm-11.546 3.531c2.812 0 5.02-1.46 6.625-4.39v-6.47h-3.688c-5.21 0-7.812 1.93-7.812 5.782 0 1.68.41 2.945 1.234 3.797.82.855 2.035 1.281 3.64 1.281Zm26.464 1.328c0 2.602-.324 4.692-.969 6.266-.637 1.57-1.57 2.847-2.797 3.828-1.23.976-2.949 1.969-5.156 2.969l-1.453-3.594c1.394-.637 2.46-1.266 3.203-1.89.75-.626 1.313-1.5 1.688-2.626.375-1.125.562-2.668.562-4.625v-26.797h4.922Zm-2.453-40c1.031 0 1.863.324 2.5.969.644.637.969 1.437.969 2.406 0 .961-.325 1.75-.97 2.375-.636.625-1.468.938-2.5.938-1 0-1.823-.313-2.468-.938-.637-.625-.953-1.414-.953-2.375 0-.969.316-1.77.953-2.406.645-.645 1.469-.969 2.469-.969Zm33.91 26.797c0 .824-.04 1.664-.11 2.516h-17.968c.207 3.105.988 5.386 2.343 6.843 1.352 1.461 3.102 2.188 5.25 2.188 1.352 0 2.598-.191 3.735-.578 1.144-.395 2.343-1.02 3.593-1.875l2.141 2.937c-3 2.356-6.281 3.532-9.844 3.532-3.93 0-6.992-1.282-9.187-3.844-2.188-2.57-3.281-6.102-3.281-10.594 0-2.926.472-5.52 1.421-7.781.946-2.27 2.301-4.047 4.063-5.328 1.758-1.282 3.836-1.922 6.234-1.922 3.739 0 6.61 1.23 8.61 3.687 2 2.461 3 5.867 3 10.219Zm-4.875-1.437c0-2.782-.555-4.899-1.657-6.36-1.105-1.469-2.761-2.203-4.968-2.203-4.032 0-6.227 2.961-6.578 8.875h13.203Zm0 0"/></svg>