<svg xmlns="http://www.w3.org/2000/svg" width="1920" viewBox="0 0 1440 810" height="1080" version="1.0" xmlns:xlink="http://www.w3.org/1999/xlink"><defs><path d="m484.836 335.203 185.242 83.64-85.183 188.66-185.243-83.64Zm0 0" id="a"/><path d="M645.332 199.918a286.14 286.14 0 0 0-14.867-41.734 283.39 283.39 0 0 0-10.735-21.536v-.003c-.003-.008-.011-.02-.015-.032-.254-.457-.504-.91-.758-1.363-.008-.012-.02-.023-.027-.035a1.366 1.366 0 0 0-.098-.145c-.031-.039-.059-.082-.094-.117a1.048 1.048 0 0 0-.117-.11c-.039-.034-.074-.073-.117-.105l-.133-.082c-.047-.027-.09-.054-.14-.078a.832.832 0 0 0-.137-.055c-.055-.02-.11-.043-.168-.054-.012-.004-.028-.012-.043-.016l-44.586-9.871c-.004-.004-.008 0-.012-.004-.055-.012-.113-.012-.172-.02-.054-.003-.105-.015-.16-.015h-.012c-.039 0-.078.008-.117.012a1.575 1.575 0 0 0-.195.02.385.385 0 0 0-.078.019 1.696 1.696 0 0 0-.39.062 94.576 94.576 0 0 1-27.587 4.11h-.05a94.466 94.466 0 0 1-27.415-4.075 1.61 1.61 0 0 0-.683-.156h-.008c-.145 0-.285.024-.422.059l-44.52 9.86c-.015.003-.03.01-.042.015a2.113 2.113 0 0 0-.168.054 1.197 1.197 0 0 0-.277.133c-.048.028-.09.055-.134.082-.043.032-.082.07-.12.106-.04.035-.079.07-.114.11-.035.038-.062.077-.094.12a.9.9 0 0 0-.097.14c-.008.013-.02.024-.028.04a285.76 285.76 0 0 0-11.508 22.93 285.665 285.665 0 0 0-14.863 41.734 1.631 1.631 0 0 0 1.145 2.004l35.238 9.66a1.638 1.638 0 0 0 2.012-1.145 1.634 1.634 0 0 0-1.145-2.007l-33.664-9.23a282.586 282.586 0 0 1 14.262-39.68 284.235 284.235 0 0 1 9.172-18.653 146.026 146.026 0 0 1 10.5 26.395c4.851 16.863 6.027 33.086 4.484 61.984a638.12 638.12 0 0 1-3.988 44.766 669.613 669.613 0 0 1-5.176 34.258 1.633 1.633 0 0 0 1.317 1.89c.019.008.039.02.062.027 17.434 4.989 40.914 7.739 66.11 7.739.117 0 .226-.016.335-.035.11.02.22.035.336.035 25.18 0 48.649-2.746 66.078-7.73.051-.012.094-.036.141-.055.84-.2 1.39-1.012 1.238-1.871a668.96 668.96 0 0 1-5.176-34.258 638.12 638.12 0 0 1-3.988-44.766c-1.543-28.898-.367-45.121 4.485-61.984a146.026 146.026 0 0 1 10.5-26.395 282.284 282.284 0 0 1 9.171 18.653 282.586 282.586 0 0 1 14.262 39.68l-33.664 9.23a1.634 1.634 0 0 0 .434 3.21c.14 0 .289-.015.433-.058l35.239-9.66a1.637 1.637 0 0 0 1.148-2.004Zm-100.758-67.883c9.008 0 17.95-1.238 26.606-3.683-1.309 10.574-12.547 18.863-26.176 18.863-.11 0-.219.012-.324.035a1.499 1.499 0 0 0-.325-.035c-13.609 0-24.84-8.266-26.171-18.805a97.858 97.858 0 0 0 26.336 3.625h.054Zm-.219 175.54c.11 0 .22-.012.325-.032.105.02.215.031.324.031 23.793 0 46.012-2.597 62.797-7.32.39 2.379.797 4.758 1.215 7.133-17.02 4.687-39.672 7.265-63.985 7.265-.117 0-.226.016-.336.036a1.883 1.883 0 0 0-.336-.036c-24.328 0-46.988-2.578-64.011-7.273a713.1 713.1 0 0 0 1.21-7.125c16.786 4.726 39.005 7.32 62.797 7.32Zm60.313-141.22c-4.965 17.258-6.172 33.758-4.61 63.063a642.652 642.652 0 0 0 4.008 45A664.952 664.952 0 0 0 607.277 297c-16.543 4.71-38.593 7.305-62.273 7.305-.11 0-.219.011-.324.03a1.788 1.788 0 0 0-.325-.03c-23.68 0-45.73-2.594-62.273-7.305a664.952 664.952 0 0 0 3.211-22.582 642.442 642.442 0 0 0 4.008-45c1.562-29.305.36-45.805-4.61-63.063-2.855-9.925-6.8-19.64-11.726-28.882l41.914-9.282c1.195 12.457 13.953 22.297 29.476 22.297.11 0 .22-.011.325-.035.105.024.215.035.324.035 15.523 0 28.281-9.84 29.476-22.297l41.915 9.282c-4.926 9.242-8.872 18.957-11.727 28.882Zm0 0" id="w"/></defs><defs><clipPath id="b"><path d="M294.941 7.043h799.02v795.914H294.94Zm0 0"/></clipPath><clipPath id="c"><path d="M333.191 7.043h721.965c21.125 0 38.25 17.125 38.25 38.25v719.414c0 21.125-17.125 38.25-38.25 38.25H333.191c-21.125 0-38.25-17.125-38.25-38.25V45.293c0-21.125 17.125-38.25 38.25-38.25Zm0 0"/></clipPath><clipPath id="d"><path d="M433 368h193v219H433Zm0 0"/></clipPath><clipPath id="e"><use xlink:href="#a"/></clipPath><clipPath id="f"><use xlink:href="#a"/></clipPath><clipPath id="g"><path d="M554 433h12v11h-12Zm0 0"/></clipPath><clipPath id="h"><use xlink:href="#a"/></clipPath><clipPath id="i"><use xlink:href="#a"/></clipPath><clipPath id="j"><path d="M539 466h12v11h-12Zm0 0"/></clipPath><clipPath id="k"><use xlink:href="#a"/></clipPath><clipPath id="l"><use xlink:href="#a"/></clipPath><clipPath id="m"><path d="M524 499h12v12h-12Zm0 0"/></clipPath><clipPath id="n"><use xlink:href="#a"/></clipPath><clipPath id="o"><use xlink:href="#a"/></clipPath><clipPath id="p"><path d="M510 530h11v12h-11Zm0 0"/></clipPath><clipPath id="q"><use xlink:href="#a"/></clipPath><clipPath id="r"><use xlink:href="#a"/></clipPath><clipPath id="s"><path d="M511 414h26v31h-26Zm0 0"/></clipPath><clipPath id="t"><use xlink:href="#a"/></clipPath><clipPath id="u"><use xlink:href="#a"/></clipPath><clipPath id="v"><path d="M443.781 124.535h201.75V318h-201.75Zm0 0"/></clipPath><clipPath id="x"><path d="M681.086 405H937v180H681.086Zm0 0"/></clipPath><clipPath id="y"><path d="M673 125h263v206.535H673Zm0 0"/></clipPath></defs><g clip-path="url(#b)"><g clip-path="url(#c)"><path fill="#0e332c" d="M294.941 7.043h799.02v795.914H294.94Zm0 0"/></g></g><g clip-path="url(#d)"><g clip-path="url(#e)"><g clip-path="url(#f)"><path fill="#c7dd60" d="M621 515.496a429.159 429.159 0 0 0 4.227-44.035c.406-9.348.507-18.84.296-28.211a19.07 19.07 0 0 0-1.828-7.734v-.012c-.004-.004-.008-.004-.008-.008a1.692 1.692 0 0 1-.039-.098 19.57 19.57 0 0 0-4.668-6.195l-21.062-18.723-1.047-23.703c0-.043-.016-.078-.023-.12-.004-.052-.016-.102-.028-.153a1.704 1.704 0 0 0-.156-.422c-.02-.039-.031-.074-.05-.11a1.644 1.644 0 0 0-.387-.417c-.016-.012-.02-.028-.036-.04-.027-.019-.058-.019-.086-.038-.066-.043-.125-.09-.199-.125l-36.843-16.633c-.07-.035-.149-.047-.223-.067-.035-.007-.059-.03-.09-.039-.016-.004-.031 0-.047 0a1.56 1.56 0 0 0-.57-.015c-.04.007-.074.023-.117.03-.145.036-.286.09-.418.165-.047.027-.09.05-.137.082-.031.023-.07.035-.102.063l-18.476 14.89-27.977-3.418a19.47 19.47 0 0 0-7.73.594 2.71 2.71 0 0 1-.098.035h-.012l-.007.008a19.104 19.104 0 0 0-7.016 3.742 430.52 430.52 0 0 0-20.961 18.883 428.092 428.092 0 0 0-30.238 32.289c-11.242 13.328-14.196 31.793-7.7 48.195 2.594 6.535 5.126 12.887 8.434 18.438.035.07.074.136.117.199 1.875 3.121 4.008 5.977 6.543 8.465.067.074.114.16.196.222.035.024.07.04.105.063a32.367 32.367 0 0 0 4.375 3.52l-12.2 27.011a1.645 1.645 0 0 0 .821 2.172l93.781 42.344a1.64 1.64 0 0 0 2.168-.82l12.2-27.016a32.23 32.23 0 0 0 5.53.95c.04.01.075.03.118.038.102.02.195 0 .293 0 3.543.258 7.098-.031 10.68-.687a1.45 1.45 0 0 0 .226-.043c6.352-1.192 12.79-3.492 19.41-5.871 16.598-5.973 28.5-20.395 31.059-37.645Zm-76.664-131.848c1.348 11.164 7.586 20.614 16.879 25.442l-1.645 3.637c-10.21-5.207-17.164-15.16-18.457-26.48Zm5.71-4.601c1.68 9.715 7.075 17.629 14.903 21.77l-2.386 5.285c-8.797-4.653-14.504-14.008-15.157-24.93Zm6.231-5.024c-.234 8.243 4.239 16.125 11.664 20.16l-1.64 3.641c-7.301-3.945-12.18-11.707-13.29-21.172Zm37.676 21.118c-7.832 5.425-16.875 6.898-24.664 4.03l1.645-3.636c7.937 2.902 16.808 1.047 22.836-4.582Zm.32 7.191c-8.62 6.738-19.414 8.64-28.722 5.117l2.386-5.285c8.286 3.137 17.79 1.95 26.188-3.219Zm-23.515-10.398c-7.567-3.418-11.996-11.332-11.094-19.344l32.945 14.875c-5.418 5.973-14.28 7.887-21.851 4.469Zm-6.555 18.503c9.766 3.782 20.977 2.211 30.246-4.164l.18 4.137c-9.344 6.516-21.41 7.883-32.07 3.668Zm-116.851 27.637a426.169 426.169 0 0 1 30.007-32.043 427.91 427.91 0 0 1 20.801-18.734 15.767 15.767 0 0 1 4.418-2.625c1.54 4.664 2.547 9.473 2.926 14.34.629 7.996-.332 15.945-2.852 23.633l-23.957 30.722a17.505 17.505 0 0 0-3.027 5.992c-.246-.304-.461-.632-.723-.925a22.546 22.546 0 0 0-6.414-5.047c-.804-.399-1.793-.117-2.219.683a1.647 1.647 0 0 0 .684 2.22 19.313 19.313 0 0 1 5.488 4.315 19.173 19.173 0 0 1 2.5 3.614 17.802 17.802 0 0 0 1.895 8.078 127.563 127.563 0 0 0-16.223 12.492c-4.812 4.375-9.285 9.16-13.37 14.215-2.618-4.805-4.786-10.258-7.087-16.059-6.05-15.273-3.308-32.468 7.153-44.87Zm34.84 41.488A148.642 148.642 0 0 0 467.5 491.91a147.8 147.8 0 0 0-14.18 15.758c-1.574-1.715-2.98-3.606-4.261-5.645a124.384 124.384 0 0 1 13.804-14.808c4.875-4.43 10.153-8.477 15.688-12.09 1.176 1.742 2.41 3.133 3.64 4.438ZM471.32 521.43l25.586-26.832a1.67 1.67 0 0 1 1.903-.356c.168.078.328.184.472.317l.516.484c.328.309.515.723.527 1.168.012.43-.148.84-.445 1.152l-25.586 26.832c-.633.66-1.7.676-2.371.04l-.52-.485v-.004a1.637 1.637 0 0 1-.527-1.164c-.012-.43.145-.84.445-1.152Zm-.363-4.375a32.67 32.67 0 0 1-5.137-1.262c2.961-4.578 6.344-8.89 10.125-12.813 4.184-4.335 8.856-8.199 13.875-11.562.473 1.535.805 3.14 1.004 4.805Zm2.629-16.356a88.04 88.04 0 0 0-10.871 13.852c-.457-.207-.918-.403-1.36-.637-2.117-1.11-4-2.426-5.699-3.922 4.313-5.558 9.04-10.847 14.114-15.715a145.482 145.482 0 0 1 14.671-12.3c1.348 1.507 2.625 3.148 3.782 5.425.144.282.257.582.39.871-5.449 3.586-10.511 7.747-15.027 12.426Zm4.965-33.554c-.82-4.086.117-8.41 2.73-11.758l6.125-7.86Zm-18.719 49.675c.574.301 1.156.586 1.75.852a34.766 34.766 0 0 0 6.781 2.238 4.86 4.86 0 0 0-.765 2.766 4.907 4.907 0 0 0 1.562 3.465l.516.488c.41.387.87.687 1.36.91 1.87.844 4.151.477 5.632-1.082l25.586-26.828a4.854 4.854 0 0 0 1.348-3.508 4.916 4.916 0 0 0-1.563-3.473l-.516-.484c-1.988-1.867-5.125-1.789-6.992.172l-.867.906c-.531-2.594-1.36-5.055-2.52-7.332-1.828-3.59-3.917-5.8-5.945-7.933-1.703-1.797-3.324-3.504-4.773-6.016-.004-.004-.004-.008-.004-.012h-.004c-.082-.14-.16-.297-.238-.441l15.777-34.945 9.457-12.125c.117-.149.207-.313.266-.493 2.722-8.187 3.761-16.66 3.093-25.187-.394-5.082-1.441-10.102-3.039-14.973 1.57-.27 3.168-.312 4.778-.117l27.39 3.348c1.54 12.296 9.176 23.078 20.317 28.703l-57.715 127.828-43.902-19.82 3.14-6.954c.031.012.059.032.09.047Zm-7.566 16.516 43.718 19.738.18.082-.89 1.973-43.903-19.82Zm46.886 21.168.18.082 43.723 19.742-.895 1.973-43.898-19.82Zm45.25 16.832-43.718-19.738-.18-.082 1.64-3.633 43.899 19.824Zm-46.89-21.172-.176-.078-43.723-19.742 1.64-3.633 43.9 19.824Zm-47.489-11.863 43.899 19.82-1.64 3.633-43.9-19.824Zm45.25 24.8 1.637-3.628 43.902 19.82-1.64 3.633Zm52.122 1.614-43.903-19.82 57.719-127.829c11.59 4.637 24.723 3.235 34.969-3.742l20.62 18.332a16.239 16.239 0 0 1 3.071 3.66c-4.707 2.02-9.164 4.559-13.238 7.622-6.84 5.14-12.508 11.523-16.848 18.98-.094.164-.16.34-.191.523l-2.844 15.114-15.777 34.941c-.164.04-.332.082-.489.113h-.004c-.003.004-.003.004-.007.004-2.848.57-5.203.489-7.672.399-2.942-.11-5.98-.219-9.883.785-2.473.637-4.871 1.64-7.168 2.96l.11-1.25c.234-2.698-1.79-5.1-4.497-5.355l-.71-.07a4.921 4.921 0 0 0-3.633 1.125 4.851 4.851 0 0 0-1.739 3.332l-3.203 36.934c-.187 2.14 1.043 4.093 2.914 4.937a4.96 4.96 0 0 0 1.582.422l.707.063a4.899 4.899 0 0 0 5.2-3.524 34.92 34.92 0 0 0 6.164 3.61c.59.265 1.187.515 1.793.746.03.015.066.02.097.035Zm27.925-53.88 8.856-19.612-1.84 9.789c-.785 4.175-3.41 7.742-7.016 9.824Zm-13.707 45.728a148.474 148.474 0 0 0 2.442-21.06 149.13 149.13 0 0 0-.457-19.183c1.793.059 3.652.07 5.742-.203.95 6.543 1.402 13.18 1.3 19.766a124.45 124.45 0 0 1-1.976 20.144c-2.379.387-4.726.582-7.05.535Zm-10.004-1.895c-.468-.18-.918-.398-1.379-.602a87.848 87.848 0 0 0 3.204-17.312c.523-6.48.296-13.031-.621-19.492.308-.09.609-.203.914-.282 2.472-.636 4.546-.765 6.57-.75a144.97 144.97 0 0 1 .476 19.137 144.466 144.466 0 0 1-2.457 20.977 28.792 28.792 0 0 1-6.707-1.676Zm-12.226-2.508c-.04.43-.242.82-.574 1.098-.34.281-.774.414-1.223.375l-.707-.067a1.686 1.686 0 0 1-1.54-1.808l3.208-36.938a1.61 1.61 0 0 1 .574-1.093 1.66 1.66 0 0 1 1.223-.38l.707.071a1.684 1.684 0 0 1 1.539 1.805Zm3.52-2.62 2.488-28.677a27.1 27.1 0 0 1 4.27-2.426c.796 5.989.987 12.047.5 18.051-.442 5.434-1.438 10.82-2.915 16.07a32.784 32.784 0 0 1-4.344-3.019Zm29.195 5.82c1.093-6.407 1.722-12.926 1.82-19.43.105-6.809-.367-13.672-1.356-20.43a17.79 17.79 0 0 0 7.313-3.922 19.31 19.31 0 0 1 4.363-.515c2.344 0 4.653.425 6.867 1.261a1.638 1.638 0 0 0 2.114-.953c.324-.848-.106-1.777-.953-2.117a22.624 22.624 0 0 0-8.024-1.477c-.394 0-.785.051-1.176.07a17.571 17.571 0 0 0 2.496-6.23l7.2-38.289c4.101-6.973 9.43-12.95 15.84-17.765 3.906-2.934 8.18-5.364 12.695-7.286.59 1.621.91 3.313.95 5.047a426.81 426.81 0 0 1-.298 27.992 424.908 424.908 0 0 1-4.191 43.7c-2.383 16.05-13.469 29.476-28.926 35.039-5.871 2.11-11.398 4.09-16.734 5.304Zm0 0"/></g></g></g><g clip-path="url(#g)"><g clip-path="url(#h)"><g clip-path="url(#i)"><path fill="#c7dd60" d="M561.941 433.785c-2.671-1.207-5.816-.031-7.015 2.617-1.196 2.649.004 5.79 2.676 6.993 2.671 1.207 5.816.03 7.015-2.618 1.196-2.648-.004-5.785-2.676-6.992Zm-2.988 6.621c-1.023-.46-1.488-1.652-1.035-2.652.453-1.004 1.648-1.442 2.672-.977 1.023.461 1.488 1.649 1.035 2.649-.453 1.004-1.652 1.441-2.672.98Zm0 0"/></g></g></g><g clip-path="url(#j)"><g clip-path="url(#k)"><g clip-path="url(#l)"><path fill="#c7dd60" d="M546.992 466.89c-2.672-1.206-5.816-.03-7.012 2.618-1.195 2.648.004 5.789 2.672 6.992 2.672 1.207 5.82.031 7.016-2.617 1.195-2.649-.004-5.785-2.676-6.992Zm-2.988 6.622c-1.024-.461-1.484-1.653-1.035-2.653.453-1 1.652-1.441 2.676-.976 1.02.46 1.484 1.652 1.03 2.652-.448 1-1.648 1.438-2.671.977Zm0 0"/></g></g></g><g clip-path="url(#m)"><g clip-path="url(#n)"><g clip-path="url(#o)"><path fill="#c7dd60" d="M532.047 499.996c-2.672-1.207-5.82-.031-7.016 2.621-1.195 2.649.004 5.785 2.676 6.992 2.672 1.204 5.816.032 7.012-2.62 1.199-2.65 0-5.786-2.672-6.993Zm-2.992 6.621c-1.024-.46-1.485-1.652-1.035-2.652.453-1 1.652-1.442 2.675-.98 1.024.464 1.485 1.652 1.035 2.656-.453 1-1.652 1.437-2.675.976Zm0 0"/></g></g></g><g clip-path="url(#p)"><g clip-path="url(#q)"><g clip-path="url(#r)"><path fill="#c7dd60" d="M517.844 531.445c-2.672-1.203-5.817-.03-7.012 2.621-1.2 2.649 0 5.786 2.672 6.993 2.672 1.207 5.82.03 7.016-2.621 1.195-2.649-.004-5.786-2.676-6.993Zm-2.989 6.625c-1.023-.465-1.488-1.652-1.035-2.656.453-1 1.653-1.437 2.676-.976 1.02.46 1.484 1.652 1.031 2.652-.449 1-1.648 1.441-2.672.98Zm0 0"/></g></g></g><g clip-path="url(#s)"><g clip-path="url(#t)"><g clip-path="url(#u)"><path fill="#c7dd60" d="M536.96 423.816a1.647 1.647 0 0 0-.948-1.738l-16.746-7.562a1.646 1.646 0 0 0-1.93.437c-2.098 2.488-4.77 6.66-5.602 12.41-1.09 7.567 1.633 13.547 3.356 16.442.176.297.437.52.734.656.301.133.64.18.98.117 3.31-.621 9.594-2.531 14.551-8.355 3.766-4.426 5.125-9.192 5.606-12.407Zm-8.105 10.282c-3.78 4.445-8.48 6.265-11.515 7.007-1.45-2.765-3.188-7.492-2.356-13.273.621-4.305 2.438-7.594 4.094-9.8l14.422 6.511c-.559 2.703-1.824 6.242-4.645 9.555Zm0 0"/></g></g></g><g clip-path="url(#v)" fill="#c7dd60"><use xlink:href="#w"/><use xlink:href="#w"/></g><g clip-path="url(#x)"><path fill="#c7dd60" d="M931.477 542.535c.02-.015.02-.05.035-.066 4.683-9.703 10.687-53.824-9.14-88.278-13.505-23.441-35.743-37.828-66.208-42.914l.082-.882a3.907 3.907 0 0 0-3.492-4.293l-8.465-.883a3.913 3.913 0 0 0-4.293 3.496l-.082.781c-32.535-1.867-58.133 6.258-76.098 24.238-28.191 28.176-28.328 70.704-28.058 79.168-6.75 4.446-39.778 26.461-49.09 36.707-.473.543-1 1.121-1.39 1.746-.391.543-.762 1.172-1.122 1.766-2.441 4.41-3.07 8.465-1.812 11.703 1.136 2.938 3.68 5.074 7.547 6.38 1.308.44 2.699.66 4.156.66 7.973 0 18.305-6.563 30.738-19.473 11.465 3.582 23.985 9.89 37.266 18.914 13.265 9.023 28.328 13.86 42.933 13.86 1.715 0 3.41-.067 5.106-.204 25.445-1.95 48.754-15.727 69.363-40.863h49.633c.984 0 1.969-.696 2.39-1.563Zm-13.622-85.746c17.235 29.957 13.88 68.582 9.926 81.016-4.648-2.086-15.676-5.532-41.375-9.282-2.187-.34-4.562-.675-7.156-1.035 4.41-11.379 17.793-50.937 4.324-82.879-4.75-11.246-12.418-20.254-22.746-27.023 25.953 5.582 45.188 18.625 57.027 39.203Zm-150.34-19.422c17.028-17.015 41.56-24.648 72.887-22.68 1.477.083 2.836.32 4.278.458 16.453 6.343 27.922 16.91 34.078 31.464 13.129 31.079-1.41 71.485-4.852 80.184-3.699-.457-7.836-.95-12.62-1.492-23.24-2.578-41.321-7.074-57.266-11.043-15.778-3.918-28.907-7.192-41.665-7.192-7.105 0-14.128 1.02-21.406 3.497.02-11.555 2.121-48.77 26.567-73.196Zm-75.96 128.918c-2.344-.781-3.817-1.918-4.36-3.344-2.578-6.632 6.207-13.28 11.586-13.96a45.562 45.562 0 0 1 5.07-.27c4.766 0 9.907.68 15.337 2.02-11.993 12.027-21.715 17.539-27.633 15.554Zm118.164 13.485c-14.98 1.187-30.875-3.36-44.715-12.774-14.285-9.683-27.785-16.437-40.137-20.082h-.015c-8.497-2.562-16.368-3.598-23.579-3.242 14.54-11.399 36.368-25.8 38.32-27.09 20.184-7.988 38.235-3.512 63.188 2.7 16.114 4 34.367 8.546 57.946 11.16 8.668.984 15.25 1.796 20.726 2.578a175.406 175.406 0 0 1-5.156 6.835c-19.879 24.63-42.27 38.047-66.578 39.915Zm73.84-40.864a157.79 157.79 0 0 0 3.629-5.02c12.23 1.813 20.882 3.544 26.886 5.02Zm0 0"/></g><g clip-path="url(#y)"><path fill="#c7dd60" d="M806.71 250.438c-7.745 5.816-15.855 10.703-26.038 13.406-13.793 3.676-27.813 4-40.813-2.457a2.33 2.33 0 0 1-.527-.348c-2.21.52-4.41 1.227-6.594 2.234-11.488 5.27-23.355 9.254-35.328 13.254-3.547 1.176-26.347 9.239-16.332 14.09 7.461 3.633 16.125 3.653 24.211 4.707 8.512 1.11 17.05 2.219 25.563 3.328 8.164-6.601 16.546-12.937 24.742-19.523 6.414-5.168 13.043-4.988 20.566-7.309 13.238-4.062 22.668-11.804 30.55-21.382Zm69.77-98.122c2.149-3.812 3.122-8.043 3.829-12.324-6.305 5.356-11.914 11.352-16.77 18.074-9.703 13.485-18.781 27.48-27.984 41.325-14.446 21.714-29.348 50.195-56.153 58.492-9.965 3.086-19.941 1.613-29.82 1.91 11.293 3.191 23.602 1.75 34.621-2.363 12.953-4.828 21.738-12.621 32.207-21.22.211-.17.45-.3.688-.401a344.483 344.483 0 0 0 4.617-7.496c10.633-17.657 21.808-35.422 34.234-51.875 5.406-7.137 11.02-14.176 17.375-20.489a78.531 78.531 0 0 1 2.848-2.734c.05-.293.137-.59.308-.899Zm18.22-17.902c-.821-4.332-5.102-2.098-8.829.77.074.304.094.656.05 1.015-.468 3.274-.948 6.547-1.714 9.738 2.582-2.386 5.09-4.835 7.316-7.496.864-1.023 1.938-2.484 3.176-4.027Zm1.175 51.516c-.07 0-.129.035-.195.035-11.055-.555-22.145 9.715-28.762 17.656-6.398 7.691-11.883 16.18-16.785 24.895-10.278 18.246-18.074 37.613-25.477 57.148 4.078-.66 8.059-1.715 11.89-3.258 15.993-6.5 25.731-21.957 33.595-36.55 8.668-16.11 20.148-33.075 24.156-51.02.656-2.961 1.144-5.93 1.578-8.906Zm5.363 110.23c.07-8.785.094-17.586.094-26.37 0-6.25-.144-12.427-.555-18.645-.246-3.864.93-12.997-2.12-16.649a61.997 61.997 0 0 0-5.606 6.738c4.793 17.137 2.37 37.188 2.199 54.926h5.988Zm-1.472-132.95c2.41-8.94 7.418-20.89 6.02-30.339-1.29-.34-2.79.23-4.75 2.313-.454.484-.907.972-1.356 1.464-.207.454-.54.786-.95 1.008-5.082 5.406-10.07 10.696-15.574 15.805-18.523 17.254-31.972 38.285-45.722 59.336-12.239 18.758-22.032 41.539-40.848 54.844-4.988 3.515-10.379 6.363-16.23 8.164-2.422.738-5.204 1.125-7.993 1.593 14.832 6.082 32.473 10.48 48.914 8.715 8.82-23.343 18.09-46.695 31.48-67.855 8.806-13.914 23.985-36.278 42.923-35.313.238.02.433.07.62.145.903-6.653 1.7-13.328 3.466-19.88Zm11.8 76.88c1.454-6.38 6.184-13.875 5.375-20.512-5.101 3.531-10.09 7.207-14.629 11.344 1.844 1.773 2.86 3.914 2.918 6.883.188 7.558.98 15.12 1.094 22.68.219 14.796.117 29.613-.129 44.41 1.09.05 2.184 0 3.274-.051-.153-7.137-.418-14.004-.086-21.227.367-7.762.23-15.523.387-23.285.117-6.738.324-13.64 1.796-20.242Zm17.727-46.746c1.781-13.153-.871-26.817-6.738-38.672-3.106-6.285-7.848-10.535-11.625-16.195-.606 8.816-4.23 17.976-6.305 26.07-3.137 12.25-2.95 25.195-7.035 37.23-3.59 10.63-9.188 20.106-14.39 29.996-4.255 8.098-8.247 16.36-12.99 24.192-8.331 13.738-19.667 28.707-36.265 32.539-23.601 5.457-46.246 1.262-68.047-8.438a2.165 2.165 0 0 1-.996-.8c-.64.265-1.265.57-1.836.902-10.207 6.117-20.367 15.305-29.613 22.816-6.191 5.075-15.004 10.45-18.523 17.946-2.703 5.742 7.02 5.168 10.445 5.066 11.074-.34 22.023-.851 33.129-.851 28.156 0 55.32-.625 83.168-5.16 8.836-1.426 21-2.739 23.984-12.965 3.149-10.774 5.04-22.032 8.035-32.88 3.36-12.128 7.59-23.6 14.09-33.699.067-.718.485-1.27 1.059-1.613 4.383-6.465 9.754-12.324 16.527-17.348 10.637-7.914 21.946-13.578 23.926-28.136Zm-10.707-53.692c12.805 14.211 19.976 38.672 15.074 57.54-2.082 8.007-6.117 14.105-12.265 19.113 2.164 6.48-.641 10.77-2.704 17.015-2.62 7.864-3.675 15.922-3.832 24.203-.168 8.692.102 17.41-.433 26.094-.489 8.074.015 15.64.129 23.668.043 1.645-1.223 2.457-2.5 2.438-.196.05-.403.078-.64.078-2.849.035-5.63.324-8.435-.281-1.375-.301-1.91-1.399-1.793-2.473a2.243 2.243 0 0 1-.066-.598c.031-1.75.031-3.5.067-5.246h-7.829c-1.074 0-1.816-.52-2.203-1.23-.672-.399-1.16-1.106-1.16-2.13V268.45c0-7.187.309-14.199-.8-21.168-5.434 9.672-8.368 20.172-11.41 30.961-2.919 10.399-4.095 22.004-8.013 32-6.027 15.387-29.492 15.168-42.84 17.051-25.902 3.66-51.917 2.883-78.007 2.883-7.403 0-14.645.59-22.04.812-4.3.133-10.55.621-14.347-1.98-10.226-7.028 4.207-19.363 12.805-26.059-9.375-1.262-18.75-2.582-28.157-3.597-6.949-.75-14.074-1.407-20.085-5.305-6.891-4.453-3.684-11.387 2.062-14.969 8.84-5.512 19.117-7.89 28.848-11.3 9.433-3.278 18.32-7.883 27.676-11.243 9.093-3.242 17.238-1.68 26.644-1.406 21.938.64 38.672-14.363 50.664-31.285 11.848-16.676 22.809-34.016 34.305-50.946 10.011-14.765 19.582-29.367 34.101-40.164 3.383-2.507 7.59-8.246 12.282-6.5 1.757.668 3.359 2.297 4.476 4.2 2.32-2.32 4.88-4.121 7.43-4 6.25.289 9.426 9.226 12.996 13.218"/></g><path fill="#c7dd60" d="M926.398 185.012c.317.05.438 2.82-.449 7.289-.308 1.094-.488 2.328-1.023 3.594-.258.636-.504 1.296-.762 1.968a83.083 83.083 0 0 0-1.055 1.98c-.332.708-.863 1.329-1.324 1.977-.476.657-.945 1.348-1.57 1.938-.606.605-1.211 1.262-1.84 1.867-.64.504-1.281 1.023-1.953 1.563-5.543 4.109-10.66 7.3-14.313 9.722-3.66 2.473-5.98 4-6.234 3.656-.215-.28 1.621-2.328 4.988-5.234 3.43-2.89 8.504-6.434 13.801-10.363a203.93 203.93 0 0 1 1.945-1.543c.57-.547 1.075-1.086 1.594-1.586.555-.488.973-1.094 1.426-1.649.433-.57.93-1.09 1.246-1.714l1.055-1.723c.273-.586.554-1.176.812-1.73.586-1.11.867-2.27 1.27-3.258 1.332-4.121 1.953-6.825 2.386-6.754m-12.043-35.278c.387.16-.082 1.766-.773 4.18-.613 2.352-1.34 5.715-1.96 9.492-.59 3.813-1.161 7.309-1.786 9.824-.64 2.524-1.254 4.02-1.645 3.95-.382-.086-.453-1.696-.332-4.23.11-2.56.348-6.083.953-9.997.657-3.914 1.715-7.41 2.926-9.844 1.211-2.32 2.285-3.511 2.617-3.375M781.098 300.078c.05.383-3.043 1.43-8.035 2.77-2.465.793-5.422 1.734-8.684 2.789-3.274 1.11-6.883 2.355-10.684 3.531a490.202 490.202 0 0 1-10.78 3.234c-3.313.946-6.27 1.797-8.669 2.676a58.187 58.187 0 0 0-5.558 2.371c-1.317.684-2.083.992-2.184.836-.121-.168.433-.773 1.558-1.746 1.125-.937 3.012-2.152 5.41-3.309 2.403-1.16 5.4-2.238 8.692-3.328a803.1 803.1 0 0 1 10.695-3.437c3.813-1.176 7.426-2.356 10.739-3.309 3.375-.894 6.394-1.715 8.98-2.254 5.227-.875 8.453-1.21 8.52-.824M750.29 267.05c.187.794-11.692 4.282-26.458 8.419-14.848 4.129-27.129 5.996-27.3 5.289-.196-.82 11.882-3.95 26.558-8.028 14.746-4.136 27.047-6.421 27.2-5.68M507.23 703.983v-17.281h-15.516v17.28h-5.079V667.14h5.079v15.39h15.515v-15.39h5.078v36.844Zm34.486-6.578c0 1.148.195 1.996.593 2.547.395.554.985.968 1.766 1.25l-1.125 3.422c-1.46-.18-2.637-.586-3.531-1.22-.887-.644-1.543-1.644-1.969-3-1.898 2.813-4.7 4.22-8.406 4.22-2.781 0-4.977-.782-6.578-2.344-1.606-1.57-2.407-3.625-2.407-6.156 0-3 1.079-5.301 3.235-6.907 2.156-1.601 5.21-2.406 9.172-2.406h4.328v-2.078c0-2-.48-3.426-1.438-4.281-.96-.852-2.437-1.282-4.437-1.282-2.074 0-4.606.5-7.594 1.5l-1.234-3.593c3.5-1.282 6.742-1.922 9.734-1.922 3.313 0 5.785.812 7.422 2.437 1.644 1.617 2.469 3.922 2.469 6.922Zm-11.547 3.531c2.812 0 5.02-1.46 6.625-4.39v-6.47h-3.688c-5.21 0-7.812 1.93-7.812 5.782 0 1.68.41 2.945 1.234 3.797.82.855 2.035 1.281 3.64 1.281Zm26.573-25.141v28.188h-4.922v-28.188Zm-2.515-13.53c1.03 0 1.863.323 2.5.968.644.637.968 1.437.968 2.406 0 .961-.324 1.75-.968 2.375-.637.625-1.47.938-2.5.938-1 0-1.825-.313-2.47-.938-.636-.625-.952-1.414-.952-2.375 0-.969.316-1.77.953-2.406.644-.645 1.469-.969 2.469-.969Zm25.938 12.89c2.57 0 4.578.765 6.016 2.297 1.445 1.53 2.172 3.636 2.172 6.312v20.219h-4.922v-19.516c0-2-.375-3.41-1.125-4.234-.75-.82-1.855-1.234-3.313-1.234-1.5 0-2.824.433-3.968 1.296-1.137.856-2.203 2.086-3.203 3.688v20H566.9v-28.188h4.234l.422 4.172c1-1.5 2.238-2.675 3.719-3.531 1.476-.852 3.11-1.281 4.89-1.281Zm39.367 13.906c0 .824-.04 1.664-.11 2.516h-17.969c.207 3.105.989 5.386 2.344 6.843 1.352 1.461 3.102 2.188 5.25 2.188 1.352 0 2.598-.191 3.735-.578 1.144-.395 2.343-1.02 3.593-1.875l2.141 2.937c-3 2.356-6.281 3.532-9.844 3.532-3.93 0-6.992-1.282-9.187-3.844-2.188-2.57-3.282-6.102-3.282-10.594 0-2.926.473-5.52 1.422-7.781.946-2.27 2.301-4.047 4.063-5.328 1.758-1.282 3.836-1.922 6.234-1.922 3.738 0 6.61 1.23 8.61 3.687 2 2.461 3 5.867 3 10.219Zm-4.875-1.437c0-2.782-.555-4.899-1.657-6.36-1.105-1.469-2.761-2.203-4.968-2.203-4.032 0-6.227 2.961-6.579 8.875h13.204Zm34.547-12.469c1.926 0 3.656.273 5.187.812 1.532.532 2.989 1.328 4.375 2.39l-2.078 3.11c-1.281-.82-2.508-1.425-3.672-1.812a11.245 11.245 0 0 0-3.656-.594c-1.605 0-2.871.336-3.797 1-.93.656-1.39 1.555-1.39 2.688 0 1.148.437 2.043 1.312 2.687.875.637 2.453 1.258 4.734 1.86 3.133.78 5.477 1.851 7.032 3.203 1.55 1.355 2.328 3.21 2.328 5.562 0 2.781-1.078 4.906-3.235 6.375-2.156 1.461-4.789 2.188-7.89 2.188-4.281 0-7.828-1.227-10.64-3.688l2.609-3c2.394 1.824 5.035 2.734 7.921 2.734 1.852 0 3.32-.378 4.407-1.14 1.093-.77 1.64-1.817 1.64-3.14 0-.958-.199-1.727-.593-2.313-.399-.594-1.075-1.114-2.032-1.563-.96-.445-2.367-.922-4.218-1.422-3-.781-5.172-1.832-6.516-3.156-1.336-1.32-2-3-2-5.031 0-1.457.437-2.781 1.312-3.969.875-1.195 2.086-2.125 3.641-2.781 1.55-.664 3.29-1 5.219-1Zm-.016 32.953c.852 0 1.57.281 2.156.844.594.57.891 1.285.891 2.14 0 .469-.101.985-.297 1.547-.187.57-.554 1.43-1.094 2.578l-2.187 4.594h-2.828l1.547-6.203c-.856-.75-1.282-1.59-1.282-2.516 0-.855.301-1.57.907-2.14.601-.563 1.332-.844 2.187-.844Zm22.253-32.313v28.188h-4.922v-28.188Zm-2.515-13.53c1.03 0 1.863.323 2.5.968.644.637.968 1.437.968 2.406 0 .961-.324 1.75-.968 2.375-.637.625-1.47.938-2.5.938-1 0-1.825-.313-2.47-.938-.636-.625-.952-1.414-.952-2.375 0-.969.316-1.77.953-2.406.644-.645 1.469-.969 2.469-.969Zm45.827 35.14c0 1.148.196 1.996.594 2.547.395.554.984.968 1.766 1.25l-1.125 3.422c-1.461-.18-2.637-.586-3.532-1.22-.886-.644-1.543-1.644-1.968-3-1.899 2.813-4.7 4.22-8.407 4.22-2.78 0-4.976-.782-6.578-2.344-1.605-1.57-2.406-3.625-2.406-6.156 0-3 1.078-5.301 3.234-6.907 2.157-1.601 5.211-2.406 9.172-2.406h4.328v-2.078c0-2-.48-3.426-1.437-4.281-.961-.852-2.438-1.282-4.438-1.282-2.074 0-4.605.5-7.593 1.5l-1.235-3.593c3.5-1.282 6.742-1.922 9.735-1.922 3.312 0 5.785.812 7.422 2.437 1.644 1.617 2.468 3.922 2.468 6.922Zm-11.547 3.531c2.813 0 5.02-1.46 6.625-4.39v-6.47h-3.687c-5.211 0-7.813 1.93-7.813 5.782 0 1.68.41 2.945 1.235 3.797.82.855 2.035 1.281 3.64 1.281Zm31.918-25.781c1.675 0 3.207.242 4.593.719 1.395.48 2.739 1.257 4.032 2.328l-2.36 3.109c-1-.719-1.976-1.242-2.922-1.578-.937-.344-1.98-.516-3.125-.516-2.28 0-4.058.914-5.328 2.735-1.261 1.812-1.89 4.507-1.89 8.078 0 3.562.625 6.195 1.875 7.89 1.25 1.688 3.03 2.532 5.343 2.532 1.102 0 2.118-.164 3.047-.5.926-.344 1.961-.891 3.11-1.641l2.25 3.219c-2.575 2.062-5.45 3.094-8.625 3.094-3.813 0-6.82-1.282-9.016-3.844-2.187-2.57-3.281-6.125-3.281-10.656 0-2.989.5-5.602 1.5-7.844 1-2.25 2.414-4 4.25-5.25 1.832-1.25 4.015-1.875 6.547-1.875Zm25.56 0c1.675 0 3.207.242 4.593.719 1.395.48 2.739 1.257 4.032 2.328l-2.36 3.109c-1-.719-1.976-1.242-2.922-1.578-.937-.344-1.98-.516-3.125-.516-2.28 0-4.058.914-5.328 2.735-1.261 1.812-1.89 4.507-1.89 8.078 0 3.562.625 6.195 1.875 7.89 1.25 1.688 3.03 2.532 5.343 2.532 1.102 0 2.118-.164 3.047-.5.926-.344 1.961-.891 3.11-1.641l2.25 3.219c-2.575 2.062-5.45 3.094-8.625 3.094-3.813 0-6.82-1.282-9.016-3.844-2.187-2.57-3.281-6.125-3.281-10.656 0-2.989.5-5.602 1.5-7.844 1-2.25 2.414-4 4.25-5.25 1.832-1.25 4.015-1.875 6.547-1.875Zm36.591 13.906c0 .824-.04 1.664-.11 2.516h-17.968c.207 3.105.988 5.386 2.343 6.843 1.352 1.461 3.102 2.188 5.25 2.188 1.352 0 2.598-.191 3.735-.578 1.144-.395 2.344-1.02 3.594-1.875l2.14 2.937c-3 2.356-6.281 3.532-9.844 3.532-3.93 0-6.992-1.282-9.187-3.844-2.188-2.57-3.281-6.102-3.281-10.594 0-2.926.472-5.52 1.422-7.781.945-2.27 2.3-4.047 4.062-5.328 1.758-1.282 3.836-1.922 6.234-1.922 3.739 0 6.61 1.23 8.61 3.687 2 2.461 3 5.867 3 10.219Zm-4.875-1.437c0-2.782-.555-4.899-1.656-6.36-1.106-1.469-2.762-2.203-4.97-2.203-4.03 0-6.226 2.961-6.577 8.875H792.4Zm20.377-12.469c1.926 0 3.656.273 5.187.812 1.532.532 2.989 1.328 4.375 2.39l-2.078 3.11c-1.281-.82-2.508-1.425-3.672-1.812a11.245 11.245 0 0 0-3.656-.594c-1.605 0-2.871.336-3.797 1-.93.656-1.39 1.555-1.39 2.688 0 1.148.437 2.043 1.312 2.687.875.637 2.453 1.258 4.734 1.86 3.133.78 5.477 1.851 7.032 3.203 1.55 1.355 2.328 3.21 2.328 5.562 0 2.781-1.078 4.906-3.235 6.375-2.156 1.461-4.789 2.188-7.89 2.188-4.281 0-7.828-1.227-10.64-3.688l2.609-3c2.394 1.824 5.035 2.734 7.921 2.734 1.852 0 3.32-.378 4.407-1.14 1.093-.77 1.64-1.817 1.64-3.14 0-.958-.199-1.727-.593-2.313-.399-.594-1.075-1.114-2.032-1.563-.96-.445-2.367-.922-4.218-1.422-3-.781-5.172-1.832-6.516-3.156-1.336-1.32-2-3-2-5.031 0-1.457.437-2.781 1.312-3.969.875-1.195 2.086-2.125 3.641-2.781 1.55-.664 3.29-1 5.219-1Zm27.909 0c3.957 0 7.031 1.324 9.219 3.969 2.195 2.636 3.297 6.214 3.297 10.734 0 2.93-.5 5.508-1.5 7.734-1 2.23-2.45 3.961-4.344 5.188-1.887 1.226-4.125 1.844-6.719 1.844-3.96 0-7.047-1.317-9.265-3.954-2.211-2.644-3.313-6.226-3.313-10.75 0-2.925.5-5.503 1.5-7.734 1-2.227 2.441-3.957 4.328-5.187 1.895-1.227 4.16-1.844 6.797-1.844Zm0 3.953c-4.887 0-7.328 3.605-7.328 10.812 0 7.168 2.426 10.75 7.281 10.75 4.844 0 7.266-3.601 7.266-10.812 0-7.164-2.406-10.75-7.219-10.75Zm32.884-3.953c1 0 1.926.11 2.782.328l-.907 4.812a9.966 9.966 0 0 0-2.468-.328c-1.743 0-3.149.649-4.22 1.938-1.073 1.281-1.913 3.277-2.515 5.984v16.094h-4.922v-28.188h4.235l.468 5.72c.75-2.102 1.766-3.688 3.047-4.75 1.29-1.071 2.79-1.61 4.5-1.61Zm13.313.64v28.188h-4.922v-28.188Zm-2.516-13.53c1.031 0 1.863.323 2.5.968.645.637.969 1.437.969 2.406 0 .961-.324 1.75-.969 2.375-.637.625-1.469.938-2.5.938-1 0-1.824-.313-2.469-.938-.636-.625-.953-1.414-.953-2.375 0-.969.317-1.77.953-2.406.645-.645 1.47-.969 2.47-.969Zm17.595 13.53v28.188h-4.922v-28.188Zm-2.516-13.53c1.032 0 1.864.323 2.5.968.645.637.97 1.437.97 2.406 0 .961-.325 1.75-.97 2.375-.636.625-1.468.938-2.5.938-1 0-1.824-.313-2.468-.938-.637-.625-.954-1.414-.954-2.375 0-.969.317-1.77.954-2.406.644-.645 1.468-.969 2.468-.969Zm0 0"/></svg>