<svg xmlns="http://www.w3.org/2000/svg" width="1920" viewBox="0 0 1440 810" height="1080" version="1.0" xmlns:xlink="http://www.w3.org/1999/xlink"><defs><path d="m455.563 374.668 179.574 31.117-31.883 184.008-179.574-31.117Zm0 0" id="a"/><path d="m408.273 111.781 196.754-47.886 56.403 231.734-196.754 47.89Zm0 0" id="b"/></defs><defs><clipPath id="c"><path d="M294.941 7.043h799.02v795.914H294.94Zm0 0"/></clipPath><clipPath id="d"><path d="M333.191 7.043h721.965c21.125 0 38.25 17.129 38.25 38.25v719.414c0 21.125-17.125 38.25-38.25 38.25H333.191c-21.125 0-38.25-17.125-38.25-38.25V45.293c0-21.121 17.125-38.25 38.25-38.25Zm0 0"/></clipPath><clipPath id="e"><path d="M459 393h148v188H459Zm0 0"/></clipPath><clipPath id="f"><use xlink:href="#a"/></clipPath><clipPath id="g"><use xlink:href="#a"/></clipPath><clipPath id="h"><path d="M538 435h6v6h-6Zm0 0"/></clipPath><clipPath id="i"><use xlink:href="#a"/></clipPath><clipPath id="j"><use xlink:href="#a"/></clipPath><clipPath id="k"><path d="M560 439h5v6h-5Zm0 0"/></clipPath><clipPath id="l"><use xlink:href="#a"/></clipPath><clipPath id="m"><use xlink:href="#a"/></clipPath><clipPath id="n"><path d="M429 103h232v206H429Zm0 0"/></clipPath><clipPath id="o"><use xlink:href="#b"/></clipPath><clipPath id="p"><use xlink:href="#b"/></clipPath><clipPath id="q"><path d="M694.172 350h257.25v239h-257.25Zm0 0"/></clipPath><clipPath id="r"><path d="M711.52 97.426h240v162h-240Zm0 0"/></clipPath></defs><g clip-path="url(#c)"><g clip-path="url(#d)"><path fill="#0e332c" d="M294.941 7.043h799.02v795.914H294.94Zm0 0"/></g></g><g clip-path="url(#e)"><g clip-path="url(#f)"><g clip-path="url(#g)"><path fill="#c7dd60" d="M480.371 510.402c-16.664 3.473-25.523 27.32-6.316 46.61 10.898 12.027 32.336 13.613 42.543-1.227 7.718 3.762 17.32 5.84 28.53 3.973 2.458 10.781 11.419 18.527 21.395 19.965 9.325 1.644 18.13-1.192 25.536-7.082 16.726-13.133 14.902-26.653 12.14-34.606 1.336-7.98-2.636-15.902-10.297-20.644a12.338 12.338 0 0 1-2.328-1.844 12.48 12.48 0 0 1-1.832-2.34 12.56 12.56 0 0 1-1.793-5.621c-.863-12.961-6.457-19.5-11.074-22.719 12.836-7.691 19.617-22.012 16.367-36.176 13.73-6.09 18.172-24.867 8.488-36.41-10.703-13.89-33.632-10.984-40.535 5.047a55.64 55.64 0 0 0-15.879-2.351c-.843-17.465-19.82-28.043-34.316-18.133-12.695 7.969-15.254 28.136-4.637 38.59-8.84 15.367-2.347 34.707 11.54 45.175-1.204 3.196-2.278 8.926 1.581 15.352.215.355.457.691.735 1 .273.312.574.598.898.855a6.963 6.963 0 0 0 2.184 1.157c.398.125.8.21 1.215.261a6.838 6.838 0 0 0 2.465-.14 6.83 6.83 0 0 0 1.175-.399 39.8 39.8 0 0 0-5.36 7.98 39.896 39.896 0 0 0-3.304 9.028 2.03 2.03 0 0 0 .332 1.664 2.053 2.053 0 0 0 1.477.836l7.765.692c.903.082 1.797.02 2.68-.184a8.578 8.578 0 0 0 2.496-1.012 8.416 8.416 0 0 0 2.051-1.738 8.488 8.488 0 0 0 1.414-2.29c1.867-4.44 5.137-10.651 10.316-15.859l1.364 1.407c4.777 8.539 5.98 17.449 6.254 22.078l-8.38-4.23a41.4 41.4 0 0 0 .227-7.653 2.027 2.027 0 0 0-.203-.77 2.088 2.088 0 0 0-.484-.636 2.038 2.038 0 0 0-.692-.399 2.065 2.065 0 0 0-1.563.098 2.072 2.072 0 0 0-.632.484 1.98 1.98 0 0 0-.398.692 1.96 1.96 0 0 0-.106.793 38.02 38.02 0 0 1-.39 8.242c-.067.437 0 .855.203 1.25.203.394.5.687.894.89l12.711 6.419a2.086 2.086 0 0 0 1.48.128c.16-.046.317-.113.462-.199a2.063 2.063 0 0 0 .93-1.156c.05-.16.081-.328.09-.496a55.297 55.297 0 0 0-3.134-19.234 6.88 6.88 0 0 0 7.914-3.176 30.021 30.021 0 0 0 3.864-12.793 21.84 21.84 0 0 0 1.793-1.34c.855-.34 1.687-.715 2.503-1.098 4.739 2.489 10.301 8.102 11.145 20.746.094 1.32.34 2.61.742 3.868a16.598 16.598 0 0 0 1.625 3.59 16.8 16.8 0 0 0 2.426 3.101c.93.941 1.96 1.754 3.086 2.45 3.387 2.093 6.726 5.589 8.039 10.058-6.012-6.742-16.164-7.598-23.332-4.547 1.902-8.547 2.434-19.332 1.164-27.555a2.028 2.028 0 0 0-.8-1.344 2.08 2.08 0 0 0-.723-.34 2.027 2.027 0 0 0-1.547.231c-.23.137-.43.317-.59.535a1.905 1.905 0 0 0-.34.719 2.028 2.028 0 0 0-.043.797c1.348 8.695.547 20.555-1.894 29.242a34.581 34.581 0 0 0-5.954 4.29c-1.234 1.085-.558 3.273 1.047 3.5.668.116 1.25-.056 1.746-.52-.054-.434 14.239-11.696 24.598-5.133-11.363 1.73-21.066 15.41-19.23 26.996.875 6.96 5.105 12.465 11.46 14.496-10.714 6.508-32.867 6.797-37.003-17.098-.457-2.61-4.309-2.09-4.043.559-10.414 1.656-18.766-.262-25.59-3.473a38.019 38.019 0 0 0 1.758-3.93c.894-2.538-2.793-3.949-3.82-1.453-8.727 21.614-29.387 16.914-38.204 8.7 20.336-2.805 18.735-33.586 1.152-40.809 11.004-3.926 22.16 9.61 21.922 9.883a2.065 2.065 0 0 0 1.316.844 2.068 2.068 0 0 0 1.527-.332c.224-.157.407-.348.552-.575.148-.226.246-.472.293-.742.05-.265.047-.531-.012-.793a2.068 2.068 0 0 0-.316-.73 34.134 34.134 0 0 0-5.793-6.168c.261-3.559.91-7.047 1.941-10.461 2.84-9.488 8.922-18.328 8.985-18.414 1.476-2.246-1.766-4.504-3.36-2.328-.098.148-1.101 1.601-2.465 3.91-21.496-5.426-35.074-23.54-40.215-37.625a14.733 14.733 0 0 1-.664-7.398 14.776 14.776 0 0 1 1.633-4.708c.403-.73.863-1.425 1.387-2.078a14.599 14.599 0 0 1 3.715-3.316c6.797-4.457 16.703-1.98 20.59 5.16a88.36 88.36 0 0 0 4.199 6.625 2.028 2.028 0 0 0 1.316.84 2.028 2.028 0 0 0 1.528-.336 1.93 1.93 0 0 0 .55-.574 2.038 2.038 0 0 0 .278-1.54 2.076 2.076 0 0 0-.32-.73 84.819 84.819 0 0 1-4.008-6.32c-4.965-9.113-17.614-12.281-26.297-6.594-24.79 16.344 8.996 56.512 34.254 62.277-3.149 5.778-6.16 13.875-6.887 20.856-4.008-2.414-9.082-4.102-14.883-3.02Zm104.863-102.89c19.434 2.281 24.254 28.203 6.856 37.195a37.16 37.16 0 0 0-2.758-5.996c11.277-6 7.914-23.262-4.836-24.656a13.567 13.567 0 0 0-2.031-.07 13.514 13.514 0 0 0-3.977.792 13.247 13.247 0 0 0-5.063 3.316 12.765 12.765 0 0 0-1.284 1.575c-.391.555-.735 1.14-1.032 1.75a52.754 52.754 0 0 0-6.027-2.762 19.796 19.796 0 0 1 5.734-7.105 19.825 19.825 0 0 1 2.559-1.688 19.755 19.755 0 0 1 2.793-1.27c.965-.355 1.95-.628 2.953-.827a20.02 20.02 0 0 1 3.047-.364 20.11 20.11 0 0 1 3.066.11Zm1.88 27.742a45.627 45.627 0 0 0-12.47-11.75 9.063 9.063 0 0 1 1.57-2.418 9.142 9.142 0 0 1 4.942-2.836 9.044 9.044 0 0 1 2.883-.137c8.95.996 11.149 13.184 3.074 17.14Zm-82.712-22.207c5.524-21.66 34.575-21.184 36.828 2.082-9.527.723-18.246 3.973-25.003 9.098-5.707-6.403.082-17.883 8.558-15.887a8.04 8.04 0 0 1 4.774 3.445 2.054 2.054 0 0 0 2.082.86 1.99 1.99 0 0 0 .73-.297c.227-.149.414-.332.567-.555a2.023 2.023 0 0 0 .324-1.512 2.005 2.005 0 0 0-.285-.738 12.042 12.042 0 0 0-3.114-3.27 12.04 12.04 0 0 0-4.097-1.898c-12.301-2.953-20.93 13.129-12.664 22.484a35.778 35.778 0 0 0-4.457 5.02c-4.305-4.926-5.93-11.992-4.243-18.832Zm21.516 82.101a2.73 2.73 0 0 1-1.672-.175 2.69 2.69 0 0 1-1.258-1.118c-2.586-4.3-2.39-8.109-1.625-10.753a41.834 41.834 0 0 0 4.301 2.507 33.825 33.825 0 0 0 10.145 6.082Zm8.02 16.942a4.446 4.446 0 0 1-1.809 2.105 4.453 4.453 0 0 1-2.703.63l-5.344-.477c2.79-9.164 8.719-15.293 13.406-18.914l5.055-1.766c.59.121 1.187.234 1.785.32.012.008.016.02.024.028l.832.859c-5.676 5.684-9.227 12.41-11.246 17.21Zm10.105-36.695c-6.93-5.868-3.934-11.415 5.031-9.922 3.281.605 7.645 2.382 7.535 5.757-.164 2.997-3.14 4.239-5.777 5.305a6.904 6.904 0 0 1-1.75.402 6.925 6.925 0 0 1-5.039-1.542Zm16.98 24.921a2.766 2.766 0 0 1-1.851 1.336 2.739 2.739 0 0 1-2.227-.5l-6.449-6.66a33.937 33.937 0 0 0 13.54-2.578 25.451 25.451 0 0 1-3.013 8.402Zm-13.988-10.093 1.59-9.188c3.457-.062 7.203-1.976 9.57-4.12 3.04-2.65 3.375-8.095.54-10.985-4.743-5.422-19.044-7.606-22.098.703a8.004 8.004 0 0 0-.489 3.25 7.958 7.958 0 0 0 .852 3.172c1.652 3.129 4.234 6.035 7.598 7.3l-1.602 9.235c-32.02-7.574-24.988-38.684 7.285-33.746 31.168 5.93 28.836 36.875-3.246 34.379Zm28.613-9.414c5.239-14.582-10.57-26.938-24.668-28.993-16.023-3.347-37.964 6.063-31.964 24.442-29.637-25.977-2.864-63.399 34.98-56.438 33.117 5.102 49.711 42.375 21.649 60.989Zm8.176 86.304c-13.945-9.89-1.57-33.75 13.781-32.496 6.52 9.113 7.141 22.66-7.507 34.371a11.955 11.955 0 0 1-6.274-1.875Zm-95.855-37.449c4.238 11.262-2.172 23.66-13.446 21.727-11.343-13.871-8.144-26.52-.117-33.844 5.77.797 11.156 5.57 13.563 12.117Zm0 0"/></g></g></g><g clip-path="url(#h)"><g clip-path="url(#i)"><g clip-path="url(#j)"><path fill="#c7dd60" d="M541.375 435.406a1.954 1.954 0 0 0-.797.02 2.008 2.008 0 0 0-1.277.898c-.149.23-.242.477-.29.746l-.238 1.375a2.028 2.028 0 0 0 .344 1.524c.156.222.348.406.578.55.227.145.477.243.742.286.266.047.532.043.797-.02a2.008 2.008 0 0 0 1.278-.898 2.06 2.06 0 0 0 .289-.746l.238-1.375a2.028 2.028 0 0 0-.344-1.524 1.992 1.992 0 0 0-.578-.55 1.957 1.957 0 0 0-.742-.286Zm0 0"/></g></g></g><g clip-path="url(#k)"><g clip-path="url(#l)"><g clip-path="url(#m)"><path fill="#c7dd60" d="M562.984 439.148a2.025 2.025 0 0 0-.797.02 2.015 2.015 0 0 0-1.277.902 1.964 1.964 0 0 0-.289.743l-.238 1.375c-.047.269-.04.535.02.796a2.015 2.015 0 0 0 .902 1.278 2.029 2.029 0 0 0 2.27-.055c.218-.156.402-.348.546-.578a2.03 2.03 0 0 0 .29-.742l.237-1.375c.047-.27.04-.535-.02-.797a2.045 2.045 0 0 0-1.645-1.566Zm0 0"/></g></g></g><g clip-path="url(#n)"><g clip-path="url(#o)"><g clip-path="url(#p)"><path fill="#c7dd60" d="M658.367 292.426c-.55.062-13.55 1.39-20.047-10.7-1.925-3.581-2.379-10.187-2.86-17.183-.44-6.43-.925-13.305-2.554-19.395 2.645.79 6.18 1.493 9.055.793 1.367-.332 2.582-.984 3.48-2.093 2.645-3.282 1.618-8.645-.695-12.024-2.183-3.187-5.308-4.504-8.383-3.539-3.804 1.207-5.898 4.988-7.035 8.262-1.191-1.902-2.629-3.602-4.398-5.012-4.77-3.805-11.422-5.074-19.778-3.762-5.453.852-9.683 2.567-12.98 4.915-.027-5.391-.774-12.954-4.613-14.473-3.18-1.254-7.04.281-9.594 2.133-3.317 2.41-5.18 5.699-4.988 8.8.32 5.125 8.73 7.891 13.714 9.086-5.918 8.536-6.129 20.743-6.312 32.012-.059 3.574-.121 7.078-.36 10.34-1.75-3.95-4.312-8.027-7.597-8.625-2.785-.504-5.621.523-7.785 2.82-2.574 2.727-3.63 6.645-2.758 10.219 1.371 5.645 11.101 5.89 16.328 5.605-.64 1.77-1.473 3.32-2.57 4.59-5.606 6.489-10.832 7.508-14.235 7.227-3.836-.324-6.722-2.395-7.847-4.25l-4.77-8.54-27.433-138.07 5.535-3.09a1.889 1.889 0 1 0-1.84-3.297l-4.469 2.493-1.246-6.285a1.894 1.894 0 0 0-1.129-1.38l-68.89-28.542-3.77-6.754a1.894 1.894 0 0 0-2.57-.73 1.895 1.895 0 0 0-.73 2.57l3.773 6.754-11.852 73.62a1.896 1.896 0 0 0 .578 1.684l4.7 4.364-8.622 4.812a1.885 1.885 0 0 0-.726 2.567 1.886 1.886 0 0 0 2.57.73l9.688-5.406L545.5 291.48l4.797 8.594c1.535 2.528 5.285 5.649 10.797 6.11 4.273.359 10.758-.829 17.402-8.52.215-.246.406-.512.602-.77.504 5.145 1.922 10.63 5.613 11.75 1.254.383 2.59.391 3.922.067 1.992-.484 3.972-1.719 5.629-3.594 2.8-3.16 3.707-7.008 2.37-10.031-2.038-4.61-9.886-7.078-13.609-8.016.934-5.02 1.036-10.793 1.133-16.757.157-9.344.313-18.852 3.64-26.18.052 3.387.575 7.031 2.329 9.02 1.484 1.683 3.844 2.269 6.375 1.652a9.504 9.504 0 0 0 1.438-.473c3.12-1.297 6.359-4.555 6.09-8.637-.31-4.664-6.34-7.754-10.34-9.297 2.968-2.37 6.878-4.082 12.05-4.894 7.371-1.152 12.875-.176 16.84 2.984 1.762 1.407 3.145 3.215 4.258 5.293-4.316-.383-10.598-.308-12.524 2.992-1.265 2.168-.859 5.176 1.086 8.047 1.739 2.57 5.082 5.38 8.778 4.832.148-.023.297-.05.441-.086 2.602-.632 4.309-3.296 5.41-6.093.95 4.918 1.32 10.273 1.668 15.336.535 7.73.992 14.41 3.301 18.707 7.727 14.394 23.652 12.683 23.809 12.664a1.89 1.89 0 0 0 1.652-2.09 1.888 1.888 0 0 0-2.09-1.664Zm-20.855-60.54c1.937-.616 3.41 1.036 4.117 2.071 1.7 2.48 2.105 5.996.875 7.52-1.461 1.824-6.66.82-10.453-.59.582-3 2.199-7.965 5.46-9Zm-60.762-2.968c-.113-1.781 1.203-3.895 3.438-5.512 1.144-.832 2.39-1.418 3.515-1.691.953-.235 1.82-.242 2.465.012 1.418.562 2.371 6.496 2.203 13.027-5.844-1.309-11.492-3.75-11.621-5.836Zm-11.2 55.191c-.573-2.347.13-4.93 1.833-6.734.8-.848 1.726-1.406 2.676-1.637a4.054 4.054 0 0 1 1.691-.058c2.285.414 5.012 6.27 6.582 11.136-5.594.317-12.21-.359-12.781-2.707Zm-22.737-5.183L483.5 172.696l34.387-19.2Zm-26.989-135.82 1.293 6.5-35.457 19.792-29.379-52.62Zm-77.77 43.421 10.93-67.91 29.38 52.621-35.458 19.797Zm7.762 7.207 34.387-19.199 59.317 106.242Zm147.364 102.88c.715 1.605.011 4.019-1.742 6-1.75 1.976-3.961 2.925-5.63 2.413-2.027-.613-3.203-7.535-3.183-14.168 4.164 1.106 9.441 3.227 10.555 5.754Zm7.082-50.673c.14 2.133-1.793 4.082-3.774 4.903-1.195.5-2.742.707-3.531-.192-1.422-1.609-1.562-6.738-1.203-10.937 3.918 1.469 8.36 3.972 8.508 6.226Zm23.355 5.973c-1.535.23-3.68-1.121-5.094-3.21-1.058-1.567-1.441-3.184-.949-4.028.219-.367.797-.653 1.63-.852 1.972-.48 5.347-.504 8.566-.144-.762 3.738-2.352 7.965-4.153 8.234Zm0 0"/></g></g></g><path fill="#c7dd60" d="M742.09 534.453c-.668 0-1.332.035-1.996.102-.664.062-1.324.164-1.977.293a20.4 20.4 0 0 0-7.344 3.047 19.84 19.84 0 0 0-1.605 1.19c-.516.423-1.012.872-1.48 1.345-.473.468-.922.965-1.344 1.48a20.85 20.85 0 0 0-1.192 1.606 19.506 19.506 0 0 0-1.027 1.714 20.4 20.4 0 0 0-2.02 5.625 20.5 20.5 0 0 0-.293 1.98 19.97 19.97 0 0 0-.101 1.997c.957 26.969 39.8 26.961 40.754 0 0-.668-.035-1.332-.098-1.996a21.242 21.242 0 0 0-.297-1.98 20.668 20.668 0 0 0-1.164-3.82 19.511 19.511 0 0 0-.855-1.806c-.313-.59-.656-1.16-1.028-1.714a19.84 19.84 0 0 0-1.191-1.606 20.112 20.112 0 0 0-2.824-2.824 20.81 20.81 0 0 0-1.606-1.191 19.442 19.442 0 0 0-1.71-1.028 19.58 19.58 0 0 0-1.81-.855 20.367 20.367 0 0 0-3.82-1.164 20.957 20.957 0 0 0-3.972-.395Zm0 34.54c-.93 0-1.852-.095-2.762-.274a14.283 14.283 0 0 1-2.656-.809 14.284 14.284 0 0 1-4.594-3.07 14.036 14.036 0 0 1-1.758-2.145 14.13 14.13 0 0 1-1.312-2.449 14.273 14.273 0 0 1-1.082-5.414c.668-18.742 27.66-18.738 28.324 0a14.273 14.273 0 0 1-1.082 5.414c-.356.86-.793 1.676-1.309 2.45a14.545 14.545 0 0 1-1.761 2.144 14.176 14.176 0 0 1-4.594 3.07c-.856.356-1.742.625-2.652.809-.914.18-1.832.273-2.762.273Zm0 0"/><g clip-path="url(#q)"><path fill="#c7dd60" d="M729.55 412.23a11.239 11.239 0 0 0 4 2.606 11.31 11.31 0 0 0 4.72.734l9.949 9.946h-14.473c-.797 0-1.582.074-2.363.222-.778.149-1.535.371-2.274.668-.738.293-1.437.656-2.105 1.086a12.281 12.281 0 0 0-3.41 3.266 12.607 12.607 0 0 0-1.18 2.055 12.584 12.584 0 0 0-.766 2.246c-.183.77-.289 1.554-.324 2.347l-.511 11.735a18.918 18.918 0 0 0 1.917 9.191 18.968 18.968 0 0 0 2.606 3.953 18.545 18.545 0 0 0 3.504 3.176l18.695 13.16a30.218 30.218 0 0 0 8.387 4.164 30.232 30.232 0 0 0 9.254 1.422h16.922a3.07 3.07 0 0 0 2.2-.91 3.095 3.095 0 0 0 .91-2.195 3.162 3.162 0 0 0-.235-1.192 3.133 3.133 0 0 0-.676-1.008 3.06 3.06 0 0 0-1.008-.672 3.046 3.046 0 0 0-1.191-.238h-16.922a24.25 24.25 0 0 1-14.063-4.453l-18.695-13.164a12.616 12.616 0 0 1-2.356-2.137 12.633 12.633 0 0 1-2.785-5.66 12.526 12.526 0 0 1-.254-3.172l.512-11.722c.016-.399.07-.79.16-1.176.094-.387.22-.758.383-1.121a6.296 6.296 0 0 1 1.363-1.926c.29-.273.598-.52.93-.734a6.336 6.336 0 0 1 2.191-.879 6.26 6.26 0 0 1 1.18-.11h20.692l46.992 46.989-28.125 28.128h-30.133c-9.371-.046-16.535 8.165-15.785 17.403-32.02 15.61-21.418 64.144 14.707 64.504 24.879.457 41.918-27.54 30.207-49.352l26.344-26.34h37.129l23.039 23.04c-5.575 10.511-16.567 17.484-28.536 17.425H789.18a3.095 3.095 0 0 0-2.196.91 3.07 3.07 0 0 0-.91 2.2 3.095 3.095 0 0 0 .91 2.195 3.095 3.095 0 0 0 2.195.91h41.09a38.024 38.024 0 0 0 9.88-1.328 38.012 38.012 0 0 0 4.722-1.613 38.404 38.404 0 0 0 4.477-2.211 38.431 38.431 0 0 0 13.984-13.961l8.719 8.715c-8.223 17.949 6.031 39.855 25.898 39.41a29.976 29.976 0 0 0 2.762-.14 26.91 26.91 0 0 0 2.738-.411 27.853 27.853 0 0 0 7.793-2.793 27.751 27.751 0 0 0 4.598-3.074 27.98 27.98 0 0 0 5.558-6.133c.516-.766.989-1.559 1.426-2.371.434-.817.828-1.649 1.184-2.504a27.94 27.94 0 0 0 .933-2.606c.27-.882.496-1.777.676-2.683.18-.906.317-1.82.41-2.738.09-.918.137-1.84.137-2.766.375-19.207-20.043-33.383-37.879-26.512l-49.824-49.824h76.172c.937.004 1.87-.059 2.8-.187.93-.125 1.844-.317 2.747-.575.902-.254 1.785-.57 2.64-.949a19.988 19.988 0 0 0 4.758-2.95 20.27 20.27 0 0 0 2.027-1.94 20.144 20.144 0 0 0 3.145-4.633l16.281-32.805a21.725 21.725 0 0 0 2.184-7.598c.097-.37.125-.75.086-1.132a21.592 21.592 0 0 0-1.992-10.208c-1.438-2.609-16.899-37.976-18.563-38.937-1.379-3.188-34.16-25.383-37.383-28.07a21.762 21.762 0 0 0-9.96-3.942c-1.18-.62-42.934.5-45.051.313-1.047.02-2.082.136-3.106.351-1.02.22-2.012.532-2.976.946a16.087 16.087 0 0 0-5.137 3.496 16.069 16.069 0 0 0-3.434 5.18c-.398.964-.699 1.96-.906 2.988a15.92 15.92 0 0 0-.313 3.105c.313 5.88-.98 54.352 1.079 58.863h-43.786l-25.726-25.73a11.366 11.366 0 0 0-.742-4.715 11.41 11.41 0 0 0-2.598-4.004l-30.746-30.742a14.702 14.702 0 0 0-4.848-3.25 14.768 14.768 0 0 0-5.726-1.133c-8.04-.164-15.125 6.922-14.961 14.961a14.73 14.73 0 0 0 1.133 5.73 14.758 14.758 0 0 0 3.25 4.852Zm13.618 100.84h23.914l-10.906 10.91a33.91 33.91 0 0 0-11.098-2.933 33.798 33.798 0 0 0-11.441.922 9.036 9.036 0 0 1 .293-1.77 9.612 9.612 0 0 1 .613-1.68 9.87 9.87 0 0 1 .922-1.535 9.437 9.437 0 0 1 2.605-2.433 9.51 9.51 0 0 1 1.598-.809 9.321 9.321 0 0 1 1.719-.5 9.426 9.426 0 0 1 1.781-.172Zm-1.078 69.473a28.472 28.472 0 0 1-5.406-.535 28.294 28.294 0 0 1-2.637-.664 27.645 27.645 0 0 1-7.348-3.48 27.777 27.777 0 0 1-9.043-9.977 27.67 27.67 0 0 1-1.16-2.457 25.912 25.912 0 0 1-.918-2.559 26.56 26.56 0 0 1-.664-2.637 27.19 27.19 0 0 1-.402-2.687 28.647 28.647 0 0 1-.137-2.715c1.3-36.68 54.133-36.672 55.426 0 0 .906-.047 1.813-.137 2.715-.09.902-.223 1.797-.398 2.687a27.688 27.688 0 0 1-1.582 5.196c-.348.84-.735 1.66-1.164 2.457a27.24 27.24 0 0 1-1.399 2.332 27.654 27.654 0 0 1-3.445 4.199 27.03 27.03 0 0 1-2.016 1.824 26.1 26.1 0 0 1-2.183 1.621 27.611 27.611 0 0 1-7.348 3.48c-.867.266-1.746.485-2.637.665a28.2 28.2 0 0 1-5.402.535Zm26.789-48.5a34.057 34.057 0 0 0-7.133-6.844l44.078-44.074 6.985 6.984Zm35.98-27.188 12.348-12.351 12.348 12.351Zm93.09 31.688c.723 0 1.438.039 2.156.11a21.757 21.757 0 0 1 6.258 1.574 21.2 21.2 0 0 1 1.953.921c.633.34 1.25.711 1.852 1.11.598.402 1.176.832 1.73 1.289.559.457 1.09.937 1.602 1.45a21.635 21.635 0 0 1 2.734 3.331c.399.598.77 1.215 1.11 1.848a21.906 21.906 0 0 1 1.652 3.984 21.933 21.933 0 0 1 .844 4.227c.074.718.11 1.437.11 2.156-1.032 29.117-42.973 29.11-44 0 0-.719.034-1.438.109-2.156a21.933 21.933 0 0 1 .843-4.227c.211-.687.453-1.367.727-2.031a22.23 22.23 0 0 1 3.32-5.535c.457-.555.942-1.09 1.45-1.598a21.611 21.611 0 0 1 1.601-1.45 22.337 22.337 0 0 1 1.73-1.288c.602-.399 1.22-.77 1.852-1.11a22.491 22.491 0 0 1 3.98-1.652 24.38 24.38 0 0 1 2.094-.527 22.234 22.234 0 0 1 4.293-.426Zm45.516-101.14-16.281 32.804a13.779 13.779 0 0 1-2.18 3.211 13.85 13.85 0 0 1-2.977 2.48 13.907 13.907 0 0 1-3.547 1.567 13.917 13.917 0 0 1-3.843.523h-20.93c-2.629 0-5.207-.355-7.738-1.066a28.4 28.4 0 0 1-7.157-3.125l-11.93-7.29c.505 1.704 74.49-29.093 76.806-29.585-.075.16-.145.324-.223.48Zm-15.793-48.274 15.992 34.707a15.525 15.525 0 0 1 1.43 5.84l-74.883 29.707c-1.27.504-2.586.816-3.95.937a13.983 13.983 0 0 1-4.054-.226 14.025 14.025 0 0 1-7.09-3.777c-.844-.837-3.773-3.669-4.48-4.56a18.062 18.062 0 0 0 6.39-1.218 18.074 18.074 0 0 0 5.551-3.394Zm-98.973-22.469c0-.64.067-1.277.192-1.906a9.877 9.877 0 0 1 5.809-7.148 9.655 9.655 0 0 1 1.827-.579 9.683 9.683 0 0 1 1.899-.214l39.734-.481-34.11 69.637a3.07 3.07 0 0 0-.308 1.172c-.027.41.028.812.16 1.203a3.132 3.132 0 0 0 1.574 1.785c.372.18.762.285 1.172.308.41.028.813-.027 1.204-.16a3.132 3.132 0 0 0 1.785-1.574l35.16-71.793a15.543 15.543 0 0 1 4.933 2.36l32.825 23.632c.5.364.98.758 1.437 1.176l-65.547 58.426c-.593.523-1.226.988-1.906 1.387a12.078 12.078 0 0 1-6.781 1.645 12.008 12.008 0 0 1-4.543-1.16 12.045 12.045 0 0 1-3.762-2.798c-6.965-7.457-12.793-13.45-12.754-24.398Zm-2.828 65.078c2.242 5.88 22.313 26.055 26.465 31.192 4.66 5.707 15.254 11.117 21.41 15.058h-41.504l-46.25-46.25Zm-74.18-25.511 130.754 130.757a28.196 28.196 0 0 0-7.175 6.793L744.703 413.215a87.93 87.93 0 0 0 6.988-6.988Zm-48.488-41.5c.41-.403.852-.762 1.328-1.079.48-.316.985-.586 1.512-.804a8.911 8.911 0 0 1 3.344-.66 8.896 8.896 0 0 1 3.343.66 8.774 8.774 0 0 1 2.836 1.883l30.747 30.746a5.294 5.294 0 0 1 1.45 2.715c.065.343.1.687.1 1.035 0 .347-.035.691-.101 1.035a5.19 5.19 0 0 1-.301.992 5.44 5.44 0 0 1-.488.918 5.491 5.491 0 0 1-.66.805l-4.864 4.863c-.25.246-.515.465-.804.66a5.44 5.44 0 0 1-.918.488 5.19 5.19 0 0 1-.993.301c-.343.07-.687.102-1.035.102a5.313 5.313 0 0 1-2.945-.89 5.442 5.442 0 0 1-.805-.661l-30.746-30.742a9.004 9.004 0 0 1-1.078-1.328 9.053 9.053 0 0 1-.805-1.512 8.911 8.911 0 0 1-.66-3.344 8.911 8.911 0 0 1 .66-3.344 9.053 9.053 0 0 1 .805-1.511 9.004 9.004 0 0 1 1.078-1.328Zm0 0"/></g><path fill="#c7dd60" d="M897.95 575.082c.952 0 1.898-.094 2.831-.281a14.648 14.648 0 0 0 2.727-.828 14.514 14.514 0 0 0 2.512-1.348 14.565 14.565 0 0 0 2.203-1.805 14.59 14.59 0 0 0 3.152-4.715 14.533 14.533 0 0 0 1.11-5.562c-.68-19.242-28.395-19.238-29.075 0a14.533 14.533 0 0 0 6.465 12.082c.793.531 1.629.98 2.512 1.348.883.363 1.789.64 2.726.828.934.187 1.88.281 2.836.281Zm0-22.86a8.386 8.386 0 0 1 3.179.633c.508.211.984.47 1.441.77a8.401 8.401 0 0 1 2.293 2.297 8.39 8.39 0 0 1 1.246 3c.106.535.16 1.074.16 1.621-.39 11.016-16.253 11.012-16.644 0 0-.547.055-1.086.16-1.621a8.39 8.39 0 0 1 1.246-3 8.432 8.432 0 0 1 1.035-1.262 8.218 8.218 0 0 1 2.7-1.801 8.07 8.07 0 0 1 1.558-.476 8.396 8.396 0 0 1 1.625-.16ZM770.379 104.719c-.977-.883-1.766-.957-2.883-.29-1.133.68-1.508 1.887-.86 3.321-.042-.105.02.02.063.152.215.715.61 1.278 1.38 1.41.757.13 1.573.356 2.05-.609.082-.168.418-.195.594-.34.882-.715 1.16-1.843.433-2.84-.218-.3-.5-.554-.777-.8Zm-21.25 77.515c-1.07-.765-1.863-.75-2.899.04-1.046.8-1.285 2.042-.476 3.394-.055-.102.023.02.078.144.293.684.75 1.204 1.531 1.247.766.043 1.606.175 1.965-.836.063-.18.395-.243.555-.407.793-.812.941-1.96.11-2.87-.25-.274-.563-.493-.864-.712Zm171.516 38.414c.601-1.168.261-2.414.277-3.628 0-.047-.07-.118-.125-.141-.856-.344-.77-1.242-1.11-1.883-.253-.488-.34-1.113-.699-1.48-.789-.801-1.293-1.793-2.004-2.641-.265-.316-.476-.664-.843-.89-2.227-1.36-4.57-2.2-7.102-2.07a9.964 9.964 0 0 0-2.71.245c-2.798.633-5.118 1.98-6.337 4.758-.082.187-.222.348-.328.527-1.57 2.575-2.238 5.27-1.344 8.278.754 2.52 1.95 4.652 4.239 6.09 1.851 1.164 3.722 2.203 5.601 1.996.41.043.82.035 1.235-.04.128 0 .261 0 .386-.003 1.895.023 3.387-.024 4.64-1.07.056-.044.126-.06.188-.087 1.36-.632 3.215-2.164 3.786-3.382.605-1.297 1.703-2.372 1.796-3.915.016-.23.332-.425.454-.664Zm-16.106 2.676c-1.293-1.281-1.531-2.851-1.527-4.605-.239-3.45 3.11-6.54 5.98-6.614H909c1.098.036 2.125.223 3.094.903 1.527 1.066 2.52 2.406 3.023 4.242.383 1.406.274 2.77-.054 4.055-.422 1.652-1.696 2.808-3.157 3.675-.89.528-1.75.79-2.574.864-1.941-.168-3.605-1.344-4.793-2.52Zm-16.066-60.687c1.757-.578 3.554-1.043 5.261-1.774 1.832-.781 3.68-1.52 5.192-2.91.558-.512.793-1.07.937-1.766.2-.921-.199-1.78-.195-2.671.016-3.082-.715-6.032-1.762-8.887-.898-2.45-1.996-4.836-4.324-6.348-.168-.11-.266-.32-.422-.453a11.263 11.263 0 0 0-4.355-2.234c-1.582-.422-3.235-.594-4.856-.848-1.23-.191-2.457-.434-3.695-.496-3.168-.168-6.34-.258-9.516-.36a103.821 103.821 0 0 0-3.785-.054c-2.094-.012-4.183.055-6.27.293-1.64.187-3.265.559-4.898.86a1.63 1.63 0 0 0-.566.234c-2.04 1.308-3.844 2.836-5.09 4.984-1.527 2.625-2.777 5.387-3.91 8.184-.801 1.976-1.387 4.043-2.297 5.988-.434.93-.754 1.922-1.043 2.91a8.569 8.569 0 0 0-.344 2.035c-.027.633.184 1.254.813 1.574 1.289.653 2.543 1.434 3.906 1.875 2.144.696 4.41 1.008 6.492 1.946.242.11.535.12.805.176 1.078.21 2.164.378 3.23.644 2.465.613 4.953 1.082 7.504 1.152.313.008.633.004 1.078.004h.153c.336.149.789.11 1.27.082.39.059.866-.007 1.343-.011 3.266-.043 6.433-.813 9.57-1.536 3.278-.753 6.563-1.535 9.774-2.593Zm-23.297-.192c-3.649-.117-7.059-1.07-10.489-2.097a499.304 499.304 0 0 1-5.734-1.77c-.383-.121-.746-.305-1.187-.484.996-2.496 1.937-4.914 2.933-7.313.211-.515.371-1.031.528-1.562a11.28 11.28 0 0 1 1.148-2.649c.707-1.18 1.266-2.441 1.887-3.668.031-.062.07-.12.105-.18 1.801-3.269 3.164-4.179 6.848-4.46 1.488-.11 2.969-.219 4.433-.512 1.829.14 3.66.207 5.497.2.382.003.77.003 1.156 0 .773.007 1.55.081 2.336.238 1.14.226 2.332.18 3.504.257 1.859.13 3.73.157 5.566.422 1.766.254 3.504.723 5.145 1.473.187.086.421.14.539.289 1.09 1.32 2.586 2.344 3.21 3.996.797 2.105 1.801 4.156 1.813 6.508.008 1.09.34 2.176.45 3.273.097.95-.09 1.133-.977 1.559-2.852 1.367-5.828 2.375-8.887 3.164-.066.016-.14.016-.2.047-1.53.863-3.257 1.078-4.925 1.476-1.605.383-3.215.73-4.828 1.063-2.621.535-5.25.742-7.902.77a66.19 66.19 0 0 1-1.97-.04Zm-43.586 67.563c-.305-1.512-1.778-2.035-2.559-3.13a12.312 12.312 0 0 0-1.148-.546c-1.809-.738-3.738-.957-5.61-.484-.43.109-.843.234-1.234.386-2.297.86-4.016 2.477-4.734 5.246-.727 2.81.058 5.028 1.894 6.965 1.52 1.61 3.531 2.313 5.723 2.47 3.707.187 6.324-1.56 8.258-4.556.11-.172.242-.367.258-.558.156-1.574.394-3.16-.32-4.676-.177-.375-.45-.727-.528-1.117Zm-4.059 5.863c-2.355 1.754-5.71 1.106-7.172-1.398-.543-.926-.129-2.782.868-3.559.933-.726 1.945-1.328 3.086-1.164 1.98-.012 4.28 1.836 4.34 3.582.034.922-.258 1.898-1.122 2.54Zm0 0"/><g clip-path="url(#r)"><path fill="#c7dd60" d="M951.176 218.516c-.305-3.848-.578-7.676-2.203-11.262-.2-.434-.29-.922-.461-1.371-.434-1.164-.758-2.395-1.489-3.406-.613-.848-1.086-1.754-1.546-2.684-.774-1.55-1.696-3.027-2.907-4.254-.488-.488-.992-.957-1.343-1.535a8.198 8.198 0 0 0-2.047-2.297c-.867-.668-1.559-1.559-2.325-2.352-.3-.304-.48-.66-.515-1.097-.106-1.301-.29-2.594-.317-3.895-.05-2.761-.171-5.52-.574-8.242-.215-1.434-.449-2.871-.59-4.309-.144-1.449-.718-2.78-1.004-4.19a9.79 9.79 0 0 0-2.18-4.403c-.609-.711-1.195-1.547-2.132-1.922-2.242-.895-4.484-1.766-6.965-1.754-1.758.008-3.492-.48-5.262-.383a9.225 9.225 0 0 0-1.09.016l-.035-.012c-.703-.18-1.406-.285-2.125-.21a4.916 4.916 0 0 0-.988.003.637.637 0 0 1-.3-.66c.34-1.73-.083-3.434-.266-5.11a61.412 61.412 0 0 0-.782-5.101c-.34-1.754-.855-3.469-1.25-5.211-.675-3-1.785-5.895-3.05-8.719-1.067-2.383-2.383-4.633-3.735-6.863.14-.234.297-.453.586-.543 2.032-.664 2.809-2.293 3.227-4.2.12-.534.125-1.105.308-1.62.278-.801.094-1.586-.308-2.18-.676-1.004-1.297-2.078-2.672-2.445-.64-.168-1.305-.426-1.953-.621-2.434-.723-4.875-1.48-7.399-1.77-2.87-.332-5.742-.73-8.644-.8-2.41-.06-4.809-.407-7.215-.438-1.832-.024-3.664-.055-5.492-.051-2.07-.004-4.137.023-6.215.164-2.961.2-5.895.512-8.816.957-2.575.399-5.141.957-7.711 1.336-2.735.402-5.418.945-8.055 1.73-1.797.536-3.422 1.465-5.008 2.438-.848.52-1.437 1.332-1.406 2.39.055 2.036.445 3.962 1.996 5.477.539.528.96 1.168 1.766 1.367.433.11.457.453.289.817-.121.25-.235.504-.38.738-2.097 3.332-3.57 6.977-5.292 10.492-.66 1.36-1.25 2.758-1.836 4.153-.559 1.332-1.207 2.648-1.55 4.039-.317 1.28-.755 2.492-1.208 3.718-.453 1.223-1.137 2.387-1.031 3.766a.883.883 0 0 1-.196.574c-.527.61-.585 1.352-.77 2.094a41.923 41.923 0 0 1-.827 2.855c-.207.657-.418 1.313-.617 1.958-.926.113-1.75.261-2.524.253h-.105c-.114-.004-.227-.004-.336-.004h-.164c-.024-.12-.043-.246-.07-.367-.149-.722-.29-1.445-.438-2.172-.242-1.57-.45-3.144-.719-4.722a51.394 51.394 0 0 0-.37-1.977 31.179 31.179 0 0 0-.786-3.031c-.11-.313-.223-.55-.32-.863-.204-.614-.45-1.57-.633-2.278-.172-.64-.653-2.488-.774-3.074a95.55 95.55 0 0 0-.316-1.484 318.285 318.285 0 0 0-.746-3.266c-.278-1.086-.594-2.172-.899-3.266a62.57 62.57 0 0 0-.382-1.878 52.124 52.124 0 0 0-.528-2.063 44.976 44.976 0 0 0-.758-2.512c-.824-2.52-1.78-4.629-2.753-6.347-.485-.86-1-1.66-1.465-2.34-.125-.2-.278-.406-.434-.633a15.99 15.99 0 0 0-.508-.719c-.375-.523-.816-1.004-1.277-1.55a29.453 29.453 0 0 0-6.399-5.52 66.46 66.46 0 0 1-.617-.379c-.367-.266-.726-.52-1.093-.781a18.678 18.678 0 0 0-1.184-.742l-.332-.239c-.82-.601-1.73-1.171-2.7-1.804a41.373 41.373 0 0 0-1.542-.918 30.31 30.31 0 0 0-1.68-.934c-.46-.242-.934-.484-1.41-.723-.477-.238-.957-.457-1.434-.68a56.35 56.35 0 0 0-2.879-1.23 77.19 77.19 0 0 0-3.066-1.144c-.82-.29-1.723-.574-2.617-.946-.715-.3-1.465-.664-2.18-.98-.055-.02-.11-.047-.16-.066a82.967 82.967 0 0 0-2.23-.914c-.368-.145-.723-.286-1.083-.426l-.043-.016a64.285 64.285 0 0 1-1.074-.445 143.058 143.058 0 0 1-4.168-1.895 11.676 11.676 0 0 0-3.117-.96 9.716 9.716 0 0 0-2.598-.071c-.125.02-.257.031-.386.055-.258.039-.516.082-.774.16s-.535.14-.758.234a9.42 9.42 0 0 0-1.37.637 7.757 7.757 0 0 0-2.38 2.059 7.643 7.643 0 0 0-1.332 2.832 9.585 9.585 0 0 0-.242 2.59c-.082.199-.164.394-.238.581-.922 2.422-1.664 5.172-2.652 7.114-.313.605-.633 1.36-.926 2.164a240.278 240.278 0 0 0-2.371 7.101c-.844 2.625-2.07 6.602-2.606 9.973-.535 1.711-.953 3.543-1.578 5.063-.918 2.257-1.781 5.777-2.344 8.304-.285 1.274-.507 2.246-.886 3.567-.352 1.199-.707 2.457-.977 3.683-.05.262-.105.52-.16.77a57.314 57.314 0 0 0-1.512 5.238c-.058.254-.113.512-.176.766a53.554 53.554 0 0 0-.59 3.175 67.41 67.41 0 0 0-1.093 4.25c-.45 2.051-.809 4.102-.988 6.032-.098.406-.203.816-.301 1.226-.102.399-.207.805-.297 1.215-.18.824-.324 1.668-.348 2.516-.011.582.012 1.12-.09 1.836-.105.785-.257 1.593-.312 2.445-.04.574-.055 1.156-.04 1.75l-.187.012a10.54 10.54 0 0 0-3.859 1.105l-.39.207c-.587.332-1.07.68-1.481 1.012-.703.332-1.41.738-2.07 1.207a13.625 13.625 0 0 0-2.43 2.184c-.762.476-1.59.945-2.098 1.703-.168.261-.3.523-.582.77-.3.273-.656.507-.965.8-.316.289-.617.59-.914.902-.222.23-.433.473-.648.711-.516.461-1.031.93-1.535 1.406-.23.223-.43.434-.598.633a5.79 5.79 0 0 0-.758 1.133c-.062.133-.09.254-.152.383-.129.25-.375.598-.55.855-.165.23-.614.922-.794 1.102-.187.187-.344.363-.445.477a24.299 24.299 0 0 0-1.817 2.285 8.311 8.311 0 0 0-1.203 1.375 10.1 10.1 0 0 0-.629 1.007 11.972 11.972 0 0 0-1.074 2.88l-.277 1.144c-.11.383-.281.879-.485 1.457-.304.957-.648 2.18-.683 3.613v.324a6.548 6.548 0 0 0-.137 1.204 2.835 2.835 0 0 1-.039.175c-.098.446-.16.922-.23 1.442-.047.515-.098 1.074-.07 1.676.011.957.183 1.925.417 2.828.149.496.293.968.485 1.414.148.367.332.75.453 1.172.097.359.152.765.262 1.129.378 1.394 1.207 2.761 1.496 3.972.09.383.254.824.5 1.246.71 1.27 1.566 2.414 2.453 3.442 1 1.18 2.668 2.82 4.375 3.597.738.606 1.582 1.145 2.156 1.825.434.496 1.082.976 1.754 1.437.672.461 1.375.895 2 1.2.617.316 1.082.57 1.687.976.547.387 1.114.742 1.707 1.043.13.066.25.125.375.187.707.578 1.48 1.157 2.399 1.614l.371.191a15.35 15.35 0 0 0 1.582.656c.621.422 1.32.781 2.027 1.121.504.235 1.008.453 1.516.637a16.23 16.23 0 0 0 1.504.43c.758.441 1.512.992 2.402 1.094.301.035.594.042.93.187.363.16.719.379 1.105.543.383.172.774.324 1.172.46.297.106.598.208.895.306l1.86.882c.284.13.554.23.8.313.445.144.91.25 1.316.281.141.016.266-.008.407.008.277.027.683.144.984.21.277.067 1.074.235 1.305.34.242.114.457.196.601.255.875.351 1.778.656 2.696.93.44.253.976.503 1.582.73.363.137.718.238 1.054.332 1.074.281 2.012.402 2.805.496.394.043.77.086 1.09.14.363.067.836.215 1.383.387.894.29 2.015.621 3.34.805 1.68.23 3.976.148 4.476-.438.512-.32.922-1.02 1.219-1.68a6.04 6.04 0 0 0 .586-2.593l-.016-.297a5.177 5.177 0 0 0-.219-1.195c.035-.54.004-1.11-.12-1.676-.067-.398-.227-.8-.372-1.176-.191-.379-.36-.73-.625-1.047-.098-.336-.183-.691-.371-1.023a2.464 2.464 0 0 0-.305-.477l-.101-.105-.13-.121a4.762 4.762 0 0 0-.308-.262l-.207-.148-.097-.07c-.036-.02-.086-.028-.125-.04a2.73 2.73 0 0 1-.512-.203 2.158 2.158 0 0 1-.211-.133l-.168-.117a2.86 2.86 0 0 0-.352-.23 11.225 11.225 0 0 0-1.336-.61l-1.14-.699a3.519 3.519 0 0 0-.48-.246c-.274-.11-.54-.18-.798-.184-.09-.003-.171.024-.253.016a2.227 2.227 0 0 1-.563-.152 29.29 29.29 0 0 0-.36-.133 1.416 1.416 0 0 1-.312-.172l-.254-.238c-.379-.324-.703-.672-1.05-1.024a4.88 4.88 0 0 0-.391-.847c-.11-.168-.211-.34-.324-.493-.09-.128-.172-.218-.278-.351-.101-.125-.207-.242-.308-.356a11.962 11.962 0 0 0-.594-.59c-.184-.18-.363-.347-.496-.503-.152-.18-.3-.457-.473-.774-.285-.527-.625-1.18-1.191-1.812-.043-.043-.086-.09-.133-.14-.105-.212-.2-.415-.348-.622l-.03-.102a12.93 12.93 0 0 0-.65-1.71c-.234-.497-.554-.958-.866-1.387a10.29 10.29 0 0 0-.563-.664c-.152-.176-.36-.348-.457-.582-.09-.196-.14-.434-.219-.637-.312-.766-.847-1.523-.832-2.273a2.31 2.31 0 0 0-.105-.758 29.597 29.597 0 0 0-.387-1.133c-.125-.371-.246-.738-.367-1.102-.149-.406-.305-.925-.516-1.46a6.592 6.592 0 0 0-.375-.79 5.454 5.454 0 0 0-.457-.754c-.12-.558-.387-1.113-.312-1.664.047-.406-.016-.882-.133-1.359-.11-.477-.238-.957-.375-1.36-.125-.402-.227-.71-.262-1.156-.031-.402-.047-.812-.125-1.21l-.058-.25c.078-.563.132-1.149.082-1.774l-.024-.254a5.735 5.735 0 0 0-.226-1.027c.058-.461.082-.934.066-1.41a8.125 8.125 0 0 0-.281-1.926c.117-.531.328-1.063.136-1.594-.066-.18-.156-.351-.125-.57.028-.242.125-.48.16-.73.036-.25.075-.5.102-.755l.055-.566c.12-.398.25-.79.387-1.176a3.31 3.31 0 0 0 .136-.496c.055-.27.059-.555.02-.805-.012-.085-.055-.164-.067-.25-.023-.175.012-.425.04-.609.019-.168.078-.66.156-.797.074-.14.133-.27.172-.351.23-.512.453-1.032.668-1.555.222-.227.437-.504.632-.824.118-.196.215-.38.301-.563.14-.289.242-.562.328-.824l.121-.379c.02-.066.024-.094.032-.14.015-.047.027-.094.039-.141.062-.2.152-.414.246-.59.11-.203.316-.441.566-.746.395-.504.953-1.137 1.27-2.305.093-.39.156-.879.078-1.426-.063-.543-.344-1.148-.723-1.496a1.913 1.913 0 0 0-.558-.363c.117-.285.218-.562.316-.828a22.15 22.15 0 0 0 1.316-3.137c.25-.73.45-1.43.625-2.097.543-2.118.786-3.926.996-5.438.102-.758.192-1.473.297-2.082.114-.7.332-1.617.594-2.672.43-1.746.973-3.906 1.422-6.418.027-.183.059-.375.094-.566.187-.688.37-1.336.531-2.098.035-.105.07-.207.102-.308.5-1.528 1.078-3.258 1.644-5.29a82.266 82.266 0 0 0 1.195-4.91c.192-.886.348-1.738.512-2.59.125-.69.238-1.449.45-2.21.187-.645.437-1.333.636-1.977.754-2.457 1.336-5.23 2.242-7.191.29-.622.582-1.38.836-2.188.77-2.43 1.485-4.812 2.188-7.113.797-2.625 2.02-6.57 2.597-9.922l.024-.09c2.285 1.043 4.875 2.078 6.824 2.965.707.308 1.305.621 1.922.926.61.328 1.207.672 1.89 1.097a45.19 45.19 0 0 1 3.528 2.567c.238.191.472.379.703.562.363.336.664.735 1.008 1.098.168.184.347.371.515.559.168.187.325.398.489.597.16.195.324.399.492.602.16.199.36.41.469.59.125.187.265.347.386.566.125.21.25.418.375.637.13.246.258.496.387.746.57 1.18 1.027 2.34 1.43 3.37.406 1.602.797 3.325 1.199 5.067.559 2.45 1.156 4.93 1.883 7.164.347 1.989.656 4.04 1.297 5.942.218.652.453 1.246.62 2.07.177.906.313 1.852.497 2.8.18.954.37 1.911.562 2.86.153.715.309 1.434.457 2.153l.711 4.687c.102.723.22 1.371.336 1.965.153.805.328 1.605.52 2.336-1.332 1.754-2.723 3.472-3.781 5.41-1.07 1.957-1.957 4.023-3.223 5.871-.336.496-.703.973-1.008 1.488-.496.84-.82 1.77-1.117 2.696a20.13 20.13 0 0 0-.367 1.257c-.098.399-.075 1.051-.266 1.403-.105.191-.398.414-.539.62-.535.794-.691 1.786-1.066 2.673-.395.933-.829 1.851-1.121 2.824l-.125.43c-.165.664-.25 1.27-.325 1.8-.285.75-.48 1.57-.664 2.391a16.72 16.72 0 0 0-.234 1.746c-.028.29-.043.57-.059.852-.004.281.004.554.02.824-.215.91-.535 1.863-.348 2.813.055.324.145.625.106 1.011-.02.215-.055.43-.09.653a7.481 7.481 0 0 0-.051.664c-.016.453-.02.906-.02 1.359.008.344 0 .688.032 1.027l-.051 2.227c-.012.34 0 .652.047.934.07.507.191 1.015.344 1.425.054.149.128.254.18.399.109.285.175.738.277 1.058.043.149.128.434.21.72.04.14.07.28.102.405.024.094.043.176.059.25.015.086.027.16.043.215.066.469.14.895.195 1.176-1.117 2.45-1.945 4.996-2.156 7.687-.14 1.774-.04 3.563-.035 5.344l.796 4.602c.141.418.243.672.325.933a25.755 25.755 0 0 0 3.453 6.97c2.117 3.038 4.672 5.546 7.93 7.358 1.253.704 2.597 1.22 3.84 1.891 1.34.719 2.687.984 4.124 1.172.41.05.844.094 1.203.273.844.426 1.73.364 2.625.442 1.47.125 2.883-.238 4.32-.309 2.743-.129 5.227-.965 7.688-2.097 3.114-1.438 5.848-3.301 8.117-5.907.778-.894 1.344-1.918 2.114-2.785 1.648-1.851 2.539-4.078 3.312-6.363.133-.395.27-.766.461-1.14l.094-.653c3.512.133 16.734.23 22.875.215.105 0 .207-.004.308-.004a83.34 83.34 0 0 0 2.633-.031c2.125-.082 4.262.046 6.371-.403l.223-.035c.09.02.176.035.254.07.812.364 1.629.418 2.453.364.64.047 1.285-.016 1.934-.102 1.16.184 1.867 1.067 2.457 2.133.168.3.23.656.37.973.114.242.227.566.434.68 1.32.702 2.036 2.019 3.059 3.015 3.273 3.2 6.723 6.105 11.055 7.793.187.074.402.14.558.266 1.485 1.23 3.328 1.601 5.094 2.16 2.7.847 5.477 1.449 8.285 1.648 1.23.086 2.465.133 3.703.117 1.84.028 3.684-.07 5.528-.398 1.55-.274 3.101-.606 4.664-.781 1.601-.188 3.066-.786 4.547-1.282 1.808-.617 3.59-1.37 5.253-2.375 1.575-.953 3.282-1.757 4.633-2.992 1.719-1.574 3.578-2.972 5.2-4.703 2.136-2.285 3.562-5.043 5.558-7.398a.465.465 0 0 0 .09-.188c.27-1.168 1.094-2.062 1.55-3.144.22-.512.524-.993.54-1.551.02-1.004.418-1.875.84-2.754.207-.434.46-.871.539-1.336.644-3.785 1.554-7.531 1.246-11.441Zm-38.54 35.226a91.55 91.55 0 0 1 0-3.734c.032-.996-.28-1.914-.609-2.809-.351-.96-1.18-1.21-1.914-.992-.465-.148-.996-.059-1.433.215-.922.574-1.41 1.312-1.246 2.586.21 1.629.05 3.304.027 4.957-.004.305-.195.523-.512.543-.21.012-.426.039-.636.058a2.047 2.047 0 0 1-.625-.203c-.583-.308-1.329-.297-1.993-.48-1.52-.43-3.02-.867-4.511-1.434-1.664-.637-3.29-1.312-4.88-2.129-.925-.476-1.765-1.039-2.59-1.668-1.921-1.46-3.89-2.859-5.694-4.472-.524-.473-.993-.95-1.247-1.672 1.707-1.414 3.438-2.84 5.16-4.274.536-.445.981-.96 1.169-1.672.378-1.421-.555-2.515-2.012-2.292l-.137.023a2.216 2.216 0 0 0-.824-.023c-.758.117-1.488.39-1.992 1-.93 1.117-2.29 1.75-3.188 2.921-.21.278-.554.461-.926.645-1.14-1.617-2.214-3.16-2.793-5.027-.425-1.371-1.09-2.672-1.605-4.016-1.066-2.809-1.5-5.766-1.547-8.711-.035-2.125-.195-4.289.227-6.41.8-4.043 1.683-8.063 3.87-11.649.321-.527.563-1.105.868-1.644.031-.05.062-.094.094-.133 1.742 1.777 3.847 3.102 5.765 4.645.22.175.438.351.676.48.445.242.934.285 1.39.164a1.917 1.917 0 0 0 1.856-.52c.578-.566.684-1.285.344-2.093-.277-.66-.711-1.211-1.293-1.586-.945-.61-1.68-1.438-2.465-2.207-.594-.582-1.18-1.156-1.875-1.625-.508-.336-.918-.824-1.476-1.352.964-.898 1.668-1.945 2.675-2.757a250.88 250.88 0 0 0 3.68-3c2.543-2.118 5.543-3.352 8.512-4.563 2.406-.988 5.008-1.48 7.594-1.914.226.059.328.242.32.52-.074 2.625-.176 5.25-.203 7.87-.02 1.415.933 2.5 2.289 2.782.347.074.664.066.953-.004 0 0 .004.004.008.004 1.168.246 2.07-.34 2.222-1.547.121-.957.149-1.93.133-2.895-.02-1.246-.156-2.484.211-3.71.133-.454.078-.961.098-1.442.054-1.328-.078-1.621.625-1.672.043.004.078.004.12.004 1.235.016 2.477.07 3.688.484 1.164.403 2.41.508 3.61.844 1.531.438 3.066.95 4.43 1.664 1.562.817 3.402 1.153 4.695 2.528.492.535 1.207.933 1.894 1.199 1.223.473 2.082 1.36 2.93 2.266 1.414 1.503 2.777 3.046 4.152 4.585.227.254.387.57.582.856.243.355.168.762-.156.894-1.355.547-2.262 1.762-3.633 2.301-.883.352-1.644 1.004-2.472 1.508-.762.465-1.559.871-2.313 1.356-1.055.68-1.082 2.23-.082 3.011.645.504 1.309.68 2.024.528.683.152 1.402-.024 2.195-.551.976-.649 1.898-1.38 2.89-2.008 1.41-.89 2.844-1.742 4.297-2.613.196.257.364.484.47.734.827 2.047 1.757 4.055 2.394 6.176.21.719.59 1.418.683 2.148.258 2.114.5 4.235.582 6.356.176 4.394-.566 8.668-2.078 12.789a34.214 34.214 0 0 1-4.55 8.531c-.333.457-.61.961-.923 1.438-.656-.688-1.335-1.344-1.886-2.137-1.067-1.524-2.219-2.98-3.34-4.469-.465-.617-1.094-.637-1.754-.531-.34-.082-.71-.047-1.09.023-.758.137-1.21.625-1.394 1.36-.153.62-.09 1.257.218 1.816.36.66.754 1.32 1.235 1.899 1.27 1.519 2.664 2.933 3.734 4.617.18.277.485.472.824.793-.511.507-.984.964-1.445 1.437-.492.496-1.129.8-1.637 1.223-1.66 1.367-3.574 2.265-5.43 3.277-2.07 1.13-4.25 2.008-6.519 2.543-2.273.531-4.598.91-6.957.957-.492-.027-.516-.152-.523-.922Zm-43.308-136.965c.762.078 1.617-.062 2.442-.246.402-.09.816-.136 1.234-.152.367.012.734.031 1.098.055 2.183.148 4.363.398 6.55.582.754.066 1.512.097 2.262.086 2.633-.032 5.238.308 7.844.57 3.117.312 6.258.531 9.285 1.453.672.203 1.293.45 1.887.813 1.062.652 1.105.785.644 1.96-.297.75-.797 1.352-1.531 1.559-1.121.316-2.238.684-3.434.711-1.37.035-2.757-.027-4.117.289-.004 0-.008 0-.012.004-.015-.004-.03-.004-.05-.008a14.841 14.841 0 0 0-2.934-.195 16.584 16.584 0 0 0-3.367.238l-.281.047c-.575-.145-1.145-.148-1.711-.117-.844-.059-1.68.086-2.52.097-1.61.028-3.222.07-4.832.082a57.57 57.57 0 0 1-3.074-.09 16.235 16.235 0 0 0-1.57-.015c-1.153-.023-2.282.063-3.422.098-.907-.035-1.813-.153-2.719-.106a8.462 8.462 0 0 0-1.406.04c-.668-.188-1.336-.212-2-.177-1.192-.078-2.38.192-3.57.227-1.649.055-3.294.098-4.946.23-2.105.176-4.226.215-6.344.29-.882-.07-1.765-.141-2.648-.11a12.547 12.547 0 0 0-1.625.047c-.805-.121-1.484-.574-2.027-1.3-.215-.29-.34-.587-.352-.95-.012-.45.094-.773.566-.973 3.622-1.527 7.414-2.441 11.254-3.195 2.657.117 5.157-.762 7.72-1.2.413.067.823.169 1.218.044.469.082.926.137 1.36-.211 1.37.058 2.687-.387 4.05-.484.04.003.078.003.117.007.29.028.59.02.899-.004.02 0 .039 0 .062.004Zm-6.086 54.243c-2.945-.286-5.836-.922-8.691-1.68-2.996-.797-5.985-1.633-8.989-2.38a344.07 344.07 0 0 0-9.246-2.136c-1.191-.262-2.449-.168-3.609-.539-.117-2.98 1.324-5.515 1.996-8.234.793-3.2 2.192-6.2 3.227-9.324.129-.387.383-.723.57-1.094.215-.426.453-.848.633-1.293.695-1.781 1.367-3.567 2.351-5.223.348-.59.63-1.23.848-1.883.543-1.648 1.484-3.097 2.332-4.593.305-.532.555-1.106.805-1.668.277-.625.535-1.262.781-1.848a45.42 45.42 0 0 1 2.367-.14c.555.015 1.106.054 1.653.136.367.055.726.047 1.085.012.997.117 1.954-.203 2.938-.25 1.937-.086 3.867-.04 5.793-.106 1.781-.058 3.57.09 5.336-.328.121-.027.242-.047.363-.062.512.039 1.028.12 1.54.125.425.004.85.004 1.277 0 1.87.011 3.738-.07 5.609-.086.383 0 .762.008 1.144.02.743.023 1.48.027 2.223.019 1.469.008 2.938-.031 4.402-.043.543.004 1.082.012 1.625.031.704.027 1.403.031 2.106.027 2.023.02 4.047-.09 6.07-.109.578.008 1.153.02 1.73.047.169.012.34.004.509-.012.152.008.3.008.449.016.64.035 1.273-.137 1.91-.211.129.02.258.047.387.094.09-.055.175-.09.257-.121.23.011.465.039.704.117.058-.031.113-.051.168-.078.253.14.492.375.753.664 1.141 1.234 1.997 2.605 2.715 4.105a70.099 70.099 0 0 0 1.598 3.098c1.012 1.855 1.465 3.855 2.035 5.84.52 1.777 1.035 3.562 1.535 5.351.114.395.172.805.235 1.211.277 1.977.484 3.961.843 5.922.25 1.371.16 2.754.36 4.121.07.48-.196.766-.586.985-.84.472-1.649.996-2.5 1.433-1.653.856-3.258 1.79-5.008 2.445-2.242.852-4.445 1.805-6.676 2.688-1.726.684-3.539 1.144-5.281 1.758-3.41 1.183-7.027 1.285-10.45 2.32-.652.195-1.366.203-2.054.246-1.445.09-2.855.281-4.281.59-1.098.238-2.246.29-3.39.297-1.5-.008-3.005-.125-4.5-.277Zm-110.808 22.785c-.125.136-.25.273-.391.472-.133.18-.223.309-.332.485a6.747 6.747 0 0 0-.742 1.699c-.094.32-.153.637-.203.953-.043.258-.051.543-.153.809-.09.222-.226.449-.32.675-.363.856-.418 1.875-.902 2.547-.153.211-.282.48-.356.778a18.828 18.828 0 0 0-.476 2.613c-.125.969-.243 2.441.187 3.629-.031.625.074 1.27-.086 1.836-.242.844-.062 2.101.145 2.969.101.437.168.773.187 1.242.016.43.016.863.106 1.285l.058.266a6.872 6.872 0 0 0-.023 1.882l.047.266c.078.406.199.762.316 1.074a6.05 6.05 0 0 0 .133 1.512c.144.707.351 1.402.687 1.988.036.578-.02 1.207.344 1.7.125.167.274.312.328.546.059.254.063.535.125.805.059.27.137.535.23.797.067.199.141.394.216.59.086.445.152.898.261 1.34.043.207.102.386.164.546.114.293.274.567.457.774.063.074.149.117.211.191.125.145.262.387.364.567.09.164.37.625.41.789.035.175.09.32.12.414.208.586.434 1.18.716 1.742.043.348.14.73.297 1.129.093.238.199.46.316.66.367.633.781 1.11 1.145 1.492.18.196.351.375.484.543.148.192.293.48.46.817.286.539.634 1.226 1.227 1.87.043.048.09.094.137.141.11.219.211.426.367.637l.008-.004.04.106c.187.527.41 1.113.769 1.73a6.66 6.66 0 0 0 1.972 2.137c.23.168.512.308.743.523.191.188.386.41.59.594.796.703 1.878 1.031 2.445 1.637.187.203.422.367.695.507.8.395 1.547.692 2.242 1 .395.172.88.395 1.403.59l.097.04c.04.015.016 0 .028 0l.027-.024c.02-.016.043-.024.05-.059-.019-.058.118.008.192.063.086.055.18.11.281.156.11.168.211.387.32.57.079.223.157.434.133.668-.035.668.254 1.625.426 2.383.082.375.145.672.114 1.078-.016.371-.075.743-.07 1.11 0 .16.007.316.015.465-.094-.04-.192-.079-.29-.118-.847-.332-1.777-.687-2.737-.879-.438-.09-.75-.109-1.16-.23-.489-.152-.9-.313-1.419-.43v.008a30.071 30.071 0 0 0-2.84-1.098 20.24 20.24 0 0 0-2.535-.605c-.464-.082-.91-.14-1.355-.2-.363-.042-.766-.062-1.156-.179-.332-.101-.676-.258-1.004-.379-1.239-.465-2.703-.672-3.64-1.332a5.345 5.345 0 0 0-1.079-.55l-3.574-1.301c-.328-.118-.703-.247-1.098-.387a27.294 27.294 0 0 0-1.254-.438 17.617 17.617 0 0 0-2.683-.644c-.832-.371-1.754-.645-2.446-1.13-.5-.374-1.18-.73-1.886-1.042-.356-.156-.715-.3-1.067-.438-.344-.148-.68-.285-.984-.406a13.872 13.872 0 0 1-1.688-.781c-.562-.297-1.082-.668-1.656-.95a19.59 19.59 0 0 1-.355-.175c-.336-.277-.688-.55-1.059-.816-.371-.274-.746-.555-1.156-.813l-.336-.21a13.37 13.37 0 0 0-1.446-.755 18.287 18.287 0 0 0-1.71-1.39c-.868-.594-1.723-1.192-2.57-1.645-.29-.3-.571-.625-.88-.914-.304-.293-.609-.563-.988-.746-.254-.129-.508-.23-.75-.473-.262-.27-.476-.594-.742-.875l-.774-.867-.582-.652a21.653 21.653 0 0 1-.957-1.602 7.471 7.471 0 0 0-.394-.664 5.985 5.985 0 0 0-.738-.96c-.09-.099-.188-.157-.274-.25-.18-.188-.363-.528-.508-.774-.14-.215-.492-.883-.554-1.106-.055-.242-.114-.445-.153-.582a55.113 55.113 0 0 1-.656-2.547c0-.476-.016-1.015-.078-1.59a11.99 11.99 0 0 0-.113-.992c-.121-.992-.309-1.828-.422-2.55a8.071 8.071 0 0 1-.125-1.004c-.028-.344.043-.797.113-1.317.133-.86.348-1.902.496-3.125.012-.09.02-.183.031-.277.102-.332.227-.633.32-.996h-.007l.07-.145c.36-.68.77-1.449 1.242-2.336.368-.707.711-1.43 1.051-2.152.188-.406.363-.793.54-1.184.14-.316.28-.68.515-1 .2-.27.46-.53.68-.797.828-.996 1.566-2.273 2.5-2.91.293-.199.601-.476.894-.797.863-.949 1.691-1.886 2.516-2.761.933-1.008 2.386-2.43 3.36-3.86.679-.566 1.35-1.238 2.097-1.593 1.105-.532 2.472-1.633 3.492-2.368.516-.367.922-.629 1.516-.898.55-.238 1.105-.445 1.644-.672.219-.094.422-.184.621-.27.262 1.337.785 2.739 1.742 3.97.246.304.504.597.77.827.129.118.262.23.387.344.136.102.265.196.398.293.953.672 2.07 1.082 3.004 1.215.332.055.598.043.922.063.644.05 1.62.066 2.32-.032.16-.015.395-.043.664-.105a12.9 12.9 0 0 0 .422-.082c.145-.035.297-.078.441-.117.594-.157 1.157-.375 1.426-.473.29-.09.547-.207.778-.309.074-.035.144-.066.214-.105-.03.031-.058.055-.093.09Zm18.254-71.918c-.094.558-.157 1.082-.372 1.742-.242.719-.543 1.45-.793 2.203-.246.75-.488 1.52-.722 2.285-.168.574-.344 1.156-.512 1.73l-1.316 3.669a27.484 27.484 0 0 0-.512 1.558 21.19 21.19 0 0 0-.582 2.488c-.043.27-.05.489-.094.747-.09.523-.289 1.304-.43 1.879-.136.519-.496 2.039-.66 2.496-.168.472-.308.894-.398 1.171a124.778 124.778 0 0 0-1.582 5.23 33.911 33.911 0 0 0-1.11 3.114c-.222.711-.418 1.39-.585 2.043-.536 2.063-.852 3.84-1.114 5.344a93.84 93.84 0 0 1-.37 2.074c-.145.695-.395 1.613-.68 2.68-.47 1.746-1.04 3.926-1.458 6.469-.023.187-.054.375-.086.57-.175.703-.343 1.36-.496 2.137h.008c-.035.101-.062.207-.094.308-.46 1.559-.953 3.313-1.457 5.34-.402 1.621-.77 3.254-1.136 4.8-.203.856-.395 1.669-.61 2.474-.183.683-.336 1.43-.613 2.042a4.474 4.474 0 0 1-1.93 2.105c-.449.25-.918.478-1.414.618-.976.285-2 .3-2.758.008-.48-.176-1.015-.39-1.523-.672a5.875 5.875 0 0 1-1.02-.762 4.097 4.097 0 0 1-.722-.968c-.406-.735-.668-1.66-.785-2.668-.153-1.141-.145-2.692-.024-4.38.117-1.687.324-3.503.403-5.206.082-.442.156-.899.23-1.36.07-.433.133-.851.219-1.289.16-.855.351-1.703.605-2.48.739-2.285 1.403-5.82 1.856-8.36.226-1.277.414-2.254.75-3.582.3-1.21.629-2.425.89-3.648.051-.262.11-.512.16-.762a96.286 96.286 0 0 0 1.602-5.144c.067-.25.137-.508.2-.758.3-1.156.527-2.2.718-3.125a86.75 86.75 0 0 0 1.317-4.16c.566-2.004 1.074-4.012 1.433-5.852.57-1.55 1.258-3.125 1.516-4.754.09-.558.148-1.078.367-1.734.238-.719.539-1.438.789-2.192.246-.753.492-1.511.742-2.27l.528-1.714 1.394-3.621a26.74 26.74 0 0 0 .547-1.531c.273-.848.527-1.711.672-2.457.054-.258.066-.473.12-.735.114-.511.345-1.28.513-1.843.101-.348.332-1.125.53-1.739.798.957 1.598 1.676 2.466 2.387.484.387.957.742 1.543 1.102.129.082.336.195.492.277l.383.168c.25.11.496.21.746.316 1.754.985 3.66 1.817 5.304 2.684-.453 1.148-.882 2.312-1.086 3.508Zm32.859 31.957a49.3 49.3 0 0 0-1-3.11c-.5-2.175-1.121-4.293-1.371-6.285-.387-2.933-1.461-7.308-2.766-10.41a31.28 31.28 0 0 0-.98-2.168c-.36-.703-.735-1.406-1.301-2.223l-.406-.558c-.133-.172-.266-.313-.399-.473l-.8-.922a11.337 11.337 0 0 0-.848-.882l-.883-.844c-.25-.242-.52-.442-.777-.649-1.551-1.578-3.43-2.996-5.559-4.234-.289-.164-.574-.352-.871-.496a40.511 40.511 0 0 0-3.68-1.715c-1.55-.82-3.21-1.61-4.875-2.336a26.852 26.852 0 0 0-.77-.332 201.14 201.14 0 0 0-3.421-1.445c-.875-.352-1.723-.7-2.531-1.035-.426-.25-.856-.5-1.286-.754a52.766 52.766 0 0 0-1.27-.785l-.32-.192-.16-.09c-.058-.039-.062-.047-.097-.066-.117-.074-.293-.207-.469-.332l-1.09-.82c-.512-.372-1.008-.723-1.488-1.297-.258-.305-.496-.657-.59-.88-.043-.1-.012-.05-.078-.316-.04-.203-.094-.414-.133-.62a8.572 8.572 0 0 1-.187-2.079v-.004a.26.26 0 0 0 .007-.101c0-.059.004-.118.012-.176.059-.547.18-1.055.387-1.5.21-.36.469-.668.789-.926.086-.078.184-.148.277-.215.43-.293.985-.543 1.524-.672.445-.125.918-.132 1.36-.14.816.004 1.741.152 2.554.293.289.047.535.066.824.136.574.13 1.457.446 2.113.704.594.222 2.364.925 2.934 1.187.086.043.176.082.262.121.457.211.847.379 1.12.508.782.344 1.575.691 2.368 1.035 1.234.531 2.476 1.059 3.719 1.598a79.327 79.327 0 0 0 3.547 1.824c.792.398 1.57.75 2.3 1.098l5.926 2.718c.828.38 1.582.774 2.242 1.118.383.191.793.46 1.258.757.457.301.98.614 1.504 1 .434.313.894.637 1.379.989.48.347.96.738 1.48 1.125.528.379 1.028.824 1.57 1.261.555.426 1.075.914 1.633 1.395.165.148.34.297.508.441.274.305.524.618.793.922.254.317.563.621.809.957l.004-.008c.066.106.129.2.195.297.938 1.496 1.774 3.38 2.633 5.7.691 1.851 1.344 3.804 2.02 5.695.386 1.043.745 2.039 1.109 3.035.297.797.64 1.652.906 2.574.11.39.215.805.313 1.215.09.418.18.832.265 1.238.348 1.52.809 3.094 1.176 4.63.355 1.534.664 3.019.8 4.32.09.816.223 1.796.419 2.812.304 1.527.597 3.027.894 4.52.285 1.484.563 2.945.844 4.394.062.324.125.672.195 1.031-.613.106-1.222.235-1.828.375a22.9 22.9 0 0 0-2.851.657c-2.262.386-4.25 1.507-6.297 2.46-.418.196-.848.54-1.09.926-.235.38-.488.746-.742 1.114l-.14.117a3.398 3.398 0 0 1-.106.097 282.046 282.046 0 0 0-1.383-7.18c-.34-1.655-.742-3.73-1.285-5.878a120.082 120.082 0 0 0-.844-3.246Zm-5.086 34.875c.125-.219.312-.39.488-.57.735-.758.938-1.79 1.555-2.59.746-.97 1.441-1.864 1.933-3.008.754-1.75 1.86-3.262 2.934-4.836.711-1.035 1.61-1.871 2.36-2.867a.604.604 0 0 1 .085-.098 20.271 20.271 0 0 1 2.512-2.328l.309-.082c.054-.094.11-.18.164-.27.195-.14.386-.289.586-.422.14-.093.281-.183.422-.273a8.636 8.636 0 0 0 .039 1.82l.039.223c.062.344.144.64.242.91-.074.41-.09.832-.11 1.25a9.623 9.623 0 0 0 .122 1.723c-.188.449-.461.867-.38 1.363.028.172.098.344.012.527-.086.2-.226.387-.312.594-.106.2-.2.406-.285.613-.059.16-.145.313-.207.47-.117.148-.223.3-.344.44l-.371.426c-.11.13-.2.25-.281.36a1.788 1.788 0 0 0-.285.664c-.02.078-.012.16-.036.234-.047.153-.172.348-.261.496-.075.137-.344.508-.461.594a4.121 4.121 0 0 0-.29.219c-.437.312-.84.656-1.273.992a5.3 5.3 0 0 0-.926.398c-.195.11-.359.23-.523.344-.516.367-.887.781-1.223 1.117-.168.168-.32.336-.472.453-.176.133-.442.258-.75.399-1.133.555-2.344.906-3.45 1.527-.273.156-1.898.586-1.902.856.008-.598.035-1.133.34-1.668Zm-4.965 16.285c.598-1.473.582-3.191 1-4.727.113-.406.184-.836.27-1.273l.004-.016c.027-.09.058-.18.085-.277.153-.492.344-.969.504-1.457.008-.02.012-.043.02-.063.031-.07.066-.14.09-.214.043-.133.07-.27.093-.41.079-.255.145-.5.204-.739a.889.889 0 0 1 .187-.266c.152-.152.356-.234.535-.351a2.72 2.72 0 0 0 .512-.461c.04-.004.078-.004.117-.008a13.43 13.43 0 0 0 2.078-.406 5.81 5.81 0 0 0 .668-.23c.657-.282 1.157-.645 1.57-.954.208-.156.403-.304.583-.418.203-.129.504-.23.847-.37.285-.11.602-.239.938-.4a6.965 6.965 0 0 0 1.031-.648c.05-.043.102-.082.152-.125.223-.101.438-.195.66-.343l.106-.036a8.633 8.633 0 0 0 1.793-.742c.508-.312.992-.672 1.398-1.101a6.67 6.67 0 0 0 .618-.719c.152-.207.296-.45.511-.625.188-.145.407-.293.598-.441.176-.149.348-.305.512-.477.16-.18.316-.36.472-.531.325-.336.614-.684.993-.89.238-.126.46-.34.66-.595.605-.757 1.035-1.566 1.437-2.379.438-.921.977-2.437.754-3.75.074-.316.11-.652.145-.976.043-.32.097-.633.199-.926.34-.863.18-2.21-.05-3.11-.106-.456-.204-.8-.255-1.28-.058-.442-.113-.887-.246-1.31a4.68 4.68 0 0 0-.508-1.124c1.824-.602 3.653-1.207 5.551-1.461 2.145-.285 4.309-.531 6.48-.57.47.004.934.015 1.403.043.25.011.504.03.754.047 1.058.074 2.125.19 3.133.476 1.52.438 3.113.422 4.613.918 1.437.477 2.933.727 4.383 1.191 2.414.77 4.894 1.352 7.367 1.926 2.875.664 5.762 1.274 8.66 1.828 2.29.438 4.54 1.168 6.906 1.157.258 0 .516-.004.774-.008.062 0 .125.008.183.008 2.555-.008 5.11-.059 7.664-.047.922.004 1.746-.375 2.606-.594 1.336-.344 2.648-.777 4.05-.727.204.004.43.02.614-.046 1.515-.532 3.11-.653 4.66-.985a198.54 198.54 0 0 0 6.242-1.484c.465-.113.899-.352 1.348-.528.578-.222 1.144-.484 1.734-.656 2.973-.883 5.82-2.082 8.649-3.324.683-.305 1.402-.555 2.09-.844 1.398-.594 2.648-1.437 3.94-2.195.86-.508 1.704-.84 2.63-.93.105.012.21.016.316.031 1.176.176 2.38.2 3.574.184.293.004.586.004.88 0 1.046.05 2.058.438 3.124.309.399.043.797.05 1.207-.032.102-.02.204-.03.305-.043.734.07 1.465.258 2.192.329 1.464.144 2.992.425 4.218 1.445.496.41.95.867 1.117 1.46.247.872.739 1.641.985 2.485.379 1.309.629 2.668.824 4.02.383 2.726.703 5.46 1.027 8.199.067.547.036 1.105.032 1.652-.004.348-.043.692-.078 1.032-.063.597.507 1.367.066 1.746-.305-.16-.613-.399-.895-.543-.98-.496-1.988-.922-2.941-1.489-.91-.543-1.938-1.074-3.098-1.023-.14.012-.3.016-.414-.05-1.582-.915-3.418-.958-5.129-1.438-1.375-.383-2.789-.707-4.242-.633a9.039 9.039 0 0 0-.797-.012c-.633-.07-1.258-.265-1.89-.14-.344-.047-.692-.067-1.04.02a5.456 5.456 0 0 0-.945.003c-1.09-.102-2.156.215-3.234.297-1.297.094-2.57.383-3.852.57-2.609.38-5.054 1.281-7.472 2.192-2.688 1.007-5.254 2.375-7.516 4.16-2.086 1.644-4.414 3.047-6.055 5.195-.914 1.191-1.984 2.246-2.797 3.531-.96 1.508-2.14 2.864-2.976 4.473-1.18 2.27-2.39 4.508-2.926 7.043-.129.601-.387 1.176-.574 1.766-.133.39-.375.792-.352 1.18.07 1.136-.297 2.175-.558 3.25-.29 1.175-.27 1.241-1.559 1.296-2.066.094-4.133.098-6.203.125-.27 0-.539.004-.809.008-1.3.004-3.171.004-5.289.008a22.59 22.59 0 0 1-1.148-.055l.023.059c-6.57.007-14.812.011-15.832.007-.757 0-1.523-.007-2.277-.07-1.848-.148-3.68-.066-5.5.184l-.277-.32c-1.457-1.555-3.008-2.989-4.914-4.02-.778-.422-1.48-.988-2.274-1.422-1.77-.969-3.703-1.547-5.601-2.008-2.73-.66-5.575-.945-8.418-.46-.743.124-1.489.23-2.239.343-2.902.426-5.515 1.652-8.023 3.082-1.176.676-2.383 1.367-3.32 2.41-.286.32-.602.578-.946.774l-.011.007-3.114 2.942-.011-.16c-.032-.328-.082-.649-.098-.973-.02-.328-.031-.652-.05-.973-.024-.64-.106-1.27-.102-1.89.007-.715-.024-1.602-.043-2.535a17.351 17.351 0 0 0-.133-2.13c-.02-.234-.043-.464-.07-.687.113-.93.105-1.922.433-2.738Zm41.973 31.203c-.38 2.242-.84 4.461-1.692 6.578-.152.375-.277.77-.742 1.016-.812-.418-1.648-.856-2.387-1.5-.832-.723-1.789-.625-2.617.101-.699.618-.773 1.457-.207 2.446.422.73.969 1.336 1.692 1.78.293.18.578.38.82.614.226.215.226.582.008.742-1.043.786-1.672 2.024-2.914 2.59-.43.196-.828.516-1.157.86-1.18 1.246-2.726 1.757-4.285 2.316-1.43.508-2.894.832-4.343 1.23-.747.208-1.04-.011-.97-.761.134-1.418-.34-2.727-.667-4.059-.14-.582-.574-.937-1.094-1.172-1.059-.468-2.2.067-2.394 1.2-.122.734-.079 1.496-.075 2.246 0 .41.114.82.11 1.23-.008 1.352-.094 1.363-1.387 1.258-3.031-.242-5.7-1.559-8.273-2.957-1.657-.899-3.063-2.3-4.47-3.594-.741-.68-1.124-1.703-1.937-2.379-.25-.21-.234-.64.102-.902.594-.473 1.226-.899 1.77-1.422.835-.8.949-1.703.421-2.625-.582-1.02-1.625-1.316-2.656-.73-.36.199-.68.464-1.023.69-.286.192-.547.435-1.008.36-1.29-2.972-1.887-6.172-1.657-9.406.18-2.633.68-5.258 1.833-7.715.183-.394.382-.785.605-1.172 1.098.598 2.066 1.145 2.945 1.84.047.031.094.07.14.11.903.73 2.095.62 2.84-.102.231-.223.419-.5.544-.828.246-.637.097-1.254-.41-1.703-.637-.555-1.293-1.086-1.946-1.617-.308-.254-.61-.5-.918-.747-.21-.171-.453-.308-.75-.496 1.121-1.91 2.762-3.25 4.555-4.37 1.977-1.239 3.992-2.415 6.305-2.989.53-.129 1.047-.332 1.605-.348.754-.027 1.508-.007 2.238-.289.262-.101.547.074.508.442-.09.898-.183 1.789-.297 2.683-.113.82.223 1.48.72 2.086.51.637 2.25.875 2.995-.035.336-.414.43-.852.41-1.344-.047-1.043.036-2.058.332-3.062.13-.438.391-.54.75-.504.684.066 1.368.113 2.032.371 1.597.625 3.215 1.203 4.812 1.828.309.121.574.363.84.57.273.211.492.508.785.66 2.555 1.301 4.113 3.583 5.89 5.833-1.077.668-1.956 1.203-2.827 1.761-.496.313-.793.77-.88 1.348-.222 1.414.864 2.48 2.27 2.121.926-.238 1.797-.68 2.696-1.023.703-.266 1.027-.133 1.277.57.52 1.426.953 2.855 1.035 4.406.106 1.992.438 3.965.098 5.965Zm.59-16.508v-.004c.218-.007.441-.007.656.012 1.043.098 2.078-.3 3.058-.168.852.113 14.79.246 20.114.211.21.008.422.008.629-.004.75-.008 1.242-.02 1.379-.039a9.733 9.733 0 0 1 1.003-.078c.836.023 1.668.082 2.5.055.48.015.961.015 1.438-.024.23-.02.46-.027.691-.035.598.012 1.196.031 1.79.016a16.75 16.75 0 0 0 1.597-.028c.133.082.211.219.164.395-.351 1.304.367 2.59.027 3.883.461 1.234.454 2.558.739 3.828.59 2.62 1.422 5.156 2.52 7.855-3.434.418-6.712.469-9.981.496a13.143 13.143 0 0 0-.68.004c-.48-.004-.957-.027-1.445.04a9.904 9.904 0 0 1-.82.073l-.958.012c-1.253-.027-2.5-.21-3.75-.308l-.027.312c-6.015-.027-14.351-.172-17.191-.273v-.004l.129-.895c-.02-1.449-.04-2.898-.055-4.344-.004-.34.074-.718-.04-1.027-.855-2.32-1.05-4.844-2.175-7.086-.422-.847-.77-1.746-1.21-2.762Zm0 0"/></g><path d="M437.717 698.842c0 3.649-.796 6.375-2.39 8.188-1.586 1.82-3.996 3.25-7.235 4.281l-1.343-3.687c1.644-.649 2.875-1.344 3.687-2.094a5.992 5.992 0 0 0 1.719-2.719c.32-1.07.484-2.46.484-4.172v-31.5h5.078Zm31.123 5.141h-4.22l-.375-4.39c-1.074 1.75-2.308 3.027-3.703 3.828-1.386.8-3.078 1.203-5.078 1.203-2.46 0-4.387-.743-5.781-2.235-1.387-1.5-2.078-3.625-2.078-6.375v-20.218h4.922v19.687c0 1.93.336 3.293 1.015 4.094.676.804 1.782 1.203 3.313 1.203 2.75 0 5.101-1.625 7.062-4.875v-20.11h4.922Zm20.417-28.828c1.676 0 3.207.242 4.594.719 1.394.48 2.738 1.257 4.031 2.328l-2.36 3.11c-1-.72-1.976-1.243-2.921-1.579-.938-.344-1.98-.516-3.125-.516-2.281 0-4.059.914-5.328 2.735-1.262 1.812-1.89 4.508-1.89 8.078 0 3.562.624 6.195 1.874 7.89 1.25 1.688 3.031 2.532 5.344 2.532 1.101 0 2.117-.164 3.047-.5.926-.344 1.96-.89 3.11-1.64l2.25 3.218c-2.575 2.062-5.45 3.094-8.626 3.094-3.812 0-6.82-1.282-9.015-3.844-2.188-2.57-3.282-6.125-3.282-10.656 0-2.989.5-5.602 1.5-7.844 1-2.25 2.414-4 4.25-5.25 1.832-1.25 4.016-1.875 6.547-1.875Zm34.279 22.25c0 1.148.195 1.996.594 2.547.394.554.984.969 1.765 1.25l-1.125 3.422c-1.46-.18-2.637-.586-3.531-1.22-.887-.644-1.543-1.644-1.969-3-1.898 2.813-4.699 4.22-8.406 4.22-2.781 0-4.977-.782-6.578-2.344-1.606-1.57-2.406-3.625-2.406-6.156 0-3 1.078-5.301 3.234-6.907 2.156-1.601 5.21-2.406 9.172-2.406h4.328v-2.078c0-2-.48-3.426-1.438-4.281-.96-.852-2.437-1.281-4.437-1.281-2.074 0-4.606.5-7.594 1.5l-1.234-3.594c3.5-1.281 6.742-1.922 9.734-1.922 3.313 0 5.785.812 7.422 2.437 1.645 1.618 2.469 3.922 2.469 6.922Zm-11.547 3.531c2.812 0 5.02-1.46 6.625-4.39v-6.47h-3.688c-5.21 0-7.812 1.93-7.812 5.782 0 1.68.41 2.945 1.234 3.797.82.855 2.035 1.281 3.641 1.281Zm1.344-31.344c-2.18 0-4.008-.628-5.485-1.89-1.48-1.27-2.328-3.008-2.547-5.219l3.266-.703c.75 2.71 2.336 4.062 4.766 4.062 2.531 0 4.172-1.351 4.922-4.062l3.25.703c-.211 2.211-1.075 3.95-2.594 5.219-1.512 1.262-3.371 1.89-5.578 1.89Zm32.557 5.563c1 0 1.926.11 2.782.328l-.906 4.813a9.966 9.966 0 0 0-2.47-.329c-1.741 0-3.148.649-4.218 1.938-1.074 1.281-1.914 3.277-2.516 5.984v16.094h-4.921v-28.187h4.234l.469 5.718c.75-2.101 1.765-3.687 3.047-4.75 1.289-1.07 2.789-1.61 4.5-1.61Zm13.313.641v28.187h-4.922v-28.187Zm-2.516-13.532c1.032 0 1.864.325 2.5.969.645.637.97 1.438.97 2.406 0 .961-.325 1.75-.97 2.375-.636.625-1.468.938-2.5.938-1 0-1.824-.313-2.468-.938-.637-.625-.954-1.414-.954-2.375 0-.968.317-1.77.954-2.406.644-.644 1.468-.969 2.468-.969Zm17.595 13.532v28.187h-4.922v-28.187Zm-2.515-13.532c1.03 0 1.863.325 2.5.969.644.637.968 1.438.968 2.406 0 .961-.324 1.75-.968 2.375-.637.625-1.47.938-2.5.938-1 0-1.825-.313-2.47-.938-.636-.625-.952-1.414-.952-2.375 0-.968.316-1.77.953-2.406.644-.644 1.469-.969 2.469-.969Zm34.499 12.891c1.926 0 3.656.273 5.188.812 1.53.532 2.988 1.329 4.375 2.391l-2.078 3.11c-1.282-.82-2.508-1.426-3.672-1.813a11.245 11.245 0 0 0-3.657-.594c-1.605 0-2.87.336-3.796 1-.93.656-1.391 1.555-1.391 2.688 0 1.148.437 2.043 1.312 2.687.875.637 2.454 1.258 4.735 1.86 3.133.78 5.476 1.851 7.031 3.203 1.55 1.355 2.328 3.21 2.328 5.562 0 2.781-1.078 4.906-3.234 6.375-2.156 1.461-4.79 2.188-7.89 2.188-4.282 0-7.829-1.227-10.641-3.688l2.609-3c2.394 1.824 5.035 2.735 7.922 2.735 1.851 0 3.32-.38 4.406-1.141 1.094-.77 1.64-1.816 1.64-3.14 0-.958-.199-1.727-.593-2.313-.398-.594-1.074-1.113-2.031-1.563-.961-.445-2.367-.922-4.22-1.422-3-.78-5.17-1.832-6.515-3.156-1.336-1.32-2-3-2-5.031 0-1.457.438-2.781 1.313-3.969.875-1.195 2.086-2.125 3.64-2.781 1.551-.664 3.29-1 5.22-1Zm-.015 32.953c.851 0 1.57.281 2.156.844.594.57.89 1.285.89 2.14 0 .47-.101.985-.296 1.547-.188.57-.555 1.43-1.094 2.578l-2.188 4.594h-2.828l1.547-6.203c-.855-.75-1.281-1.59-1.281-2.516 0-.855.3-1.57.906-2.14.602-.563 1.332-.844 2.188-.844Zm22.253-32.312v28.187h-4.922v-28.187Zm-2.516-13.532c1.031 0 1.863.325 2.5.969.644.637.969 1.438.969 2.406 0 .961-.325 1.75-.969 2.375-.637.625-1.469.938-2.5.938-1 0-1.824-.313-2.469-.938-.637-.625-.953-1.414-.953-2.375 0-.968.316-1.77.953-2.406.645-.644 1.469-.969 2.469-.969Zm37.437 12.891c3.957 0 7.031 1.324 9.219 3.969 2.195 2.636 3.297 6.215 3.297 10.734 0 2.93-.5 5.508-1.5 7.734-1 2.23-2.45 3.961-4.344 5.188-1.887 1.226-4.125 1.844-6.719 1.844-3.96 0-7.047-1.317-9.266-3.953-2.21-2.645-3.312-6.227-3.312-10.75 0-2.926.5-5.504 1.5-7.735 1-2.226 2.441-3.957 4.328-5.187 1.895-1.227 4.16-1.844 6.797-1.844Zm0 3.953c-4.887 0-7.328 3.606-7.328 10.813 0 7.168 2.426 10.75 7.281 10.75 4.844 0 7.266-3.602 7.266-10.813 0-7.164-2.407-10.75-7.219-10.75Zm33.525-3.953c3.207 0 5.754 1.293 7.64 3.875 1.895 2.586 2.844 6.195 2.844 10.828 0 2.93-.449 5.508-1.343 7.734-.887 2.23-2.168 3.961-3.844 5.188-1.68 1.226-3.64 1.844-5.89 1.844-2.962 0-5.454-1.25-7.485-3.75l-.485 3.109h-4.328v-39.531l4.922-.578v15.453c2.031-2.781 4.688-4.172 7.969-4.172Zm-1.766 25.562c2.176 0 3.88-.878 5.11-2.64 1.226-1.77 1.843-4.508 1.843-8.219 0-3.812-.574-6.562-1.718-8.25-1.137-1.695-2.758-2.547-4.86-2.547-2.492 0-4.683 1.465-6.578 4.39v13.47c.75 1.18 1.664 2.105 2.75 2.78 1.094.68 2.242 1.016 3.453 1.016Zm25.56-24.921v28.187h-4.922v-28.187Zm-2.516-13.532c1.032 0 1.864.325 2.5.969.645.637.97 1.438.97 2.406 0 .961-.325 1.75-.97 2.375-.636.625-1.468.938-2.5.938-1 0-1.824-.313-2.468-.938-.637-.625-.954-1.414-.954-2.375 0-.968.317-1.77.954-2.406.644-.644 1.468-.969 2.468-.969Zm33.97 26.797c0 .824-.039 1.664-.11 2.516H734.12c.207 3.105.988 5.387 2.344 6.844 1.351 1.46 3.101 2.187 5.25 2.187 1.351 0 2.598-.191 3.734-.578 1.145-.395 2.344-1.02 3.594-1.875l2.14 2.937c-3 2.356-6.28 3.532-9.843 3.532-3.93 0-6.992-1.282-9.188-3.844-2.187-2.57-3.28-6.102-3.28-10.594 0-2.926.472-5.52 1.421-7.781.945-2.27 2.3-4.047 4.062-5.328 1.758-1.281 3.836-1.922 6.235-1.922 3.738 0 6.61 1.23 8.61 3.687 2 2.461 3 5.868 3 10.22Zm-4.875-1.437c0-2.782-.554-4.899-1.656-6.36-1.105-1.468-2.762-2.203-4.969-2.203-4.031 0-6.226 2.961-6.578 8.875h13.203Zm22.987-12.469c1.675 0 3.207.242 4.593.719 1.395.48 2.739 1.257 4.032 2.328l-2.36 3.11c-1-.72-1.976-1.243-2.922-1.579-.937-.344-1.98-.516-3.125-.516-2.28 0-4.058.914-5.328 2.735-1.261 1.812-1.89 4.508-1.89 8.078 0 3.562.625 6.195 1.875 7.89 1.25 1.688 3.03 2.532 5.343 2.532 1.102 0 2.118-.164 3.047-.5.926-.344 1.961-.89 3.11-1.64l2.25 3.218c-2.575 2.062-5.45 3.094-8.625 3.094-3.813 0-6.82-1.282-9.016-3.844-2.188-2.57-3.281-6.125-3.281-10.656 0-2.989.5-5.602 1.5-7.844 1-2.25 2.414-4 4.25-5.25 1.832-1.25 4.015-1.875 6.547-1.875Zm29.528 27.547c-1.855 1.281-3.96 1.922-6.312 1.922-2.399 0-4.262-.68-5.594-2.047-1.336-1.375-2-3.363-2-5.969v-17.016h-4.922v-3.796h4.922v-6.36l4.922-.594v6.954h6.687l-.546 3.796h-6.141v16.797c0 1.461.254 2.524.766 3.188.52.656 1.382.984 2.593.984 1.102 0 2.352-.375 3.75-1.125Zm26.366-13.641c0 .824-.039 1.664-.109 2.516h-17.969c.207 3.105.989 5.387 2.344 6.844 1.352 1.46 3.102 2.187 5.25 2.187 1.352 0 2.598-.191 3.734-.578 1.145-.395 2.344-1.02 3.594-1.875l2.14 2.937c-3 2.356-6.28 3.532-9.843 3.532-3.93 0-6.992-1.282-9.187-3.844-2.188-2.57-3.282-6.102-3.282-10.594 0-2.926.473-5.52 1.422-7.781.945-2.27 2.301-4.047 4.063-5.328 1.757-1.281 3.836-1.922 6.234-1.922 3.738 0 6.61 1.23 8.61 3.687 2 2.461 3 5.868 3 10.22Zm-4.875-1.437c0-2.782-.554-4.899-1.656-6.36-1.105-1.468-2.762-2.203-4.969-2.203-4.03 0-6.226 2.961-6.578 8.875h13.203Zm37.157-12.469c1.676 0 3.207.242 4.594.719 1.394.48 2.738 1.257 4.031 2.328l-2.36 3.11c-1-.72-1.976-1.243-2.921-1.579-.938-.344-1.98-.516-3.125-.516-2.281 0-4.059.914-5.328 2.735-1.262 1.812-1.89 4.508-1.89 8.078 0 3.562.624 6.195 1.874 7.89 1.25 1.688 3.031 2.532 5.344 2.532 1.101 0 2.117-.164 3.047-.5.925-.344 1.96-.89 3.11-1.64l2.25 3.218c-2.575 2.062-5.45 3.094-8.626 3.094-3.812 0-6.82-1.282-9.016-3.844-2.187-2.57-3.28-6.125-3.28-10.656 0-2.989.5-5.602 1.5-7.844 1-2.25 2.413-4 4.25-5.25 1.831-1.25 4.015-1.875 6.546-1.875Zm25.888 0c3.957 0 7.031 1.324 9.219 3.969 2.195 2.636 3.297 6.215 3.297 10.734 0 2.93-.5 5.508-1.5 7.734-1 2.23-2.45 3.961-4.344 5.188-1.887 1.226-4.125 1.844-6.719 1.844-3.96 0-7.047-1.317-9.265-3.953-2.211-2.645-3.313-6.227-3.313-10.75 0-2.926.5-5.504 1.5-7.735 1-2.226 2.442-3.957 4.328-5.187 1.895-1.227 4.16-1.844 6.797-1.844Zm0 3.953c-4.887 0-7.328 3.606-7.328 10.813 0 7.168 2.426 10.75 7.281 10.75 4.844 0 7.266-3.602 7.266-10.813 0-7.164-2.406-10.75-7.219-10.75Zm33.588-3.953c3.593 0 6.226 1.289 7.906 3.86 1.676 2.562 2.515 6.179 2.515 10.843 0 4.43-.964 7.996-2.89 10.703-1.93 2.711-4.656 4.063-8.188 4.063-3.136 0-5.593-1.067-7.375-3.203v13.359l-4.922.594v-39.578h4.235l.375 3.796c1.031-1.425 2.273-2.52 3.734-3.28 1.469-.77 3.004-1.157 4.61-1.157Zm-1.829 25.453c4.633 0 6.954-3.582 6.954-10.75 0-7.195-2.122-10.797-6.36-10.797a6.395 6.395 0 0 0-3.812 1.235c-1.137.812-2.133 1.867-2.985 3.156v13.734c.719 1.106 1.61 1.953 2.672 2.547 1.07.586 2.25.875 3.531.875Zm25.56-24.812v28.187h-4.922v-28.187Zm-2.516-13.532c1.032 0 1.864.325 2.5.969.645.637.97 1.438.97 2.406 0 .961-.325 1.75-.97 2.375-.636.625-1.468.938-2.5.938-1 0-1.824-.313-2.468-.938-.637-.625-.953-1.414-.953-2.375 0-.968.316-1.77.953-2.406.644-.644 1.468-.969 2.468-.969Zm17.595 13.532v28.187h-4.922v-28.187Zm-2.515-13.532c1.031 0 1.863.325 2.5.969.644.637.968 1.438.968 2.406 0 .961-.324 1.75-.968 2.375-.637.625-1.469.938-2.5.938-1 0-1.824-.313-2.469-.938-.637-.625-.953-1.414-.953-2.375 0-.968.316-1.77.953-2.406.645-.644 1.469-.969 2.469-.969Zm0 0" fill="#c7dd60"/></svg>