<svg xmlns="http://www.w3.org/2000/svg" width="1920" viewBox="0 0 1440 810" height="1080" version="1.0" xmlns:xlink="http://www.w3.org/1999/xlink"><defs><path d="m937.066 304.25 41.887 24.941L828.156 582.45l-41.886-24.941Zm0 0" id="a"/><path d="m388.164 462.336 348.219-145.121 49.914 119.765-348.223 145.122Zm0 0" id="b"/><path d="m786.648 50.645 182.93 81.472-101.61 228.145-182.929-81.469Zm0 0" id="c"/></defs><defs><clipPath id="d"><path d="M294.941 7.043h799.02v795.914H294.94Zm0 0"/></clipPath><clipPath id="e"><path d="M333.191 7.043h721.965c21.125 0 38.25 17.125 38.25 38.25v719.414c0 21.125-17.125 38.25-38.25 38.25H333.191c-21.125 0-38.25-17.125-38.25-38.25V45.293c0-21.125 17.125-38.25 38.25-38.25Zm0 0"/></clipPath><clipPath id="f"><path d="M797 307h174v261H797Zm0 0"/></clipPath><clipPath id="g"><use xlink:href="#a"/></clipPath><clipPath id="h"><use xlink:href="#a"/></clipPath><clipPath id="i"><path d="M432 125h115v177.25H432Zm0 0"/></clipPath><clipPath id="j"><path d="M423.703 81H588v122H423.703Zm0 0"/></clipPath><clipPath id="k"><path d="M394 330h354v219H394Zm0 0"/></clipPath><clipPath id="l"><use xlink:href="#b"/></clipPath><clipPath id="m"><use xlink:href="#b"/></clipPath><clipPath id="n"><path d="M390 326h361v226H390Zm0 0"/></clipPath><clipPath id="o"><use xlink:href="#b"/></clipPath><clipPath id="p"><use xlink:href="#b"/></clipPath><clipPath id="q"><path d="M688 55h281v304H688Zm0 0"/></clipPath><clipPath id="r"><use xlink:href="#c"/></clipPath><clipPath id="s"><use xlink:href="#c"/></clipPath></defs><g clip-path="url(#d)"><g clip-path="url(#e)"><path fill="#0e332c" d="M294.941 7.043h799.02v795.914H294.94Zm0 0"/></g></g><g clip-path="url(#f)"><g clip-path="url(#g)"><g clip-path="url(#h)"><path fill="#c7dd60" d="m808.172 551.559-6.274 10.539 2.778 1.656 6.277-10.54Zm1.148-3.246 3.82 2.277c4.575-4.195 9.278-7.89 13.837-12.164l-13.79-8.207c-1.425 6.066-2.507 12.047-3.867 18.093Zm12.27-36.157-8.414 14.133 17.605 10.484 8.625-14.48-17.496-10.414c-.144-.059-.23.105-.32.277Zm63.812-112.176-63.527 106.692 21.895 13.035 63.734-107.039-21.781-12.969c-.145-.066-.235.106-.32.281Zm71.586-62.515-1.031 1.734c1.078 1.262 5.723 2.406 6.164 4.145.328 1.293-2.933 5.715-4.137 7.734l-33.18 55.727 2.548 1.515 39.113-65.687-9.153-5.45c-.144-.062-.234.11-.324.282Zm-24.183-19.738-46.563 78.203 24.098 14.347 46.77-78.55c-7.997-4.754-15.989-9.516-23.985-14.274-.145-.062-.234.106-.32.277Zm5.73-1.454 16.797 10.004 3.035-5.097-16.683-9.934c-1.141 1.309-2.082 3.414-3.149 5.027Zm19.766 11.614c1.015 1.09 2.547 1.168 2.664 2.37.12 1.235-1.297 2.223-1.973 3.845 1.238 1.02 3.524 2.257 5.953 3.703 1.598.953 5.274 2.574 5.586 3.797.348 1.375-3.793 7.16-4.824 8.898l-34.7 58.273c-.89 1.497-1.956 3.575-2.808 3.657-.976.097-2.808-1.34-4.074-2.114-1.395-.836-2.965-1.546-3.453-2.367 5.41-10.515 12.07-21.066 18.414-31.719l18.898-31.742c-.882-.89-2.562-1.578-3.754-2.39l-37.18 62.441c-1.773 2.98-3.257 6.367-5.241 8.805-.508.625-1.07.754-1.618 1.394-1.55 1.82-2.738 4.602-4.136 6.953L844.8 524.566c-.711.426-1.653-.035-2.567-.433l-9.863 16.566c-.672.324-1.484.098-2.336-.297-3.816 3.356-7.707 6.672-11.691 10.149-1.29 1.125-2.91 2.168-3.875 3.347-1.48 1.801-2.817 4.73-4.348 7.297-.86 1.446-2.984 6.266-4.418 6.63-.875.222-7.578-3.516-7.875-4.692-.293-1.172 2.758-5.422 3.723-7.043 1.465-2.457 3.328-4.856 4.207-7.067.488-1.238.594-3.222.976-5.07.711-3.406 1.36-6.617 2.07-10.066.364-1.75 1.204-3.926 1.098-5-.082-.762-.297-.567-.582-1.13a2.595 2.595 0 0 1-.285-1.109l9.727-16.332c-.239-.757-1.848-1.171-1.602-2.05 19.637-33.47 40.785-68.766 61.137-102.946 1.387-2.328 3.246-4.652 4.07-6.836.352-.933-.105-1.285.297-2.34 1.219-3.23 4.375-7.351 6.274-10.539 12.48-20.964 24.472-41.101 37.25-62.562 1.566-2.629 4.828-9.484 6.347-9.867.895-.23 1.813.68 3.102 1.375 1.754-2.106 3.375-7.559 5.57-7.512l16.336 9.727c1.523.91 4.613 2.28 4.89 3.382.528 2.082-3.578 5.434-4.132 7.739" fill-rule="evenodd"/></g></g></g><path fill="#c7dd60" d="M518.152 254.063a2.741 2.741 0 0 0 2.543-3.766l-19.23-47.645a2.738 2.738 0 0 0-3.567-1.515 2.738 2.738 0 0 0-1.515 3.566l19.23 47.645a2.736 2.736 0 0 0 2.54 1.714"/><g clip-path="url(#i)"><path fill="#c7dd60" d="M506.383 272.07a8.352 8.352 0 0 0 .21 6.426l2.485 5.473a8.334 8.334 0 0 0 4.692 4.394 8.337 8.337 0 0 0 5.859.024l2.883 6.39c2.066 4.582 6.64 7.325 11.402 7.325 1.637 0 3.29-.325 4.871-1.008a12.437 12.437 0 0 0 6.742-15.809l-30.64-81.793a2.748 2.748 0 0 0-3.532-1.605 2.739 2.739 0 0 0-1.601 3.527l30.64 81.793a6.961 6.961 0 0 1-3.773 8.852c-3.469 1.496-7.558-.09-9.113-3.536l-4.004-8.875a2.744 2.744 0 0 0-3.629-1.367l-1.941.88a2.916 2.916 0 0 1-2.235.073 2.903 2.903 0 0 1-1.633-1.527l-2.48-5.473a2.916 2.916 0 0 1-.074-2.234 2.897 2.897 0 0 1 1.531-1.633l1.969-.894a2.74 2.74 0 0 0 1.363-3.621l-6.02-13.344a2.757 2.757 0 0 0-1.53-1.434 2.732 2.732 0 0 0-2.098.067l-1.997.906a2.926 2.926 0 0 1-3.867-1.457l-2.484-5.469a2.915 2.915 0 0 1-.07-2.234 2.891 2.891 0 0 1 1.527-1.633l2.023-.918a2.742 2.742 0 0 0 1.368-3.625l-4.993-11.063a2.743 2.743 0 0 0-3.504-1.421l-2.847 1.125a2.92 2.92 0 0 1-3.79-1.645l-2.206-5.59a2.897 2.897 0 0 1 .039-2.234 2.901 2.901 0 0 1 1.605-1.555l2.074-.82a2.735 2.735 0 0 0 1.493-3.676l-2.641-5.855a2.738 2.738 0 0 0-2.805-1.598 42.605 42.605 0 0 1-28.722-7.121c-9.407-6.406-15.754-16.094-17.875-27.281-2.121-11.184.242-22.52 6.648-31.926a42.932 42.932 0 0 1 6.836-7.809 2.743 2.743 0 0 0 .219-3.87 2.743 2.743 0 0 0-3.871-.216 48.357 48.357 0 0 0-7.711 8.805c-14.934 21.918-9.25 51.898 12.668 66.828a48.093 48.093 0 0 0 30.418 8.223l.668 1.476a8.352 8.352 0 0 0-4.032 4.211 8.341 8.341 0 0 0-.109 6.43l2.207 5.59c1.7 4.308 6.59 6.43 10.899 4.73l.418-.164 2.8 6.203a8.341 8.341 0 0 0-3.937 4.469 8.362 8.362 0 0 0 .215 6.43l2.484 5.468a8.335 8.335 0 0 0 4.691 4.395 8.317 8.317 0 0 0 5.914 0l3.782 8.379a8.34 8.34 0 0 0-3.88 4.441"/></g><path fill="#c7dd60" d="M554.32 164.79a2.741 2.741 0 0 0 .66 3.82l68.43 48.265a6.97 6.97 0 0 1 1.867 9.441c-2.027 3.188-6.3 4.18-9.527 2.207l-8.3-5.078a2.728 2.728 0 0 0-2.075-.324c-.71.168-1.32.613-1.7 1.238l-1.105 1.817a2.897 2.897 0 0 1-1.804 1.32 2.906 2.906 0 0 1-2.211-.344l-5.133-3.125a2.891 2.891 0 0 1-1.317-1.804 2.886 2.886 0 0 1 .344-2.211l1.121-1.844a2.744 2.744 0 0 0-.91-3.766l-12.484-7.636a2.743 2.743 0 0 0-3.774.914l-1.136 1.87a2.905 2.905 0 0 1-1.805 1.317 2.892 2.892 0 0 1-2.211-.344l-5.129-3.12a2.927 2.927 0 0 1-.98-4.016l1.156-1.903a2.737 2.737 0 0 0-.91-3.761l-10.352-6.332a2.748 2.748 0 0 0-3.7.797l-1.718 2.535a2.924 2.924 0 0 1-4.058.773l-4.97-3.379a2.92 2.92 0 0 1-.773-4.054l1.25-1.848c.422-.621.57-1.383.414-2.117a2.753 2.753 0 0 0-1.25-1.762l-5.48-3.348a2.734 2.734 0 0 0-3.215.258 42.61 42.61 0 0 1-27.746 10.29c-23.5 0-42.617-19.118-42.617-42.618 0-14.656 7.394-28.11 19.781-35.988a2.738 2.738 0 0 0 .844-3.782 2.743 2.743 0 0 0-3.785-.843c-13.977 8.89-22.32 24.074-22.32 40.613 0 26.52 21.574 48.094 48.097 48.094a48.12 48.12 0 0 0 29.77-10.328l1.379.843a8.32 8.32 0 0 0-.958 5.75 8.34 8.34 0 0 0 3.528 5.375l4.972 3.38c3.829 2.6 9.067 1.6 11.672-2.231l.25-.371 5.805 3.55c-2.059 3.891-.75 8.782 3.063 11.102l5.132 3.125a8.365 8.365 0 0 0 6.352.988 8.33 8.33 0 0 0 4.887-3.332l7.843 4.797a8.333 8.333 0 0 0-.707 5.856 8.355 8.355 0 0 0 3.797 5.191l5.13 3.125a8.34 8.34 0 0 0 6.355.988 8.316 8.316 0 0 0 4.851-3.277l5.98 3.656a12.348 12.348 0 0 0 6.454 1.813c4.136 0 8.199-2.043 10.558-5.754a12.448 12.448 0 0 0-3.332-16.863l-68.433-48.266a2.74 2.74 0 0 0-3.817.66"/><g clip-path="url(#j)"><path fill="#c7dd60" d="M434.773 138.727a2.738 2.738 0 0 0 .536-3.84c-3.989-5.278-6.098-11.57-6.098-18.203 0-16.664 13.555-30.22 30.219-30.22 16.66 0 30.218 13.556 30.218 30.22 0 1.53-.12 3.05-.347 4.543-10.465.148-18.93 8.699-18.93 19.195 0 10.59 8.613 19.203 19.2 19.203 10.59 0 19.206-8.613 19.206-19.203 0-5.215-2.054-10.09-5.789-13.734a2.74 2.74 0 1 0-3.828 3.917 13.616 13.616 0 0 1 4.133 9.817c0 7.566-6.156 13.723-13.723 13.723-7.566 0-13.718-6.157-13.718-13.723 0-6.996 5.27-12.777 12.046-13.61a30.246 30.246 0 0 1-6.246 10.348 2.736 2.736 0 0 0 2.016 4.594 2.74 2.74 0 0 0 2.016-.883 35.587 35.587 0 0 0 9.445-24.187 35.51 35.51 0 0 0-1.774-11.086 42.647 42.647 0 0 1 10.434-1.293c23.496 0 42.613 19.117 42.613 42.613 0 4.105-.593 8.18-1.757 12.121-.004.012-.004.02-.008.031a42.388 42.388 0 0 1-4.844 10.657 2.739 2.739 0 0 0 .789 3.746l42.719 28.547c.469.312.996.46 1.52.46.886 0 1.753-.425 2.28-1.218a2.736 2.736 0 0 0-.753-3.797l-40.555-27.106a47.83 47.83 0 0 0 4.363-10.625c.016-.058.02-.12.032-.183a48.099 48.099 0 0 0 1.695-12.633c0-26.52-21.574-48.094-48.094-48.094-4.27 0-8.484.559-12.562 1.66-5.914-11.562-17.946-19.5-31.797-19.5-19.684 0-35.7 16.016-35.7 35.7 0 7.836 2.493 15.273 7.207 21.507a2.74 2.74 0 0 0 3.836.536"/></g><g clip-path="url(#k)"><g clip-path="url(#l)"><g clip-path="url(#m)"><path fill="#c7dd60" d="M665.059 347.348c-28.016 11.882-51.63 31.457-77.817 46.265-10.933 6.18-22.648 11.461-34.715 14.977-16.035 4.676-32.77 6.312-48.933 10.66-14.446 3.883-29.094 7.758-42.899 13.418-24.125 9.898-44.437 26.719-66.43 40.394 2.715 6.52 4.801 15.473 10.239 18.583 5.61 3.21 13.547 4.976 17.808 10.718a251.028 251.028 0 0 0 34.477 37.688c6.223 5.55 14.524 7.765 22.934 8.172 20.25.976 40.75-6.18 58.242-16.434 24.914-14.598 31.441-39.289 33.46-65.234.47-10.399-3.257-20.621-1.179-30.813 1.234-6.055 9.492-7.164 14.797-9.394 5.305-2.235 13.285 4.238 17.25 9.105 14.023 17.227 32.445 34.027 56.07 36.274 35.282 3.351 79.559-18.48 86.735-54.028 2.804-13.914-.66-27.93-2.106-41.754-.879-8.418-2.597-18.172 3.653-25.605 2.52-2.996-2.497-8.684-3.625-12.73-1.235-4.415-1.786-8.54-8.446-6.731-11.625 3.156-24.14 3.242-36.039 6.46-11.277 3.056-22.597 5.391-33.476 10.009Zm-182.79 84.375c7.954-3.371 16.122-6.13 24.516-7.809 50.02-10.02 58.445 7.563 54.918 52.637-2.875 36.73-31.8 57.687-67.16 63.906-16.297 2.867-30.582-2.715-41-14.168-10.992-12.09-21.117-25.582-26.473-40.875-7.168-20.473 15.602-33.262 31.985-42.223 7.515-4.113 15.257-8.097 23.21-11.468Zm168.598-70.262c7.992-3.277 16.27-5.969 24.485-8.41 17.898-5.324 43.007-12.488 52.503 7.015 7.09 14.567 9.54 31.258 10.387 47.575.801 15.46-5.293 29.539-18.804 39.093-29.31 20.73-64.555 26.516-92.665 2.7-34.492-29.23-41.046-47.59 1.282-76.059 7.105-4.777 14.816-8.637 22.808-11.91Zm0 0"/></g></g></g><g clip-path="url(#n)"><g clip-path="url(#o)"><g clip-path="url(#p)"><path fill="none" d="M665.059 347.347c-28.016 11.883-51.63 31.458-77.817 46.266-10.933 6.18-22.648 11.461-34.715 14.977-16.035 4.676-32.77 6.312-48.933 10.66-14.446 3.883-29.094 7.758-42.899 13.418-24.125 9.898-44.437 26.719-66.43 40.395 2.715 6.519 4.801 15.472 10.239 18.582 5.61 3.21 13.547 4.976 17.809 10.718a251.028 251.028 0 0 0 34.476 37.688c6.223 5.55 14.524 7.765 22.934 8.172 20.25.976 40.75-6.18 58.242-16.434 24.914-14.598 31.441-39.289 33.46-65.234.47-10.399-3.257-20.621-1.179-30.813 1.235-6.055 9.492-7.164 14.797-9.394 5.305-2.235 13.285 4.238 17.25 9.105 14.024 17.227 32.445 34.027 56.07 36.273 35.282 3.352 79.56-18.48 86.735-54.027 2.805-13.914-.66-27.93-2.106-41.754-.879-8.418-2.597-18.172 3.653-25.605 2.52-2.996-2.496-8.684-3.625-12.73-1.235-4.415-1.785-8.54-8.446-6.731-11.625 3.156-24.14 3.242-36.039 6.46-11.277 3.055-22.597 5.391-33.476 10.008Zm-182.79 84.376c7.954-3.371 16.122-6.13 24.516-7.809 50.02-10.02 58.446 7.562 54.918 52.637-2.875 36.73-31.8 57.687-67.16 63.906-16.297 2.867-30.582-2.715-41-14.168-10.992-12.09-21.117-25.582-26.473-40.875-7.168-20.473 15.602-33.262 31.985-42.223 7.515-4.113 15.258-8.097 23.21-11.468Zm168.598-70.262c7.992-3.278 16.27-5.969 24.485-8.41 17.898-5.325 43.008-12.489 52.504 7.015 7.09 14.567 9.539 31.258 10.386 47.574.801 15.461-5.293 29.54-18.804 39.094-29.309 20.73-64.555 26.516-92.664 2.7-34.493-29.231-41.047-47.59 1.28-76.06 7.106-4.776 14.817-8.636 22.81-11.91Zm0 0" stroke="#000" stroke-width=".638"/></g></g></g><g clip-path="url(#q)"><g clip-path="url(#r)"><g clip-path="url(#s)"><path fill="#c7dd60" d="M968.375 134.566a.274.274 0 0 0-.031-.09l-2.145-3.69c-.015-.032-.039-.052-.05-.063a.8.8 0 0 0-.266-.243.237.237 0 0 0-.07-.046l-167-74.375c-.442-.2-.97.023-1.176.488l-2.551 5.726c-6.496-2.691-12.664-2.136-14.219 1.348-1.55 3.488 2.164 8.445 8.508 11.473l-4.52 10.148c-6.496-2.691-12.664-2.137-14.218 1.352-1.555 3.488 2.16 8.445 8.508 11.472l-4.52 10.149c-6.496-2.692-12.664-2.137-14.219 1.351-1.554 3.489 2.16 8.446 8.508 11.473l-4.52 10.148c-6.496-2.69-12.667-2.136-14.218 1.352-1.555 3.488 2.16 8.441 8.508 11.473l-4.524 10.148c-6.492-2.691-12.664-2.137-14.215 1.348-1.554 3.488 2.16 8.445 8.504 11.472l-4.52 10.149c-6.491-2.691-12.663-2.137-14.214 1.351-1.555 3.489 2.16 8.446 8.504 11.473l-4.52 10.149c-6.496-2.692-12.664-2.137-14.219 1.351-1.55 3.488 2.165 8.445 8.508 11.473l-4.52 10.148c-6.495-2.691-12.663-2.137-14.218 1.352-1.55 3.488 2.164 8.445 8.508 11.472l-4.52 10.149c-6.496-2.692-12.664-2.137-14.218 1.351-1.551 3.485 2.164 8.442 8.507 11.473l-4.52 10.149c-6.495-2.692-12.663-2.137-14.218 1.351-1.555 3.484 2.16 8.442 8.508 11.469l-.586 1.32c-.211.465-.02 1.004.422 1.2l167 74.378a.875.875 0 0 0 .91-.14l4.121-1.11a.953.953 0 0 0 .613-.531l98.66-221.523a.924.924 0 0 0-.062-.868ZM698.73 278.621c-4.523-2.394-7.363-5.355-6.648-6.965.703-1.578 4.563-1.293 9.48.606Zm3.282-7.363c-5.7-2.215-9.883-2.258-10.88-.024-1.003 2.258 1.86 5.61 7.15 8.395l-.54 1.207c-5.722-2.738-9.285-7.16-8.004-10.043 1.285-2.883 6.953-3.191 12.82-.77Zm6.949-15.61c-4.52-2.39-7.363-5.355-6.649-6.96.704-1.583 4.563-1.293 9.481.605Zm3.281-7.363c-5.699-2.215-9.883-2.258-10.879-.023-1.004 2.258 1.86 5.61 7.149 8.394l-.54 1.207c-5.722-2.738-9.284-7.16-8.003-10.043 1.285-2.882 6.953-3.191 12.82-.77Zm6.95-15.61c-4.52-2.39-7.364-5.35-6.649-6.96.707-1.582 4.562-1.293 9.48.605Zm3.28-7.363c-5.699-2.214-9.882-2.253-10.878-.019-1.004 2.258 1.86 5.605 7.152 8.39l-.539 1.212c-5.727-2.743-9.289-7.16-8.004-10.047 1.281-2.883 6.953-3.192 12.82-.77Zm6.95-15.605c-4.52-2.394-7.363-5.355-6.645-6.965.703-1.582 4.563-1.293 9.477.606Zm3.281-7.367c-5.7-2.215-9.883-2.254-10.879-.02-1.004 2.258 1.86 5.606 7.153 8.39l-.54 1.212c-5.726-2.742-9.289-7.16-8.003-10.043 1.28-2.887 6.953-3.195 12.82-.774Zm6.95-15.606c-4.52-2.394-7.364-5.355-6.645-6.964.703-1.579 4.562-1.293 9.476.605Zm3.28-7.363c-5.699-2.215-9.882-2.258-10.878-.023-1.004 2.257 1.86 5.605 7.152 8.394l-.539 1.207c-5.727-2.742-9.29-7.16-8.004-10.043 1.285-2.886 6.953-3.195 12.82-.77Zm6.954-15.61c-4.524-2.394-7.367-5.355-6.649-6.96.703-1.582 4.563-1.297 9.477.601Zm3.277-7.363c-5.7-2.214-9.883-2.257-10.879-.023-1.004 2.258 1.86 5.61 7.153 8.395l-.54 1.207c-5.726-2.739-9.289-7.16-8.003-10.043 1.285-2.883 6.953-3.192 12.82-.77Zm6.953-15.609c-4.523-2.39-7.367-5.351-6.648-6.96.703-1.583 4.562-1.294 9.48.6Zm3.278-7.363c-5.7-2.215-9.883-2.258-10.875-.024-1.008 2.262 1.855 5.61 7.148 8.395l-.54 1.207c-5.726-2.738-9.288-7.16-8.003-10.043 1.285-2.883 6.953-3.191 12.82-.77Zm6.953-15.606c-4.524-2.394-7.364-5.355-6.649-6.965.703-1.582 4.563-1.293 9.48.606Zm3.28-7.367c-5.698-2.215-9.882-2.258-10.878-.02-1.008 2.254 1.86 5.606 7.148 8.391l-.539 1.211c-5.726-2.742-9.289-7.16-8.004-10.047 1.286-2.883 6.954-3.191 12.82-.77Zm6.95-15.605c-4.523-2.395-7.363-5.356-6.648-6.965.703-1.582 4.562-1.293 9.48.605Zm3.281-7.368c-5.699-2.214-9.882-2.253-10.879-.02-1.003 2.259 1.86 5.606 7.149 8.392l-.54 1.21c-5.722-2.742-9.288-7.16-8.003-10.046 1.285-2.883 6.953-3.192 12.82-.77Zm6.95-15.605c-4.52-2.395-7.364-5.355-6.649-6.965.703-1.578 4.563-1.293 9.48.606Zm3.28-7.363c-5.698-2.215-9.882-2.258-10.878-.024-1.004 2.258 1.86 5.606 7.148 8.39l-.539 1.212c-5.722-2.742-9.285-7.16-8.004-10.043 1.286-2.883 6.954-3.192 12.82-.77Zm2.15-.524c.937.438 1.859.89 2.683 1.309l-.535 1.2a32.924 32.924 0 0 0-2.438-1.212c-.078-.035-.16-.07-.242-.105Zm-10.231 22.973c.937.434 1.86.887 2.683 1.305l-.535 1.203a31.443 31.443 0 0 0-2.437-1.211l-.242-.106Zm-10.23 22.973c.933.433 1.859.886 2.683 1.304l-.535 1.2a33.681 33.681 0 0 0-2.438-1.208l-.242-.105Zm-10.231 22.968c.933.438 1.855.891 2.68 1.309l-.532 1.2a33.681 33.681 0 0 0-2.437-1.208c-.082-.039-.16-.07-.242-.105Zm-10.23 22.973c.933.438 1.855.89 2.68 1.309l-.532 1.199a33.681 33.681 0 0 0-2.438-1.207c-.082-.04-.164-.07-.242-.106Zm-10.231 22.973c.934.433 1.855.89 2.68 1.308l-.536 1.2a31.3 31.3 0 0 0-2.433-1.208c-.082-.039-.164-.074-.246-.109Zm-10.234 22.972c.937.434 1.859.89 2.683 1.309l-.535 1.2a31.357 31.357 0 0 0-2.68-1.317Zm-10.23 22.973a83.6 83.6 0 0 1 2.683 1.305l-.535 1.199a34.4 34.4 0 0 0-2.434-1.207l-.246-.106Zm-10.231 22.973c.937.433 1.855.886 2.683 1.304l-.535 1.2a32.903 32.903 0 0 0-2.437-1.208l-.243-.105Zm-10.23 22.968c.933.438 1.859.891 2.683 1.309l-.535 1.2a32.902 32.902 0 0 0-2.438-1.208c-.082-.039-.16-.07-.242-.105Zm159.925 85.957-165.399-73.664 4.497-10.097c.078.035.16.07.242.11.84.37 1.652.776 2.433 1.206l-.543 1.223a.43.43 0 0 0 .204.57l4.699 2.09c.21.094.46-.008.558-.23l1.891-4.239a.428.428 0 0 0-.203-.57l-4.7-2.094a.411.411 0 0 0-.425.067 91.269 91.269 0 0 0-2.735-1.333l8.81-19.77c.077.036.16.067.241.106.84.375 1.657.782 2.434 1.207l-.543 1.223a.43.43 0 0 0 .203.57l4.7 2.094c.21.09.46-.012.562-.234l1.886-4.238a.43.43 0 0 0-.203-.57l-4.699-2.095a.413.413 0 0 0-.426.067 91.522 91.522 0 0 0-2.734-1.328l8.809-19.774.242.106c.84.375 1.656.781 2.437 1.21l-.543 1.22a.428.428 0 0 0 .2.57l4.699 2.094c.21.093.46-.012.562-.235l1.887-4.234c.098-.223.008-.48-.203-.57l-4.7-2.094a.405.405 0 0 0-.425.066c-.84-.426-1.778-.89-2.73-1.332l8.804-19.773.242.105c.836.371 1.649.777 2.438 1.211l-.543 1.219a.427.427 0 0 0 .199.57l4.703 2.094c.207.094.457-.012.559-.23l1.886-4.239a.428.428 0 0 0-.203-.57l-4.699-2.094a.405.405 0 0 0-.426.066 86.502 86.502 0 0 0-2.73-1.332l8.804-19.773.243.105a32.17 32.17 0 0 1 2.437 1.211l-.543 1.22c-.097.222-.008.476.2.57l4.703 2.093a.427.427 0 0 0 .558-.23l1.887-4.239a.428.428 0 0 0-.203-.57l-4.7-2.094a.405.405 0 0 0-.425.067 95.736 95.736 0 0 0-2.73-1.332l8.804-19.774c.082.035.164.07.242.11.844.375 1.66.78 2.438 1.207l-.543 1.218c-.098.223-.008.48.203.57l4.699 2.095c.21.093.46-.008.559-.23l1.886-4.24a.427.427 0 0 0-.199-.57l-4.703-2.093a.413.413 0 0 0-.426.066 90.885 90.885 0 0 0-2.73-1.332l8.804-19.773c.082.039.164.07.246.109.836.371 1.653.777 2.434 1.211l-.543 1.219a.43.43 0 0 0 .203.57l4.7 2.094a.43.43 0 0 0 .558-.235l1.887-4.238a.428.428 0 0 0-.2-.57l-4.703-2.094a.413.413 0 0 0-.421.066c-.84-.421-1.782-.886-2.735-1.332l8.809-19.77c.078.036.16.067.242.106a30.3 30.3 0 0 1 2.434 1.211l-.543 1.22a.428.428 0 0 0 .203.57l4.699 2.093c.21.094.46-.012.559-.23l1.886-4.239a.431.431 0 0 0-.199-.574l-4.703-2.09a.406.406 0 0 0-.422.063c-.84-.422-1.777-.883-2.734-1.328l8.808-19.774.242.106c.832.37 1.649.777 2.434 1.21l-.543 1.22a.428.428 0 0 0 .203.57l4.7 2.093c.21.094.46-.011.558-.23l1.89-4.238a.428.428 0 0 0-.202-.57l-4.7-2.094a.405.405 0 0 0-.426.066 91.271 91.271 0 0 0-2.734-1.332l8.809-19.773c.078.035.16.07.242.105.84.375 1.656.781 2.433 1.211l-.542 1.219a.428.428 0 0 0 .203.57l4.699 2.094c.21.094.46-.008.558-.23l1.891-4.239a.428.428 0 0 0-.203-.57l-4.7-2.094a.405.405 0 0 0-.425.066 96.146 96.146 0 0 0-2.734-1.332l2.175-4.879 165.403 73.665Zm4.273-.863-2.238.602 99.402-223.192 1.118 1.922Zm0 0"/></g></g></g><path d="M490.592 666.483c3.102 0 5.82.746 8.157 2.234 2.343 1.48 4.16 3.649 5.453 6.5 1.3 2.844 1.953 6.297 1.953 10.36 0 4-.652 7.43-1.953 10.28-1.293 2.856-3.11 5.032-5.453 6.532-2.336 1.492-5.055 2.235-8.157 2.235-3.093 0-5.812-.727-8.156-2.188-2.336-1.469-4.152-3.625-5.453-6.469-1.305-2.851-1.953-6.297-1.953-10.328 0-3.957.648-7.379 1.953-10.265 1.3-2.895 3.129-5.098 5.484-6.61 2.352-1.52 5.063-2.281 8.125-2.281Zm0 4.172c-3.21 0-5.703 1.215-7.484 3.64-1.781 2.43-2.672 6.211-2.672 11.344 0 5.094.899 8.84 2.703 11.235 1.801 2.386 4.286 3.578 7.453 3.578 6.782 0 10.172-4.957 10.172-14.875 0-9.946-3.39-14.922-10.172-14.922Zm36.472 4.5c3.207 0 5.754 1.293 7.641 3.875 1.895 2.586 2.844 6.195 2.844 10.828 0 2.93-.45 5.508-1.344 7.734-.887 2.23-2.168 3.961-3.844 5.188-1.68 1.226-3.64 1.844-5.89 1.844-2.961 0-5.454-1.25-7.485-3.75l-.484 3.109h-4.328v-39.531l4.922-.578v15.453c2.03-2.782 4.687-4.172 7.968-4.172Zm-1.765 25.562c2.176 0 3.879-.879 5.11-2.64 1.226-1.77 1.843-4.508 1.843-8.22 0-3.812-.574-6.562-1.719-8.25-1.137-1.694-2.758-2.546-4.86-2.546-2.491 0-4.683 1.465-6.577 4.39v13.47c.75 1.18 1.664 2.105 2.75 2.78 1.093.68 2.242 1.016 3.453 1.016Zm25.559-24.922v28.188h-4.921v-28.188Zm-2.515-13.53c1.031 0 1.863.323 2.5.968.644.637.969 1.437.969 2.406 0 .961-.325 1.75-.97 2.375-.636.625-1.468.938-2.5.938-1 0-1.823-.313-2.468-.938-.637-.625-.953-1.414-.953-2.375 0-.969.316-1.77.953-2.406.645-.645 1.469-.969 2.469-.969Zm33.97 26.796c0 .824-.04 1.664-.11 2.516h-17.968c.207 3.105.988 5.386 2.343 6.843 1.352 1.461 3.102 2.188 5.25 2.188 1.352 0 2.598-.191 3.735-.578 1.144-.395 2.343-1.02 3.593-1.875l2.141 2.937c-3 2.356-6.281 3.532-9.844 3.532-3.93 0-6.992-1.282-9.187-3.844-2.188-2.57-3.281-6.102-3.281-10.594 0-2.926.472-5.52 1.421-7.781.946-2.27 2.301-4.047 4.063-5.328 1.758-1.282 3.836-1.922 6.234-1.922 3.739 0 6.61 1.23 8.61 3.687 2 2.461 3 5.867 3 10.219Zm-4.875-1.437c0-2.782-.555-4.899-1.657-6.36-1.105-1.469-2.761-2.203-4.968-2.203-4.032 0-6.227 2.961-6.578 8.875h13.203Zm22.986-12.469c1.676 0 3.207.242 4.594.719 1.394.48 2.738 1.257 4.031 2.328l-2.36 3.109c-1-.719-1.976-1.242-2.921-1.578-.938-.344-1.98-.516-3.125-.516-2.281 0-4.059.914-5.328 2.735-1.262 1.812-1.891 4.507-1.891 8.078 0 3.562.625 6.195 1.875 7.89 1.25 1.688 3.031 2.532 5.344 2.532 1.101 0 2.117-.164 3.047-.5.925-.344 1.96-.891 3.109-1.641l2.25 3.219c-2.574 2.062-5.45 3.094-8.625 3.094-3.812 0-6.82-1.282-9.016-3.844-2.187-2.57-3.28-6.125-3.28-10.656 0-2.989.5-5.602 1.5-7.844 1-2.25 2.413-4 4.25-5.25 1.831-1.25 4.015-1.875 6.546-1.875Zm29.529 27.547c-1.856 1.28-3.961 1.922-6.313 1.922-2.398 0-4.261-.68-5.594-2.047-1.335-1.375-2-3.364-2-5.97v-17.015h-4.921v-3.797h4.921v-6.359l4.922-.594v6.953h6.688l-.547 3.797h-6.14v16.797c0 1.461.253 2.524.765 3.188.52.656 1.383.984 2.594.984 1.101 0 2.351-.375 3.75-1.125Zm26.366-13.641c0 .824-.04 1.664-.11 2.516h-17.968c.207 3.105.988 5.386 2.344 6.843 1.351 1.461 3.101 2.188 5.25 2.188 1.351 0 2.597-.191 3.734-.578 1.144-.395 2.344-1.02 3.594-1.875l2.14 2.937c-3 2.356-6.281 3.532-9.843 3.532-3.93 0-6.993-1.282-9.188-3.844-2.187-2.57-3.281-6.102-3.281-10.594 0-2.926.472-5.52 1.422-7.781.945-2.27 2.3-4.047 4.062-5.328 1.758-1.282 3.836-1.922 6.235-1.922 3.738 0 6.609 1.23 8.609 3.687 2 2.461 3 5.867 3 10.219Zm-4.875-1.437c0-2.782-.555-4.899-1.656-6.36-1.106-1.469-2.762-2.203-4.97-2.203-4.03 0-6.226 2.961-6.577 8.875h13.203Zm39.844-12.469c3.594 0 6.227 1.289 7.906 3.86 1.676 2.562 2.516 6.179 2.516 10.843 0 4.43-.965 7.996-2.89 10.703-1.93 2.711-4.657 4.063-8.188 4.063-3.137 0-5.594-1.067-7.375-3.204v13.36l-4.922.594v-39.579h4.234l.375 3.797c1.032-1.425 2.274-2.52 3.735-3.281 1.468-.77 3.004-1.156 4.609-1.156Zm-1.828 25.453c4.633 0 6.953-3.582 6.953-10.75 0-7.195-2.121-10.797-6.36-10.797a6.395 6.395 0 0 0-3.812 1.234c-1.137.813-2.133 1.868-2.984 3.157v13.734c.719 1.106 1.61 1.953 2.672 2.547 1.07.586 2.25.875 3.53.875Zm41.935-11.547c0 .824-.04 1.664-.11 2.516h-17.969c.207 3.105.989 5.386 2.344 6.843 1.352 1.461 3.102 2.188 5.25 2.188 1.352 0 2.598-.191 3.735-.578 1.144-.395 2.343-1.02 3.593-1.875l2.14 2.937c-3 2.356-6.28 3.532-9.843 3.532-3.93 0-6.992-1.282-9.187-3.844-2.188-2.57-3.282-6.102-3.282-10.594 0-2.926.473-5.52 1.422-7.781.946-2.27 2.301-4.047 4.063-5.328 1.758-1.282 3.836-1.922 6.234-1.922 3.738 0 6.61 1.23 8.61 3.687 2 2.461 3 5.867 3 10.219Zm-4.875-1.437c0-2.782-.555-4.899-1.657-6.36-1.105-1.469-2.761-2.203-4.968-2.203-4.032 0-6.227 2.961-6.579 8.875h13.204Zm24.97-12.469c1 0 1.926.11 2.782.328l-.907 4.812a9.966 9.966 0 0 0-2.468-.328c-1.743 0-3.149.649-4.22 1.938-1.073 1.281-1.913 3.277-2.515 5.984v16.094h-4.922v-28.188h4.235l.468 5.72c.75-2.102 1.766-3.688 3.047-4.75 1.29-1.071 2.79-1.61 4.5-1.61Zm16.047 0c1.926 0 3.656.273 5.188.812 1.53.532 2.988 1.328 4.375 2.39l-2.079 3.11c-1.28-.82-2.507-1.425-3.671-1.812a11.245 11.245 0 0 0-3.657-.594c-1.605 0-2.87.336-3.797 1-.93.656-1.39 1.555-1.39 2.688 0 1.148.437 2.043 1.312 2.687.875.637 2.453 1.258 4.735 1.86 3.132.78 5.476 1.851 7.03 3.203 1.552 1.355 2.329 3.21 2.329 5.562 0 2.781-1.078 4.906-3.234 6.375-2.157 1.461-4.79 2.188-7.891 2.188-4.281 0-7.828-1.227-10.64-3.688l2.609-3c2.394 1.824 5.035 2.734 7.922 2.734 1.851 0 3.32-.378 4.406-1.14 1.094-.77 1.64-1.817 1.64-3.14 0-.958-.199-1.727-.593-2.313-.399-.594-1.074-1.114-2.031-1.563-.961-.445-2.368-.922-4.22-1.422-3-.781-5.171-1.832-6.515-3.156-1.336-1.32-2-3-2-5.031 0-1.457.438-2.781 1.313-3.969.875-1.195 2.086-2.125 3.64-2.781 1.551-.664 3.29-1 5.219-1Zm27.909 0c3.957 0 7.032 1.324 9.219 3.969 2.195 2.636 3.297 6.214 3.297 10.734 0 2.93-.5 5.508-1.5 7.734-1 2.23-2.45 3.961-4.344 5.188-1.887 1.226-4.125 1.844-6.719 1.844-3.96 0-7.046-1.317-9.265-3.954-2.211-2.644-3.313-6.226-3.313-10.75 0-2.925.5-5.503 1.5-7.734 1-2.227 2.442-3.957 4.328-5.187 1.895-1.227 4.16-1.844 6.797-1.844Zm0 3.953c-4.886 0-7.328 3.605-7.328 10.812 0 7.168 2.426 10.75 7.281 10.75 4.844 0 7.266-3.601 7.266-10.812 0-7.164-2.406-10.75-7.219-10.75Zm33.9-3.953c2.57 0 4.578.765 6.016 2.297 1.445 1.53 2.172 3.636 2.172 6.312v20.219h-4.922v-19.516c0-2-.375-3.41-1.125-4.234-.75-.82-1.856-1.234-3.313-1.234-1.5 0-2.824.433-3.968 1.296-1.137.856-2.204 2.086-3.204 3.688v20h-4.921v-28.188h4.234l.422 4.172c1-1.5 2.238-2.675 3.719-3.531 1.476-.852 3.109-1.281 4.89-1.281Zm37.054 22.25c0 1.148.195 1.996.594 2.547.394.554.984.968 1.765 1.25l-1.125 3.422c-1.46-.18-2.636-.586-3.53-1.22-.888-.644-1.544-1.644-1.97-3-1.898 2.813-4.699 4.22-8.406 4.22-2.781 0-4.977-.782-6.578-2.344-1.606-1.57-2.406-3.625-2.406-6.156 0-3 1.078-5.301 3.234-6.907 2.156-1.601 5.211-2.406 9.172-2.406h4.328v-2.078c0-2-.48-3.426-1.437-4.281-.961-.852-2.438-1.282-4.438-1.282-2.074 0-4.605.5-7.594 1.5l-1.234-3.593c3.5-1.282 6.742-1.922 9.734-1.922 3.313 0 5.785.812 7.422 2.437 1.645 1.617 2.469 3.922 2.469 6.922Zm-11.547 3.531c2.813 0 5.02-1.46 6.625-4.39v-6.47h-3.687c-5.211 0-7.813 1.93-7.813 5.782 0 1.68.41 2.945 1.234 3.797.82.855 2.036 1.281 3.641 1.281Zm27.277 3.688c-1.824 0-3.262-.543-4.313-1.625-1.054-1.094-1.578-2.618-1.578-4.579v-33.968l4.922-.578v34.437c0 .781.129 1.356.39 1.719.27.355.727.531 1.376.531.675 0 1.28-.11 1.812-.328l1.281 3.422c-1.168.644-2.464.969-3.89.969Zm31.34-15.563c0 .824-.04 1.664-.11 2.516h-17.97c.207 3.105.988 5.386 2.344 6.843 1.351 1.461 3.101 2.188 5.25 2.188 1.351 0 2.597-.191 3.734-.578 1.145-.395 2.344-1.02 3.594-1.875l2.14 2.937c-3 2.356-6.28 3.532-9.843 3.532-3.93 0-6.992-1.282-9.188-3.844-2.187-2.57-3.281-6.102-3.281-10.594 0-2.926.473-5.52 1.422-7.781.945-2.27 2.3-4.047 4.062-5.328 1.758-1.282 3.836-1.922 6.235-1.922 3.738 0 6.61 1.23 8.61 3.687 2 2.461 3 5.867 3 10.219Zm-4.876-1.437c0-2.782-.555-4.899-1.656-6.36-1.106-1.469-2.762-2.203-4.969-2.203-4.031 0-6.226 2.961-6.578 8.875h13.203Zm0 0" fill="#c7dd60"/></svg>