<svg xmlns="http://www.w3.org/2000/svg" width="1920" viewBox="0 0 1440 810" height="1080" version="1.0" xmlns:xlink="http://www.w3.org/1999/xlink"><defs><path d="m757.625 388.281 181.05-35.492 35.497 181.055-181.055 35.492Zm0 0" id="a"/><path d="m805.68 99.066 149.093 63.368-80.968 190.507-149.094-63.367Zm0 0" id="b"/><path d="m462.61 81 245.507 68.926-61.02 217.347-245.507-68.925Zm0 0" id="c"/></defs><defs><clipPath id="d"><path d="M294.941 7.043h799.02v795.914H294.94Zm0 0"/></clipPath><clipPath id="e"><path d="M333.191 7.043h721.965c21.125 0 38.25 17.125 38.25 38.25v719.414c0 21.125-17.125 38.25-38.25 38.25H333.191c-21.125 0-38.25-17.125-38.25-38.25V45.293c0-21.125 17.125-38.25 38.25-38.25Zm0 0"/></clipPath><clipPath id="f"><path d="M770 362h202v204H770Zm0 0"/></clipPath><clipPath id="g"><use xlink:href="#a"/></clipPath><clipPath id="h"><use xlink:href="#a"/></clipPath><clipPath id="i"><path d="M727 112h224v231H727Zm0 0"/></clipPath><clipPath id="j"><use xlink:href="#b"/></clipPath><clipPath id="k"><use xlink:href="#b"/></clipPath><clipPath id="l"><path d="M910 167h9v17h-9Zm0 0"/></clipPath><clipPath id="m"><use xlink:href="#b"/></clipPath><clipPath id="n"><use xlink:href="#b"/></clipPath><clipPath id="o"><path d="M860 304h12v21h-12Zm0 0"/></clipPath><clipPath id="p"><use xlink:href="#b"/></clipPath><clipPath id="q"><use xlink:href="#b"/></clipPath><clipPath id="r"><path d="M407 101h281v261H407Zm0 0"/></clipPath><clipPath id="s"><use xlink:href="#c"/></clipPath><clipPath id="t"><use xlink:href="#c"/></clipPath><clipPath id="u"><path d="m463.563 81.27 243.39 68.332-62.121 221.261-243.39-68.332Zm0 0"/></clipPath><clipPath id="v"><path d="m463.563 81.27 243.39 68.332-61.02 217.328-243.39-68.332Zm0 0"/></clipPath><clipPath id="w"><path d="M623 265h14v15h-14Zm0 0"/></clipPath><clipPath id="x"><use xlink:href="#c"/></clipPath><clipPath id="y"><use xlink:href="#c"/></clipPath><clipPath id="z"><path d="M418.922 393h271.5v176.148h-271.5Zm0 0"/></clipPath></defs><g clip-path="url(#d)"><g clip-path="url(#e)"><path fill="#0e332c" d="M294.941 7.043h799.02v795.914H294.94Zm0 0"/></g></g><g clip-path="url(#f)"><g clip-path="url(#g)"><g clip-path="url(#h)"><path fill="#c7dd60" d="m932.61 405.129-9.36 1.832-6.285-32.066c-.996-5.086-4.43-9.368-9.184-11.48-4.754-2.114-10.222-1.755-14.71.972l-109.884 70.031-.312.062c-8.61 1.688-14.227 10.043-12.54 18.653l19.571 99.824c1.688 8.61 10.043 14.227 18.653 12.54l149.734-29.352c8.61-1.688 14.227-10.047 12.539-18.657l-19.566-99.82c-1.688-8.61-10.047-14.23-18.657-12.54Zm-36.173-35.313c2.692-1.628 5.922-1.843 8.797-.558 2.871 1.25 4.887 3.77 5.493 6.86l6.285 32.066-116.73 22.882Zm60.633 160.09-149.734 29.352c-5.145 1.008-10.184-2.38-11.191-7.524l-19.57-99.824c-1.009-5.144 2.378-10.183 7.527-11.191l149.73-29.352c5.148-1.012 10.184 2.375 11.195 7.524l6.223 31.754-47.695 9.351a3.189 3.189 0 0 0-2.508 3.73l5.894 30.07a3.189 3.189 0 0 0 3.73 2.509l47.696-9.348 6.227 31.754c1.008 5.148-2.375 10.184-7.524 11.195Zm.075-49.187-44.575 8.738-4.672-23.836 44.575-8.738Zm0 0"/></g></g></g><g clip-path="url(#i)"><g clip-path="url(#j)"><g clip-path="url(#k)"><path fill="#c7dd60" d="M949.852 164.082a12.359 12.359 0 0 0-7.344-6.64l-132.809-44.36-.23-.098c-4.39-1.867-9.48.188-11.344 4.579l-69.656 163.89c-1.867 4.39.187 9.477 4.578 11.344l96.223 40.898c3.972 1.688 8.496.145 10.707-3.418l28.035 11.918c4.883 2.075 10.547-.21 12.62-5.093l69.329-163.118a12.37 12.37 0 0 0-.11-9.902Zm-112.254 163.75a5.382 5.382 0 0 1-7.047 2.844l-96.223-40.899a5.377 5.377 0 0 1-2.844-7.043l69.657-163.89c1.16-2.727 4.32-4 7.043-2.84l96.226 40.894c2.727 1.16 4 4.32 2.844 7.047Zm61.965-137.414 5.843 2.48-58.183 136.899-5.844-2.485Zm8.859 3.766 5.84 2.48-43.602 102.594a1.638 1.638 0 0 0 .867 2.148l10.153 4.317-11.051 26.004-17.504-7.442Zm-28.996 107.015-5.106-2.168 53.137-125.023 5.106 2.172Zm36.12-107.55-14.702-6.25 9.426-22.172c.652-1.54.8-3.16.558-4.7l15.918 6.766ZM877.618 335.82a6.353 6.353 0 0 1-8.324 3.356l-19.055-8.098 1.606-3.773 19.011 8.078a1.635 1.635 0 0 0 2.149-.867l12.336-29.02a1.645 1.645 0 0 0-.867-2.152l-2.032-.86 53.782-126.53a1.645 1.645 0 0 0-.868-2.153l-6.617-2.813 1.668-3.922a1.636 1.636 0 0 0-.867-2.148l-20.824-8.852a8.62 8.62 0 0 0-3.024-2.187l-58.004-24.652 93.782 31.324c2.426.8 4.343 2.539 5.394 4.875a8.968 8.968 0 0 1 .082 7.273Zm0 0"/></g></g></g><g clip-path="url(#l)"><g clip-path="url(#m)"><g clip-path="url(#n)"><path fill="#c7dd60" d="M911.078 183.738a1.638 1.638 0 0 0 2.152-.867l5.391-12.684a1.637 1.637 0 0 0-.867-2.148 1.64 1.64 0 0 0-2.152.867l-5.391 12.684a1.642 1.642 0 0 0 .867 2.148Zm0 0"/></g></g></g><g clip-path="url(#o)"><g clip-path="url(#p)"><g clip-path="url(#q)"><path fill="#c7dd60" d="M870.14 304.668a1.642 1.642 0 0 0-2.148.867l-6.949 16.352a1.641 1.641 0 0 0 .867 2.152 1.64 1.64 0 0 0 2.149-.871l6.949-16.348a1.641 1.641 0 0 0-.867-2.152Zm0 0"/></g></g></g><g clip-path="url(#r)"><g clip-path="url(#s)"><g clip-path="url(#t)"><g clip-path="url(#u)"><g clip-path="url(#v)"><path fill="#c7dd60" d="M631.773 254.723 666 264.332l-9.387 33.426-34.226-9.61c-9.215-2.632-14.559-12.246-11.926-21.46 2.601-9.176 12.121-14.524 21.312-11.965ZM455.27 141.69l213.808 60.028c7.434 2.09 11.746 9.804 9.668 17.215l-.008.023-10.472 37.293-34.227-9.61c-13.703-3.824-27.89 4.2-31.715 17.903-3.812 13.664 4.149 27.812 17.793 31.687l34.227 9.61-10.469 37.297c-2.066 7.437-9.785 11.773-17.219 9.687l-200.347-56.25c-7.434-2.086-11.77-9.808-9.692-17.219l.008-.02Zm186.457 14.633 15.582 4.375c7.43 2.086 11.746 9.801 9.66 17.235l-3.774 13.441-19.015-5.34ZM478.37 110.461l87.254 24.496-80.047 6.55-14.758-4.144c-7.414-2.152-11.675-9.898-9.523-17.312 2.105-7.242 9.574-11.508 16.86-9.649Zm153.438 27.555 3.75 45.597-126.621-35.547Zm4.144-8.371a5.512 5.512 0 0 0-2.02-.196l-44.113 3.606-109.011-30.606c-11.883-3.336-24.207 3.602-27.543 15.489l-44.68 159.14c-3.336 11.883 3.574 24.219 15.457 27.559l200.371 56.254c11.883 3.336 24.203-3.602 27.543-15.489l34.863-124.18c3.356-11.874-3.574-24.218-15.457-27.554-.023-.008-.043-.012-.086-.027l3.774-13.438c3.336-11.887-3.574-24.223-15.461-27.558l-18.582-5.22-1.043-12.878a5.623 5.623 0 0 0-3.988-4.895l-.024-.007"/></g></g></g></g></g><g clip-path="url(#w)"><g clip-path="url(#x)"><g clip-path="url(#y)"><path fill="#c7dd60" d="M636.676 274.117c1.015-3.605-1.102-7.37-4.707-8.383-3.633-1.02-7.39 1.07-8.41 4.704-1.016 3.628 1.097 7.394 4.703 8.406 3.633 1.02 7.394-1.094 8.41-4.703l.004-.024"/></g></g></g><g clip-path="url(#z)"><path fill="#c7dd60" d="M676.43 393.023H433.047a14.031 14.031 0 0 0-5.406 1.074 14.23 14.23 0 0 0-2.442 1.305 14.197 14.197 0 0 0-3.894 3.895 14.23 14.23 0 0 0-1.305 2.441 14.19 14.19 0 0 0-1.078 5.406v147.82a14.19 14.19 0 0 0 1.078 5.403 14.214 14.214 0 0 0 3.059 4.582 14.197 14.197 0 0 0 2.14 1.758c.774.516 1.586.95 2.442 1.305a14.125 14.125 0 0 0 5.406 1.074H676.43a14.144 14.144 0 0 0 5.406-1.074 14.23 14.23 0 0 0 2.441-1.305 14.197 14.197 0 0 0 2.141-1.758 14.214 14.214 0 0 0 3.059-4.582 13.88 13.88 0 0 0 .804-2.648c.18-.91.27-1.828.27-2.754v-147.82a14.031 14.031 0 0 0-1.074-5.406 13.975 13.975 0 0 0-3.063-4.578 13.975 13.975 0 0 0-4.578-3.063 14.031 14.031 0 0 0-5.406-1.075Zm9.414 161.942a9.347 9.347 0 0 1-.715 3.601 9.597 9.597 0 0 1-.871 1.63 9.52 9.52 0 0 1-2.598 2.597 9.171 9.171 0 0 1-1.629.867 9.308 9.308 0 0 1-3.601.719H433.047a9.347 9.347 0 0 1-3.602-.719 9.038 9.038 0 0 1-1.629-.867 9.52 9.52 0 0 1-2.598-2.598 9.597 9.597 0 0 1-.87-1.629 9.347 9.347 0 0 1-.715-3.602v-147.82a9.347 9.347 0 0 1 .715-3.601 9.45 9.45 0 0 1 2.043-3.055 9.18 9.18 0 0 1 1.425-1.172 9.31 9.31 0 0 1 1.63-.87 9.347 9.347 0 0 1 3.602-.715H676.43a9.347 9.347 0 0 1 3.601.714 9.45 9.45 0 0 1 3.055 2.043 9.45 9.45 0 0 1 2.578 4.82c.121.606.18 1.22.18 1.837Zm0 0"/></g><path fill="#c7dd60" d="M448.816 459.61h27.188a9.347 9.347 0 0 0 3.601-.715 9.597 9.597 0 0 0 1.63-.872 9.327 9.327 0 0 0 1.425-1.171c.438-.434.828-.91 1.172-1.426a9.31 9.31 0 0 0 .871-1.63 9.347 9.347 0 0 0 .715-3.602v-27.257a9.347 9.347 0 0 0-.715-3.601 9.597 9.597 0 0 0-.871-1.629 9.52 9.52 0 0 0-2.598-2.598 9.597 9.597 0 0 0-1.629-.87 9.347 9.347 0 0 0-3.602-.715h-27.187a9.347 9.347 0 0 0-3.601.714 9.597 9.597 0 0 0-1.63.871 9.52 9.52 0 0 0-2.598 2.598 9.597 9.597 0 0 0-.87 1.629 9.347 9.347 0 0 0-.715 3.602v27.257a9.347 9.347 0 0 0 .715 3.602 9.31 9.31 0 0 0 .871 1.629c.344.515.735.992 1.172 1.426.438.437.91.828 1.426 1.171a9.597 9.597 0 0 0 1.629.872 9.347 9.347 0 0 0 3.602.715Zm27.235-4.708h-11.297v-15.98h15.957v11.273a4.611 4.611 0 0 1-.36 1.8 4.671 4.671 0 0 1-.433.817 4.679 4.679 0 0 1-1.3 1.297 4.6 4.6 0 0 1-1.695.703c-.306.063-.61.09-.92.09Zm4.707-31.964v11.277h-16.004V418.23h11.25a4.9 4.9 0 0 1 .918.09c.305.063.598.153.883.27a4.679 4.679 0 0 1 2.547 2.547 4.698 4.698 0 0 1 .359 1.8Zm-36.649 0a4.698 4.698 0 0 1 .793-2.613 4.679 4.679 0 0 1 2.114-1.735 4.97 4.97 0 0 1 .882-.27 4.9 4.9 0 0 1 .918-.09h11.274v36.672h-11.274c-.308 0-.613-.027-.918-.09a4.6 4.6 0 0 1-1.695-.703 4.679 4.679 0 0 1-1.734-2.113 4.611 4.611 0 0 1-.36-1.8Zm.754 60.304v13.254c0 .313.059.61.18.899a2.326 2.326 0 0 0 1.273 1.273c.29.121.586.18.899.18.312 0 .613-.059.902-.18.29-.117.543-.29.762-.508.223-.223.394-.476.512-.765.12-.29.18-.586.18-.899v-13.254c0-.312-.06-.613-.18-.898a2.292 2.292 0 0 0-.512-.766 2.285 2.285 0 0 0-.762-.508 2.31 2.31 0 0 0-.902-.18c-.313 0-.61.06-.899.18-.289.118-.543.29-.765.508-.219.223-.39.477-.508.766a2.28 2.28 0 0 0-.18.898Zm19.043 0v13.254c0 .313.059.61.176.899a2.341 2.341 0 0 0 1.277 1.273c.286.121.586.18.899.18.312 0 .613-.059.902-.18a2.352 2.352 0 0 0 1.453-2.172v-13.254a2.35 2.35 0 0 0-.691-1.664 2.285 2.285 0 0 0-.762-.508 2.31 2.31 0 0 0-.902-.18c-.313 0-.613.06-.899.18a2.341 2.341 0 0 0-1.453 2.172Zm19.039 0v13.254a2.364 2.364 0 0 0 .692 1.664c.218.219.476.39.761.508.29.121.59.18.903.18.312 0 .613-.059.902-.18a2.352 2.352 0 0 0 1.453-2.172v-13.254a2.35 2.35 0 0 0-.691-1.664 2.325 2.325 0 0 0-.762-.508 2.31 2.31 0 0 0-.902-.18 2.31 2.31 0 0 0-.903.18 2.352 2.352 0 0 0-1.453 2.172Zm143.582 13.254v-13.254c0-.312-.058-.613-.175-.898a2.341 2.341 0 0 0-1.277-1.273 2.278 2.278 0 0 0-.9-.18 2.31 2.31 0 0 0-.902.18 2.352 2.352 0 0 0-1.453 2.172v13.253a2.364 2.364 0 0 0 .692 1.664c.218.219.472.39.761.508.29.121.59.18.903.18.312 0 .613-.059.898-.18a2.341 2.341 0 0 0 1.453-2.172Zm19.043 0v-13.254c0-.312-.058-.613-.18-.898a2.341 2.341 0 0 0-.507-.766 2.341 2.341 0 0 0-.766-.508 2.292 2.292 0 0 0-.898-.18 2.31 2.31 0 0 0-.903.18 2.352 2.352 0 0 0-1.453 2.172v13.254a2.352 2.352 0 0 0 3.254 2.172c.29-.117.543-.29.766-.508.219-.223.39-.476.508-.765.12-.29.18-.586.18-.899Zm19.043 0v-13.254c0-.312-.058-.613-.18-.898a2.341 2.341 0 0 0-.507-.766 2.341 2.341 0 0 0-.766-.508c-.289-.12-.59-.18-.898-.18a2.31 2.31 0 0 0-.903.18c-.289.118-.543.29-.765.508-.219.223-.39.477-.508.766a2.28 2.28 0 0 0-.18.898v13.254c0 .313.059.61.18.899a2.326 2.326 0 0 0 1.273 1.273c.29.121.59.18.903.18.308 0 .61-.059.898-.18.29-.117.543-.29.766-.508.219-.223.39-.476.508-.765.12-.29.18-.586.18-.899Zm-138.449 2.352c.313 0 .61-.059.899-.18.289-.117.542-.29.765-.508.219-.223.39-.476.508-.765.121-.29.18-.586.18-.899v-13.254a2.28 2.28 0 0 0-.18-.898 2.341 2.341 0 0 0-.508-.766 2.341 2.341 0 0 0-.765-.508 2.292 2.292 0 0 0-.899-.18 2.31 2.31 0 0 0-.902.18 2.352 2.352 0 0 0-1.453 2.172v13.254a2.352 2.352 0 0 0 2.355 2.352Zm19.16 0c.313 0 .61-.059.899-.18.289-.117.543-.29.765-.508.219-.223.39-.476.508-.765.121-.29.18-.586.18-.899v-13.254a2.28 2.28 0 0 0-.18-.898 2.341 2.341 0 0 0-.508-.766 2.341 2.341 0 0 0-.765-.508 2.292 2.292 0 0 0-.899-.18 2.31 2.31 0 0 0-.902.18 2.352 2.352 0 0 0-1.453 2.172v13.254a2.352 2.352 0 0 0 2.355 2.352Zm18.946 0c.312 0 .613-.059.902-.18a2.352 2.352 0 0 0 1.453-2.172v-13.254a2.352 2.352 0 0 0-3.254-2.172c-.289.118-.543.29-.766.508-.218.223-.39.477-.507.766a2.28 2.28 0 0 0-.18.898v13.254c0 .313.059.61.18.899.117.289.289.543.507.765.223.219.477.39.766.508.29.121.586.18.899.18Zm19.043 0c.312 0 .613-.059.902-.18a2.352 2.352 0 0 0 1.453-2.172v-13.254a2.35 2.35 0 0 0-.691-1.664 2.285 2.285 0 0 0-.762-.508 2.31 2.31 0 0 0-.903-.18c-.312 0-.613.06-.898.18a2.341 2.341 0 0 0-1.453 2.172v13.254c0 .313.059.61.176.899a2.341 2.341 0 0 0 1.277 1.273c.285.121.586.18.899.18Zm1.46 26.929h-143.02c-.308 0-.608.059-.898.18-.289.117-.543.29-.765.508-.219.222-.39.476-.508.765-.121.29-.18.586-.18.899 0 .312.059.613.18.902a2.352 2.352 0 0 0 2.172 1.453h143.02c.312 0 .613-.058.898-.18a2.352 2.352 0 0 0 1.273-3.074 2.341 2.341 0 0 0-.508-.765 2.341 2.341 0 0 0-.765-.508 2.278 2.278 0 0 0-.899-.18Zm-40.039 18.102h-102.98c-.309 0-.61.058-.899.176a2.341 2.341 0 0 0-1.273 1.277 2.28 2.28 0 0 0-.18.898c0 .313.059.614.18.903a2.352 2.352 0 0 0 2.172 1.453h102.98a2.336 2.336 0 0 0 1.664-.691c.223-.22.391-.473.512-.762a2.35 2.35 0 0 0-.512-2.566 2.399 2.399 0 0 0-.761-.512 2.38 2.38 0 0 0-.903-.176Zm122.985-18.102h-51.121a2.31 2.31 0 0 0-.903.18c-.289.117-.543.29-.761.508a2.292 2.292 0 0 0-.512.765c-.121.29-.18.586-.18.899v18.055c0 .312.059.613.18.902a2.352 2.352 0 0 0 2.176 1.453h51.12a2.352 2.352 0 0 0 2.355-2.355l.001-18.055c0-.313-.058-.61-.18-.899a2.341 2.341 0 0 0-.507-.765 2.341 2.341 0 0 0-.766-.508 2.31 2.31 0 0 0-.902-.18Zm-2.352 18.051H618.95v-13.344h46.418Zm2.352-130.305h-51.121a2.31 2.31 0 0 0-.903.18 2.33 2.33 0 0 0-1.273 1.274c-.121.289-.18.59-.18.902 0 .308.059.61.18.898a2.33 2.33 0 0 0 1.273 1.274c.29.12.59.18.903.18h51.12c.313 0 .614-.06.903-.18.29-.117.543-.29.766-.508a2.373 2.373 0 0 0 .688-1.664 2.31 2.31 0 0 0-.18-.902 2.341 2.341 0 0 0-.508-.766 2.341 2.341 0 0 0-.766-.508 2.31 2.31 0 0 0-.902-.18ZM324.456 667.14c4.562 0 8.086.952 10.578 2.859 2.5 1.906 3.75 4.75 3.75 8.53 0 4.024-1.305 7.016-3.906 8.985-2.606 1.961-6.063 2.938-10.375 2.938h-4.657v13.53h-5.078V667.14Zm-.156 19.296c2.957 0 5.21-.566 6.765-1.703 1.55-1.145 2.328-3.195 2.328-6.156 0-2.633-.777-4.54-2.328-5.72-1.555-1.175-3.777-1.765-6.672-1.765h-4.547v15.344Zm31.864-11.281c3.957 0 7.031 1.324 9.219 3.969 2.195 2.636 3.297 6.214 3.297 10.734 0 2.93-.5 5.508-1.5 7.734-1 2.23-2.45 3.961-4.344 5.188-1.887 1.226-4.125 1.844-6.719 1.844-3.96 0-7.047-1.317-9.265-3.954-2.211-2.644-3.313-6.226-3.313-10.75 0-2.925.5-5.503 1.5-7.734 1-2.227 2.441-3.957 4.328-5.187 1.895-1.227 4.16-1.844 6.797-1.844Zm0 3.953c-4.887 0-7.328 3.605-7.328 10.812 0 7.168 2.426 10.75 7.281 10.75 4.844 0 7.266-3.601 7.266-10.812 0-7.164-2.406-10.75-7.219-10.75Zm32.884-3.953c1 0 1.926.11 2.782.328l-.907 4.812a9.966 9.966 0 0 0-2.468-.328c-1.743 0-3.149.649-4.22 1.938-1.073 1.281-1.913 3.277-2.515 5.984v16.094h-4.922v-28.188h4.235l.468 5.72c.75-2.102 1.766-3.688 3.047-4.75 1.29-1.071 2.79-1.61 4.5-1.61Zm22.625 27.547c-1.855 1.28-3.96 1.922-6.312 1.922-2.399 0-4.262-.68-5.594-2.047-1.336-1.375-2-3.364-2-5.97v-17.015h-4.922v-3.797h4.922v-6.359l4.922-.594v6.953h6.687l-.547 3.797h-6.14v16.797c0 1.461.254 2.524.765 3.188.52.656 1.383.984 2.594.984 1.102 0 2.352-.375 3.75-1.125Zm15.663-27.547c3.957 0 7.031 1.324 9.219 3.969 2.195 2.636 3.297 6.214 3.297 10.734 0 2.93-.5 5.508-1.5 7.734-1 2.23-2.45 3.961-4.344 5.188-1.887 1.226-4.125 1.844-6.719 1.844-3.96 0-7.047-1.317-9.265-3.954-2.211-2.644-3.313-6.226-3.313-10.75 0-2.925.5-5.503 1.5-7.734 1-2.227 2.442-3.957 4.328-5.187 1.895-1.227 4.16-1.844 6.797-1.844Zm0 3.953c-4.887 0-7.328 3.605-7.328 10.812 0 7.168 2.426 10.75 7.281 10.75 4.844 0 7.266-3.601 7.266-10.812 0-7.164-2.406-10.75-7.219-10.75Zm30.213-11.281c-1.5 0-2.575.336-3.22 1-.636.656-.952 1.68-.952 3.062v3.906h6.844l-.532 3.797h-6.312v24.39h-4.922v-24.39h-5.031v-3.797h5.03v-3.843c0-2.426.774-4.38 2.329-5.86 1.55-1.476 3.719-2.218 6.5-2.218 1.281 0 2.426.117 3.438.343 1.019.23 2.117.594 3.296 1.094l-1.546 3.594c-1.606-.719-3.247-1.078-4.922-1.078Zm29.631 21.234c0 .824-.038 1.664-.109 2.516h-17.968c.207 3.105.988 5.386 2.343 6.843 1.352 1.461 3.102 2.188 5.25 2.188 1.352 0 2.598-.191 3.735-.578 1.144-.395 2.343-1.02 3.593-1.875l2.141 2.937c-3 2.356-6.281 3.532-9.844 3.532-3.93 0-6.992-1.282-9.187-3.844-2.188-2.57-3.281-6.102-3.281-10.594 0-2.926.472-5.52 1.421-7.781.946-2.27 2.301-4.047 4.063-5.328 1.758-1.282 3.836-1.922 6.234-1.922 3.739 0 6.61 1.23 8.61 3.687 2 2.461 3 5.867 3 10.219Zm-4.874-1.437c0-2.782-.555-4.899-1.657-6.36-1.105-1.469-2.761-2.203-4.968-2.203-4.032 0-6.227 2.961-6.578 8.875h13.203Zm18.345 17c-1.824 0-3.261-.543-4.312-1.625-1.055-1.094-1.578-2.618-1.578-4.579v-33.968l4.922-.578v34.437c0 .781.129 1.356.39 1.719.27.355.727.531 1.375.531.676 0 1.282-.11 1.813-.328l1.281 3.422c-1.168.644-2.465.969-3.89.969Zm31.339-15.563c0 .824-.038 1.664-.109 2.516h-17.968c.207 3.105.988 5.386 2.343 6.843 1.352 1.461 3.102 2.188 5.25 2.188 1.352 0 2.598-.191 3.735-.578 1.144-.395 2.344-1.02 3.594-1.875l2.14 2.937c-3 2.356-6.281 3.532-9.844 3.532-3.93 0-6.992-1.282-9.187-3.844-2.188-2.57-3.281-6.102-3.281-10.594 0-2.926.472-5.52 1.422-7.781.945-2.27 2.3-4.047 4.062-5.328 1.758-1.282 3.836-1.922 6.234-1.922 3.739 0 6.61 1.23 8.61 3.687 2 2.461 3 5.867 3 10.219Zm-4.874-1.437c0-2.782-.555-4.899-1.656-6.36-1.106-1.469-2.762-2.203-4.97-2.203-4.03 0-6.226 2.961-6.577 8.875h13.203Zm14.002 9.562c1.07 0 1.96.36 2.672 1.078.718.711 1.078 1.578 1.078 2.61 0 1.117-.324 2.382-.969 3.796l-3.578 8.188h-3.531l2.14-8.875a3.774 3.774 0 0 1-1.109-1.328 4.023 4.023 0 0 1-.39-1.781c0-1.032.35-1.899 1.062-2.61.719-.719 1.594-1.078 2.625-1.078Zm47.55-32.734v39.53h-4.328l-.484-3.905c-.93 1.43-2.09 2.543-3.484 3.343-1.387.801-2.938 1.204-4.657 1.204-3.343 0-5.953-1.317-7.828-3.954-1.875-2.644-2.812-6.191-2.812-10.64 0-2.895.441-5.461 1.328-7.703.894-2.25 2.18-4.004 3.86-5.266 1.675-1.27 3.64-1.906 5.89-1.906 2.883 0 5.414 1.156 7.594 3.469v-14.75Zm-11.875 36.265c1.5 0 2.782-.343 3.844-1.031 1.07-.695 2.11-1.742 3.11-3.14v-13.797c-.93-1.207-1.918-2.125-2.97-2.75-1.054-.625-2.241-.938-3.562-.938-2.18 0-3.867.914-5.062 2.734-1.188 1.813-1.781 4.524-1.781 8.125 0 3.637.55 6.344 1.656 8.125 1.101 1.782 2.691 2.672 4.765 2.672Zm32.617-25.562c3.958 0 7.032 1.324 9.22 3.969 2.195 2.636 3.296 6.214 3.296 10.734 0 2.93-.5 5.508-1.5 7.734-1 2.23-2.449 3.961-4.343 5.188-1.887 1.226-4.125 1.844-6.72 1.844-3.96 0-7.046-1.317-9.265-3.954-2.21-2.644-3.312-6.226-3.312-10.75 0-2.925.5-5.503 1.5-7.734 1-2.227 2.441-3.957 4.328-5.187 1.894-1.227 4.16-1.844 6.797-1.844Zm0 3.953c-4.886 0-7.327 3.605-7.327 10.812 0 7.168 2.425 10.75 7.28 10.75 4.845 0 7.266-3.601 7.266-10.812 0-7.164-2.406-10.75-7.218-10.75Zm30.9-3.953c1.676 0 3.208.242 4.594.719 1.395.48 2.739 1.257 4.032 2.328l-2.36 3.109c-1-.719-1.976-1.242-2.922-1.578-.937-.344-1.98-.516-3.125-.516-2.28 0-4.058.914-5.328 2.735-1.261 1.812-1.89 4.507-1.89 8.078 0 3.562.625 6.195 1.875 7.89 1.25 1.688 3.03 2.532 5.343 2.532 1.102 0 2.118-.164 3.047-.5.926-.344 1.961-.891 3.11-1.641l2.25 3.219c-2.575 2.062-5.45 3.094-8.625 3.094-3.813 0-6.82-1.282-9.016-3.844-2.188-2.57-3.281-6.125-3.281-10.656 0-2.989.5-5.602 1.5-7.844 1-2.25 2.414-4 4.25-5.25 1.832-1.25 4.015-1.875 6.547-1.875Zm36.264 28.828h-4.22l-.374-4.39c-1.074 1.75-2.309 3.027-3.703 3.827-1.387.801-3.078 1.204-5.078 1.204-2.461 0-4.387-.743-5.782-2.235-1.386-1.5-2.078-3.625-2.078-6.375v-20.219h4.922v19.688c0 1.93.336 3.293 1.016 4.094.676.804 1.781 1.203 3.312 1.203 2.75 0 5.102-1.625 7.063-4.875v-20.11h4.922Zm38.449-28.828c2.312 0 4.16.777 5.547 2.328 1.394 1.555 2.094 3.648 2.094 6.281v20.219h-4.907v-19.516c0-3.644-1.324-5.468-3.968-5.468-1.387 0-2.563.402-3.532 1.203-.96.804-1.992 2.062-3.093 3.78v20h-4.922v-19.515c0-3.644-1.32-5.468-3.953-5.468-1.43 0-2.625.414-3.594 1.234-.961.824-1.977 2.074-3.047 3.75v20h-4.922v-28.188h4.234l.422 4.125c2.102-3.175 4.813-4.765 8.125-4.765 1.75 0 3.239.449 4.47 1.344 1.226.886 2.112 2.132 2.655 3.734 1.102-1.633 2.32-2.89 3.657-3.766 1.332-.875 2.91-1.312 4.734-1.312Zm38.826 13.906c0 .824-.039 1.664-.11 2.516h-17.968c.207 3.105.988 5.386 2.344 6.843 1.351 1.461 3.101 2.188 5.25 2.188 1.351 0 2.597-.191 3.734-.578 1.145-.395 2.344-1.02 3.594-1.875l2.14 2.937c-3 2.356-6.28 3.532-9.843 3.532-3.93 0-6.993-1.282-9.188-3.844-2.187-2.57-3.281-6.102-3.281-10.594 0-2.926.473-5.52 1.422-7.781.945-2.27 2.3-4.047 4.062-5.328 1.758-1.282 3.836-1.922 6.235-1.922 3.738 0 6.609 1.23 8.609 3.687 2 2.461 3 5.867 3 10.219Zm-4.875-1.437c0-2.782-.555-4.899-1.656-6.36-1.106-1.469-2.762-2.203-4.969-2.203-4.031 0-6.227 2.961-6.578 8.875h13.203Zm25.986-12.469c2.57 0 4.579.765 6.016 2.297 1.445 1.53 2.172 3.636 2.172 6.312v20.219h-4.922v-19.516c0-2-.375-3.41-1.125-4.234-.75-.82-1.855-1.234-3.312-1.234-1.5 0-2.825.433-3.97 1.296-1.136.856-2.202 2.086-3.202 3.688v20h-4.922v-28.188h4.234l.422 4.172c1-1.5 2.238-2.675 3.719-3.531 1.476-.852 3.11-1.281 4.89-1.281Zm32.304 27.547c-1.855 1.28-3.96 1.922-6.312 1.922-2.399 0-4.262-.68-5.594-2.047-1.336-1.375-2-3.364-2-5.97v-17.015h-4.922v-3.797h4.922v-6.359l4.922-.594v6.953h6.687l-.547 3.797h-6.14v16.797c0 1.461.254 2.524.765 3.188.52.656 1.383.984 2.594.984 1.102 0 2.352-.375 3.75-1.125Zm26.366-13.641c0 .824-.039 1.664-.11 2.516h-17.968c.207 3.105.988 5.386 2.344 6.843 1.351 1.461 3.101 2.188 5.25 2.188 1.351 0 2.598-.191 3.734-.578 1.145-.395 2.344-1.02 3.594-1.875l2.14 2.937c-3 2.356-6.28 3.532-9.843 3.532-3.93 0-6.992-1.282-9.188-3.844-2.187-2.57-3.28-6.102-3.28-10.594 0-2.926.472-5.52 1.421-7.781.945-2.27 2.3-4.047 4.062-5.328 1.758-1.282 3.836-1.922 6.235-1.922 3.738 0 6.61 1.23 8.61 3.687 2 2.461 3 5.867 3 10.219Zm-4.875-1.437c0-2.782-.554-4.899-1.656-6.36-1.105-1.469-2.762-2.203-4.969-2.203-4.031 0-6.226 2.961-6.578 8.875h13.203Zm34.547-12.469c1.926 0 3.657.273 5.188.812 1.531.532 2.988 1.328 4.375 2.39l-2.078 3.11c-1.281-.82-2.508-1.425-3.672-1.812a11.245 11.245 0 0 0-3.656-.594c-1.606 0-2.871.336-3.797 1-.93.656-1.39 1.555-1.39 2.688 0 1.148.437 2.043 1.312 2.687.875.637 2.453 1.258 4.734 1.86 3.133.78 5.477 1.851 7.031 3.203 1.551 1.355 2.328 3.21 2.328 5.562 0 2.781-1.078 4.906-3.234 6.375-2.156 1.461-4.789 2.188-7.89 2.188-4.282 0-7.829-1.227-10.641-3.688l2.61-3c2.394 1.824 5.034 2.734 7.921 2.734 1.852 0 3.32-.378 4.406-1.14 1.094-.77 1.641-1.817 1.641-3.14 0-.958-.2-1.727-.594-2.313-.398-.594-1.074-1.114-2.031-1.563-.961-.445-2.367-.922-4.219-1.422-3-.781-5.172-1.832-6.515-3.156-1.336-1.32-2-3-2-5.031 0-1.457.437-2.781 1.312-3.969.875-1.195 2.086-2.125 3.64-2.781 1.551-.664 3.29-1 5.22-1Zm-.015 32.953c.851 0 1.57.281 2.156.844.594.57.89 1.285.89 2.14 0 .469-.1.985-.296 1.547-.188.57-.555 1.43-1.094 2.578l-2.187 4.594h-2.829l1.547-6.203c-.855-.75-1.28-1.59-1.28-2.516 0-.855.3-1.57.905-2.14.602-.563 1.332-.844 2.188-.844Zm22.253-32.313v28.188h-4.922v-28.188Zm-2.516-13.53c1.031 0 1.863.323 2.5.968.645.637.969 1.437.969 2.406 0 .961-.324 1.75-.969 2.375-.637.625-1.469.938-2.5.938-1 0-1.824-.313-2.469-.938-.636-.625-.953-1.414-.953-2.375 0-.969.317-1.77.953-2.406.645-.645 1.47-.969 2.47-.969Zm37.109 12.89c1.676 0 3.207.242 4.594.719 1.394.48 2.738 1.257 4.031 2.328l-2.36 3.109c-1-.719-1.976-1.242-2.921-1.578-.938-.344-1.98-.516-3.125-.516-2.281 0-4.059.914-5.328 2.735-1.262 1.812-1.89 4.507-1.89 8.078 0 3.562.624 6.195 1.874 7.89 1.25 1.688 3.031 2.532 5.344 2.532 1.101 0 2.117-.164 3.047-.5.926-.344 1.96-.891 3.11-1.641l2.25 3.219c-2.575 2.062-5.45 3.094-8.626 3.094-3.812 0-6.82-1.282-9.016-3.844-2.187-2.57-3.28-6.125-3.28-10.656 0-2.989.5-5.602 1.5-7.844 1-2.25 2.413-4 4.25-5.25 1.831-1.25 4.015-1.875 6.546-1.875Zm34.279 22.25c0 1.148.195 1.996.594 2.547.394.554.984.968 1.765 1.25l-1.125 3.422c-1.46-.18-2.637-.586-3.531-1.22-.887-.644-1.543-1.644-1.969-3-1.898 2.813-4.699 4.22-8.406 4.22-2.781 0-4.977-.782-6.578-2.344-1.606-1.57-2.406-3.625-2.406-6.156 0-3 1.078-5.301 3.234-6.907 2.156-1.601 5.21-2.406 9.172-2.406h4.328v-2.078c0-2-.48-3.426-1.438-4.281-.96-.852-2.437-1.282-4.437-1.282-2.074 0-4.606.5-7.594 1.5l-1.234-3.593c3.5-1.282 6.742-1.922 9.734-1.922 3.313 0 5.785.812 7.422 2.437 1.645 1.617 2.469 3.922 2.469 6.922Zm-11.547 3.531c2.812 0 5.02-1.46 6.625-4.39v-6.47h-3.688c-5.21 0-7.812 1.93-7.812 5.782 0 1.68.41 2.945 1.234 3.797.82.855 2.035 1.281 3.641 1.281Zm33.902-25.781c1 0 1.925.11 2.78.328l-.905 4.812a9.966 9.966 0 0 0-2.47-.328c-1.741 0-3.148.649-4.218 1.938-1.074 1.281-1.914 3.277-2.516 5.984v16.094h-4.921v-28.188h4.234l.469 5.72c.75-2.102 1.765-3.688 3.047-4.75 1.289-1.071 2.789-1.61 4.5-1.61Zm30.218-10.703v39.53h-4.328l-.484-3.905c-.93 1.43-2.09 2.543-3.485 3.343-1.386.801-2.937 1.204-4.656 1.204-3.344 0-5.953-1.317-7.828-3.954-1.875-2.644-2.813-6.191-2.813-10.64 0-2.895.442-5.461 1.329-7.703.894-2.25 2.18-4.004 3.859-5.266 1.676-1.27 3.64-1.906 5.89-1.906 2.883 0 5.415 1.156 7.594 3.469v-14.75Zm-11.875 36.265c1.5 0 2.781-.343 3.844-1.031 1.07-.695 2.11-1.742 3.11-3.14v-13.797c-.93-1.207-1.919-2.125-2.97-2.75-1.054-.625-2.242-.938-3.562-.938-2.18 0-3.867.914-5.062 2.734-1.188 1.813-1.782 4.524-1.782 8.125 0 3.637.551 6.344 1.657 8.125 1.101 1.782 2.691 2.672 4.765 2.672Zm42.992 3.266h-4.218l-.375-4.39c-1.074 1.75-2.309 3.027-3.703 3.827-1.387.801-3.079 1.204-5.079 1.204-2.46 0-4.386-.743-5.78-2.235-1.387-1.5-2.079-3.625-2.079-6.375v-20.219h4.922v19.688c0 1.93.336 3.293 1.016 4.094.675.804 1.78 1.203 3.312 1.203 2.75 0 5.102-1.625 7.063-4.875v-20.11h4.921Zm22.403-28.828c1 0 1.926.11 2.781.328l-.906 4.812a9.966 9.966 0 0 0-2.469-.328c-1.742 0-3.148.649-4.219 1.938-1.074 1.281-1.914 3.277-2.515 5.984v16.094h-4.922v-28.188h4.234l.469 5.72c.75-2.102 1.766-3.688 3.047-4.75 1.289-1.071 2.789-1.61 4.5-1.61Zm13.312.64v28.188h-4.922v-28.188Zm-2.515-13.53c1.03 0 1.863.323 2.5.968.644.637.968 1.437.968 2.406 0 .961-.324 1.75-.968 2.375-.637.625-1.47.938-2.5.938-1 0-1.825-.313-2.47-.938-.636-.625-.952-1.414-.952-2.375 0-.969.316-1.77.953-2.406.644-.645 1.469-.969 2.469-.969Zm0 0"/></svg>